<?xml version="1.0" standalone="no"?>
<!DOCTYPE svg PUBLIC "-//W3C//DTD SVG 20010904//EN"
 "http://www.w3.org/TR/2001/REC-SVG-20010904/DTD/svg10.dtd">
<svg version="1.0" xmlns="http://www.w3.org/2000/svg"
 width="1024.000000pt" height="1024.000000pt" viewBox="0 0 1024.000000 1024.000000"
 preserveAspectRatio="xMidYMid meet">
<metadata>
Created by potrace 1.11, written by Peter Selinger 2001-2013
</metadata>
<g transform="translate(0.000000,1024.000000) scale(0.100000,-0.100000)"
fill="#000000" stroke="none">
<path d="M4598 10075 c-1 -2 -16 -5 -33 -8 -16 -3 -55 -10 -85 -16 -49 -9 -94
-17 -140 -25 -8 -1 -28 -6 -45 -9 -38 -9 -73 -17 -105 -23 -43 -8 -238 -65
-325 -94 -46 -15 -87 -25 -90 -22 -3 3 -5 0 -5 -6 0 -7 -6 -12 -14 -12 -28 0
-452 -180 -466 -199 -3 -3 -34 -20 -70 -38 -36 -18 -86 -45 -112 -60 -25 -15
-72 -43 -104 -62 -32 -18 -64 -39 -72 -47 -7 -8 -20 -14 -28 -14 -8 0 -14 -4
-14 -8 0 -4 -15 -16 -32 -27 -18 -10 -42 -27 -52 -37 -11 -10 -25 -18 -32 -18
-7 0 -14 -3 -16 -7 -1 -5 -28 -27 -58 -49 -30 -23 -65 -50 -77 -60 -12 -11
-37 -30 -54 -44 -18 -14 -43 -34 -55 -45 -13 -11 -49 -42 -80 -70 -74 -64
-285 -276 -344 -345 -25 -29 -53 -62 -64 -74 -10 -12 -60 -75 -110 -141 -216
-281 -391 -588 -535 -940 -45 -109 -91 -242 -132 -382 -31 -107 -36 -125 -45
-173 -3 -14 -7 -33 -10 -42 -3 -9 -7 -27 -9 -40 -3 -13 -9 -45 -15 -73 -15
-75 -19 -95 -25 -140 -3 -22 -8 -47 -10 -55 -2 -8 -7 -40 -11 -70 -3 -30 -8
-66 -9 -80 -30 -235 -25 -785 9 -975 3 -16 7 -50 10 -75 3 -25 9 -58 12 -75 3
-16 7 -39 9 -50 12 -77 21 -117 55 -255 42 -167 107 -379 121 -394 5 -6 9 -17
9 -26 0 -14 48 -135 85 -216 42 -91 76 -169 75 -173 -1 -2 2 -7 7 -10 4 -3 18
-26 31 -51 12 -25 38 -72 57 -105 19 -33 38 -67 42 -75 4 -8 22 -38 40 -67 18
-29 33 -56 33 -62 0 -5 3 -11 8 -13 4 -1 32 -39 61 -83 30 -44 76 -108 103
-142 26 -35 48 -67 48 -72 0 -5 4 -11 8 -13 4 -1 32 -32 61 -68 30 -36 57 -67
60 -70 3 -3 30 -34 60 -68 162 -190 458 -452 691 -612 36 -25 67 -48 68 -52 2
-5 8 -8 13 -8 6 0 36 -17 67 -39 124 -84 495 -279 602 -316 3 -1 19 -7 35 -14
47 -20 216 -83 228 -86 7 -1 19 -5 27 -9 16 -7 143 -44 173 -51 9 -2 21 -7 27
-10 11 -7 69 21 71 35 1 6 2 16 3 23 5 31 -18 84 -46 109 -18 17 -68 40 -122
57 -119 39 -251 87 -289 106 -16 8 -33 15 -38 15 -8 0 -172 74 -204 92 -11 6
-67 36 -124 65 -58 30 -158 89 -224 131 -65 43 -126 82 -135 87 -9 6 -29 19
-43 30 -15 11 -39 29 -55 40 -205 145 -503 427 -670 635 -16 19 -31 37 -34 40
-3 3 -21 27 -40 53 -19 27 -43 56 -52 65 -10 9 -18 22 -18 28 0 7 -4 14 -8 16
-11 4 -117 162 -180 268 -102 171 -272 524 -272 565 0 7 -4 15 -8 17 -10 4
-89 240 -127 381 -26 96 -30 113 -41 171 -2 16 -7 32 -9 36 -4 6 -12 47 -20
95 -7 45 -16 102 -20 125 -2 14 -7 43 -9 65 -3 22 -9 74 -15 115 -5 41 -9 82
-9 90 0 8 -3 74 -7 145 -4 72 -7 150 -7 175 0 63 13 350 17 380 2 14 6 50 9
80 6 51 9 66 21 138 2 15 7 47 10 72 3 24 9 60 15 80 5 19 11 49 13 65 8 52
74 296 112 409 75 228 187 482 290 661 19 33 41 71 47 85 7 14 15 27 18 30 3
3 19 27 35 54 222 366 572 750 930 1020 33 25 65 49 70 54 55 46 305 201 434
270 140 74 172 89 366 172 18 7 51 20 65 25 3 1 12 4 20 8 133 51 328 111 430
132 8 2 15 4 15 5 0 1 12 4 28 6 15 3 77 16 139 29 61 14 113 24 114 22 4 -3
7 -317 4 -332 -1 -5 -1 -14 0 -20 2 -14 3 -88 0 -100 -1 -5 -1 -13 0 -17 1 -5
2 -27 2 -50 1 -71 28 -107 86 -115 32 -3 51 5 142 61 58 36 130 80 160 97 30
18 57 36 60 40 3 4 23 16 45 28 22 12 106 63 186 114 81 51 230 144 332 207
145 90 190 123 206 151 23 40 21 71 -7 109 -30 40 -72 47 -129 19 -26 -12 -51
-27 -54 -31 -3 -5 -20 -17 -37 -26 -29 -15 -213 -130 -554 -344 -146 -92 -223
-138 -231 -138 -3 0 -5 108 -5 240 0 254 -5 288 -45 308 -30 14 -54 21 -59 17z"/>
<path d="M6163 9948 c-32 -16 -43 -57 -28 -100 21 -64 30 -69 215 -131 74 -25
153 -54 175 -63 22 -10 42 -18 45 -19 3 -1 18 -7 33 -13 16 -7 30 -12 32 -12
12 0 257 -121 350 -172 141 -79 338 -207 451 -294 49 -37 91 -71 94 -74 3 -3
16 -13 29 -22 69 -48 340 -310 442 -428 31 -36 86 -103 123 -150 86 -110 78
-100 106 -140 13 -19 30 -41 37 -48 7 -7 13 -17 13 -22 0 -5 6 -15 13 -22 14
-16 13 -15 112 -178 68 -113 150 -271 218 -420 22 -49 44 -105 94 -235 34 -91
108 -340 128 -435 2 -8 8 -35 14 -60 15 -67 21 -101 26 -140 3 -19 8 -46 11
-60 3 -14 8 -38 10 -55 2 -16 6 -50 9 -75 3 -25 8 -61 10 -80 3 -19 7 -66 10
-104 2 -38 7 -71 9 -74 3 -2 1 -13 -4 -23 -6 -10 -6 -20 -2 -23 5 -3 7 -101 6
-218 -2 -196 -6 -275 -18 -383 -20 -176 -22 -191 -46 -310 -5 -27 -12 -61 -14
-75 -3 -14 -7 -34 -10 -45 -19 -84 -28 -122 -31 -136 -2 -9 -18 -63 -35 -120
-18 -57 -33 -108 -35 -114 -1 -5 -5 -17 -8 -25 -4 -8 -18 -49 -33 -90 -25 -73
-37 -104 -64 -165 -8 -16 -14 -32 -15 -35 -14 -46 -107 -234 -183 -370 -116
-209 -312 -487 -459 -652 -69 -78 -320 -326 -382 -378 -29 -25 -58 -50 -65
-55 -6 -6 -38 -31 -71 -55 -33 -25 -71 -55 -85 -67 -14 -13 -28 -23 -32 -23
-3 0 -13 -6 -20 -13 -21 -21 -212 -144 -312 -201 -208 -120 -475 -240 -693
-311 -62 -20 -115 -36 -118 -36 -2 0 -23 -6 -45 -14 -43 -15 -344 -84 -395
-91 l-30 -4 1 278 c0 155 -4 286 -9 297 -20 43 -50 65 -87 65 -20 0 -41 -5
-48 -12 -7 -7 -12 -9 -12 -5 0 4 -6 3 -12 -3 -18 -14 -70 -48 -158 -100 -41
-25 -79 -48 -85 -53 -5 -5 -80 -51 -165 -104 -85 -53 -177 -110 -205 -128 -27
-17 -129 -80 -225 -140 -198 -122 -209 -130 -222 -165 -17 -44 -17 -57 3 -89
19 -32 53 -51 91 -51 11 0 144 78 296 172 151 95 290 182 308 193 19 11 97 59
173 108 76 48 142 87 145 87 3 0 6 -108 6 -241 0 -273 5 -299 65 -319 26 -9
47 -6 116 14 51 14 88 20 95 15 9 -8 205 27 269 48 11 3 31 7 45 8 14 1 38 7
53 14 16 6 32 11 36 11 4 0 70 20 147 45 121 39 194 64 294 103 14 5 29 10 33
10 4 0 18 7 30 14 12 8 63 31 112 53 50 21 95 42 100 46 6 4 48 27 95 51 107
56 183 100 290 168 83 53 254 173 276 194 7 6 24 20 40 31 36 26 146 118 208
175 89 81 296 291 296 301 0 5 4 9 8 9 20 0 345 423 384 500 7 14 22 39 34 55
48 67 214 378 214 401 0 8 5 14 10 14 6 0 10 5 10 11 0 5 11 34 24 62 34 75
106 256 106 267 0 5 5 21 12 37 6 15 12 30 13 33 1 3 14 45 29 94 16 49 29 94
31 100 1 6 5 18 8 26 8 22 54 218 63 270 2 14 7 36 11 50 3 14 7 32 8 40 1 8
5 38 10 65 21 141 26 184 41 345 10 102 10 502 0 625 -11 138 -22 235 -32 290
-2 11 -7 40 -10 65 -3 25 -8 54 -11 65 -2 11 -6 34 -9 50 -2 17 -9 44 -14 60
-5 17 -12 46 -14 65 -3 19 -10 53 -16 75 -6 22 -13 49 -15 60 -3 11 -21 72
-41 135 -20 63 -39 125 -41 138 -3 12 -9 25 -14 28 -5 3 -9 15 -9 28 0 12 -4
26 -9 32 -5 5 -14 27 -21 49 -33 101 -201 453 -266 557 -13 21 -24 40 -24 43
0 3 -9 18 -19 33 -10 15 -45 68 -77 117 -75 118 -234 332 -286 387 -10 10 -18
20 -18 22 0 12 -334 355 -406 416 -29 25 -125 105 -154 127 -8 6 -35 28 -60
47 -25 20 -49 40 -55 44 -88 67 -321 216 -450 287 -75 42 -282 145 -290 145
-2 0 -32 13 -67 29 -136 62 -439 167 -508 176 -19 3 -45 0 -57 -7z"/>
<path d="M5896 6421 c-64 -39 -67 -128 -5 -172 29 -20 41 -21 417 -21 427 0
434 -1 470 -62 27 -46 23 -118 -9 -152 -13 -14 -33 -31 -44 -37 -14 -8 -144
-11 -410 -12 -265 -1 -396 -4 -410 -12 -60 -33 -78 -106 -39 -153 13 -15 37
-32 52 -37 28 -9 768 -9 812 1 81 17 124 39 178 93 66 66 94 130 100 223 3 59
-1 87 -17 130 -37 98 -135 188 -236 215 -16 5 -211 9 -432 10 -340 1 -406 -1
-427 -14z"/>
<path d="M4155 6396 c-16 -8 -156 -87 -310 -176 -154 -90 -305 -176 -335 -193
-30 -17 -78 -46 -107 -64 -29 -18 -56 -33 -61 -33 -4 0 -24 -12 -43 -26 -19
-14 -40 -29 -47 -33 -7 -4 -15 -26 -18 -48 -4 -38 -1 -45 31 -77 20 -20 45
-36 56 -36 16 0 179 91 629 353 19 11 46 27 60 34 14 8 41 23 60 35 19 11 55
32 80 46 97 54 120 72 126 100 3 15 7 33 10 40 2 6 -1 12 -6 12 -6 0 -10 9
-10 20 0 20 -40 52 -69 56 -9 2 -29 -3 -46 -10z"/>
<path d="M4572 6393 c-19 -9 -36 -29 -45 -51 -31 -79 29 -145 132 -144 25 0
80 0 121 1 41 0 95 -1 120 -2 25 -1 53 1 63 6 9 4 17 4 17 0 0 -4 86 -7 192
-6 144 1 200 -2 224 -12 95 -39 97 -187 4 -232 -31 -15 -79 -17 -427 -17
l-393 -1 -25 -25 c-37 -37 -46 -78 -26 -120 29 -62 34 -63 450 -61 438 1 405
0 456 14 113 31 228 152 239 251 1 15 5 28 8 31 8 8 -1 106 -13 145 -18 55
-67 127 -112 162 -23 18 -70 43 -105 54 -61 21 -81 22 -457 22 -324 0 -398 -3
-423 -15z"/>
<path d="M3864 1250 c-11 -4 -28 -20 -37 -34 -43 -65 3 -145 85 -147 24 0 584
-1 1245 -1 1095 0 1203 2 1226 17 55 35 57 112 5 155 -22 19 -59 19 -1263 19
-682 0 -1249 -4 -1261 -9z"/>
<path d="M4666 403 c-1 -1 -21 -3 -45 -4 -55 -4 -99 -43 -96 -86 3 -48 4 -51
30 -79 l25 -27 540 1 540 0 29 24 c34 27 40 49 28 100 -16 66 -37 70 -350 70
-150 0 -276 -1 -282 -2 -5 -1 -14 -1 -20 0 -10 2 -128 1 -143 -1 -4 -1 -9 -1
-12 0 -7 3 -241 6 -244 4z"/>
</g>
</svg>
