<?xml version="1.0" standalone="no"?>
<!DOCTYPE svg PUBLIC "-//W3C//DTD SVG 1.1//EN" "http://www.w3.org/Graphics/SVG/1.1/DTD/svg11.dtd" >
<svg xmlns="http://www.w3.org/2000/svg" xmlns:xlink="http://www.w3.org/1999/xlink" version="1.1">
<metadata>
Created by FontForge 20170731 at Tue Jan  5 21:45:24 2016
 By ,,,
Copyright (c) 2015 by Radomir Tinkov. All rights reserved.
</metadata>
<defs>
<font id="QanelasSoft-UltraLight" horiz-adv-x="529" >
  <font-face 
    font-family="Qanelas Soft UltraLight"
    font-weight="250"
    font-stretch="normal"
    units-per-em="1000"
    panose-1="0 0 3 0 0 0 0 0 0 0"
    ascent="800"
    descent="-200"
    x-height="500"
    cap-height="700"
    bbox="-286.091 -240 1062 960"
    underline-thickness="50"
    underline-position="-200"
    unicode-range="U+0020-FB02"
  />
<missing-glyph horiz-adv-x="500" 
d="M410 800v-1000h-317v1000h317zM333 733h-165v-33h65v-37h-66v-33h166v33h-66v37h66v33zM267 604h-100v-104h166v34h-66v70zM233 570v-36h-33v36h33zM333 473h-166v-33h66v-37h-66v-33h100v70h66v33zM333 413h-33v-66h-133v-34h166v100zM333 291h-100v-56h34v23h33v-47
h-100v80h-33v-113h166v113zM333 118h-166v-113h166v113zM300 85v-47h-100v47h100zM333 -18h-166v-33h70l-70 -47v-33h166v33h-102l70 47h32v33z" />
    <glyph glyph-name="fi" unicode="fi" horiz-adv-x="496" 
d="M403 500q10 0 10 -10v-480q0 -10 -10 -10h-15q-10 0 -10 10v457h-234v-457q0 -10 -10 -10h-16q-10 0 -10 10v457h-78q-10 0 -10 10v13q0 10 10 10h78v33q0 178 190 178q44 0 89 -9q9 -2 9 -11v-12q0 -11 -11 -9q-41 7 -87 7q-81 0 -117.5 -34.5t-36.5 -109.5v-33h250h9z
" />
    <glyph glyph-name="fl" unicode="fl" horiz-adv-x="496" 
d="M404 702q9 -2 9 -11v-681q0 -10 -10 -10h-15q-10 0 -10 10v663q-37 6 -80 6q-81 0 -117.5 -35.5t-36.5 -110.5v-33h114q10 0 10 -10v-13q0 -10 -10 -10h-114v-457q0 -10 -10 -10h-16q-10 0 -10 10v457h-78q-10 0 -10 10v13q0 10 10 10h78v33q0 178 190 178q50 0 106 -9z
" />
    <glyph glyph-name="f_f" unicode="ff" horiz-adv-x="567" 
d="M556 688q-143 7 -143 -145v-43h144q10 0 10 -10v-13q0 -10 -10 -10h-144v-457q0 -10 -10 -10h-15q-10 0 -10 10v457h-89h-145v-457q0 -10 -10 -10h-16q-10 0 -10 10v457h-78q-10 0 -10 10v13q0 10 10 10h78v33q0 88 45.5 135.5t134.5 42.5q10 0 10 -10v-14q0 -9 -11 -9
q-143 7 -143 -145v-33h154h80v43q0 88 45 135.5t134 42.5q10 0 10 -10v-14q0 -9 -11 -9z" />
    <glyph glyph-name="f_f_i" unicode="ffi" horiz-adv-x="766" 
d="M672 500q10 0 10 -10v-480q0 -10 -10 -10h-15q-10 0 -10 10v457h-234v-457q0 -10 -10 -10h-15q-10 0 -10 10v457h-89h-145v-457q0 -10 -10 -10h-16q-10 0 -10 10v457h-78q-10 0 -10 10v13q0 10 10 10h78v33q0 88 45.5 135.5t134.5 42.5q10 0 10 -10v-14q0 -9 -11 -9
q-143 7 -143 -145v-33h154h80v43q0 178 189 178q44 0 90 -9q9 -2 9 -11v-12q0 -11 -11 -9q-42 7 -88 7q-80 0 -117 -34.5t-37 -109.5v-43h251h8z" />
    <glyph glyph-name="f_f_l" unicode="ffl" horiz-adv-x="766" 
d="M673 712q9 -2 9 -11v-691q0 -10 -10 -10h-15q-10 0 -10 10v673q-37 6 -80 6q-80 0 -117 -35.5t-37 -110.5v-43h114q10 0 10 -10v-13q0 -10 -10 -10h-114v-457q0 -10 -10 -10h-15q-10 0 -10 10v457h-89h-145v-457q0 -10 -10 -10h-16q-10 0 -10 10v457h-78q-10 0 -10 10v13
q0 10 10 10h78v33q0 88 45.5 135.5t134.5 42.5q10 0 10 -10v-14q0 -9 -11 -9q-143 7 -143 -145v-33h154h80v43q0 178 189 178q51 0 106 -9z" />
    <glyph glyph-name=".notdef" horiz-adv-x="500" 
d="M410 800v-1000h-317v1000h317zM333 733h-165v-33h65v-37h-66v-33h166v33h-66v37h66v33zM267 604h-100v-104h166v34h-66v70zM233 570v-36h-33v36h33zM333 473h-166v-33h66v-37h-66v-33h100v70h66v33zM333 413h-33v-66h-133v-34h166v100zM333 291h-100v-56h34v23h33v-47
h-100v80h-33v-113h166v113zM333 118h-166v-113h166v113zM300 85v-47h-100v47h100zM333 -18h-166v-33h70l-70 -47v-33h166v33h-102l70 47h32v33z" />
    <glyph glyph-name=".null" horiz-adv-x="0" 
 />
    <glyph glyph-name="nonmarkingreturn" horiz-adv-x="333" 
 />
    <glyph glyph-name="space" unicode=" " horiz-adv-x="283" 
 />
    <glyph glyph-name="exclam" unicode="!" horiz-adv-x="210" 
d="M98 170q-8 0 -8 8l-5 324v188q0 10 10 10h20q10 0 10 -10v-191l-5 -321q0 -8 -8 -8h-14zM93 0q-10 0 -10 10v50q0 10 10 10h24q10 0 10 -10v-50q0 -10 -10 -10h-24z" />
    <glyph glyph-name="quotedbl" unicode="&#x22;" horiz-adv-x="277" 
d="M69 527q-9 0 -9 9l-3 155q-1 9 9 9h18q10 0 9 -9l-3 -155q0 -9 -9 -9h-12zM196 527q-9 0 -10 9l-2 155q-1 9 9 9h18q9 0 9 -9l-3 -155q-1 -9 -10 -9h-11z" />
    <glyph glyph-name="numbersign" unicode="#" horiz-adv-x="608" 
d="M553 457q11 0 9 -11l-2 -14q-1 -9 -10 -9h-110l-25 -146h109q11 0 9 -11l-2 -14q-2 -9 -11 -9h-110l-31 -184q-2 -9 -11 -9h-14q-11 0 -9 11l30 182h-177l-31 -184q-2 -9 -11 -9h-14q-11 0 -9 11l30 182h-109q-10 0 -9 11l2 14q2 9 11 9h111l24 146h-110q-10 0 -9 11
l2 14q2 9 11 9h111l31 184q2 9 11 9h14q11 0 9 -11l-30 -182h177l31 184q2 9 11 9h14q11 0 9 -11l-30 -182h108zM381 277l24 146h-177l-25 -146h178z" />
    <glyph glyph-name="dollar" unicode="$" horiz-adv-x="550" 
d="M503 164q0 -79 -60 -126.5t-151 -48.5v-79q0 -10 -10 -10h-14q-10 0 -10 10v80q-92 7 -149.5 54.5t-61.5 126.5q-1 10 10 10h17q9 0 10 -10q3 -63 49 -101t125 -45v320q-29 11 -48.5 20t-44.5 22t-41 27.5t-31 33.5t-22 43.5t-7 53.5q0 72 55 117t139 48v80q0 10 10 10
h14q10 0 10 -10v-80q51 -4 93 -26t69 -60.5t29 -85.5q1 -11 -9 -11h-17q-10 0 -10 10q-3 36 -23 66.5t-54.5 49.5t-77.5 22v-306q24 -9 34.5 -13.5t33 -14t33.5 -16t29 -17.5t27.5 -20.5t21.5 -23.5t18 -28.5t10 -33t4 -38.5zM100 545q0 -26 9 -48.5t22.5 -38.5t35.5 -30.5
t42.5 -24.5t48.5 -21v294q-72 -4 -115 -40t-43 -91zM292 24q79 1 127 39.5t48 100.5q0 28 -10.5 51.5t-25 39.5t-40 31.5t-46.5 24.5t-53 22v-309z" />
    <glyph glyph-name="percent" unicode="%" horiz-adv-x="762" 
d="M220 413q-66 0 -109.5 43t-43.5 106t43.5 106t109 43t109.5 -43t44 -106t-43.5 -106t-109.5 -43zM130 0q-6 0 -8 3.5t2 8.5l478 682q5 6 12 6h18q6 0 8 -3.5t-2 -8.5l-479 -682q-4 -6 -12 -6h-17zM220 445q51 0 84.5 33.5t33.5 83.5t-33.5 83.5t-84.5 33.5t-85 -33.5
t-34 -83.5q0 -33 15.5 -59.5t42.5 -42t61 -15.5zM542.5 -11q-65.5 0 -109 43t-43.5 106t43.5 106t109 43t109.5 -43t44 -106t-44 -106t-109.5 -43zM543 21q51 0 84.5 33.5t33.5 83.5t-33.5 83.5t-84.5 33.5t-85 -33.5t-34 -83.5t34 -83.5t85 -33.5z" />
    <glyph glyph-name="ampersand" unicode="&#x26;" horiz-adv-x="658" 
d="M619 12q5 -4 3.5 -8t-8.5 -4h-25q-7 0 -12 5l-71 70q-79 -86 -221 -86q-99 0 -163.5 55t-64.5 144q0 66 35 119t94 83q-61 69 -61 144q0 78 57 127.5t142 49.5q81 0 138.5 -48t61.5 -125q1 -11 -10 -11h-16q-10 0 -11 10q-3 61 -48 100t-115 39q-73 0 -118 -40.5
t-45 -101.5q0 -45 22 -80.5t67 -78.5l252 -247q44 66 46 166q0 10 10 10h17q10 0 10 -8q-2 -114 -58 -194zM285 24q125 0 195 76l-256 251l-13 13q-57 -27 -87.5 -74t-30.5 -102q0 -75 55 -119.5t137 -44.5z" />
    <glyph glyph-name="quotesingle" unicode="'" horiz-adv-x="143" 
d="M69 527q-9 0 -9 9l-3 155q-1 9 9 9h18q10 0 9 -9l-3 -155q0 -9 -9 -9h-12z" />
    <glyph glyph-name="parenleft" unicode="(" horiz-adv-x="255" 
d="M178 -100q-8 0 -12 7q-106 216 -106 443t106 443q4 7 12 7h14q13 0 8 -12q-105 -214 -105 -438t105 -438q5 -12 -8 -12h-14z" />
    <glyph glyph-name="parenright" unicode=")" horiz-adv-x="255" 
d="M77 -100h-14q-13 0 -7 12q104 214 104 438t-104 438q-6 12 7 12h14q8 0 12 -7q106 -216 106 -443t-106 -443q-4 -7 -12 -7z" />
    <glyph glyph-name="asterisk" unicode="*" horiz-adv-x="381" 
d="M305 612q10 0 10 -9v-12q0 -9 -10 -9l-89 2l48 -76q5 -7 -2 -12l-12 -7q-8 -5 -13 3l-46 78l-47 -78q-5 -8 -13 -3l-11 7q-8 4 -3 12l49 76l-90 -2q-9 0 -9 9v12q0 9 9 9l90 -1l-49 75q-5 8 3 13l11 7q8 5 13 -4l47 -78l46 78q5 9 13 4l12 -7q8 -5 2 -13l-48 -75z" />
    <glyph glyph-name="plus" unicode="+" horiz-adv-x="527" 
d="M450 367q10 0 10 -10v-14q0 -10 -10 -10h-169v-170q0 -10 -10 -10h-15q-10 0 -10 10v170h-169q-10 0 -10 10v14q0 10 10 10h169v170q0 10 10 10h15q10 0 10 -10v-170h169z" />
    <glyph glyph-name="comma" unicode="," horiz-adv-x="210" 
d="M123 70q10 0 10 -10v-87q0 -74 -47 -92q-9 -3 -9 7v8q0 6 5 10q22 14 23 67h-5q-10 0 -10 10v77q0 10 10 10h23z" />
    <glyph glyph-name="hyphen" unicode="-" horiz-adv-x="547" 
d="M103 292q-10 0 -10 10v14q0 10 10 10h340q10 0 10 -10v-14q0 -10 -10 -10h-340z" />
    <glyph glyph-name="period" unicode="." horiz-adv-x="197" 
d="M87 0q-10 0 -10 10v50q0 10 10 10h23q10 0 10 -10v-50q0 -10 -10 -10h-23z" />
    <glyph glyph-name="slash" unicode="/" horiz-adv-x="523" 
d="M70 -100h-12q-11 0 -7 10l393 883q3 7 10 7h11q12 0 7 -10l-393 -883q-2 -7 -9 -7z" />
    <glyph glyph-name="zero" unicode="0" horiz-adv-x="630" 
d="M315 -11q-81 0 -139.5 45.5t-88.5 126.5t-30 189q0 164 68 262.5t190 98.5t190 -98.5t68 -262.5t-68 -262.5t-190 -98.5zM315 24q103 0 162.5 86.5t59.5 239.5t-59.5 239.5t-162.5 86.5t-162.5 -86.5t-59.5 -239.5t59.5 -239.5t162.5 -86.5z" />
    <glyph glyph-name="one" unicode="1" horiz-adv-x="323" 
d="M187 697q6 3 13 3h20q10 0 10 -10v-680q0 -10 -10 -10h-17q-10 0 -10 10v650l-163 -87q-5 -3 -8.5 -1t-3.5 8v18q0 8 7 12z" />
    <glyph glyph-name="two" unicode="2" horiz-adv-x="528" 
d="M57 0q-10 0 -10 10v16q0 7 5 12l256 262q119 123 119 207q0 80 -46 124.5t-125 44.5q-73 0 -121 -42.5t-51 -112.5q-1 -10 -11 -10h-16q-11 0 -10 10q4 88 64.5 139t144.5 51q91 0 149 -53.5t58 -150.5q0 -98 -130 -232l-236 -240h375q10 0 10 -10v-15q0 -10 -10 -10
h-415z" />
    <glyph glyph-name="three" unicode="3" horiz-adv-x="550" 
d="M286 410q92 -6 151.5 -62.5t59.5 -146.5q0 -95 -66.5 -153.5t-165.5 -58.5q-96 0 -162 55.5t-69 146.5q-1 10 9 10h17q10 0 10 -10q4 -74 57 -120.5t138 -46.5q87 0 141 49t54 128t-54 128t-141 49v0h-16q-10 0 -10 10v6q0 7 4 13l176 259h-346q-10 0 -10 10v14
q0 10 10 10h377q10 0 10 -10v-17q0 -7 -4 -13z" />
    <glyph glyph-name="four" unicode="4" horiz-adv-x="563" 
d="M532 187q10 0 10 -10v-14q0 -10 -10 -10h-80v-143q0 -10 -10 -10h-17q-10 0 -10 10v143h-373q-10 0 -10 10v18q0 6 3 12l263 500q4 7 12 7h19q13 0 7 -12l-264 -501h343v216q0 10 10 10h17q10 0 10 -10v-216h80z" />
    <glyph glyph-name="five" unicode="5" horiz-adv-x="550" 
d="M275 413q99 0 165.5 -58.5t66.5 -153.5t-66.5 -153.5t-165.5 -58.5q-96 0 -162 55.5t-69 146.5q-1 10 9 10h17q10 0 10 -10q4 -74 57 -120.5t138 -46.5q87 0 141 49t54 128t-54 128t-141 49h-184q-10 0 -9 10l21 302q1 10 10 10h355q10 0 10 -10v-14q0 -10 -10 -10h-331
l-17 -253h155z" />
    <glyph glyph-name="six" unicode="6" horiz-adv-x="543" 
d="M272 450q102 0 168.5 -64.5t66.5 -166t-66.5 -166t-169 -64.5t-168.5 64.5t-66 166.5q0 80 43 139l235 335q4 6 12 6h19q6 0 8 -3.5t-2 -8.5l-180 -257q46 19 100 19zM271.5 24q90.5 0 144.5 55t54 140.5t-54 140.5t-144.5 55t-144.5 -55t-54 -140.5t54 -140.5t144.5 -55
z" />
    <glyph glyph-name="seven" unicode="7" horiz-adv-x="490" 
d="M27 690q0 10 10 10h396q10 0 10 -10v-18q0 -6 -2 -12l-274 -652q-3 -8 -11 -8h-17q-13 0 -8 12l275 654h-369q-10 0 -10 10v14z" />
    <glyph glyph-name="eight" unicode="8" horiz-adv-x="552" 
d="M368 362q64 -20 100.5 -67t36.5 -112q0 -89 -63.5 -141.5t-165.5 -52.5t-165.5 52.5t-63.5 141.5q0 65 36.5 111.5t100.5 67.5q-53 21 -84 64t-31 101q0 84 59 134t148 50q58 0 104.5 -22t74.5 -64t28 -98q0 -58 -31 -101t-84 -64zM106 527q0 -66 46.5 -108t123.5 -42
t123.5 42t46.5 108q0 44 -20.5 78t-59.5 52.5t-90 18.5t-90 -18.5t-59.5 -52.5t-20.5 -78zM276 24q91 0 142 43.5t51 116t-51 116t-142 43.5t-142 -43.5t-51 -116t51 -116t142 -43.5z" />
    <glyph glyph-name="nine" unicode="9" horiz-adv-x="543" 
d="M507 480q0 -80 -43 -139l-235 -335q-5 -6 -13 -6h-18q-6 0 -8 3.5t1 8.5l180 257q-45 -19 -99 -19q-103 0 -169 64.5t-66 165.5q0 67 30 120t83.5 82t121.5 29q102 0 168.5 -64.5t66.5 -166.5zM73 480.5q0 -85.5 54 -140.5t144.5 -55t144.5 55t54 140.5t-54 140.5
t-144.5 55t-144.5 -55t-54 -140.5z" />
    <glyph glyph-name="colon" unicode=":" horiz-adv-x="197" 
d="M87 430q-10 0 -10 10v50q0 10 10 10h23q10 0 10 -10v-50q0 -10 -10 -10h-23zM87 0q-10 0 -10 10v50q0 10 10 10h23q10 0 10 -10v-50q0 -10 -10 -10h-23z" />
    <glyph glyph-name="semicolon" unicode=";" horiz-adv-x="210" 
d="M123 500q10 0 10 -10v-50q0 -10 -10 -10h-23q-10 0 -10 10v50q0 10 10 10h23zM123 70q10 0 10 -10v-87q0 -74 -47 -92q-9 -3 -9 7v8q0 6 5 10q22 14 23 67h-5q-10 0 -10 10v77q0 10 10 10h23z" />
    <glyph glyph-name="less" unicode="&#x3c;" horiz-adv-x="533" 
d="M467 535v-17q0 -8 -8 -11l-353 -157l353 -157q8 -3 8 -11v-17q0 -13 -12 -8l-381 172q-7 4 -7 12v18q0 9 7 12l381 172q12 5 12 -8z" />
    <glyph glyph-name="equal" unicode="=" horiz-adv-x="533" 
d="M77 433q-10 0 -10 10v14q0 10 10 10h380q10 0 10 -10v-14q0 -10 -10 -10h-380zM77 233q-10 0 -10 10v14q0 10 10 10h380q10 0 10 -10v-14q0 -10 -10 -10h-380z" />
    <glyph glyph-name="greater" unicode="&#x3e;" horiz-adv-x="533" 
d="M67 535q0 13 11 8l381 -172q8 -3 8 -12v-18q0 -9 -8 -12l-381 -172q-11 -5 -11 8v17q0 8 7 11l353 157l-353 157q-7 3 -7 11v17z" />
    <glyph glyph-name="question" unicode="?" horiz-adv-x="528" 
d="M234 170q-11 0 -10 10q2 46 23.5 87.5t50.5 72.5t58 60t49 64t20 72q0 65 -43 102.5t-121 37.5q-73 0 -123.5 -39.5t-53.5 -99.5q-1 -10 -10 -10h-17q-11 0 -10 11q3 51 33.5 91t78 61t102.5 21q59 0 104 -20.5t71 -60.5t26 -94q0 -40 -20 -77.5t-49 -67.5t-58 -60.5
t-50.5 -69.5t-23.5 -81q-1 -10 -10 -10h-17zM230 0q-10 0 -10 10v50q0 10 10 10h24q10 0 10 -10v-50q0 -10 -10 -10h-24z" />
    <glyph glyph-name="at" unicode="@" horiz-adv-x="821" 
d="M417 612q81 0 148.5 -30t111 -79t67 -109.5t23.5 -123.5q0 -106 -39 -155.5t-95 -49.5q-45 0 -70.5 27t-27.5 72q-13 -23 -32.5 -39.5t-44.5 -25.5t-54 -9q-69 0 -115.5 46t-46.5 114t46.5 114t115.5 46q43 0 77 -19.5t53 -53.5v56q0 10 10 10h14q10 0 10 -10v-219
q0 -40 17 -63t51 -23q49 0 78.5 46.5t29.5 135.5q0 136 -94 228.5t-233 92.5q-93 0 -171.5 -44.5t-123.5 -123t-45 -173.5q0 -147 101.5 -244t256.5 -97q94 0 163 25q7 2 8 -5l2 -8q1 -6 -3 -7q-73 -26 -170 -26q-80 0 -151 27t-121.5 75t-80 115.5t-29.5 144.5q0 74 28 141
t76 115.5t116 77t144 28.5zM406 122q54 0 91 36.5t37 91.5t-37 91.5t-91 36.5q-55 0 -92.5 -36.5t-37.5 -91.5t37.5 -91.5t92.5 -36.5z" />
    <glyph glyph-name="A" unicode="A" horiz-adv-x="629" 
d="M604 12q4 -12 -8 -12h-18q-8 0 -11 8l-69 177h-368l-68 -177q-3 -8 -12 -8h-18q-12 0 -7 12l266 680q3 8 12 8h23q8 0 11 -8zM144 219h341l-171 438z" />
    <glyph glyph-name="B" unicode="B" horiz-adv-x="682" 
d="M495 448q44 -15 77.5 -47t52 -76.5t18.5 -94.5q0 -96 -63 -163t-158 -67h-309h-10q-10 0 -10 10v680q0 10 10 10h27h230q48 0 86.5 -21t59.5 -57t21 -79q0 -53 -32 -95zM360 666h-230v-206h293q17 0 33 -2q34 35 34 85q0 52 -36.5 87.5t-93.5 35.5zM419 34q81 0 134.5 57
t53.5 139q0 83 -53 139.5t-134 56.5h-290v-392h289z" />
    <glyph glyph-name="C" unicode="C" horiz-adv-x="774" 
d="M416 -11q-104 0 -187.5 48.5t-129.5 131t-46 181.5t46 181.5t129.5 131t187.5 48.5q107 0 193.5 -57t122.5 -149q4 -12 -8 -12h-19q-8 0 -11 8q-34 79 -109.5 127t-168.5 48q-94 0 -169 -44t-116 -118t-41 -164t41 -164t116 -118t169 -44q93 0 168.5 48t109.5 127
q3 8 11 8h20q5 0 7.5 -3t0.5 -8q-37 -93 -123.5 -150t-193.5 -57z" />
    <glyph glyph-name="D" unicode="D" horiz-adv-x="753" 
d="M370 700q143 0 236.5 -101.5t93.5 -248.5t-93.5 -248.5t-236.5 -101.5h-260h-7q-10 0 -10 10v680q0 10 10 10h27h240zM370 34q128 0 211 91.5t83 224.5t-83 224.5t-211 91.5h-240v-632h240z" />
    <glyph glyph-name="E" unicode="E" horiz-adv-x="520" 
d="M463 34q10 0 10 -10v-14q0 -10 -10 -10h-353h-7q-10 0 -10 10v680q0 10 10 10h27h328q10 0 10 -10v-14q0 -10 -10 -10h-328v-296h303q10 0 10 -10v-14q0 -10 -10 -10h-303v-302h333z" />
    <glyph glyph-name="F" unicode="F" horiz-adv-x="508" 
d="M458 700q10 0 10 -10v-14q0 -10 -10 -10h-328v-322h320q10 0 10 -10v-14q0 -10 -10 -10h-320v-300q0 -10 -10 -10h-17q-10 0 -10 10v680q0 10 10 10h27h328z" />
    <glyph glyph-name="G" unicode="G" horiz-adv-x="810" 
d="M725 337q10 0 10 -10v-24v-293q0 -10 -10 -10h-16q-10 0 -10 10v130q-36 -73 -112 -112t-166 -39q-107 0 -191.5 48.5t-130.5 131t-46 181.5q0 74 27.5 140.5t74.5 115t114.5 77t144.5 28.5q107 0 193.5 -57t123.5 -149q4 -12 -8 -12h-19q-8 0 -12 8q-17 39 -45 71.5
t-64 55.5t-79.5 35.5t-89.5 12.5q-93 0 -167.5 -44t-115.5 -118t-41 -164t40.5 -164t117 -118t173.5 -44q70 0 129.5 24t101 75t47.5 120v60h-264q-10 0 -10 10v14q0 10 10 10h290z" />
    <glyph glyph-name="H" unicode="H" horiz-adv-x="637" 
d="M533 700q10 0 10 -10v-680q0 -10 -10 -10h-16q-10 0 -10 10v333h-377v-333q0 -10 -10 -10h-17q-10 0 -10 10v680q0 10 10 10h17q10 0 10 -10v-313h377v313q0 10 10 10h16z" />
    <glyph glyph-name="I" unicode="I" horiz-adv-x="223" 
d="M93 690q0 10 10 10h17q10 0 10 -10v-680q0 -10 -10 -10h-17q-10 0 -10 10v680z" />
    <glyph glyph-name="J" unicode="J" horiz-adv-x="537" 
d="M243 -11q-88 0 -147.5 52t-61.5 141q-1 11 9 11h17q10 0 10 -10q2 -73 49.5 -116t123.5 -43q78 0 126 44t48 118v504q0 10 10 10h16q10 0 10 -10v-504q0 -91 -60 -144t-150 -53z" />
    <glyph glyph-name="K" unicode="K" horiz-adv-x="563" 
d="M541 12q4 -4 2.5 -8t-7.5 -4h-24q-8 0 -12 5l-370 345v-340q0 -10 -10 -10h-17q-10 0 -10 10v680q0 10 10 10h17q10 0 10 -10v-320l360 325q5 5 12 5h23q7 0 8.5 -4t-2.5 -8l-361 -328z" />
    <glyph glyph-name="L" unicode="L" horiz-adv-x="497" 
d="M460 34q10 0 10 -10v-14q0 -10 -10 -10h-347h-10q-10 0 -10 10v680q0 10 10 10h17q10 0 10 -10v-656h330z" />
    <glyph glyph-name="M" unicode="M" horiz-adv-x="813" 
d="M710 700q10 0 10 -10v-680q0 -10 -10 -10h-17q-10 0 -10 10v632l-255 -507q-4 -7 -12 -7h-19q-8 0 -12 7l-255 507v-632q0 -10 -10 -10h-17q-10 0 -10 10v680q0 10 10 10h17h12q8 0 12 -7l263 -522l263 522q3 7 11 7h18h11z" />
    <glyph glyph-name="N" unicode="N" horiz-adv-x="630" 
d="M500 690q0 10 10 10h17q10 0 10 -10v-680q0 -10 -10 -10h-16q-8 0 -12 7l-369 621v-618q0 -10 -10 -10h-17q-10 0 -10 10v680q0 10 10 10h16q8 0 12 -7l369 -621v618z" />
    <glyph glyph-name="O" unicode="O" horiz-adv-x="828" 
d="M414 -11q-99 0 -182 48.5t-131 131.5t-48 181q0 73 28.5 140t76.5 115.5t115 77t141 28.5t141 -28.5t115 -77t76.5 -115.5t28.5 -140q0 -98 -48 -181t-131 -131.5t-182 -48.5zM414 24q135 0 229.5 95.5t94.5 230.5t-94.5 230.5t-229.5 95.5t-229.5 -95.5t-94.5 -230.5
t94.5 -230.5t229.5 -95.5z" />
    <glyph glyph-name="P" unicode="P" horiz-adv-x="573" 
d="M323 700q84 0 144 -59.5t60 -143.5t-60 -144t-144 -60h-193v-283q0 -10 -10 -10h-17q-10 0 -10 10v680q0 10 10 10h27h193zM323 327q69 0 118 50t49 120t-49 119.5t-118 49.5h-193v-339h193z" />
    <glyph glyph-name="Q" unicode="Q" horiz-adv-x="833" 
d="M659 85l80 -92q7 -8 -1 -14l-10 -9q-8 -6 -14 2l-81 91q-97 -74 -219 -74q-98 0 -181 48.5t-131.5 131.5t-48.5 181t48.5 181t131.5 131.5t181 48.5t181 -48.5t131.5 -131.5t48.5 -181q0 -77 -31 -146t-85 -119zM414 24q109 0 196 66l-90 102q-7 8 1 14l10 9q8 6 14 -1
l90 -103q49 46 76 108t27 131q0 89 -43.5 164t-118 118.5t-162.5 43.5t-162.5 -43.5t-118 -118.5t-43.5 -164t43.5 -164t118 -118.5t162.5 -43.5z" />
    <glyph glyph-name="R" unicode="R" horiz-adv-x="623" 
d="M609 12q4 -4 2.5 -8t-7.5 -4h-22q-7 0 -12 6l-254 287h-186v-283q0 -10 -10 -10h-17q-10 0 -10 10v680q0 10 10 10h27h193q84 0 144 -59.5t60 -143.5q0 -49 -22.5 -92t-60.5 -71.5t-86 -37.5zM130 666v-339h193q69 0 118 50t49 120t-49 119.5t-118 49.5h-193z" />
    <glyph glyph-name="S" unicode="S" horiz-adv-x="550" 
d="M287 -11q-103 0 -169.5 49.5t-70.5 135.5q-1 10 10 10h17q9 0 10 -10q4 -69 58 -109.5t145 -40.5q81 0 130.5 41t49.5 104q0 21 -5.5 38.5t-13.5 31t-23.5 26t-27 20.5t-34 18.5t-36 15.5t-39.5 15q-3 1 -4 2q-7 2 -21 7q-28 11 -42.5 16.5t-39.5 17t-38 20.5t-30.5 24
t-26 31t-15 37.5t-6.5 46.5q0 77 59.5 126t147.5 49q55 0 101.5 -21.5t76 -61.5t32.5 -90q0 -11 -10 -11h-17q-9 0 -10 10q-2 29 -15.5 54.5t-36 44.5t-54 29.5t-67.5 10.5q-77 0 -123.5 -40t-46.5 -100q0 -20 5.5 -37.5t13 -30.5t22.5 -25.5t26.5 -20.5t33.5 -18t35 -15
l39 -15q8 -2 12 -4q6 -2 16 -6q28 -11 42.5 -17t39.5 -17.5t38.5 -21t30.5 -24.5t26 -31t15 -37.5t6 -46.5q0 -81 -62 -130.5t-154 -49.5z" />
    <glyph glyph-name="T" unicode="T" horiz-adv-x="500" 
d="M463 700q10 0 10 -10v-14q0 -10 -10 -10h-195v-656q0 -10 -10 -10h-16q-10 0 -10 10v656h-195q-10 0 -10 10v14q0 10 10 10h231h195z" />
    <glyph glyph-name="U" unicode="U" horiz-adv-x="627" 
d="M313.5 -11q-101.5 0 -166 55.5t-64.5 151.5v494q0 10 10 10h17q10 0 10 -10v-494q0 -80 51.5 -126t141.5 -46t142 46t52 126v494q0 10 10 10h16q10 0 10 -10v-494q0 -96 -64 -151.5t-165.5 -55.5z" />
    <glyph glyph-name="V" unicode="V" horiz-adv-x="601" 
d="M289 0q-8 0 -11 8l-257 680q-4 12 8 12h18q8 0 11 -8l243 -648l242 648q3 8 11 8h18q13 0 9 -12l-257 -680q-3 -8 -12 -8h-23z" />
    <glyph glyph-name="W" unicode="W" horiz-adv-x="860" 
d="M825 700q12 0 8 -11l-219 -681q-3 -8 -11 -8h-31q-9 0 -11 8l-131 406l-131 -406q-2 -8 -11 -8h-31q-8 0 -11 8l-219 681q-4 11 8 11h16q8 0 11 -8l211 -654l139 432l-70 219q-4 11 8 11h15q9 0 12 -8l210 -654l211 654q3 8 11 8h16z" />
    <glyph glyph-name="X" unicode="X" horiz-adv-x="563" 
d="M529 12q3 -5 1 -8.5t-8 -3.5h-18q-8 0 -12 6l-210 322l-211 -322q-4 -6 -12 -6h-18q-6 0 -8 3.5t1 8.5l228 346l-217 330q-3 5 -1 8.5t8 3.5h18q8 0 12 -6l200 -305l199 305q4 6 12 6h18q6 0 8 -3.5t-1 -8.5l-216 -330z" />
    <glyph glyph-name="Y" unicode="Y" horiz-adv-x="565" 
d="M534 700q6 0 8 -3.5t-2 -8.5l-239 -360v-318q0 -10 -10 -10h-17q-10 0 -10 10v319l-239 359q-4 5 -2 8.5t8 3.5h19q7 0 12 -6l220 -332l221 332q5 6 12 6h19z" />
    <glyph glyph-name="Z" unicode="Z" horiz-adv-x="513" 
d="M87 34h380q10 0 10 -10v-14q0 -10 -10 -10h-410q-10 0 -10 10v17q0 6 3 13l377 626h-360q-10 0 -10 10v14q0 10 10 10h390q10 0 10 -10v-17q0 -6 -4 -13z" />
    <glyph glyph-name="bracketleft" unicode="[" horiz-adv-x="260" 
d="M243 766h-141v-832h141q10 0 10 -10v-14q0 -10 -10 -10h-156h-10q-10 0 -10 10v880q0 10 10 10h25h141q10 0 10 -10v-14q0 -10 -10 -10z" />
    <glyph glyph-name="backslash" unicode="\" horiz-adv-x="523" 
d="M454 -100q-7 0 -10 7l-393 883q-4 10 7 10h12q7 0 9 -7l393 -883q5 -10 -7 -10h-11z" />
    <glyph glyph-name="bracketright" unicode="]" horiz-adv-x="260" 
d="M183 800q10 0 10 -10v-880q0 -10 -10 -10h-25h-141q-10 0 -10 10v14q0 10 10 10h141v832h-141q-10 0 -10 10v14q0 10 10 10h156h10z" />
    <glyph glyph-name="asciicircum" unicode="^" horiz-adv-x="504" 
d="M437 412q3 -5 1 -8.5t-8 -3.5h-18q-8 0 -12 7l-148 253l-148 -253q-4 -7 -12 -7h-18q-6 0 -8 3.5t1 8.5l164 281q4 7 12 7h18q8 0 12 -7z" />
    <glyph glyph-name="underscore" unicode="_" horiz-adv-x="493" 
d="M50 -126q-10 0 -10 10v14q0 10 10 10h393q10 0 10 -10v-14q0 -10 -10 -10h-393z" />
    <glyph glyph-name="grave" unicode="`" horiz-adv-x="161" 
d="M127 570q6 0 8 3.5t-1 7.5l-70 106q-3 6 -11 6h-19q-6 0 -7.5 -3t1.5 -8l76 -106q4 -6 11 -6h12z" />
    <glyph glyph-name="a" unicode="a" horiz-adv-x="499" 
d="M250 511q78 0 129 -47.5t51 -131.5v-322q0 -10 -10 -10h-15q-10 0 -10 10v55q-42 -76 -166 -76q-75 0 -127 41t-52 113.5t52 113.5t127 41q56 0 99.5 -19.5t66.5 -55.5v109q0 69 -41 107t-104 38q-60 0 -100 -30.5t-44 -85.5q-2 -9 -10 -9h-16q-10 0 -10 10
q5 66 54 107.5t126 41.5zM234 22q46 0 81 12t57.5 40.5t22.5 69.5q0 61 -46 91t-115 30t-109 -33t-40 -88t40 -88.5t109 -33.5z" />
    <glyph glyph-name="b" unicode="b" horiz-adv-x="653" 
d="M347 511q71 0 130.5 -34.5t94.5 -94.5t35 -132q0 -110 -76 -185.5t-184 -75.5q-77 0 -137.5 39.5t-90.5 105.5v-124q0 -10 -10 -10h-16q-10 0 -10 10v680q0 10 10 10h16q10 0 10 -10v-324q30 66 90.5 105.5t137.5 39.5zM345 23q95 0 160.5 65.5t65.5 161.5t-65.5 161.5
t-160.5 65.5t-160.5 -65.5t-65.5 -161.5t65.5 -161.5t160.5 -65.5z" />
    <glyph glyph-name="c" unicode="c" horiz-adv-x="578" 
d="M530 147q12 0 8 -12q-25 -66 -87.5 -106t-142.5 -40q-73 0 -133 34.5t-94 94t-34 132.5q0 111 74.5 186t186.5 75q80 0 142.5 -40t87.5 -106q4 -12 -8 -12h-17q-8 0 -11 8q-12 26 -31 47.5t-43.5 37t-55.5 23.5t-64 8q-96 0 -161 -65.5t-65 -161.5t65 -161.5t161 -65.5
q67 0 119 31.5t75 84.5q3 8 11 8h17z" />
    <glyph glyph-name="d" unicode="d" horiz-adv-x="653" 
d="M560 700q10 0 10 -10v-680q0 -10 -10 -10h-15q-10 0 -10 10v124q-31 -66 -91.5 -105.5t-136.5 -39.5q-109 0 -184.5 75.5t-75.5 185.5t75.5 185.5t184.5 75.5q76 0 136.5 -39.5t91.5 -105.5v324q0 10 10 10h15zM308.5 23q95.5 0 161 65.5t65.5 161.5t-65.5 161.5
t-161 65.5t-161 -65.5t-65.5 -161.5t65.5 -161.5t161 -65.5z" />
    <glyph glyph-name="e" unicode="e" horiz-adv-x="576" 
d="M297 511q73 0 129.5 -37.5t84.5 -96.5t28 -129v-7q-1 -10 -10 -10h-25h-421q6 -94 66 -151t151 -57q63 0 111 27.5t69 73.5q4 8 11 8h18q13 0 9 -10q-24 -61 -82.5 -97t-135.5 -36q-74 0 -132 33.5t-89.5 93t-31.5 134.5q0 112 69.5 186.5t180.5 74.5zM297 477
q-91 0 -150.5 -59t-64.5 -154h422q-7 97 -65 155t-142 58z" />
    <glyph glyph-name="f" unicode="f" horiz-adv-x="298" 
d="M287 678q-143 7 -143 -145v-33h144q10 0 10 -10v-13q0 -10 -10 -10h-144v-457q0 -10 -10 -10h-16q-10 0 -10 10v457h-78q-10 0 -10 10v13q0 10 10 10h78v33q0 88 45.5 135.5t134.5 42.5q10 0 10 -10v-14q0 -9 -11 -9z" />
    <glyph glyph-name="g" unicode="g" horiz-adv-x="660" 
d="M567 500q10 0 10 -10v-463q0 -110 -68 -174t-180 -64q-63 0 -116.5 24t-85 62t-35.5 81q0 10 10 10h16q8 0 10 -9q6 -52 62 -93t139 -41q101 0 156.5 55t55.5 149v107q-30 -66 -90.5 -105.5t-137.5 -39.5q-108 0 -184 75.5t-76 185.5t76 185.5t184 75.5q77 0 137.5 -39.5
t90.5 -105.5v124q0 10 10 10h16zM315 23q95 0 160.5 65.5t65.5 161.5t-65.5 161.5t-160.5 65.5t-160.5 -65.5t-65.5 -161.5t65.5 -161.5t160.5 -65.5z" />
    <glyph glyph-name="h" unicode="h" 
d="M293 511q73 0 120 -47t47 -130v-324q0 -10 -10 -10h-15q-10 0 -10 10v324q0 67 -37.5 105t-98.5 38q-71 0 -120.5 -50.5t-49.5 -144.5v-272q0 -10 -10 -10h-16q-10 0 -10 10v680q0 10 10 10h16q10 0 10 -10v-290q17 39 46 64.5t60.5 36t67.5 10.5z" />
    <glyph glyph-name="i" unicode="i" horiz-adv-x="202" 
d="M93 600q-10 0 -10 10v80q0 10 10 10h16q10 0 10 -10v-80q0 -10 -10 -10h-16zM93 0q-10 0 -10 10v480q0 10 10 10h16q10 0 10 -10v-480q0 -10 -10 -10h-16z" />
    <glyph glyph-name="j" unicode="j" horiz-adv-x="216" 
d="M123 700q10 0 10 -10v-80q0 -10 -10 -10h-16q-10 0 -10 10v80q0 10 10 10h16zM123 500q10 0 10 -10v-563q0 -69 -36.5 -106t-106.5 -32q-10 0 -10 10v13q0 10 11 10q106 -7 106 105v563q0 10 10 10h16z" />
    <glyph glyph-name="k" unicode="k" horiz-adv-x="472" 
d="M432 12q5 -4 3.5 -8t-8.5 -4h-23q-7 0 -12 5l-273 245v-240q0 -10 -10 -10h-16q-10 0 -10 10v680q0 10 10 10h16q10 0 10 -10v-420l263 225q5 5 12 5h23q7 0 8.5 -4t-4.5 -8l-266 -228z" />
    <glyph glyph-name="l" unicode="l" horiz-adv-x="202" 
d="M93 0q-10 0 -10 10v700q0 10 10 10h16q10 0 10 -10v-700q0 -10 -10 -10h-16z" />
    <glyph glyph-name="m" unicode="m" horiz-adv-x="786" 
d="M564 511q43 0 76.5 -17.5t55 -56t21.5 -93.5v-334q0 -10 -10 -10h-16q-10 0 -10 10v334q0 66 -32.5 99.5t-86.5 33.5q-58 0 -101 -45t-43 -130v-292q0 -10 -10 -10h-16q-10 0 -10 10v334q0 66 -32.5 99.5t-86.5 33.5q-58 0 -101 -45t-43 -130v-292q0 -10 -10 -10h-16
q-10 0 -10 10v480q0 10 10 10h16q10 0 10 -10v-75q23 49 63 72.5t85 23.5q51 0 89.5 -27t53.5 -79q22 55 64 80.5t90 25.5z" />
    <glyph glyph-name="n" unicode="n" 
d="M293 511q73 0 120 -47t47 -130v-324q0 -10 -10 -10h-15q-10 0 -10 10v324q0 67 -37.5 105t-98.5 38q-71 0 -120.5 -50.5t-49.5 -144.5v-272q0 -10 -10 -10h-16q-10 0 -10 10v480q0 10 10 10h16q10 0 10 -10v-90q17 39 46 64.5t60.5 36t67.5 10.5z" />
    <glyph glyph-name="o" unicode="o" horiz-adv-x="617" 
d="M308.5 -11q-109.5 0 -185.5 75.5t-76 185.5t76 185.5t185.5 75.5t185.5 -75.5t76 -185.5t-76 -185.5t-185.5 -75.5zM308.5 23q95.5 0 161 65.5t65.5 161.5t-65.5 161.5t-161 65.5t-161 -65.5t-65.5 -161.5t65.5 -161.5t161 -65.5z" />
    <glyph glyph-name="p" unicode="p" horiz-adv-x="653" 
d="M347 511q71 0 130.5 -34.5t94.5 -94.5t35 -132q0 -110 -76 -185.5t-184 -75.5q-77 0 -137.5 39.5t-90.5 105.5v-324q0 -10 -10 -10h-16q-10 0 -10 10v680q0 10 10 10h16q10 0 10 -10v-124q30 66 90.5 105.5t137.5 39.5zM345 23q95 0 160.5 65.5t65.5 161.5t-65.5 161.5
t-160.5 65.5t-160.5 -65.5t-65.5 -161.5t65.5 -161.5t160.5 -65.5z" />
    <glyph glyph-name="q" unicode="q" horiz-adv-x="653" 
d="M560 500q10 0 10 -10v-680q0 -10 -10 -10h-15q-10 0 -10 10v324q-31 -66 -91.5 -105.5t-136.5 -39.5q-109 0 -184.5 75.5t-75.5 185.5t75.5 185.5t184.5 75.5q76 0 136.5 -39.5t91.5 -105.5v124q0 10 10 10h15zM308.5 23q95.5 0 161 65.5t65.5 161.5t-65.5 161.5
t-161 65.5t-161 -65.5t-65.5 -161.5t65.5 -161.5t161 -65.5z" />
    <glyph glyph-name="r" unicode="r" horiz-adv-x="321" 
d="M285 506q10 1 10 -9v-14q0 -10 -7 -10q-72 -2 -120.5 -53t-48.5 -142v-268q0 -10 -10 -10h-16q-10 0 -10 10v480q0 10 10 10h16q10 0 10 -10v-99q22 57 67 85t99 30z" />
    <glyph glyph-name="s" unicode="s" horiz-adv-x="467" 
d="M97 376q0 -28 13.5 -48t36 -30.5t51 -19.5t58.5 -14.5t58.5 -16.5t51 -24.5t36 -39t13.5 -59.5q0 -30 -13 -54.5t-36.5 -42.5t-57.5 -28t-75 -10q-79 0 -128 36.5t-53 95.5q-1 11 10 11h15q9 0 11 -10q3 -47 43 -73t102 -26q43 0 75.5 11t52 34t19.5 56q0 32 -17.5 54
t-45.5 33t-62 19.5t-68 17.5t-62 23t-45.5 40.5t-17.5 64.5q0 60 47 97.5t124 37.5q73 0 119 -36.5t50 -95.5q1 -11 -10 -11h-15q-9 0 -11 10q-3 47 -40 73t-93 26q-60 0 -98 -26.5t-38 -74.5z" />
    <glyph glyph-name="t" unicode="t" horiz-adv-x="318" 
d="M282 500q10 0 10 -10v-13q0 -10 -10 -10h-105v-457q0 -10 -10 -10h-15q-10 0 -10 10v457h-105q-10 0 -10 10v13q0 10 10 10h105v150q0 10 10 10h15q10 0 10 -10v-150h105z" />
    <glyph glyph-name="u" unicode="u" 
d="M436 500q10 0 10 -10v-480q0 -10 -10 -10h-15q-10 0 -10 10v90q-26 -57 -72.5 -84t-102.5 -27q-73 0 -120 47t-47 130v324q0 10 10 10h16q10 0 10 -10v-324q0 -67 37 -105t98 -38q71 0 121 50.5t50 144.5v272q0 10 10 10h15z" />
    <glyph glyph-name="v" unicode="v" horiz-adv-x="485" 
d="M455 500q13 0 8 -12l-197 -480q-3 -8 -11 -8h-16h-9q-8 0 -11 8l-198 480q-4 12 8 12h17q8 0 11 -8l185 -454l186 454q3 8 11 8h16z" />
    <glyph glyph-name="w" unicode="w" horiz-adv-x="673" 
d="M645 500q12 0 8 -11l-174 -481q-3 -8 -12 -8h-14h-7q-9 0 -12 8l-97 270l-98 -270q-3 -8 -12 -8h-14h-7q-9 0 -12 8l-173 480q-4 12 8 12h16q9 0 12 -8l160 -449l102 284l-58 161q-4 12 8 12h16q9 0 12 -8l160 -449l160 449q3 8 11 8h17z" />
    <glyph glyph-name="x" unicode="x" horiz-adv-x="451" 
d="M415 12q4 -5 2 -8.5t-8 -3.5h-16q-8 0 -12 6l-156 224l-155 -224q-5 -6 -13 -6h-16q-6 0 -8 3.5t2 8.5l171 246l-160 230q-4 5 -2 8.5t8 3.5h16q8 0 12 -6l145 -208l145 208q4 6 12 6h16q6 0 8 -3.5t-2 -8.5l-160 -230z" />
    <glyph glyph-name="y" unicode="y" horiz-adv-x="470" 
d="M413 492q3 8 11 8h17q12 0 8 -12l-257 -680q-3 -8 -11 -8h-17q-12 0 -8 12l72 189l-206 487q-5 12 7 12h17q8 0 11 -8l188 -443z" />
    <glyph glyph-name="z" unicode="z" horiz-adv-x="463" 
d="M102 33h308q10 0 10 -10v-13q0 -10 -10 -10h-347q-10 0 -10 10v5q0 6 4 13l304 439h-288q-10 0 -10 10v13q0 10 10 10h327q10 0 10 -10v-5q0 -6 -4 -13z" />
    <glyph glyph-name="braceleft" unicode="{" horiz-adv-x="350" 
d="M323 -99q0 -10 -10 -10q-69 -5 -105.5 30.5t-36.5 103.5v209q0 52 -25 75.5t-79 24.5q-10 0 -10 10v14q0 10 10 10q54 1 79 24.5t25 75.5v208q0 69 36.5 104t105.5 31q10 -1 10 -10v-14q0 -10 -10 -10q-107 8 -107 -101v-208q0 -100 -81 -118q81 -16 81 -116v-209
q0 -109 107 -101q10 0 10 -10v-13z" />
    <glyph glyph-name="bar" unicode="|" horiz-adv-x="222" 
d="M103 -200q-10 0 -10 10v900q0 10 10 10h16q10 0 10 -10v-900q0 -10 -10 -10h-16z" />
    <glyph glyph-name="braceright" unicode="}" horiz-adv-x="350" 
d="M27 -99v13q0 10 10 10q107 -8 107 101v209q0 100 81 116q-81 18 -81 118v208q0 109 -107 101q-10 0 -10 10v13q0 10 10 11q69 4 105.5 -31.5t36.5 -103.5v-208q0 -52 25 -75.5t79 -24.5q10 0 10 -10v-14q0 -10 -10 -10q-54 -1 -79 -24.5t-25 -75.5v-209
q0 -68 -36.5 -103.5t-105.5 -30.5q-10 0 -10 10z" />
    <glyph glyph-name="asciitilde" unicode="~" horiz-adv-x="579" 
d="M477 397q4 10 13 6l14 -6q9 -4 6 -13q-7 -21 -18 -38.5t-30.5 -33t-43.5 -20.5t-60 5t-77 38q-34 24 -62.5 33t-47.5 6t-33.5 -15t-22.5 -25.5t-13 -30.5q-4 -10 -13 -6l-14 6q-8 4 -6 13q7 21 18 38.5t30.5 32.5t44 20t60 -5t76.5 -37q35 -24 63.5 -33t47.5 -6t33.5 15
t22 25.5t12.5 30.5z" />
    <glyph glyph-name="exclamdown" unicode="&#xa1;" horiz-adv-x="210" 
d="M93 500h24q10 0 10 -10v-50q0 -10 -10 -10h-24q-10 0 -10 10v50q0 10 10 10zM98 330h14q8 0 8 -8l5 -321v-191q0 -10 -10 -10h-20q-10 0 -10 10v188l5 324q0 8 8 8z" />
    <glyph glyph-name="cent" unicode="&#xa2;" horiz-adv-x="578" 
d="M530 247q12 0 8 -12q-25 -66 -87.5 -106t-142.5 -40q-40 0 -78 11l-31 -93q-2 -7 -10 -7h-12q-10 0 -7 10l33 100q-71 29 -113.5 93.5t-42.5 146.5q0 111 74.5 186t186.5 75q31 0 60 -7l29 89q2 7 10 7h12q10 0 7 -10l-31 -93q50 -17 87.5 -51.5t55.5 -80.5q4 -12 -8 -12
h-17q-8 0 -11 8q-33 76 -117 104l-144 -433q32 -9 67 -9q67 0 119 31.5t75 84.5q3 8 11 8h17zM82 350q0 -70 36 -125.5t96 -82.5l143 431q-24 4 -49 4q-96 0 -161 -65.5t-65 -161.5z" />
    <glyph glyph-name="sterling" unicode="&#xa3;" horiz-adv-x="595" 
d="M567 35q10 0 10 -10v-15q0 -10 -10 -10h-510q-10 0 -10 10v15q0 10 10 10h94v259h-74q-10 0 -10 10v12q0 10 10 10h74v191q0 89 57.5 141.5t141.5 52.5q83 0 140.5 -53t57.5 -141v-14q0 -10 -10 -10h-17q-10 0 -10 10v14q0 72 -45 115.5t-116 43.5q-73 0 -117.5 -43.5
t-44.5 -115.5v-191h240q10 0 10 -10v-12q0 -10 -10 -10h-240v-259h379z" />
    <glyph glyph-name="currency" unicode="&#xa4;" horiz-adv-x="553" 
d="M501 145q6 -6 -1 -12l-7 -7q-6 -5 -12 1l-65 64q-59 -52 -139.5 -52t-139.5 52l-64 -64q-6 -6 -12 -1l-8 7q-6 6 0 12l64 65q-52 59 -52 140t52 140l-64 65q-6 6 0 12l8 7q6 5 12 -1l64 -63q59 51 140 51q80 0 140 -52l64 64q6 6 12 1l7 -7q7 -6 1 -12l-65 -65
q52 -59 52 -140t-52 -140zM100 350q0 -75 51 -126t125.5 -51t125.5 51t51 126t-51 126t-125.5 51t-125.5 -51t-51 -126z" />
    <glyph glyph-name="yen" unicode="&#xa5;" horiz-adv-x="565" 
d="M534 700q6 0 8 -3.5t-2 -8.5l-231 -348h173q10 0 10 -10v-11q0 -10 -10 -10h-181v-93h181q10 0 10 -10v-12q0 -10 -10 -10h-181v-174q0 -10 -10 -10h-17q-10 0 -10 10v174h-179q-10 0 -10 10v12q0 10 10 10h179v93h-179q-10 0 -10 10v11q0 10 10 10h171l-231 348
q-4 5 -2 8.5t8 3.5h19q7 0 12 -6l220 -332l221 332q5 6 12 6h19z" />
    <glyph glyph-name="brokenbar" unicode="&#xa6;" horiz-adv-x="222" 
d="M103 350q-10 0 -10 10v350q0 10 10 10h16q10 0 10 -10v-350q0 -10 -10 -10h-16zM103 -200q-10 0 -10 10v350q0 10 10 10h16q10 0 10 -10v-350q0 -10 -10 -10h-16z" />
    <glyph glyph-name="section" unicode="&#xa7;" horiz-adv-x="530" 
d="M397 135q50 -44 50 -104q0 -63 -49 -103t-131 -40t-134 40.5t-56 109.5q-1 10 10 10h15q9 0 10 -10q4 -54 46 -85.5t109 -31.5q64 0 104 29.5t40 80.5q0 22 -10.5 42t-24 33.5t-40.5 29t-45 24t-52 23.5q-3 1 -9 4q-32 14 -48.5 22t-43 24.5t-40 30.5t-24.5 36t-11 46
q0 36 19.5 67t52.5 52q-48 43 -48 104q0 62 47.5 102t123.5 40q74 0 124.5 -40.5t53.5 -108.5q1 -10 -10 -10h-15q-9 0 -10 10q-4 53 -43.5 84t-99.5 31q-59 0 -97.5 -29.5t-38.5 -78.5q0 -19 6 -36t19.5 -31t25.5 -24.5t36.5 -23t38.5 -19t43 -18.5q4 -2 11 -5
q31 -14 47.5 -22.5t43 -24.5t39.5 -30.5t24 -36t11 -46.5q0 -35 -18.5 -66t-51.5 -51zM99 346q0 -19 9 -36t20 -28.5t34 -25t38 -20.5t43 -19q7 -3 10 -4q81 -34 116 -57q62 34 62 96q0 20 -9 37t-20 28.5t-34 25t-37.5 20.5t-43.5 19q-2 1 -3.5 2t-3.5 1.5t-4 1.5
q-82 35 -114 57q-31 -17 -47 -42.5t-16 -55.5z" />
    <glyph glyph-name="dieresis" unicode="&#xa8;" horiz-adv-x="267" 
d="M29 580q-9 0 -9 9v49q0 9 9 9h22q9 0 9 -9v-49q0 -9 -9 -9h-22zM215 580q-8 0 -8 9v49q0 9 8 9h23q9 0 9 -9v-49q0 -9 -9 -9h-23z" />
    <glyph glyph-name="copyright" unicode="&#xa9;" horiz-adv-x="831" 
d="M415.5 -11q-98.5 0 -182 48.5t-132 131.5t-48.5 181t48.5 181t132 131.5t182 48.5t181.5 -48.5t131.5 -131.5t48.5 -181t-48.5 -181t-131.5 -131.5t-181.5 -48.5zM415 11q92 0 170 45t123.5 123t45.5 171t-45.5 171t-123.5 123t-170 45t-170 -45t-123 -123t-45 -171
t45 -171t123 -123t170 -45zM418 158q-83 0 -138.5 55.5t-55.5 136.5t55.5 136.5t138.5 55.5q62 0 109 -32.5t66 -86.5q4 -11 -9 -11h-16q-8 0 -11 8q-11 28 -31.5 48t-48 30.5t-59.5 10.5q-69 0 -114 -46t-45 -113q0 -43 20 -79.5t56.5 -58t82.5 -21.5q32 0 59.5 10.5
t48 30.5t31.5 48q3 8 11 8h16q13 0 9 -10q-18 -54 -65.5 -87t-109.5 -33z" />
    <glyph glyph-name="ordfeminine" unicode="&#xaa;" horiz-adv-x="277" 
d="M139 711q40 0 65.5 -23.5t25.5 -65.5v-159q0 -8 -7 -8h-14q-7 0 -7 8v18q-23 -31 -77 -31q-24 0 -43.5 9t-32 27t-12.5 42q0 35 25.5 55.5t62.5 20.5q52 0 77 -31v49q0 19 -7.5 33t-22 21.5t-33.5 7.5q-27 0 -44 -12.5t-19 -32.5q-2 -7 -8 -7h-14q-8 0 -7 7
q3 33 27.5 52.5t64.5 19.5zM129 475q30 0 51.5 12.5t21.5 40.5q0 27 -21.5 39.5t-51.5 12.5q-29 0 -46.5 -14.5t-17.5 -37.5q0 -25 17.5 -39t46.5 -14z" />
    <glyph glyph-name="guillemotleft" unicode="&#xab;" horiz-adv-x="447" 
d="M221 476q14 0 7 -12l-96 -155l96 -155q7 -12 -7 -12h-20q-8 0 -12 7l-95 153q-4 7 0 14l95 153q4 7 12 7h20zM343 476q13 0 6 -12l-96 -155l96 -155q7 -12 -6 -12h-20q-8 0 -12 7l-96 153q-4 7 0 14l96 153q4 7 12 7h20z" />
    <glyph glyph-name="logicalnot" unicode="&#xac;" horiz-adv-x="520" 
d="M443 382q10 0 10 -10v-23v-124q0 -10 -10 -10h-15q-10 0 -10 10v124h-341q-10 0 -10 10v13q0 10 10 10h366z" />
    <glyph glyph-name="registered" unicode="&#xae;" horiz-adv-x="831" 
d="M415.5 711q98.5 0 181.5 -48.5t131.5 -131.5t48.5 -181t-48.5 -181t-131.5 -131.5t-181.5 -48.5t-182 48.5t-132 131.5t-48.5 181t48.5 181t132 131.5t182 48.5zM415 11q69 0 132 26.5t108 72t72 108.5t27 132q0 93 -45.5 171t-123.5 123t-170 45q-55 0 -106.5 -17
t-93 -48t-73 -73t-48.5 -93.5t-17 -107.5q0 -93 45 -171t123 -123t170 -45zM473 317l108 -140q4 -5 2.5 -8.5t-8.5 -3.5h-16q-7 0 -12 6l-108 140q-10 -1 -20 -1h-73v-135q0 -10 -10 -10h-14q-10 0 -10 10v350q0 10 10 10h24h73q66 0 100 -33t34 -79q0 -85 -80 -106z
M346 342h75q98 0 98 81q0 35 -25.5 57.5t-72.5 22.5h-75v-161z" />
    <glyph glyph-name="macron" unicode="&#xaf;" horiz-adv-x="287" 
d="M29 594q-9 0 -9 9v12q0 9 9 9h229q9 0 9 -9v-12q0 -9 -9 -9h-229z" />
    <glyph glyph-name="degree" unicode="&#xb0;" horiz-adv-x="386" 
d="M193 523q-62 0 -104 42t-42 101.5t42 101.5t104 42t104 -42t42 -101q0 -61 -41 -102.5t-105 -41.5zM193 555q48 0 80 32t32 80q0 47 -32 79t-80 32t-80 -32t-32 -79t32 -79.5t80 -32.5z" />
    <glyph glyph-name="plusminus" unicode="&#xb1;" horiz-adv-x="527" 
d="M450 428q10 0 10 -10v-13q0 -10 -10 -10h-169v-165q0 -10 -10 -10h-15q-10 0 -10 10v165h-169q-10 0 -10 10v13q0 10 10 10h169v165q0 10 10 10h15q10 0 10 -10v-165h169zM450 130q10 0 10 -10v-13q0 -10 -10 -10h-373q-10 0 -10 10v13q0 10 10 10h373z" />
    <glyph glyph-name="acute" unicode="&#xb4;" horiz-adv-x="161" 
d="M27 581q-3 -4 -1 -7.5t7 -3.5h13q7 0 11 6l76 106q3 5 1.5 8t-7.5 3h-20q-7 0 -11 -6z" />
    <glyph glyph-name="uni00B5" unicode="&#xb5;" horiz-adv-x="569" 
d="M522 33q10 0 10 -10v-13q0 -10 -10 -10h-19q-24 0 -41.5 9.5t-27 28t-9.5 42.5v19q-25 -57 -71.5 -83.5t-102.5 -26.5q-90 0 -132 70v-249q0 -10 -10 -10h-16q-10 0 -10 10v680q0 10 10 10h16q10 0 10 -10v-324q0 -67 37 -105t98 -38q71 0 121 50.5t50 144.5v272
q0 10 10 10h15q10 0 10 -10v-410q0 -27 15 -37t47 -10z" />
    <glyph glyph-name="paragraph" unicode="&#xb6;" horiz-adv-x="560" 
d="M503 700q10 0 10 -10v-13q0 -10 -10 -10h-50v-857q0 -10 -10 -10h-14q-10 0 -10 10v857h-151v-857q0 -10 -10 -10h-15q-10 0 -10 10v517q-77 0 -131.5 54.5t-54.5 131.5q0 78 54.5 132.5t131.5 54.5h35h185h50z" />
    <glyph glyph-name="periodcentered" unicode="&#xb7;" horiz-adv-x="197" 
d="M87 315q-10 0 -10 10v50q0 10 10 10h23q10 0 10 -10v-50q0 -10 -10 -10h-23z" />
    <glyph glyph-name="cedilla" unicode="&#xb8;" horiz-adv-x="212" 
d="M109 -68q37 0 63 -18t26 -49q0 -39 -42.5 -59.5t-132.5 -12.5q-10 0 -10 9v10q0 10 11 9q70 -7 106.5 5t36.5 39q0 45 -80 43q-10 1 -10 10v82h32v-68z" />
    <glyph glyph-name="ordmasculine" unicode="&#xba;" horiz-adv-x="335" 
d="M168 450q-55 0 -93 37.5t-38 92.5q0 56 38 93.5t93 37.5q27 0 51 -10t41.5 -27.5t27.5 -41.5t10 -52q0 -55 -37.5 -92.5t-92.5 -37.5zM168 477q44 0 73 29.5t29 73.5q0 45 -29 74.5t-73 29.5q-29 0 -52.5 -13.5t-37 -37t-13.5 -53.5q0 -44 29.5 -73.5t73.5 -29.5z" />
    <glyph glyph-name="guillemotright" unicode="&#xbb;" horiz-adv-x="447" 
d="M104 476h20q8 0 12 -7l95 -153q5 -7 0 -14l-95 -153q-4 -7 -12 -7h-20q-14 0 -6 12l95 155l-95 155q-8 12 6 12zM225 476h20q8 0 12 -7l96 -153q4 -7 0 -14l-96 -153q-4 -7 -12 -7h-20q-13 0 -6 12l96 155l-96 155q-7 12 6 12z" />
    <glyph glyph-name="onequarter" unicode="&#xbc;" horiz-adv-x="836" 
d="M145 309v355l-108 -58q-10 -6 -10 7v16q0 7 6 11l107 57q5 3 11 3h19q9 0 9 -9v-382q0 -9 -9 -9h-16q-9 0 -9 9zM572 700q6 0 8 -3.5t-1 -8.5l-403 -681q-3 -7 -12 -7h-11q-6 0 -8 3.5t1 8.5l402 681q4 7 12 7h12zM801 116q9 0 9 -9v-13q0 -9 -9 -9h-50v-76q0 -9 -9 -9
h-16q-9 0 -9 9v76h-211q-9 0 -9 9v16q0 7 3 12l146 272q3 6 11 6h16q5 0 7 -3t0 -8l-146 -273h183v104q0 9 9 9h16q9 0 9 -9v-104h50z" />
    <glyph glyph-name="onehalf" unicode="&#xbd;" horiz-adv-x="823" 
d="M140 697q5 3 11 3h19q9 0 9 -9v-382q0 -9 -9 -9h-16q-9 0 -9 9v355l-108 -58q-10 -6 -10 7v16q0 7 6 11zM153 0q-6 0 -8 3.5t1 8.5l402 681q4 7 12 7h12q6 0 8 -3.5t-1 -8.5l-403 -681q-3 -7 -12 -7h-11zM525 0q-9 0 -9 9v11q0 7 5 12l176 166q47 44 47 98q0 34 -25 59
t-67 25t-68.5 -22t-29.5 -58q-1 -8 -9 -8h-16q-10 0 -9 9q4 50 40 80.5t92 30.5t91 -34t35 -81q0 -65 -58 -120l-154 -145h211q9 0 9 -9v-14q0 -9 -9 -9h-252z" />
    <glyph glyph-name="threequarters" unicode="&#xbe;" horiz-adv-x="937" 
d="M308 414q0 -55 -37 -90.5t-101 -35.5q-41 0 -72 15.5t-47.5 41.5t-18.5 59q-1 10 9 10h16q8 0 9 -9q3 -37 29.5 -61t74.5 -24q17 0 32 3.5t26 9.5t20 14.5t14.5 19t8.5 22.5t3 25q0 26 -11.5 46.5t-35.5 33.5t-57 13h-10q-9 0 -9 9v11q0 6 4 11l98 130h-197q-9 0 -9 9v14
q0 9 9 9h227q9 0 9 -9v-17q0 -5 -4 -11l-97 -128q37 -4 63.5 -21t40 -43t13.5 -57zM672 700q6 0 8 -3.5t-1 -8.5l-402 -681q-4 -7 -12 -7h-12q-6 0 -8 3.5t1 8.5l403 681q3 7 12 7h11zM901 116q9 0 9 -9v-13q0 -9 -9 -9h-49v-76q0 -9 -9 -9h-16q-9 0 -9 9v76h-211q-9 0 -9 9
v16q0 7 2 12l146 272q4 6 11 6h16q6 0 7.5 -3t-0.5 -8l-146 -273h184v104q0 9 9 9h16q9 0 9 -9v-104h49z" />
    <glyph glyph-name="questiondown" unicode="&#xbf;" horiz-adv-x="522" 
d="M291 500q10 0 10 -10v-50q0 -10 -10 -10h-23q-10 0 -10 10v50q0 10 10 10h23zM288 330q10 0 10 -10q-2 -46 -23.5 -87.5t-51 -72.5t-58 -60t-48.5 -64t-20 -72q0 -65 43 -102.5t120 -37.5q49 0 88.5 18t63.5 49.5t26 71.5q1 10 10 10h17q10 0 10 -11q-4 -76 -67 -124.5
t-148 -48.5q-89 0 -144.5 46.5t-55.5 128.5q0 40 20 77.5t48.5 67.5t58 60.5t51 69.5t23.5 81q1 10 10 10h17z" />
    <glyph glyph-name="Agrave" unicode="&#xc0;" horiz-adv-x="629" 
d="M308 776l-76 106q-4 5 -2 8t8 3h19q7 0 11 -6l69 -106q3 -4 1.5 -7.5t-7.5 -3.5h-12q-7 0 -11 6zM604 12q4 -12 -8 -12h-18q-8 0 -11 8l-69 177h-368l-68 -177q-3 -8 -12 -8h-18q-12 0 -7 12l266 680q3 8 12 8h23q8 0 11 -8zM144 219h341l-171 438z" />
    <glyph glyph-name="Aacute" unicode="&#xc1;" horiz-adv-x="629" 
d="M294 770q-5 0 -7 3.5t1 7.5l69 106q4 6 11 6h20q6 0 7.5 -3t-1.5 -8l-76 -106q-4 -6 -11 -6h-13zM604 12q4 -12 -8 -12h-18q-8 0 -11 8l-69 177h-368l-68 -177q-3 -8 -12 -8h-18q-12 0 -7 12l266 680q3 8 12 8h23q8 0 11 -8zM144 219h341l-171 438z" />
    <glyph glyph-name="Acircumflex" unicode="&#xc2;" horiz-adv-x="629" 
d="M198 770q-6 0 -7.5 3.5t2.5 7.5l95 107q4 5 11 5h18h10q7 0 11 -5l96 -107q3 -4 1.5 -7.5t-7.5 -3.5h-17q-7 0 -12 5l-86 97l-86 -97q-5 -5 -12 -5h-17zM604 12q4 -12 -8 -12h-17q-9 0 -12 8l-69 177h-367l-69 -177q-3 -8 -12 -8h-17q-13 0 -8 12l266 680q3 8 12 8h23
q8 0 11 -8zM144 219h341l-171 438z" />
    <glyph glyph-name="Atilde" unicode="&#xc3;" horiz-adv-x="629" 
d="M192 787q-10 0 -9 9q3 70 43.5 85.5t91.5 -33.5q42 -41 68.5 -34.5t28.5 56.5q1 9 10 9h12q10 0 9 -9q-3 -69 -44 -84.5t-91 32.5q-42 41 -69 34.5t-29 -56.5q0 -9 -9 -9h-12zM604 12q4 -12 -8 -12h-18q-8 0 -11 8l-69 177h-368l-68 -177q-3 -8 -12 -8h-18q-12 0 -7 12
l266 680q3 8 12 8h23q8 0 11 -8zM144 219h341l-171 438z" />
    <glyph glyph-name="Adieresis" unicode="&#xc4;" horiz-adv-x="629" 
d="M210 780q-9 0 -9 9v49q0 9 9 9h22q9 0 9 -9v-49q0 -9 -9 -9h-22zM396 780q-8 0 -8 9v49q0 9 8 9h23q9 0 9 -9v-49q0 -9 -9 -9h-23zM604 12q4 -12 -8 -12h-17q-9 0 -12 8l-69 177h-367l-69 -177q-3 -8 -12 -8h-17q-13 0 -8 12l266 680q3 8 12 8h23q8 0 11 -8zM144 219h341
l-171 438z" />
    <glyph glyph-name="Aring" unicode="&#xc5;" horiz-adv-x="629" 
d="M314 757q-29 0 -51.5 12t-34.5 33.5t-12 47.5q0 40 27.5 66.5t70.5 26.5q22 0 41 -7t31.5 -19.5t19.5 -29.5t7 -37q0 -40 -27 -66.5t-72 -26.5zM314 916q-31 0 -49.5 -18.5t-18.5 -47.5t18.5 -47.5t49.5 -18.5q32 0 50.5 18.5t18.5 47.5t-18.5 47.5t-50.5 18.5zM604 12
q4 -12 -8 -12h-18q-8 0 -11 8l-69 177h-368l-68 -177q-3 -8 -12 -8h-18q-12 0 -7 12l266 680q3 8 12 8h23q8 0 11 -8zM144 219h341l-171 438z" />
    <glyph glyph-name="AE" unicode="&#xc6;" horiz-adv-x="865" 
d="M809 34q10 0 10 -10v-14q0 -10 -10 -10h-340h-10q-10 0 -10 10v183h-282l-114 -186q-4 -7 -12 -7h-20q-14 0 -7 12l417 681q4 7 12 7h22h20h319q10 0 10 -10v-14q0 -10 -10 -10h-319v-296h297q10 0 10 -10v-14q0 -10 -10 -10h-297v-302h324zM187 227h262v429z" />
    <glyph glyph-name="Ccedilla" unicode="&#xc7;" horiz-adv-x="774" 
d="M725 207q5 0 7.5 -3t0.5 -8q-35 -89 -116.5 -145t-183.5 -61v-58q37 0 63.5 -18t26.5 -49q0 -39 -42.5 -59.5t-132.5 -12.5q-10 0 -10 9v10q0 10 10 9q71 -7 107.5 5t36.5 39q0 45 -80 43q-10 1 -10 10v72q-100 3 -180 52t-124.5 130t-44.5 178q0 99 46 181.5t129.5 131
t187.5 48.5q107 0 193.5 -57t122.5 -149q4 -12 -8 -12h-19q-8 0 -11 8q-34 79 -109.5 127t-168.5 48q-94 0 -169 -44t-116 -118t-41 -164t41 -164t116 -118t169 -44q93 0 168.5 48t109.5 127q3 8 11 8h20z" />
    <glyph glyph-name="Egrave" unicode="&#xc8;" horiz-adv-x="520" 
d="M271 776l-76 106q-4 5 -2 8t8 3h19q7 0 11 -6l69 -106q3 -4 1.5 -7.5t-7.5 -3.5h-12q-7 0 -11 6zM463 34q10 0 10 -10v-14q0 -10 -10 -10h-353h-7q-10 0 -10 10v680q0 10 10 10h27h328q10 0 10 -10v-14q0 -10 -10 -10h-328v-296h303q10 0 10 -10v-14q0 -10 -10 -10h-303
v-302h333z" />
    <glyph glyph-name="Eacute" unicode="&#xc9;" horiz-adv-x="520" 
d="M257 770q-5 0 -7 3.5t1 7.5l69 106q4 6 11 6h20q6 0 7.5 -3t-1.5 -8l-76 -106q-4 -6 -11 -6h-13zM463 34q10 0 10 -10v-14q0 -10 -10 -10h-353h-7q-10 0 -10 10v680q0 10 10 10h27h328q10 0 10 -10v-14q0 -10 -10 -10h-328v-296h303q10 0 10 -10v-14q0 -10 -10 -10h-303
v-302h333z" />
    <glyph glyph-name="Ecircumflex" unicode="&#xca;" horiz-adv-x="520" 
d="M161 770q-6 0 -7.5 3.5t2.5 7.5l95 107q4 5 11 5h18h10q7 0 11 -5l96 -107q3 -4 1.5 -7.5t-7.5 -3.5h-17q-7 0 -12 5l-86 97l-86 -97q-5 -5 -12 -5h-17zM463 34q10 0 10 -10v-14q0 -10 -10 -10h-353h-7q-10 0 -10 10v680q0 10 10 10h27h328q10 0 10 -10v-14
q0 -10 -10 -10h-328v-296h303q10 0 10 -10v-14q0 -10 -10 -10h-303v-302h333z" />
    <glyph glyph-name="Edieresis" unicode="&#xcb;" horiz-adv-x="520" 
d="M173 780q-9 0 -9 9v49q0 9 9 9h22q9 0 9 -9v-49q0 -9 -9 -9h-22zM359 780q-8 0 -8 9v49q0 9 8 9h23q9 0 9 -9v-49q0 -9 -9 -9h-23zM463 34q10 0 10 -10v-14q0 -10 -10 -10h-353h-7q-10 0 -10 10v680q0 10 10 10h27h328q10 0 10 -10v-14q0 -10 -10 -10h-328v-296h303
q10 0 10 -10v-14q0 -10 -10 -10h-303v-302h333z" />
    <glyph glyph-name="Igrave" unicode="&#xcc;" horiz-adv-x="223" 
d="M128 770q6 0 8 3.5t-1 7.5l-70 106q-3 6 -11 6h-19q-6 0 -7.5 -3t1.5 -8l76 -106q4 -6 11 -6h12zM93 690q0 10 10 10h17q10 0 10 -10v-680q0 -10 -10 -10h-17q-10 0 -10 10v680z" />
    <glyph glyph-name="Iacute" unicode="&#xcd;" horiz-adv-x="223" 
d="M85 781q-3 -4 -1 -7.5t8 -3.5h12q8 0 12 6l75 106q3 5 1.5 8t-7.5 3h-19q-8 0 -11 -6zM93 690q0 10 10 10h17q10 0 10 -10v-680q0 -10 -10 -10h-17q-10 0 -10 10v680z" />
    <glyph glyph-name="Icircumflex" unicode="&#xce;" horiz-adv-x="223" 
d="M231 781q4 -4 2.5 -7.5t-7.5 -3.5h-18q-7 0 -11 5l-87 97l-86 -97q-4 -5 -11 -5h-18q-6 0 -7.5 3.5t2.5 7.5l95 107q4 5 12 5h17h10q7 0 11 -5zM120 700q10 0 10 -10v-680q0 -10 -10 -10h-17q-10 0 -10 10v680q0 10 10 10h17z" />
    <glyph glyph-name="Idieresis" unicode="&#xcf;" horiz-adv-x="223" 
d="M7 780q-9 0 -9 9v49q0 9 9 9h23q8 0 8 -9v-49q0 -9 -8 -9h-23zM194 780q-9 0 -9 9v49q0 9 9 9h22q9 0 9 -9v-49q0 -9 -9 -9h-22zM93 690q0 10 10 10h17q10 0 10 -10v-680q0 -10 -10 -10h-17q-10 0 -10 10v680z" />
    <glyph glyph-name="Eth" unicode="&#xd0;" horiz-adv-x="773" 
d="M390 700q57 0 108.5 -17.5t91.5 -50t69.5 -76t45 -96.5t15.5 -110q0 -96 -42 -176t-118 -127t-170 -47h-260h-7q-10 0 -10 10v323h-53q-10 0 -10 10v14q0 10 10 10h53v323q0 10 10 10h27h240zM390 34q128 0 211 91.5t83 224.5t-83 224.5t-211 91.5h-240v-299h250
q10 0 10 -10v-14q0 -10 -10 -10h-250v-299h240z" />
    <glyph glyph-name="Ntilde" unicode="&#xd1;" horiz-adv-x="630" 
d="M192 787q-9 0 -9 9q3 70 44 85.5t92 -33.5q41 -41 68 -34.5t29 56.5q1 9 10 9h12q9 0 9 -9q-3 -69 -44 -84.5t-91 32.5q-43 41 -69.5 34.5t-28.5 -56.5q-1 -9 -10 -9h-12zM500 690q0 10 10 10h17q10 0 10 -10v-680q0 -10 -10 -10h-16q-8 0 -12 7l-369 621v-618
q0 -10 -10 -10h-17q-10 0 -10 10v680q0 10 10 10h16q8 0 12 -7l369 -621v618z" />
    <glyph glyph-name="Ograve" unicode="&#xd2;" horiz-adv-x="828" 
d="M431 770q5 0 7 3.5t-1 7.5l-69 106q-4 6 -11 6h-20q-6 0 -7.5 -3t2.5 -8l75 -106q4 -6 12 -6h12zM414 -11q-74 0 -141 28.5t-115 77t-76.5 115t-28.5 140t28.5 140.5t76.5 115.5t115 77t141 28.5t141 -28.5t115 -77t76.5 -115.5t28.5 -140q0 -98 -48 -181t-131 -131.5
t-182 -48.5zM414 24q67 0 127 26t103 69.5t68.5 103.5t25.5 127q0 89 -43 164t-117.5 118.5t-163.5 43.5t-163.5 -43.5t-117.5 -118.5t-43 -164t43 -164t117.5 -118.5t163.5 -43.5z" />
    <glyph glyph-name="Oacute" unicode="&#xd3;" horiz-adv-x="828" 
d="M388 781q-3 -4 -1.5 -7.5t7.5 -3.5h13q7 0 11 6l75 106q4 5 2 8t-8 3h-19q-7 0 -11 -6zM414 -11q-99 0 -182 48.5t-131 131.5t-48 181q0 73 28.5 140t76.5 115.5t115 77t141 28.5t141 -28.5t115 -77t76.5 -115.5t28.5 -140q0 -98 -48 -181t-131 -131.5t-182 -48.5z
M414 24q89 0 163.5 43.5t117.5 118.5t43 164t-43 164t-117.5 118.5t-163.5 43.5t-163.5 -43.5t-117.5 -118.5t-43 -164t43 -164t117.5 -118.5t163.5 -43.5z" />
    <glyph glyph-name="Ocircumflex" unicode="&#xd4;" horiz-adv-x="828" 
d="M297 770q-6 0 -7.5 3.5t2.5 7.5l96 107q4 5 11 5h18h9q8 0 12 -5l95 -107q4 -4 2.5 -7.5t-7.5 -3.5h-18q-7 0 -11 5l-86 97l-87 -97q-4 -5 -11 -5h-18zM414 711q74 0 141 -28.5t115 -77t76.5 -115t28.5 -140.5q0 -98 -48 -181t-131 -131.5t-182 -48.5t-182 48.5
t-131 131.5t-48 181q0 74 28.5 140.5t76.5 115t115 77t141 28.5zM414 24q67 0 127 26t103 69.5t68.5 103.5t25.5 127q0 89 -43 164t-117.5 118.5t-163.5 43.5t-163.5 -43.5t-117.5 -118.5t-43 -164t43 -164t117.5 -118.5t163.5 -43.5z" />
    <glyph glyph-name="Otilde" unicode="&#xd5;" horiz-adv-x="828" 
d="M291 787q-9 0 -9 9q3 70 44 85.5t92 -33.5q41 -41 68 -34.5t29 56.5q1 9 10 9h12q9 0 9 -9q-3 -69 -44 -84.5t-91 32.5q-43 41 -69.5 34.5t-28.5 -56.5q-1 -9 -10 -9h-12zM414 -11q-99 0 -182 48.5t-131 131.5t-48 181q0 74 28.5 140.5t76.5 115t115 77t141 28.5
t141 -28.5t115 -77t76.5 -115t28.5 -140.5q0 -98 -48 -181t-131 -131.5t-182 -48.5zM414 24q67 0 127 26t103 69.5t68.5 104t25.5 126.5q0 89 -43 164t-117.5 118.5t-163.5 43.5t-163.5 -43.5t-117.5 -118.5t-43 -164t43 -164t117.5 -118.5t163.5 -43.5z" />
    <glyph glyph-name="Odieresis" unicode="&#xd6;" horiz-adv-x="828" 
d="M309 780q-8 0 -8 9v49q0 9 8 9h23q9 0 9 -9v-49q0 -9 -9 -9h-23zM496 780q-9 0 -9 9v49q0 9 9 9h23q8 0 8 -9v-49q0 -9 -8 -9h-23zM414 -11q-99 0 -182 48.5t-131 131.5t-48 181q0 73 28.5 140t76.5 115.5t115 77t141 28.5t141 -28.5t115 -77t76.5 -115.5t28.5 -140
q0 -98 -48 -181t-131 -131.5t-182 -48.5zM414 24q135 0 229.5 95.5t94.5 230.5t-94.5 230.5t-229.5 95.5t-229.5 -95.5t-94.5 -230.5t94.5 -230.5t229.5 -95.5z" />
    <glyph glyph-name="multiply" unicode="&#xd7;" horiz-adv-x="466" 
d="M256 350l140 -140q7 -7 -1 -14l-9 -8q-7 -7 -14 0l-139 139l-138 -139q-7 -7 -14 0l-10 8q-7 7 -1 14l140 140l-140 140q-6 7 1 14l10 8q7 7 14 0l138 -139l139 139q7 7 14 0l9 -8q8 -7 1 -14z" />
    <glyph glyph-name="Oslash" unicode="&#xd8;" horiz-adv-x="838" 
d="M670 615q54 -51 84.5 -119.5t30.5 -145.5q0 -98 -48 -181t-131 -131.5t-182 -48.5q-126 0 -223 77l-52 -60q-5 -6 -12 -6h-16q-6 0 -7.5 4t2.5 8l62 73q-54 51 -84.5 119.5t-30.5 145.5q0 73 28.5 140t76.5 115.5t115 77t141 28.5q126 0 223 -77l52 60q5 6 12 6h16
q6 0 7.5 -4t-2.5 -8zM100 350q0 -69 27 -130.5t74 -107.5l423 495q-87 69 -200 69q-135 0 -229.5 -95.5t-94.5 -230.5zM424 24q89 0 163.5 43.5t117.5 118.5t43 164q0 69 -27 130.5t-74 107.5l-423 -495q87 -69 200 -69z" />
    <glyph glyph-name="Ugrave" unicode="&#xd9;" horiz-adv-x="627" 
d="M327 770q5 0 7 3.5t-1 7.5l-69 106q-4 6 -11 6h-20q-6 0 -7.5 -3t2.5 -8l75 -106q4 -6 12 -6h12zM313.5 -11q-101.5 0 -166 55.5t-64.5 151.5v494q0 10 10 10h17q10 0 10 -10v-494q0 -80 51.5 -126t141.5 -46q60 0 103.5 21t67 59.5t23.5 91.5v494q0 10 10 10h16
q10 0 10 -10v-494q0 -96 -64 -151.5t-165.5 -55.5z" />
    <glyph glyph-name="Uacute" unicode="&#xda;" horiz-adv-x="627" 
d="M284 781q-3 -4 -1.5 -7.5t7.5 -3.5h13q7 0 11 6l75 106q4 5 2 8t-8 3h-19q-7 0 -11 -6zM313.5 -11q-101.5 0 -166 55.5t-64.5 151.5v494q0 10 10 10h17q10 0 10 -10v-494q0 -80 51.5 -126t141.5 -46q60 0 103.5 21t67 59.5t23.5 91.5v494q0 10 10 10h16q10 0 10 -10v-494
q0 -96 -64 -151.5t-165.5 -55.5z" />
    <glyph glyph-name="Ucircumflex" unicode="&#xdb;" horiz-adv-x="627" 
d="M193 770q-6 0 -7.5 3.5t2.5 7.5l96 107q4 5 11 5h18h9q8 0 12 -5l95 -107q4 -4 2.5 -7.5t-7.5 -3.5h-18q-7 0 -11 5l-86 97l-87 -97q-4 -5 -11 -5h-18zM533 700q10 0 10 -10v-494q0 -96 -64 -151.5t-165.5 -55.5t-166 55.5t-64.5 151.5v494q0 10 10 10h17q10 0 10 -10
v-494q0 -80 51.5 -126t141.5 -46q60 0 103.5 21t67 59.5t23.5 91.5v494q0 10 10 10h16z" />
    <glyph glyph-name="Udieresis" unicode="&#xdc;" horiz-adv-x="627" 
d="M205 780q-8 0 -8 9v49q0 9 8 9h23q9 0 9 -9v-49q0 -9 -9 -9h-23zM392 780q-9 0 -9 9v49q0 9 9 9h23q8 0 8 -9v-49q0 -9 -8 -9h-23zM313.5 -11q-101.5 0 -166 55.5t-64.5 151.5v494q0 10 10 10h17q10 0 10 -10v-494q0 -80 51.5 -126t141.5 -46t142 46t52 126v494
q0 10 10 10h16q10 0 10 -10v-494q0 -96 -64 -151.5t-165.5 -55.5z" />
    <glyph glyph-name="Yacute" unicode="&#xdd;" horiz-adv-x="565" 
d="M261 770q-5 0 -7 3.5t1 7.5l69 106q4 6 11 6h20q6 0 7.5 -3t-1.5 -8l-76 -106q-4 -6 -11 -6h-13zM534 700q6 0 8 -3.5t-2 -8.5l-239 -360v-318q0 -10 -10 -10h-17q-10 0 -10 10v319l-239 359q-4 5 -2 8.5t8 3.5h19q7 0 12 -6l220 -332l221 332q5 6 12 6h19z" />
    <glyph glyph-name="Thorn" unicode="&#xde;" horiz-adv-x="573" 
d="M323 553q84 0 144 -59.5t60 -143.5t-60 -143.5t-144 -59.5h-193v-137q0 -10 -10 -10h-17q-10 0 -10 10v680q0 10 10 10h17q10 0 10 -10v-137h193zM323 181q69 0 118 49.5t49 119.5t-49 119.5t-118 49.5h-193v-338h193z" />
    <glyph glyph-name="germandbls" unicode="&#xdf;" horiz-adv-x="496" 
d="M290 -5q-10 0 -10 11v12q0 9 11 9q65 -1 104 29.5t39 84.5q0 29 -15.5 57.5t-37.5 51.5t-44 45.5t-37 47t-15 46.5q0 15 6.5 30t17 27.5t22.5 27.5t22.5 28.5t17.5 32t7 37.5q0 48 -32.5 76.5t-85.5 28.5q-42 0 -73 -16.5t-49.5 -51t-18.5 -84.5v-515q0 -10 -10 -10h-16
q-10 0 -10 10v515q0 89 49.5 137.5t127.5 48.5q69 0 111 -39.5t42 -99.5q0 -32 -14.5 -61t-32.5 -47t-32.5 -38.5t-14.5 -36.5q0 -18 15.5 -39.5t37.5 -43t44 -45t37.5 -55.5t15.5 -65q0 -67 -48.5 -107t-130.5 -39z" />
    <glyph glyph-name="agrave" unicode="&#xe0;" horiz-adv-x="499" 
d="M244 576l-76 106q-3 5 -1.5 8t7.5 3h19q8 0 11 -6l70 -106q3 -4 1 -7.5t-8 -3.5h-12q-7 0 -11 6zM250 511q78 0 129 -47.5t51 -131.5v-322q0 -10 -10 -10h-15q-10 0 -10 10v55q-42 -76 -166 -76q-75 0 -127 41t-52 113.5t52 113.5t127 41q56 0 99.5 -19.5t66.5 -55.5v109
q0 69 -41 107t-104 38q-60 0 -100 -30.5t-44 -85.5q-2 -9 -10 -9h-16q-10 0 -10 10q5 66 54 107.5t126 41.5zM234 22q46 0 81 12t57.5 40.5t22.5 69.5q0 61 -46 91t-115 30t-109 -33t-40 -88t40 -88.5t109 -33.5z" />
    <glyph glyph-name="aacute" unicode="&#xe1;" horiz-adv-x="499" 
d="M231 570q-6 0 -8 3.5t1 7.5l70 106q3 6 11 6h19q6 0 7.5 -3t-1.5 -8l-75 -106q-4 -6 -12 -6h-12zM250 511q78 0 129 -47.5t51 -131.5v-322q0 -10 -10 -10h-15q-10 0 -10 10v55q-42 -76 -166 -76q-75 0 -127 41t-52 113.5t52 113.5t127 41q56 0 99.5 -19.5t66.5 -55.5v109
q0 69 -41 107t-104 38q-60 0 -100 -30.5t-44 -85.5q-2 -9 -10 -9h-16q-10 0 -10 10q5 66 54 107.5t126 41.5zM234 22q46 0 81 12t57.5 40.5t22.5 69.5q0 61 -46 91t-115 30t-109 -33t-40 -88t40 -88.5t109 -33.5z" />
    <glyph glyph-name="acircumflex" unicode="&#xe2;" horiz-adv-x="499" 
d="M134 570q-6 0 -7.5 3.5t2.5 7.5l95 107q4 5 12 5h17h10q7 0 11 -5l96 -107q4 -4 2.5 -7.5t-7.5 -3.5h-18q-7 0 -11 5l-87 97l-86 -97q-4 -5 -11 -5h-18zM250 511q78 0 129 -47.5t51 -131.5v-322q0 -10 -10 -10h-15q-10 0 -10 10v55q-42 -76 -166 -76q-75 0 -127 41
t-52 113.5t52 113.5t127 41q56 0 99.5 -19.5t66.5 -55.5v109q0 69 -41 107t-104 38q-60 0 -100 -30.5t-44 -85.5q-2 -9 -10 -9h-16q-10 0 -10 10q5 66 54 107.5t126 41.5zM234 22q46 0 81 12t57.5 40.5t22.5 69.5q0 61 -46 91t-115 30t-109 -33t-40 -88t40 -88.5t109 -33.5z
" />
    <glyph glyph-name="atilde" unicode="&#xe3;" horiz-adv-x="499" 
d="M128 587q-10 0 -9 9q3 70 43.5 85.5t91.5 -33.5q42 -41 69 -34.5t29 56.5q0 9 9 9h12q10 0 9 -9q-3 -69 -44 -84.5t-91 32.5q-42 41 -68.5 34.5t-28.5 -56.5q-1 -9 -10 -9h-12zM250 511q78 0 129 -47.5t51 -131.5v-322q0 -10 -10 -10h-15q-10 0 -10 10v55
q-42 -76 -166 -76q-75 0 -127 41t-52 113.5t52 113.5t127 41q56 0 99.5 -19.5t66.5 -55.5v109q0 69 -41 107t-104 38q-60 0 -100 -30.5t-44 -85.5q-2 -9 -10 -9h-16q-10 0 -10 10q5 66 54 107.5t126 41.5zM234 22q46 0 81 12t57.5 40.5t22.5 69.5q0 61 -46 91t-115 30
t-109 -33t-40 -88t40 -88.5t109 -33.5z" />
    <glyph glyph-name="adieresis" unicode="&#xe4;" horiz-adv-x="499" 
d="M146 580q-9 0 -9 9v49q0 9 9 9h23q8 0 8 -9v-49q0 -9 -8 -9h-23zM333 580q-9 0 -9 9v49q0 9 9 9h22q9 0 9 -9v-49q0 -9 -9 -9h-22zM250 511q78 0 129 -47.5t51 -131.5v-322q0 -10 -10 -10h-15q-10 0 -10 10v55q-42 -76 -166 -76q-75 0 -127 41t-52 113.5t52 113.5t127 41
q56 0 99.5 -19.5t66.5 -55.5v109q0 69 -41 107t-104 38q-60 0 -100 -30.5t-44 -85.5q-2 -9 -10 -9h-16q-10 0 -10 10q5 66 54 107.5t126 41.5zM234 22q46 0 81 12t57.5 40.5t22.5 69.5q0 61 -46 91t-115 30t-109 -33t-40 -88t40 -88.5t109 -33.5z" />
    <glyph glyph-name="aring" unicode="&#xe5;" horiz-adv-x="499" 
d="M251 557q-29 0 -52 12t-35 33.5t-12 47.5q0 40 27.5 66.5t71.5 26.5q22 0 40.5 -7t31 -19.5t19.5 -29.5t7 -37t-7 -37t-19.5 -29.5t-31 -19.5t-40.5 -7zM251 716q-31 0 -50 -18.5t-19 -47.5q0 -14 5 -26.5t14 -21t21.5 -13.5t28.5 -5q31 0 49.5 18.5t18.5 47.5
t-18.5 47.5t-49.5 18.5zM250 511q78 0 129 -47.5t51 -131.5v-322q0 -10 -10 -10h-15q-10 0 -10 10v55q-42 -76 -166 -76q-75 0 -127 41t-52 113.5t52 113.5t127 41q56 0 99.5 -19.5t66.5 -55.5v109q0 69 -41 107t-104 38q-60 0 -100 -30.5t-44 -85.5q-2 -9 -10 -9h-16
q-10 0 -10 10q5 66 54 107.5t126 41.5zM234 22q46 0 81 12t57.5 40.5t22.5 69.5q0 61 -46 91t-115 30t-109 -33t-40 -88t40 -88.5t109 -33.5z" />
    <glyph glyph-name="ae" unicode="&#xe6;" horiz-adv-x="849" 
d="M608 511q49 0 88.5 -21.5t64.5 -58.5t38.5 -84t13.5 -99v-7q-1 -10 -11 -10h-23h-350q3 -63 24.5 -109.5t61.5 -72.5t95 -26q53 0 92 26.5t55 73.5q2 9 10 9h18q12 0 9 -11q-19 -61 -68 -96.5t-117 -35.5q-67 0 -114.5 34t-72.5 95q-11 -60 -63 -94.5t-121 -34.5
q-82 0 -135 40.5t-53 114.5q0 72 52 113t127 41q36 0 68 -8t57 -24.5t41 -38.5v105q0 69 -41 107t-104 38q-60 0 -100 -30.5t-44 -85.5q-2 -9 -10 -9h-16q-10 0 -10 10q5 66 53.5 107.5t124.5 41.5q43 0 78.5 -15t60.5 -44.5t35 -70.5q24 61 71 95.5t115 34.5zM609 477
q-84 0 -130.5 -58t-49.5 -155h349q-4 98 -50.5 155.5t-118.5 57.5zM239 22q69 0 112.5 34t43.5 88q0 61 -46 91t-115 30t-109 -33t-40 -88t41 -88.5t113 -33.5z" />
    <glyph glyph-name="ccedilla" unicode="&#xe7;" horiz-adv-x="578" 
d="M530 147q12 0 8 -12q-24 -62 -80.5 -101t-129.5 -44v-58q37 0 63 -18t26 -49q0 -39 -42.5 -59.5t-132.5 -12.5q-10 0 -10 9v10q0 10 11 9q70 -7 106.5 5t36.5 39q0 45 -80 43q-10 1 -10 10v72q-107 4 -178 78t-71 182q0 111 74.5 186t186.5 75q80 0 142.5 -40t87.5 -106
q4 -12 -8 -12h-17q-8 0 -11 8q-12 26 -31 47.5t-43.5 37t-55.5 23.5t-64 8q-96 0 -161 -65.5t-65 -161.5t65 -161.5t161 -65.5q67 0 119 31.5t75 84.5q3 8 11 8h17z" />
    <glyph glyph-name="egrave" unicode="&#xe8;" horiz-adv-x="576" 
d="M290 576l-76 106q-4 5 -2 8t8 3h19q7 0 11 -6l69 -106q3 -4 1.5 -7.5t-7.5 -3.5h-12q-7 0 -11 6zM297 511q74 0 130 -37.5t84 -96.5t28 -129v-7q0 -10 -10 -10h-25h-421q6 -94 66 -151t151 -57q63 0 111 27.5t69 73.5q4 8 12 8h17q13 0 9 -10q-24 -61 -82.5 -97
t-135.5 -36q-112 0 -182.5 73.5t-70.5 187.5q0 112 69.5 186.5t180.5 74.5zM297 477q-91 0 -150.5 -59t-64.5 -154h422q-3 49 -20.5 89t-45 67.5t-64 42t-77.5 14.5z" />
    <glyph glyph-name="eacute" unicode="&#xe9;" horiz-adv-x="576" 
d="M276 570q-5 0 -7 3.5t1 7.5l69 106q4 6 11 6h20q6 0 7.5 -3t-1.5 -8l-76 -106q-4 -6 -11 -6h-13zM297 511q73 0 129.5 -37.5t84.5 -96.5t28 -129v-7q-1 -10 -10 -10h-25h-421q6 -94 66 -151t151 -57q63 0 111 27.5t69 73.5q4 8 11 8h18q13 0 9 -10q-16 -40 -47 -70
t-75.5 -46.5t-95.5 -16.5q-112 0 -182.5 73.5t-70.5 187.5q0 112 69.5 186.5t180.5 74.5zM297 477q-91 0 -150.5 -59t-64.5 -154h422q-4 65 -32.5 113.5t-74 74t-100.5 25.5z" />
    <glyph glyph-name="ecircumflex" unicode="&#xea;" horiz-adv-x="576" 
d="M180 570q-6 0 -7.5 3.5t2.5 7.5l95 107q4 5 11 5h18h10q7 0 11 -5l96 -107q3 -4 1.5 -7.5t-7.5 -3.5h-17q-7 0 -12 5l-86 97l-86 -97q-5 -5 -12 -5h-17zM297 511q74 0 130 -37.5t84 -96.5t28 -129v-7q0 -10 -10 -10h-25h-421q6 -94 66.5 -151t150.5 -57q63 0 111 27.5
t69 73.5q4 8 12 8h17q13 0 9 -10q-24 -61 -82.5 -97t-135.5 -36q-74 0 -132 33.5t-89.5 93t-31.5 134.5q0 112 69.5 186.5t180.5 74.5zM297 477q-91 0 -150.5 -59t-64.5 -154h422q-7 97 -65 155t-142 58z" />
    <glyph glyph-name="edieresis" unicode="&#xeb;" horiz-adv-x="576" 
d="M192 580q-9 0 -9 9v49q0 9 9 9h22q9 0 9 -9v-49q0 -9 -9 -9h-22zM378 580q-8 0 -8 9v49q0 9 8 9h23q9 0 9 -9v-49q0 -9 -9 -9h-23zM297 511q73 0 129.5 -37.5t84.5 -96.5t28 -129v-7q0 -10 -10 -10h-25h-421q6 -94 66 -151t151 -57q63 0 111 27.5t69 73.5q4 8 12 8h17
q13 0 9 -10q-24 -61 -82.5 -97t-135.5 -36q-112 0 -182.5 73.5t-70.5 187.5q0 112 69.5 186.5t180.5 74.5zM297 477q-91 0 -150.5 -59t-64.5 -154h422q-7 97 -65 155t-142 58z" />
    <glyph glyph-name="igrave" unicode="&#xec;" horiz-adv-x="202" 
d="M97 570q-8 0 -12 7l-57 104q-3 6 -1 9t8 3h19q8 0 11 -7l52 -104q5 -12 -8 -12h-12zM93 0q-10 0 -10 10v480q0 10 10 10h16q10 0 10 -10v-480q0 -10 -10 -10h-16z" />
    <glyph glyph-name="iacute" unicode="&#xed;" horiz-adv-x="202" 
d="M83 582q-5 -12 8 -12h12q8 0 12 7l57 104q3 6 1 9t-8 3h-19q-8 0 -12 -7zM93 0q-10 0 -10 10v480q0 10 10 10h16q10 0 10 -10v-480q0 -10 -10 -10h-16z" />
    <glyph glyph-name="icircumflex" unicode="&#xee;" horiz-adv-x="202" 
d="M197 582q3 -5 1 -8.5t-8 -3.5h-17q-8 0 -12 6l-60 89l-60 -89q-4 -6 -12 -6h-17q-6 0 -8 3.5t1 8.5l71 105q5 6 13 6h16h8q8 0 13 -6zM109 500q10 0 10 -10v-480q0 -10 -10 -10h-16q-10 0 -10 10v480q0 10 10 10h16z" />
    <glyph glyph-name="idieresis" unicode="&#xef;" horiz-adv-x="202" 
d="M28 580q-10 0 -10 10v47q0 10 10 10h20q10 0 10 -10v-47q0 -10 -10 -10h-20zM154 580q-10 0 -10 10v47q0 10 10 10h20q10 0 10 -10v-47q0 -10 -10 -10h-20zM93 0q-10 0 -10 10v480q0 10 10 10h16q10 0 10 -10v-480q0 -10 -10 -10h-16z" />
    <glyph glyph-name="eth" unicode="&#xf0;" horiz-adv-x="589" 
d="M496 370q46 -62 46 -140q0 -107 -73 -174t-173 -67q-102 0 -175.5 67t-73.5 174q0 68 34.5 122t89.5 82.5t117 28.5q70 0 120 -29l-117 157l-114 -70q-6 -3 -9 -1.5t-3 7.5v12q0 7 6 12l103 63l-55 74q-4 5 -2 8.5t8 3.5h17q8 0 13 -6l47 -63l98 60q5 3 8.5 1.5t3.5 -7.5
v-12q0 -7 -7 -12l-86 -53zM296 23q89 0 150 58.5t61 148.5q0 72 -37 120q-60 81 -178 81q-58 0 -106 -26t-76 -72.5t-28 -102.5q0 -90 61.5 -148.5t152.5 -58.5z" />
    <glyph glyph-name="ntilde" unicode="&#xf1;" 
d="M149 587q-10 0 -9 9q3 70 43.5 85.5t91.5 -33.5q42 -41 69 -34.5t29 56.5q0 9 9 9h12q10 0 9 -9q-3 -69 -44 -84.5t-91 32.5q-42 41 -68.5 34.5t-28.5 -56.5q-1 -9 -10 -9h-12zM293 511q73 0 120 -47t47 -130v-324q0 -10 -10 -10h-15q-10 0 -10 10v324q0 67 -37.5 105
t-98.5 38q-71 0 -120.5 -50.5t-49.5 -144.5v-272q0 -10 -10 -10h-16q-10 0 -10 10v480q0 10 10 10h16q10 0 10 -10v-90q17 39 46 64.5t60.5 36t67.5 10.5z" />
    <glyph glyph-name="ograve" unicode="&#xf2;" horiz-adv-x="617" 
d="M320 570q5 0 7 3.5t-1 7.5l-69 106q-4 6 -11 6h-20q-6 0 -7.5 -3t1.5 -8l76 -106q4 -6 12 -6h12zM308.5 -11q-109.5 0 -185.5 75.5t-76 185.5t76 185.5t185.5 75.5t185.5 -75.5t76 -185.5t-76 -185.5t-185.5 -75.5zM308.5 23q95.5 0 161 65.5t65.5 161.5t-65.5 161.5
t-161 65.5t-161 -65.5t-65.5 -161.5t65.5 -161.5t161 -65.5z" />
    <glyph glyph-name="oacute" unicode="&#xf3;" horiz-adv-x="617" 
d="M277 581q-3 -4 -1.5 -7.5t7.5 -3.5h13q7 0 11 6l75 106q4 5 2 8t-8 3h-19q-7 0 -11 -6zM308.5 -11q-109.5 0 -185.5 75.5t-76 185.5t76 185.5t185.5 75.5t185.5 -75.5t76 -185.5t-76 -185.5t-185.5 -75.5zM308.5 23q95.5 0 161 65.5t65.5 161.5t-65.5 161.5t-161 65.5
t-161 -65.5t-65.5 -161.5t65.5 -161.5t161 -65.5z" />
    <glyph glyph-name="ocircumflex" unicode="&#xf4;" horiz-adv-x="617" 
d="M186 570q-6 0 -7.5 3.5t2.5 7.5l96 107q4 5 11 5h18h9q8 0 12 -5l95 -107q4 -4 2.5 -7.5t-7.5 -3.5h-18q-7 0 -11 5l-86 97l-87 -97q-4 -5 -11 -5h-18zM308.5 511q109.5 0 185.5 -75.5t76 -185.5t-76 -185.5t-185.5 -75.5t-185.5 75.5t-76 185.5t76 185.5t185.5 75.5z
M308.5 23q95.5 0 161 65.5t65.5 161.5t-65.5 161.5t-161 65.5t-161 -65.5t-65.5 -161.5t65.5 -161.5t161 -65.5z" />
    <glyph glyph-name="otilde" unicode="&#xf5;" horiz-adv-x="617" 
d="M180 587q-9 0 -9 9q3 70 44 85.5t92 -33.5q41 -41 68 -34.5t29 56.5q1 9 10 9h12q9 0 9 -9q-3 -69 -44 -84.5t-91 32.5q-43 41 -69.5 34.5t-28.5 -56.5q-1 -9 -10 -9h-12zM308.5 -11q-109.5 0 -185.5 75.5t-76 185.5t76 185.5t185.5 75.5t185.5 -75.5t76 -185.5
t-76 -185.5t-185.5 -75.5zM308.5 23q95.5 0 161 65.5t65.5 161.5t-65.5 161.5t-161 65.5t-161 -65.5t-65.5 -161.5t65.5 -161.5t161 -65.5z" />
    <glyph glyph-name="odieresis" unicode="&#xf6;" horiz-adv-x="617" 
d="M198 580q-8 0 -8 9v49q0 9 8 9h23q9 0 9 -9v-49q0 -9 -9 -9h-23zM385 580q-9 0 -9 9v49q0 9 9 9h23q8 0 8 -9v-49q0 -9 -8 -9h-23zM308.5 -11q-109.5 0 -185.5 75.5t-76 185.5t76 185.5t185.5 75.5t185.5 -75.5t76 -185.5t-76 -185.5t-185.5 -75.5zM308.5 23
q95.5 0 161 65.5t65.5 161.5t-65.5 161.5t-161 65.5t-161 -65.5t-65.5 -161.5t65.5 -161.5t161 -65.5z" />
    <glyph glyph-name="divide" unicode="&#xf7;" horiz-adv-x="580" 
d="M290 502q-15 0 -25 10t-10 25t10 25t25 10t25 -10t10 -25t-10 -25t-25 -10zM77 333q-10 0 -10 10v14q0 10 10 10h426q10 0 10 -10v-14q0 -10 -10 -10h-426zM290 128q-15 0 -25 10t-10 25t10 25t25 10t25 -10t10 -25t-10 -25t-25 -10z" />
    <glyph glyph-name="oslash" unicode="&#xf8;" horiz-adv-x="617" 
d="M493 436q77 -76 77 -186t-76 -185.5t-186 -75.5q-93 0 -165 57l-36 -41q-5 -5 -13 -5h-12q-6 0 -7.5 4t2.5 8l46 52q-76 76 -76 186t76 185.5t185 75.5q94 0 165 -57l37 41q5 5 12 5h12q7 0 8.5 -4t-2.5 -8zM82 250q0 -95 64 -160l304 338q-61 49 -142 49
q-95 0 -160.5 -65.5t-65.5 -161.5zM308 23q96 0 161.5 65.5t65.5 161.5q0 95 -65 160l-304 -338q62 -49 142 -49z" />
    <glyph glyph-name="ugrave" unicode="&#xf9;" 
d="M249 576l-76 106q-4 5 -2 8t8 3h19q7 0 11 -6l69 -106q3 -4 1.5 -7.5t-7.5 -3.5h-12q-7 0 -11 6zM436 500q10 0 10 -10v-480q0 -10 -10 -10h-15q-10 0 -10 10v90q-26 -57 -72.5 -84t-102.5 -27q-47 0 -84.5 20t-60 61t-22.5 96v324q0 10 10 10h16q10 0 10 -10v-324
q0 -67 37 -105t98 -38q71 0 121 50.5t50 144.5v272q0 10 10 10h15z" />
    <glyph glyph-name="uacute" unicode="&#xfa;" 
d="M235 570q-5 0 -7 3.5t1 7.5l69 106q4 6 11 6h20q6 0 7.5 -3t-1.5 -8l-76 -106q-4 -6 -11 -6h-13zM436 500q10 0 10 -10v-480q0 -10 -10 -10h-15q-10 0 -10 10v90q-26 -57 -72.5 -84t-102.5 -27q-47 0 -84.5 20t-60 61t-22.5 96v324q0 10 10 10h16q10 0 10 -10v-324
q0 -67 37 -105t98 -38q71 0 121 50.5t50 144.5v272q0 10 10 10h15z" />
    <glyph glyph-name="ucircumflex" unicode="&#xfb;" 
d="M139 570q-6 0 -7.5 3.5t2.5 7.5l95 107q4 5 11 5h18h10q7 0 11 -5l96 -107q3 -4 1.5 -7.5t-7.5 -3.5h-17q-7 0 -12 5l-86 97l-86 -97q-5 -5 -12 -5h-17zM436 500q10 0 10 -10v-480q0 -10 -10 -10h-15q-10 0 -10 10v90q-26 -57 -72.5 -84t-102.5 -27q-73 0 -120 47
t-47 130v324q0 10 10 10h16q10 0 10 -10v-324q0 -67 37 -105t98 -38q71 0 121 50.5t50 144.5v272q0 10 10 10h15z" />
    <glyph glyph-name="udieresis" unicode="&#xfc;" 
d="M151 580q-9 0 -9 9v49q0 9 9 9h22q9 0 9 -9v-49q0 -9 -9 -9h-22zM337 580q-8 0 -8 9v49q0 9 8 9h23q9 0 9 -9v-49q0 -9 -9 -9h-23zM436 500q10 0 10 -10v-480q0 -10 -10 -10h-15q-10 0 -10 10v90q-26 -57 -72.5 -84t-102.5 -27q-73 0 -120 47t-47 130v324q0 10 10 10h16
q10 0 10 -10v-324q0 -67 37 -105t98 -38q71 0 121 50.5t50 144.5v272q0 10 10 10h15z" />
    <glyph glyph-name="yacute" unicode="&#xfd;" horiz-adv-x="470" 
d="M209 581q-3 -4 -1.5 -7.5t7.5 -3.5h13q7 0 11 6l75 106q4 5 2 8t-8 3h-19q-7 0 -11 -6zM413 492q3 8 11 8h17q12 0 8 -12l-257 -680q-3 -8 -11 -8h-17q-12 0 -8 12l72 189l-206 487q-5 12 7 12h17q8 0 11 -8l188 -443z" />
    <glyph glyph-name="thorn" unicode="&#xfe;" horiz-adv-x="653" 
d="M347 511q71 0 130.5 -34.5t94.5 -94.5t35 -132q0 -110 -76 -185.5t-184 -75.5q-77 0 -137.5 39.5t-90.5 105.5v-324q0 -10 -10 -10h-16q-10 0 -10 10v880q0 10 10 10h16q10 0 10 -10v-324q30 66 90.5 105.5t137.5 39.5zM345 23q95 0 160.5 65.5t65.5 161.5t-65.5 161.5
t-160.5 65.5t-160.5 -65.5t-65.5 -161.5t65.5 -161.5t160.5 -65.5z" />
    <glyph glyph-name="ydieresis" unicode="&#xff;" horiz-adv-x="470" 
d="M130 580q-8 0 -8 9v49q0 9 8 9h23q9 0 9 -9v-49q0 -9 -9 -9h-23zM317 580q-9 0 -9 9v49q0 9 9 9h23q8 0 8 -9v-49q0 -9 -8 -9h-23zM413 492q3 8 11 8h17q12 0 8 -12l-257 -680q-3 -8 -11 -8h-17q-12 0 -8 12l72 189l-206 487q-5 12 7 12h17q8 0 11 -8l188 -443z" />
    <glyph glyph-name="Amacron" unicode="&#x100;" horiz-adv-x="629" 
d="M200 794q-9 0 -9 9v12q0 9 9 9h229q9 0 9 -9v-12q0 -9 -9 -9h-229zM604 12q4 -12 -8 -12h-18q-8 0 -11 8l-69 177h-368l-68 -177q-3 -8 -12 -8h-18q-12 0 -7 12l266 680q3 8 12 8h23q8 0 11 -8zM144 219h341l-171 438z" />
    <glyph glyph-name="amacron" unicode="&#x101;" horiz-adv-x="499" 
d="M136 594q-9 0 -9 9v12q0 9 9 9h229q9 0 9 -9v-12q0 -9 -9 -9h-229zM250 511q78 0 129 -47.5t51 -131.5v-322q0 -10 -10 -10h-15q-10 0 -10 10v55q-42 -76 -166 -76q-75 0 -127 41t-52 113.5t52 113.5t127 41q56 0 99.5 -19.5t66.5 -55.5v109q0 69 -41 107t-104 38
q-60 0 -100 -30.5t-44 -85.5q-2 -9 -10 -9h-16q-10 0 -10 10q5 66 54 107.5t126 41.5zM234 22q46 0 81 12t57.5 40.5t22.5 69.5q0 61 -46 91t-115 30t-109 -33t-40 -88t40 -88.5t109 -33.5z" />
    <glyph glyph-name="Abreve" unicode="&#x102;" horiz-adv-x="629" 
d="M314 769q-54 0 -88.5 28t-37.5 75q-1 10 9 10h15q9 0 9 -9q3 -35 28 -54.5t65 -19.5q27 0 47.5 8.5t32 25.5t13.5 40q1 9 10 9h15q9 0 9 -9q-3 -48 -37 -76t-90 -28zM604 12q4 -12 -8 -12h-17q-9 0 -12 8l-69 177h-367l-69 -177q-3 -8 -12 -8h-17q-13 0 -8 12l266 680
q3 8 12 8h23q8 0 11 -8zM144 219h341l-171 438z" />
    <glyph glyph-name="abreve" unicode="&#x103;" horiz-adv-x="499" 
d="M251 569q-36 0 -64 12.5t-44 36t-19 54.5q0 10 9 10h15q9 0 10 -9q2 -35 27 -54.5t65.5 -19.5t65.5 19.5t28 54.5q0 9 9 9h15q10 0 9 -9q-3 -48 -37 -76t-89 -28zM250 511q78 0 129 -47.5t51 -131.5v-322q0 -10 -10 -10h-15q-10 0 -10 10v55q-42 -76 -166 -76
q-75 0 -127 41t-52 113.5t52 113.5t127 41q56 0 99.5 -19.5t66.5 -55.5v109q0 69 -41 107t-104 38q-60 0 -100 -30.5t-44 -85.5q-2 -9 -10 -9h-16q-10 0 -10 10q5 66 54 107.5t126 41.5zM234 22q46 0 81 12t57.5 40.5t22.5 69.5q0 61 -46 91t-115 30t-109 -33t-40 -88
t40 -88.5t109 -33.5z" />
    <glyph glyph-name="Aogonek" unicode="&#x104;" horiz-adv-x="629" 
d="M600 -176q10 2 10 -7v-12q0 -7 -6 -9q-17 -7 -43 -7q-36 0 -56 19t-20 51q0 59 84 145l-2 4l-69 177h-368l-68 -177q-3 -8 -12 -8h-18q-12 0 -7 12l266 680q3 8 12 8h23q8 0 11 -8l267 -680q5 -12 -6 -22q-79 -73 -79 -127q0 -31 26.5 -40.5t54.5 1.5zM144 219h341
l-171 438z" />
    <glyph glyph-name="aogonek" unicode="&#x105;" horiz-adv-x="499" 
d="M419 -10q-78 -73 -78 -127q0 -31 25 -40.5t54 1.5q10 2 10 -7v-12q0 -7 -6 -9q-18 -7 -44 -7q-23 0 -39.5 9t-25 24.5t-8.5 36.5q0 61 88 150v1v55q-42 -76 -166 -76q-75 0 -127 41t-52 113.5t52 113.5t127 41q56 0 99.5 -19.5t66.5 -55.5v109q0 69 -41 107t-104 38
q-60 0 -100 -30.5t-44 -85.5q-2 -9 -10 -9h-16q-10 0 -10 10q5 66 54 107.5t126 41.5q78 0 129 -47.5t51 -131.5v-322q0 -10 -11 -20zM234 22q70 0 115.5 30.5t45.5 91.5t-46 91t-115 30t-109 -33t-40 -88t40 -88.5t109 -33.5z" />
    <glyph glyph-name="Cacute" unicode="&#x106;" horiz-adv-x="774" 
d="M389 781q-3 -4 -1 -7.5t8 -3.5h12q8 0 12 6l75 106q3 5 1.5 8t-7.5 3h-19q-8 0 -11 -6zM416 -11q-104 0 -187.5 48.5t-129.5 131t-46 181.5t46 181.5t129.5 131t187.5 48.5q107 0 193.5 -57t122.5 -149q4 -12 -8 -12h-19q-8 0 -11 8q-17 39 -45 71.5t-64 55.5t-79.5 35.5
t-89.5 12.5q-94 0 -169 -44t-116 -118t-41 -164t41 -164t116 -118t169 -44q93 0 168.5 48t109.5 127q3 8 11 8h20q5 0 7.5 -3t0.5 -8q-37 -93 -123.5 -150t-193.5 -57z" />
    <glyph glyph-name="cacute" unicode="&#x107;" horiz-adv-x="578" 
d="M279 581q-3 -4 -1 -7.5t7 -3.5h13q7 0 11 6l76 106q3 5 1.5 8t-7.5 3h-20q-7 0 -11 -6zM530 147q12 0 8 -12q-25 -66 -87.5 -106t-142.5 -40q-112 0 -186.5 75t-74.5 186t74.5 186t186.5 75q80 0 142.5 -40t87.5 -106q4 -12 -8 -12h-17q-8 0 -11 8q-23 53 -75 84.5
t-119 31.5q-96 0 -161 -65.5t-65 -161.5t65 -161.5t161 -65.5q67 0 119 31.5t75 84.5q3 8 11 8h17z" />
    <glyph glyph-name="Cdotaccent" unicode="&#x10a;" horiz-adv-x="774" 
d="M403 780q-9 0 -9 9v59q0 9 9 9h26q8 0 8 -9v-59q0 -9 -8 -9h-26zM416 -11q-104 0 -187.5 48.5t-129.5 131t-46 181.5t46 181.5t129.5 131t187.5 48.5q107 0 193.5 -57t122.5 -149q4 -12 -8 -12h-19q-8 0 -11 8q-34 79 -109.5 127t-168.5 48q-94 0 -169 -44t-116 -118
t-41 -164t41 -164t116 -118t169 -44q93 0 168.5 48t109.5 127q3 8 11 8h20q5 0 7.5 -3t0.5 -8q-37 -93 -123.5 -150t-193.5 -57z" />
    <glyph glyph-name="cdotaccent" unicode="&#x10b;" horiz-adv-x="578" 
d="M292 580q-8 0 -8 9v59q0 9 8 9h26q9 0 9 -9v-59q0 -9 -9 -9h-26zM530 147q12 0 8 -12q-25 -66 -87.5 -106t-142.5 -40q-73 0 -133 34.5t-94 94t-34 132.5q0 111 74.5 186t186.5 75q80 0 142.5 -40t87.5 -106q4 -12 -8 -12h-17q-8 0 -11 8q-12 26 -31 47.5t-43.5 37
t-55.5 23.5t-64 8q-96 0 -161 -65.5t-65 -161.5t65 -161.5t161 -65.5q67 0 119 31.5t75 84.5q3 8 11 8h17z" />
    <glyph glyph-name="Ccaron" unicode="&#x10c;" horiz-adv-x="774" 
d="M389 775l-95 107q-4 5 -2.5 8t7.5 3h18q7 0 11 -5l86 -96l87 96q4 5 11 5h18q6 0 7.5 -3t-2.5 -8l-96 -107q-4 -5 -11 -5h-18h-9q-8 0 -12 5zM725 207q3 0 5.5 -1.5t3 -4t-0.5 -5.5q-37 -93 -123.5 -150t-193.5 -57q-104 0 -187.5 48.5t-129.5 131t-46 181.5t46 181.5
t129.5 131t187.5 48.5q107 0 193.5 -57t122.5 -149q4 -12 -8 -12h-19q-8 0 -11 8q-34 79 -109.5 127t-168.5 48q-94 0 -169 -44t-116 -118t-41 -164t41 -164t116 -118t169 -44q93 0 168.5 48t109.5 127q3 8 11 8h20z" />
    <glyph glyph-name="ccaron" unicode="&#x10d;" horiz-adv-x="578" 
d="M279 575l-96 107q-3 5 -1.5 8t7.5 3h17q7 0 12 -5l86 -96l86 96q5 5 12 5h17q6 0 7.5 -3t-1.5 -8l-96 -107q-4 -5 -11 -5h-18h-10q-7 0 -11 5zM530 147q12 0 8 -12q-25 -66 -87.5 -106t-142.5 -40q-73 0 -133 34.5t-94 94t-34 132.5q0 111 74.5 186t186.5 75
q80 0 142.5 -40t87.5 -106q4 -12 -8 -12h-17q-8 0 -11 8q-12 26 -31 47.5t-43.5 37t-55.5 23.5t-64 8q-97 0 -161.5 -65.5t-64.5 -161.5t64.5 -161.5t161.5 -65.5q67 0 119 31.5t75 84.5q3 8 11 8h17z" />
    <glyph glyph-name="Dcaron" unicode="&#x10e;" horiz-adv-x="753" 
d="M324 775l-96 107q-4 5 -2.5 8t7.5 3h18q7 0 11 -5l87 -96l86 96q4 5 11 5h18q6 0 7.5 -3t-2.5 -8l-95 -107q-4 -5 -12 -5h-17h-10q-7 0 -11 5zM370 700q94 0 170 -47t118 -127t42 -176t-42 -176t-118 -127t-170 -47h-260h-7q-10 0 -10 10v680q0 10 10 10h27h240zM370 34
q85 0 152.5 42.5t104.5 114.5t37 159q0 65 -21.5 123t-60 100.5t-93.5 67.5t-119 25h-240v-632h240z" />
    <glyph glyph-name="dcaron" unicode="&#x10f;" horiz-adv-x="691" 
d="M560 700q10 0 10 -10v-680q0 -10 -10 -10h-15q-10 0 -10 10v124q-31 -66 -91.5 -105.5t-136.5 -39.5q-109 0 -184.5 75.5t-75.5 185.5t75.5 185.5t184.5 75.5q76 0 136.5 -39.5t91.5 -105.5v324q0 10 10 10h15zM684 700q10 0 9 -11l-16 -150q-2 -9 -11 -9h-6
q-11 0 -10 10l9 150q1 10 10 10h15zM308.5 23q95.5 0 161 65.5t65.5 161.5t-65.5 161.5t-161 65.5t-161 -65.5t-65.5 -161.5t65.5 -161.5t161 -65.5z" />
    <glyph glyph-name="Dcroat" unicode="&#x110;" horiz-adv-x="773" 
d="M390 700q57 0 108.5 -17.5t91.5 -50t69.5 -76t45 -96.5t15.5 -110q0 -96 -42 -176t-118 -127t-170 -47h-260h-7q-10 0 -10 10v323h-53q-10 0 -10 10v14q0 10 10 10h53v323q0 10 10 10h27h240zM390 34q128 0 211 91.5t83 224.5t-83 224.5t-211 91.5h-240v-299h250
q10 0 10 -10v-14q0 -10 -10 -10h-250v-299h240z" />
    <glyph glyph-name="dcroat" unicode="&#x111;" horiz-adv-x="659" 
d="M626 618q10 0 10 -10v-9q0 -10 -10 -10h-56v-579q0 -10 -10 -10h-15q-10 0 -10 10v124q-31 -66 -91.5 -105.5t-136.5 -39.5q-109 0 -184.5 75.5t-75.5 185.5t75.5 185.5t184.5 75.5q76 0 136.5 -39.5t91.5 -105.5v223h-209q-10 0 -10 10v9q0 10 10 10h209v72q0 10 10 10
h15q10 0 10 -10v-72h56zM308.5 23q95.5 0 161 65.5t65.5 161.5t-65.5 161.5t-161 65.5t-161 -65.5t-65.5 -161.5t65.5 -161.5t161 -65.5z" />
    <glyph glyph-name="Emacron" unicode="&#x112;" horiz-adv-x="520" 
d="M163 794q-9 0 -9 9v12q0 9 9 9h229q9 0 9 -9v-12q0 -9 -9 -9h-229zM463 34q10 0 10 -10v-14q0 -10 -10 -10h-353h-7q-10 0 -10 10v680q0 10 10 10h27h328q10 0 10 -10v-14q0 -10 -10 -10h-328v-296h303q10 0 10 -10v-14q0 -10 -10 -10h-303v-302h333z" />
    <glyph glyph-name="emacron" unicode="&#x113;" horiz-adv-x="576" 
d="M182 594q-9 0 -9 9v12q0 9 9 9h229q9 0 9 -9v-12q0 -9 -9 -9h-229zM297 511q73 0 129.5 -37.5t84.5 -96.5t28 -129v-7q0 -10 -10 -10h-25h-421q6 -94 66 -151t151 -57q63 0 111 27.5t69 73.5q4 8 12 8h17q13 0 9 -10q-24 -61 -82.5 -97t-135.5 -36q-112 0 -182.5 73.5
t-70.5 187.5q0 112 69.5 186.5t180.5 74.5zM297 477q-91 0 -150.5 -59t-64.5 -154h422q-7 97 -65 155t-142 58z" />
    <glyph glyph-name="Edotaccent" unicode="&#x116;" horiz-adv-x="520" 
d="M264 780q-8 0 -8 9v59q0 9 8 9h26q9 0 9 -9v-59q0 -9 -9 -9h-26zM463 34q10 0 10 -10v-14q0 -10 -10 -10h-353h-7q-10 0 -10 10v680q0 10 10 10h27h328q10 0 10 -10v-14q0 -10 -10 -10h-328v-296h303q10 0 10 -10v-14q0 -10 -10 -10h-303v-302h333z" />
    <glyph glyph-name="edotaccent" unicode="&#x117;" horiz-adv-x="576" 
d="M283 580q-8 0 -8 9v59q0 9 8 9h26q9 0 9 -9v-59q0 -9 -9 -9h-26zM297 511q73 0 129.5 -37.5t84.5 -96.5t28 -129v-7q-1 -10 -10 -10h-25h-421q6 -94 66 -151t151 -57q63 0 111 27.5t69 73.5q4 8 11 8h18q13 0 9 -10q-24 -61 -82.5 -97t-135.5 -36q-74 0 -132 33.5
t-89.5 93t-31.5 134.5q0 112 69.5 186.5t180.5 74.5zM297 477q-91 0 -150.5 -59t-64.5 -154h422q-7 97 -65 155t-142 58z" />
    <glyph glyph-name="Eogonek" unicode="&#x118;" horiz-adv-x="521" 
d="M425 -211q-23 0 -40.5 8.5t-26 24.5t-8.5 37q0 67 85 141h-332q-10 0 -10 10v680q0 10 10 10h355q10 0 10 -10v-14q0 -10 -10 -10h-328v-296h303q10 0 10 -10v-14q0 -10 -10 -10h-303v-302h333q10 0 10 -10v-16q0 -8 -5 -13q-85 -76 -85 -132q0 -31 26 -40.5t55 1.5
q11 2 11 -8v-10q0 -7 -8 -10q-18 -7 -42 -7z" />
    <glyph glyph-name="eogonek" unicode="&#x119;" horiz-adv-x="576" 
d="M297 511q73 0 129.5 -37.5t84.5 -96.5t28 -129v-7q0 -10 -10 -10h-25h-421q6 -93 66 -150.5t151 -57.5q63 0 111 27.5t69 73.5q4 8 11 8h18q13 0 9 -10q-15 -37 -43 -66q-75 -83 -103 -123.5t-28 -69.5q0 -21 13 -32.5t31 -11.5t36 5q11 3 11 -8v-9q0 -9 -7 -11
q-17 -7 -43 -7q-35 0 -55 19t-20 51q0 60 84 146q-44 -16 -94 -16q-74 0 -132 33.5t-89.5 93t-31.5 134.5q0 112 69.5 186.5t180.5 74.5zM297 477q-91 0 -150.5 -59t-64.5 -154h422q-7 97 -65 155t-142 58z" />
    <glyph glyph-name="Ecaron" unicode="&#x11a;" horiz-adv-x="520" 
d="M251 775l-96 107q-3 5 -1.5 8t7.5 3h17q7 0 12 -5l86 -96l86 96q5 5 12 5h17q6 0 7.5 -3t-1.5 -8l-96 -107q-4 -5 -11 -5h-18h-10q-7 0 -11 5zM463 34q10 0 10 -10v-14q0 -10 -10 -10h-353h-7q-10 0 -10 10v680q0 10 10 10h27h328q10 0 10 -10v-14q0 -10 -10 -10h-328
v-296h303q10 0 10 -10v-14q0 -10 -10 -10h-303v-302h333z" />
    <glyph glyph-name="ecaron" unicode="&#x11b;" horiz-adv-x="576" 
d="M270 575l-96 107q-3 5 -1.5 8t7.5 3h17q7 0 12 -5l86 -96l86 96q5 5 12 5h17q6 0 7.5 -3t-1.5 -8l-96 -107q-4 -5 -11 -5h-18h-10q-7 0 -11 5zM297 511q73 0 129.5 -37.5t84.5 -96.5t28 -129v-7q-1 -10 -10 -10h-25h-421q6 -94 66 -151t151 -57q63 0 111 27.5t69 73.5
q4 8 11 8h18q13 0 9 -10q-24 -61 -82.5 -97t-135.5 -36q-112 0 -182.5 73.5t-70.5 187.5q0 112 69.5 186.5t180.5 74.5zM297 477q-91 0 -150.5 -59t-64.5 -154h422q-7 97 -65 155t-142 58z" />
    <glyph glyph-name="Gbreve" unicode="&#x11e;" horiz-adv-x="810" 
d="M411 769q-55 0 -89 28t-38 75q0 10 9 10h15q9 0 10 -9q2 -35 27 -54.5t65.5 -19.5t65.5 19.5t28 54.5q0 9 9 9h15q10 0 9 -9q-3 -48 -37 -76t-89 -28zM725 337q10 0 10 -10v-24v-293q0 -10 -10 -10h-16q-10 0 -10 10v130q-36 -73 -112 -112t-166 -39q-107 0 -191.5 48.5
t-130.5 131t-46 181.5q0 74 27.5 140.5t74.5 115t114.5 77t144.5 28.5q107 0 193.5 -57t123.5 -149q4 -12 -8 -12h-19q-8 0 -12 8q-34 79 -109.5 127t-168.5 48t-167.5 -44t-115.5 -118t-41 -164t40.5 -164t117 -118t173.5 -44q70 0 129.5 24t101 75t47.5 120v60h-264
q-10 0 -10 10v14q0 10 10 10h290z" />
    <glyph glyph-name="gbreve" unicode="&#x11f;" horiz-adv-x="660" 
d="M321 569q-54 0 -88.5 28t-37.5 75q-1 10 9 10h15q9 0 9 -9q3 -35 28 -54.5t65 -19.5q27 0 47.5 8.5t32 25.5t13.5 40q1 9 10 9h15q9 0 9 -9q-3 -48 -37 -76t-90 -28zM567 500q10 0 10 -10v-463q0 -110 -68 -174t-180 -64q-63 0 -116.5 24t-85 62t-35.5 81q0 10 10 10h16
q8 0 10 -9q6 -52 62 -93t139 -41q101 0 156.5 55t55.5 149v107q-30 -66 -90.5 -105.5t-137.5 -39.5q-108 0 -184 75.5t-76 185.5t76 185.5t184 75.5q51 0 96.5 -18.5t78.5 -51t53 -75.5v124q0 10 10 10h16zM315 23q95 0 160.5 65.5t65.5 161.5t-65.5 161.5t-160.5 65.5
t-160.5 -65.5t-65.5 -161.5t65.5 -161.5t160.5 -65.5z" />
    <glyph glyph-name="Gdotaccent" unicode="&#x120;" horiz-adv-x="810" 
d="M398 780q-9 0 -9 9v59q0 9 9 9h26q8 0 8 -9v-59q0 -9 -8 -9h-26zM725 337q10 0 10 -10v-24v-293q0 -10 -10 -10h-16q-10 0 -10 10v130q-36 -73 -112 -112t-166 -39q-107 0 -191.5 48.5t-130.5 131t-46 181.5q0 74 27.5 140.5t74.5 115t114.5 77t144.5 28.5
q107 0 193.5 -57t123.5 -149q4 -12 -8 -12h-19q-8 0 -12 8q-17 39 -45 71.5t-64 55.5t-79.5 35.5t-89.5 12.5q-140 0 -232 -94.5t-92 -231.5q0 -90 40.5 -164t117 -118t173.5 -44q70 0 129.5 24t101 75t47.5 120v60h-264q-10 0 -10 10v14q0 10 10 10h290z" />
    <glyph glyph-name="gdotaccent" unicode="&#x121;" horiz-adv-x="660" 
d="M308 580q-8 0 -8 9v59q0 9 8 9h26q9 0 9 -9v-59q0 -9 -9 -9h-26zM567 500q10 0 10 -10v-463q0 -110 -68 -174t-180 -64q-95 0 -163 50t-74 117q0 10 10 10h16q8 0 10 -9q6 -52 62 -93t139 -41q101 0 156.5 55t55.5 149v107q-30 -66 -90.5 -105.5t-137.5 -39.5
q-108 0 -184 75.5t-76 185.5t76 185.5t184 75.5q77 0 137.5 -39.5t90.5 -105.5v124q0 10 10 10h16zM315 23q95 0 160.5 65.5t65.5 161.5t-65.5 161.5t-160.5 65.5t-160.5 -65.5t-65.5 -161.5t65.5 -161.5t160.5 -65.5z" />
    <glyph glyph-name="Gcommaaccent" unicode="&#x122;" horiz-adv-x="810" 
d="M725 337q10 0 10 -10v-24v-293q0 -10 -10 -10h-16q-10 0 -10 10v130q-36 -73 -112 -112t-166 -39q-107 0 -191.5 48.5t-130.5 131t-46 181.5q0 74 27.5 140.5t74.5 115t114.5 77t144.5 28.5q107 0 193.5 -57t123.5 -149q4 -12 -8 -12h-19q-8 0 -12 8q-17 39 -45 71.5
t-64 55.5t-79.5 35.5t-89.5 12.5q-93 0 -167.5 -44t-115.5 -118t-41 -164t40.5 -164t117 -118t173.5 -44q70 0 129.5 24t101 75t47.5 120v60h-264q-10 0 -10 10v14q0 10 10 10h290zM438 -70q10 0 9 -10l-17 -151q-1 -9 -10 -9h-7q-10 0 -9 10l8 151q1 9 10 9h16z" />
    <glyph glyph-name="gcommaaccent" unicode="&#x123;" horiz-adv-x="660" 
d="M306 590q-10 0 -9 10l17 151q1 9 10 9h7q10 0 9 -10l-8 -151q-1 -9 -10 -9h-16zM567 500q10 0 10 -10v-463q0 -110 -68 -174t-180 -64q-95 0 -163 50t-74 117q0 10 10 10h16q8 0 10 -9q6 -52 62 -93t139 -41q101 0 156.5 55t55.5 149v108q-30 -67 -90.5 -106.5
t-137.5 -39.5q-108 0 -184 75.5t-76 185.5t76 185.5t184 75.5q77 0 137.5 -39.5t90.5 -105.5v124q0 10 10 10h16zM315 23q95 0 160.5 65.5t65.5 161.5t-65.5 161.5t-160.5 65.5t-160.5 -65.5t-65.5 -161.5t65.5 -161.5t160.5 -65.5z" />
    <glyph glyph-name="Hbar" unicode="&#x126;" horiz-adv-x="693" 
d="M630 555q10 0 10 -10v-10q0 -10 -10 -10h-58v-515q0 -10 -10 -10h-17q-10 0 -10 10v333h-377v-333q0 -10 -10 -10h-16q-10 0 -10 10v515h-59q-10 0 -10 10v10q0 10 10 10h59v135q0 10 10 10h16q10 0 10 -10v-135h377v135q0 10 10 10h17q10 0 10 -10v-135h58zM535 377v148
h-377v-148h377z" />
    <glyph glyph-name="hbar" unicode="&#x127;" horiz-adv-x="546" 
d="M310 511q73 0 120 -47t47 -130v-324q0 -10 -10 -10h-16q-10 0 -10 10v324q0 67 -37 105t-98 38q-71 0 -121 -50.5t-50 -144.5v-272q0 -10 -10 -10h-15q-10 0 -10 10v579h-67q-10 0 -10 10v9q0 10 10 10h67v72q0 10 10 10h15q10 0 10 -10v-72h158q10 0 10 -10v-9
q0 -10 -10 -10h-158v-190q25 57 72 84.5t103 27.5z" />
    <glyph glyph-name="Imacron" unicode="&#x12a;" horiz-adv-x="223" 
d="M-3 794q-9 0 -9 9v12q0 9 9 9h229q9 0 9 -9v-12q0 -9 -9 -9h-229zM93 690q0 10 10 10h17q10 0 10 -10v-680q0 -10 -10 -10h-17q-10 0 -10 10v680z" />
    <glyph glyph-name="imacron" unicode="&#x12b;" horiz-adv-x="202" 
d="M24 594q-10 0 -10 10v10q0 10 10 10h154q10 0 10 -10v-10q0 -10 -10 -10h-154zM93 0q-10 0 -10 10v480q0 10 10 10h16q10 0 10 -10v-480q0 -10 -10 -10h-16z" />
    <glyph glyph-name="Iogonek" unicode="&#x12e;" horiz-adv-x="223" 
d="M160 -176q12 2 12 -8v-9q0 -8 -8 -11q-18 -7 -42 -7q-35 0 -55 19t-20 51q0 53 49 144q-3 3 -3 7v680q0 10 10 10h17q10 0 10 -10v-680v-1q0 -11 -14 -38q-36 -72 -36 -108q0 -30 26.5 -40t53.5 1z" />
    <glyph glyph-name="iogonek" unicode="&#x12f;" horiz-adv-x="202" 
d="M93 600q-10 0 -10 10v80q0 10 10 10h16q10 0 10 -10v-80q0 -10 -10 -10h-16zM150 -176q12 2 12 -8v-9q0 -8 -8 -11q-18 -7 -42 -7q-23 0 -40.5 8.5t-26 24.5t-8.5 37q0 53 49 144q-3 3 -3 7v480q0 10 10 10h16q10 0 10 -10v-480v-1q-1 -11 -14 -38q-35 -69 -35 -108
q0 -30 26.5 -40t53.5 1z" />
    <glyph glyph-name="Idotaccent" unicode="&#x130;" horiz-adv-x="223" 
d="M99 780q-9 0 -9 9v59q0 9 9 9h26q8 0 8 -9v-59q0 -9 -8 -9h-26zM93 690q0 10 10 10h17q10 0 10 -10v-680q0 -10 -10 -10h-17q-10 0 -10 10v680z" />
    <glyph glyph-name="dotlessi" unicode="&#x131;" horiz-adv-x="202" 
d="M93 0q-10 0 -10 10v480q0 10 10 10h16q10 0 10 -10v-480q0 -10 -10 -10h-16z" />
    <glyph glyph-name="Kcommaaccent" unicode="&#x136;" horiz-adv-x="563" 
d="M541 12q4 -4 2.5 -8t-7.5 -4h-24q-8 0 -12 5l-370 345v-340q0 -10 -10 -10h-17q-10 0 -10 10v680q0 10 10 10h17q10 0 10 -10v-320l360 325q5 5 12 5h23q7 0 8.5 -4t-2.5 -8l-361 -328zM323 -70q10 0 9 -10l-17 -152q-1 -8 -10 -8h-8q-10 0 -9 10l9 151q1 9 10 9h16z" />
    <glyph glyph-name="kcommaaccent" unicode="&#x137;" horiz-adv-x="472" 
d="M432 12q5 -4 3.5 -8t-8.5 -4h-23q-7 0 -12 5l-273 245v-240q0 -10 -10 -10h-16q-10 0 -10 10v680q0 10 10 10h16q10 0 10 -10v-420l263 225q5 5 12 5h23q7 0 8.5 -4t-4.5 -8l-266 -228zM268 -70q10 0 8 -10l-16 -152q-2 -8 -11 -8h-7q-10 0 -9 10l9 151q0 9 9 9h17z" />
    <glyph glyph-name="Lacute" unicode="&#x139;" horiz-adv-x="497" 
d="M105 770q-5 0 -7 3.5t1 7.5l69 106q4 6 11 6h20q6 0 7.5 -3t-1.5 -8l-76 -106q-4 -6 -11 -6h-13zM460 34q10 0 10 -10v-14q0 -10 -10 -10h-347h-10q-10 0 -10 10v680q0 10 10 10h17q10 0 10 -10v-656h330z" />
    <glyph glyph-name="lacute" unicode="&#x13a;" horiz-adv-x="202" 
d="M90 781q-3 -4 -1 -7.5t8 -3.5h12q8 0 12 6l75 106q3 5 1.5 8t-7.5 3h-19q-8 0 -11 -6zM93 0q-10 0 -10 10v700q0 10 10 10h16q10 0 10 -10v-700q0 -10 -10 -10h-16z" />
    <glyph glyph-name="Lcommaaccent" unicode="&#x13b;" horiz-adv-x="497" 
d="M460 34q10 0 10 -10v-14q0 -10 -10 -10h-347h-10q-10 0 -10 10v680q0 10 10 10h17q10 0 10 -10v-656h330zM294 -70q10 0 9 -10l-17 -151q-1 -9 -10 -9h-7q-10 0 -9 10l8 151q1 9 10 9h16z" />
    <glyph glyph-name="lcommaaccent" unicode="&#x13c;" horiz-adv-x="202" 
d="M93 0q-10 0 -10 10v700q0 10 10 10h16q10 0 10 -10v-700q0 -10 -10 -10h-16zM91 -240q9 0 11 9l16 151q2 10 -8 10h-17q-9 0 -9 -9l-9 -151q-1 -10 9 -10h7z" />
    <glyph glyph-name="Lcaron" unicode="&#x13d;" horiz-adv-x="497" 
d="M460 34q10 0 10 -10v-14q0 -10 -10 -10h-347h-10q-10 0 -10 10v680q0 10 10 10h17q10 0 10 -10v-656h330zM280 530q-11 0 -10 10l9 150q1 10 10 10h15q10 0 9 -11l-16 -150q-2 -9 -11 -9h-6z" />
    <glyph glyph-name="lcaron" unicode="&#x13e;" horiz-adv-x="241" 
d="M93 0q-10 0 -10 10v700q0 10 10 10h16q10 0 10 -10v-700q0 -10 -10 -10h-16zM216 550q9 0 11 9l16 150q1 11 -9 11h-15q-9 0 -10 -10l-9 -150q-1 -10 10 -10h6z" />
    <glyph glyph-name="Lslash" unicode="&#x141;" horiz-adv-x="510" 
d="M473 34q10 0 10 -10v-14q0 -10 -10 -10h-347h-9q-10 0 -10 10v249l-48 -31q-5 -4 -8.5 -2t-3.5 8v12q0 8 6 12l54 36v396q0 10 10 10h16q10 0 10 -10v-372l185 121q5 3 8.5 1.5t3.5 -7.5v-12q0 -8 -6 -13l-191 -125v-249h330z" />
    <glyph glyph-name="lslash" unicode="&#x142;" horiz-adv-x="240" 
d="M208 438q5 4 8.5 2t3.5 -8v-13q0 -7 -6 -12l-76 -52v-345q0 -10 -10 -10h-16q-10 0 -10 10v321l-70 -48q-5 -3 -8.5 -1.5t-3.5 7.5v13q0 8 6 12l76 52v344q0 10 10 10h16q10 0 10 -10v-320z" />
    <glyph glyph-name="Nacute" unicode="&#x143;" horiz-adv-x="630" 
d="M289 781q-3 -4 -1.5 -7.5t7.5 -3.5h13q7 0 11 6l75 106q4 5 2 8t-8 3h-19q-7 0 -11 -6zM500 690q0 10 10 10h17q10 0 10 -10v-680q0 -10 -10 -10h-16q-8 0 -12 7l-369 621v-618q0 -10 -10 -10h-17q-10 0 -10 10v680q0 10 10 10h16q8 0 12 -7l369 -621v618z" />
    <glyph glyph-name="nacute" unicode="&#x144;" 
d="M252 570q-6 0 -8 3.5t1 7.5l70 106q3 6 11 6h19q6 0 7.5 -3t-1.5 -8l-75 -106q-4 -6 -12 -6h-12zM293 511q73 0 120 -47t47 -130v-324q0 -10 -10 -10h-15q-10 0 -10 10v324q0 67 -37.5 105t-98.5 38q-71 0 -120.5 -50.5t-49.5 -144.5v-272q0 -10 -10 -10h-16
q-10 0 -10 10v480q0 10 10 10h16q10 0 10 -10v-90q25 57 72 84t102 27z" />
    <glyph glyph-name="Ncommaaccent" unicode="&#x145;" horiz-adv-x="630" 
d="M500 690q0 10 10 10h17q10 0 10 -10v-680q0 -10 -10 -10h-16q-8 0 -12 7l-369 621v-618q0 -10 -10 -10h-17q-10 0 -10 10v680q0 10 10 10h16q8 0 12 -7l369 -621v618zM306 -240q9 0 10 9l17 151q1 10 -9 10h-16q-9 0 -10 -9l-8 -151q-1 -10 9 -10h7z" />
    <glyph glyph-name="ncommaaccent" unicode="&#x146;" 
d="M293 511q73 0 120 -47t47 -130v-324q0 -10 -10 -10h-15q-10 0 -10 10v324q0 67 -37.5 105t-98.5 38q-71 0 -120.5 -50.5t-49.5 -144.5v-272q0 -10 -10 -10h-16q-10 0 -10 10v480q0 10 10 10h16q10 0 10 -10v-90q17 39 46 64.5t60.5 36t67.5 10.5zM284 -70q10 0 9 -10
l-17 -152q-1 -8 -10 -8h-8q-10 0 -9 10l9 151q1 9 10 9h16z" />
    <glyph glyph-name="Ncaron" unicode="&#x147;" horiz-adv-x="630" 
d="M289 775l-96 107q-4 5 -2.5 8t7.5 3h18q7 0 11 -5l87 -96l86 96q4 5 11 5h18q6 0 7.5 -3t-2.5 -8l-95 -107q-4 -5 -12 -5h-17h-10q-7 0 -11 5zM527 700q10 0 10 -10v-680q0 -10 -10 -10h-16q-8 0 -12 7l-369 621v-618q0 -10 -10 -10h-17q-10 0 -10 10v680q0 10 10 10h16
q8 0 12 -7l369 -621v618q0 10 10 10h17z" />
    <glyph glyph-name="ncaron" unicode="&#x148;" 
d="M245 575l-95 107q-4 5 -2.5 8t7.5 3h18q7 0 11 -5l86 -96l87 96q4 5 11 5h18q6 0 7.5 -3t-2.5 -8l-96 -107q-4 -5 -11 -5h-18h-9q-8 0 -12 5zM293 511q73 0 120 -47t47 -130v-324q0 -10 -10 -10h-15q-10 0 -10 10v324q0 67 -37.5 105t-98.5 38q-71 0 -120.5 -50.5
t-49.5 -144.5v-272q0 -10 -10 -10h-16q-10 0 -10 10v480q0 10 10 10h16q10 0 10 -10v-90q17 39 46 64.5t60.5 36t67.5 10.5z" />
    <glyph glyph-name="Eng" unicode="&#x14a;" horiz-adv-x="630" 
d="M527 700q10 0 10 -10v-680v-10q0 -195 -190 -200q-10 0 -10 10v15q0 10 10 10q78 2 115.5 40t37.5 125v6l-1 1l-369 621v-618q0 -10 -10 -10h-17q-10 0 -10 10v680q0 10 10 10h16q8 0 12 -7l369 -621v618q0 10 10 10h17z" />
    <glyph glyph-name="eng" unicode="&#x14b;" 
d="M293 511q73 0 120 -47t47 -130v-407q0 -69 -36.5 -106t-106.5 -32q-10 0 -10 10v13q0 10 11 10q107 -7 107 105v407q0 67 -37.5 105t-98.5 38q-71 0 -120.5 -50.5t-49.5 -144.5v-272q0 -10 -10 -10h-16q-10 0 -10 10v480q0 10 10 10h16q10 0 10 -10v-91q24 57 71 84.5
t103 27.5z" />
    <glyph glyph-name="Omacron" unicode="&#x14c;" horiz-adv-x="828" 
d="M299 794q-8 0 -8 9v12q0 9 8 9h230q8 0 8 -9v-12q0 -9 -8 -9h-230zM414 -11q-99 0 -182 48.5t-131 131.5t-48 181q0 73 28.5 140t76.5 115.5t115 77t141 28.5t141 -28.5t115 -77t76.5 -115.5t28.5 -140q0 -98 -48 -181t-131 -131.5t-182 -48.5zM414 24q135 0 229.5 95.5
t94.5 230.5t-94.5 230.5t-229.5 95.5t-229.5 -95.5t-94.5 -230.5t94.5 -230.5t229.5 -95.5z" />
    <glyph glyph-name="omacron" unicode="&#x14d;" horiz-adv-x="617" 
d="M188 594q-8 0 -8 9v12q0 9 8 9h230q8 0 8 -9v-12q0 -9 -8 -9h-230zM308.5 -11q-109.5 0 -185.5 75.5t-76 185.5t76 185.5t185.5 75.5t185.5 -75.5t76 -185.5t-76 -185.5t-185.5 -75.5zM308.5 23q95.5 0 161 65.5t65.5 161.5t-65.5 161.5t-161 65.5t-161 -65.5
t-65.5 -161.5t65.5 -161.5t161 -65.5z" />
    <glyph glyph-name="Ohungarumlaut" unicode="&#x150;" horiz-adv-x="828" 
d="M313 781q-5 -11 7 -11h14q7 0 11 6l64 113q7 11 -6 11h-18q-7 0 -11 -7zM454 781q-2 -4 -0.5 -7.5t7.5 -3.5h13q8 0 12 6l73 113q3 5 1 8t-7 3h-18q-7 0 -11 -6zM414 -11q-74 0 -141 28.5t-115 77t-76.5 115t-28.5 140t28.5 140.5t76.5 115.5t115 77t141 28.5t141 -28.5
t115 -77t76.5 -115.5t28.5 -140q0 -98 -48 -181t-131 -131.5t-182 -48.5zM414 24q67 0 127 26t103 69.5t68.5 103.5t25.5 127q0 89 -43 164t-117.5 118.5t-163.5 43.5t-163.5 -43.5t-117.5 -118.5t-43 -164t43 -164t117.5 -118.5t163.5 -43.5z" />
    <glyph glyph-name="ohungarumlaut" unicode="&#x151;" horiz-adv-x="617" 
d="M202 581q-5 -11 7 -11h14q7 0 11 6l64 113q7 11 -6 11h-18q-7 0 -11 -7zM343 581q-2 -4 -0.5 -7.5t7.5 -3.5h13q8 0 12 6l73 113q3 5 1 8t-7 3h-18q-7 0 -11 -6zM308.5 -11q-109.5 0 -185.5 75.5t-76 185.5t76 185.5t185.5 75.5t185.5 -75.5t76 -185.5t-76 -185.5
t-185.5 -75.5zM308.5 23q95.5 0 161 65.5t65.5 161.5t-65.5 161.5t-161.5 65.5q-62 0 -114 -30t-82 -82t-30 -115q0 -96 65.5 -161.5t161 -65.5z" />
    <glyph glyph-name="OE" unicode="&#x152;" horiz-adv-x="909" 
d="M852 34q10 0 10 -10v-14q0 -10 -10 -10h-336h-17q-44 -11 -95 -11q-101 0 -182 48.5t-125 131t-44 181.5q0 74 26 140.5t71.5 115t111.5 77t142 28.5q51 0 95 -11h37h311q10 0 10 -10v-14q0 -10 -10 -10h-311v-296h290q10 0 10 -10v-14q0 -10 -10 -10h-290v-302h316z
M499 36v628q-43 12 -95 12q-92 0 -164 -44t-111 -118t-39 -164t39 -164t111 -118t164 -44q52 0 95 12z" />
    <glyph glyph-name="oe" unicode="&#x153;" horiz-adv-x="1060" 
d="M783 511q73 0 129 -37.5t84 -96.5t28 -129v-7q-1 -10 -11 -10h-24h-422q6 -93 67 -150.5t152 -57.5q63 0 110.5 27.5t67.5 73.5q4 8 12 8h18q13 0 9 -10q-25 -61 -83 -97t-135 -36q-58 0 -106.5 22t-81.5 60.5t-49 90.5q-25 -77 -90 -125t-150 -48q-110 0 -185.5 75.5
t-75.5 185.5t75.5 185.5t185.5 75.5q85 0 150 -48t90 -126q24 79 86 126.5t149 47.5zM308 23q95 0 159 65.5t64 161.5t-64 161.5t-159 65.5q-96 0 -161 -65.5t-65 -161.5t65 -161.5t161 -65.5zM783 477q-91 0 -151 -59.5t-65 -153.5h421q-6 98 -63.5 155.5t-141.5 57.5z" />
    <glyph glyph-name="Racute" unicode="&#x154;" horiz-adv-x="623" 
d="M253 770q-5 0 -7 3.5t1 7.5l69 106q4 6 11 6h20q6 0 7.5 -3t-1.5 -8l-76 -106q-4 -6 -11 -6h-13zM609 12q4 -4 2.5 -8t-7.5 -4h-22q-7 0 -12 6l-254 287h-186v-283q0 -10 -10 -10h-17q-10 0 -10 10v680q0 10 10 10h27h193q84 0 144 -59.5t60 -143.5q0 -49 -22.5 -92
t-60.5 -71.5t-86 -37.5zM130 666v-339h193q69 0 118 50t49 120t-49 119.5t-118 49.5h-193z" />
    <glyph glyph-name="racute" unicode="&#x155;" horiz-adv-x="321" 
d="M169 570q-6 0 -8 3.5t1 7.5l70 106q3 6 11 6h19q6 0 7.5 -3t-1.5 -8l-75 -106q-4 -6 -12 -6h-12zM285 506q10 1 10 -9v-14q0 -10 -7 -10q-72 -2 -120.5 -53t-48.5 -142v-268q0 -10 -10 -10h-16q-10 0 -10 10v480q0 10 10 10h16q10 0 10 -10v-99q22 57 67 85t99 30z" />
    <glyph glyph-name="Rcommaaccent" unicode="&#x156;" horiz-adv-x="623" 
d="M609 12q4 -4 2.5 -8t-7.5 -4h-22q-7 0 -12 6l-254 287h-186v-283q0 -10 -10 -10h-17q-10 0 -10 10v680q0 10 10 10h27h193q84 0 144 -59.5t60 -143.5q0 -49 -22.5 -92t-60.5 -71.5t-86 -37.5zM130 666v-339h193q69 0 118 50t49 120t-49 119.5t-118 49.5h-193zM353 -70
q10 0 8 -10l-16 -151q-2 -9 -11 -9h-7q-10 0 -9 10l9 151q0 9 9 9h17z" />
    <glyph glyph-name="rcommaaccent" unicode="&#x157;" horiz-adv-x="321" 
d="M285 506q10 1 10 -9v-14q0 -10 -7 -10q-72 -2 -120.5 -53t-48.5 -142v-268q0 -10 -10 -10h-16q-10 0 -10 10v480q0 10 10 10h16q10 0 10 -10v-99q22 57 67 85t99 30zM109 -70q10 0 9 -10l-17 -151q-1 -9 -10 -9h-8q-10 0 -9 10l9 151q1 9 10 9h16z" />
    <glyph glyph-name="Rcaron" unicode="&#x158;" horiz-adv-x="623" 
d="M247 775l-96 107q-3 5 -1.5 8t7.5 3h17q7 0 12 -5l86 -96l86 96q5 5 12 5h17q6 0 7.5 -3t-1.5 -8l-96 -107q-4 -5 -11 -5h-18h-10q-7 0 -11 5zM609 12q4 -4 2.5 -8t-7.5 -4h-22q-7 0 -12 6l-254 287h-186v-283q0 -10 -10 -10h-17q-10 0 -10 10v680q0 10 10 10h27h193
q84 0 144 -59.5t60 -143.5q0 -75 -48.5 -131.5t-120.5 -69.5zM130 666v-339h193q69 0 118 50t49 120t-49 119.5t-118 49.5h-193z" />
    <glyph glyph-name="rcaron" unicode="&#x159;" horiz-adv-x="321" 
d="M303 693q6 0 7.5 -3t-2.5 -8l-96 -107q-4 -5 -11 -5h-18h-9q-8 0 -12 5l-95 107q-4 5 -2.5 8t7.5 3h18q7 0 11 -5l86 -96l87 96q4 5 11 5h18zM285 506q10 1 10 -9v-14q0 -10 -7 -10q-72 -2 -120.5 -53t-48.5 -142v-268q0 -10 -10 -10h-16q-10 0 -10 10v480q0 10 10 10h16
q10 0 10 -10v-99q22 57 67 85t99 30z" />
    <glyph glyph-name="Sacute" unicode="&#x15a;" horiz-adv-x="550" 
d="M245 781q-3 -4 -1.5 -7.5t7.5 -3.5h13q7 0 11 6l75 106q4 5 2 8t-8 3h-19q-7 0 -11 -6zM287 -11q-103 0 -169.5 49.5t-70.5 135.5q0 10 10 10h17q9 0 10 -10q4 -69 58 -109.5t145 -40.5q81 0 130.5 41t49.5 104q0 21 -6 39t-13.5 31.5t-24 26.5t-27.5 20.5t-35.5 18.5
t-36.5 15.5t-40 15.5q-7 2 -21 7q-24 9 -37 14t-35 14.5t-34 17t-29 19.5t-26.5 24.5t-19 28t-13.5 34.5t-4 41q0 77 59.5 126t147.5 49q84 0 145 -48.5t65 -124.5q0 -11 -10 -11h-17q-9 0 -10 10q-4 60 -52 99.5t-121 39.5q-77 0 -123.5 -40t-46.5 -100q0 -20 5.5 -37.5
t13 -30.5t22.5 -25.5t26.5 -20.5t33.5 -18t35 -15l39 -15q8 -2 12 -4q6 -2 16 -6q28 -11 42.5 -17t39.5 -17.5t38.5 -21t30.5 -24.5t26 -31t15 -37.5t6 -46.5q0 -81 -62 -130.5t-154 -49.5z" />
    <glyph glyph-name="sacute" unicode="&#x15b;" horiz-adv-x="467" 
d="M210 570q-6 0 -7.5 3.5t1.5 7.5l69 106q4 6 11 6h19q6 0 8 -3t-2 -8l-75 -106q-4 -6 -11 -6h-13zM97 376q0 -28 13.5 -48t36 -30.5t51 -19.5t58.5 -14.5t58.5 -16.5t51 -24.5t36 -39t13.5 -59.5q0 -60 -50 -97.5t-132 -37.5q-39 0 -72 10t-56.5 27t-37 41.5t-15.5 53.5
q-1 11 10 11h15q9 0 11 -10q3 -47 43 -73t102 -26q43 0 75.5 11t52 34t19.5 56q0 32 -17.5 54t-46 33t-62 19.5t-67.5 17.5t-62 23t-45.5 40.5t-17.5 64.5q0 60 47 97.5t124 37.5q73 0 119 -36.5t50 -95.5q1 -11 -10 -11h-15q-9 0 -11 10q-3 47 -40 73t-93 26
q-60 0 -98 -26.5t-38 -74.5z" />
    <glyph glyph-name="Scedilla" unicode="&#x15e;" horiz-adv-x="550" 
d="M503 169q0 -78 -59 -127.5t-147 -52.5v-57q37 0 63 -18t26 -49q0 -39 -42.5 -59.5t-132.5 -12.5q-10 0 -10 9v10q0 10 11 9q70 -7 106.5 5t36.5 39q0 45 -80 43q-10 1 -10 10v72q-94 5 -154 54t-64 130q-1 10 10 10h17q9 0 10 -10q4 -69 58 -109.5t145 -40.5
q81 0 130.5 41t49.5 104q0 21 -5.5 38.5t-13.5 31t-23.5 26t-27 20.5t-34 18.5t-36 15.5t-39.5 15q-3 1 -4 2q-7 2 -21 7q-28 11 -42.5 16.5t-39.5 17t-38 20.5t-30.5 24t-26 31t-15 37.5t-6.5 46.5q0 77 59.5 126t147.5 49q55 0 101.5 -21.5t76 -61.5t32.5 -90
q0 -11 -10 -11h-17q-9 0 -10 10q-2 29 -15.5 54.5t-36 44.5t-54 29.5t-67.5 10.5q-77 0 -123.5 -40t-46.5 -100q0 -20 5.5 -37.5t13 -30.5t22.5 -25.5t26.5 -20.5t33.5 -18t35 -15l39 -15q8 -2 12 -4q6 -2 16 -6q28 -11 42.5 -17t39.5 -17.5t38.5 -21t30.5 -24.5t26 -31
t15 -37.5t6 -46.5z" />
    <glyph glyph-name="scedilla" unicode="&#x15f;" horiz-adv-x="467" 
d="M415 124q0 -56 -43.5 -92.5t-116.5 -41.5v-58q37 0 63.5 -18t26.5 -49q0 -39 -43 -59.5t-133 -12.5q-9 0 -9 9v10q0 10 10 9q70 -7 106.5 5t36.5 39q0 45 -80 43q-9 1 -9 10v71q-75 3 -121.5 39t-50.5 93q-1 11 10 11h15q9 0 11 -10q3 -47 43 -73t102 -26q43 0 75.5 11
t52 34t19.5 56q0 32 -17.5 54t-45.5 33t-62 19.5t-68 17.5t-62 23t-45.5 40.5t-17.5 64.5q0 60 47 97.5t124 37.5q73 0 119 -36.5t50 -95.5q1 -11 -10 -11h-15q-9 0 -11 10q-3 47 -40 73t-93 26q-60 0 -98 -26.5t-38 -74.5q0 -28 13.5 -48t36 -30.5t51 -19.5t58.5 -14.5
t58.5 -16.5t51 -24.5t36 -39t13.5 -59.5z" />
    <glyph glyph-name="Scaron" unicode="&#x160;" horiz-adv-x="550" 
d="M245 775l-96 107q-4 5 -2.5 8t7.5 3h18q7 0 11 -5l87 -96l86 96q4 5 11 5h18q6 0 7.5 -3t-2.5 -8l-95 -107q-4 -5 -12 -5h-17h-10q-7 0 -11 5zM289 370q6 -2 16 -6q28 -11 42.5 -17t39.5 -17.5t38.5 -21t30.5 -25t26 -31t15 -37t6 -46.5q0 -81 -62 -130.5t-154 -49.5
q-103 0 -169.5 49.5t-70.5 135.5q-1 10 10 10h17q9 0 10 -10q4 -69 57.5 -109.5t145.5 -40.5q53 0 94.5 19t63.5 51.5t22 74.5q0 21 -6 38.5t-13.5 31t-23 26t-27 20.5t-34 18.5t-36 15.5t-39.5 15q-3 1 -4 2q-7 2 -21 7q-28 11 -42.5 16.5t-39.5 17t-38 20.5t-30.5 24
t-26 31t-15 37.5t-6.5 46.5q0 77 59.5 126t147.5 49q55 0 101.5 -21.5t76 -61.5t32.5 -90q0 -11 -10 -11h-17q-9 0 -10 10q-2 29 -15.5 54.5t-36 44.5t-54 29.5t-67.5 10.5q-77 0 -123.5 -40t-46.5 -100q0 -20 5.5 -37.5t13 -30.5t22.5 -25.5t26.5 -20.5t33.5 -18t35 -15
l39 -15q8 -2 12 -4z" />
    <glyph glyph-name="scaron" unicode="&#x161;" horiz-adv-x="467" 
d="M204 575l-96 107q-4 5 -2.5 8t7.5 3h18q7 0 11 -5l87 -96l86 96q4 5 11 5h18q6 0 7.5 -3t-2.5 -8l-95 -107q-4 -5 -12 -5h-17h-10q-7 0 -11 5zM97 376q0 -28 13.5 -48t36 -30.5t51 -19.5t58.5 -14.5t58.5 -16.5t51 -24.5t36 -39t13.5 -59.5q0 -60 -50 -97.5t-132 -37.5
q-79 0 -128 36.5t-53 95.5q-1 11 10 11h15q9 0 11 -10q3 -47 43 -73t102 -26q43 0 75.5 11t52 34t19.5 56q0 32 -17.5 54t-46 33t-62 19.5t-67.5 17.5t-62 23t-45.5 40.5t-17.5 64.5q0 60 47 97.5t124 37.5q73 0 119 -36.5t50 -95.5q0 -11 -10 -11h-15q-9 0 -11 10
q-2 31 -20 54t-47 34t-66 11q-60 0 -98 -26.5t-38 -74.5z" />
    <glyph glyph-name="uni0162" unicode="&#x162;" horiz-adv-x="500" 
d="M463 700q10 0 10 -10v-14q0 -10 -10 -10h-195v-656q0 -10 -10 -10h-16q-10 0 -10 10v656h-195q-10 0 -10 10v14q0 10 10 10h231h195zM259 -70q10 0 9 -10l-17 -151q-1 -9 -10 -9h-7q-10 0 -9 10l8 151q1 9 10 9h16z" />
    <glyph glyph-name="uni0163" unicode="&#x163;" horiz-adv-x="318" 
d="M282 500q10 0 10 -10v-13q0 -10 -10 -10h-105v-457q0 -10 -10 -10h-15q-10 0 -10 10v457h-105q-10 0 -10 10v13q0 10 10 10h105v150q0 10 10 10h15q10 0 10 -10v-150h105zM166 -70q10 0 9 -10l-17 -151q-1 -9 -10 -9h-8q-10 0 -9 10l9 151q1 9 10 9h16z" />
    <glyph glyph-name="Tcaron" unicode="&#x164;" horiz-adv-x="500" 
d="M224 775l-96 107q-4 5 -2.5 8t7.5 3h18q7 0 11 -5l87 -96l86 96q4 5 11 5h18q6 0 7.5 -3t-2.5 -8l-95 -107q-4 -5 -12 -5h-17h-10q-7 0 -11 5zM463 700q10 0 10 -10v-14q0 -10 -10 -10h-195v-656q0 -10 -10 -10h-16q-10 0 -10 10v656h-195q-10 0 -10 10v14q0 10 10 10
h231h195z" />
    <glyph glyph-name="tcaron" unicode="&#x165;" horiz-adv-x="321" 
d="M250 567q-11 0 -10 10l9 133q1 10 10 10h15q11 0 9 -11l-16 -133q-2 -9 -11 -9h-6zM282 500q10 0 10 -10v-13q0 -10 -10 -10h-105v-457q0 -10 -10 -10h-15q-10 0 -10 10v457h-105q-10 0 -10 10v13q0 10 10 10h105v150q0 10 10 10h15q10 0 10 -10v-150h105z" />
    <glyph glyph-name="Tbar" unicode="&#x166;" horiz-adv-x="500" 
d="M463 700q10 0 10 -10v-14q0 -10 -10 -10h-195v-299h152q10 0 10 -10v-14q0 -10 -10 -10h-152v-323q0 -10 -10 -10h-16q-10 0 -10 10v323h-152q-10 0 -10 10v14q0 10 10 10h152v299h-195q-10 0 -10 10v14q0 10 10 10h231h195z" />
    <glyph glyph-name="tbar" unicode="&#x167;" horiz-adv-x="318" 
d="M282 500q10 0 10 -10v-13q0 -10 -10 -10h-105v-152h76q10 0 10 -10v-9q0 -10 -10 -10h-76v-276q0 -10 -10 -10h-15q-10 0 -10 10v276h-76q-10 0 -10 10v9q0 10 10 10h76v152h-105q-10 0 -10 10v13q0 10 10 10h105v150q0 10 10 10h15q10 0 10 -10v-150h105z" />
    <glyph glyph-name="Umacron" unicode="&#x16a;" horiz-adv-x="627" 
d="M195 794q-8 0 -8 9v12q0 9 8 9h230q8 0 8 -9v-12q0 -9 -8 -9h-230zM313.5 -11q-101.5 0 -166 55.5t-64.5 151.5v494q0 10 10 10h17q10 0 10 -10v-494q0 -80 51.5 -126t141.5 -46t142 46t52 126v494q0 10 10 10h16q10 0 10 -10v-494q0 -96 -64 -151.5t-165.5 -55.5z" />
    <glyph glyph-name="umacron" unicode="&#x16b;" 
d="M141 594q-9 0 -9 9v12q0 9 9 9h229q9 0 9 -9v-12q0 -9 -9 -9h-229zM436 500q10 0 10 -10v-480q0 -10 -10 -10h-15q-10 0 -10 10v90q-26 -57 -72.5 -84t-102.5 -27q-73 0 -120 47t-47 130v324q0 10 10 10h16q10 0 10 -10v-324q0 -67 37 -105t98 -38q71 0 121 50.5
t50 144.5v272q0 10 10 10h15z" />
    <glyph glyph-name="Uring" unicode="&#x16e;" horiz-adv-x="627" 
d="M310 757q-29 0 -51.5 12t-35 33.5t-12.5 47.5q0 40 27.5 66.5t71.5 26.5q22 0 40.5 -7t31.5 -19.5t20 -29.5t7 -37q0 -40 -27.5 -66.5t-71.5 -26.5zM310 784q31 0 50 18.5t19 47.5t-19 47.5t-50 18.5t-49.5 -18.5t-18.5 -47.5t18.5 -47.5t49.5 -18.5zM313.5 -11
q-101.5 0 -166 55.5t-64.5 151.5v494q0 10 10 10h17q10 0 10 -10v-494q0 -79 51.5 -125.5t141.5 -46.5t142 46.5t52 125.5v494q0 10 10 10h16q10 0 10 -10v-494q0 -96 -64 -151.5t-165.5 -55.5z" />
    <glyph glyph-name="uring" unicode="&#x16f;" 
d="M255 557q-43 0 -70.5 26.5t-27.5 66.5t27.5 66.5t70.5 26.5q22 0 41 -7t31.5 -19.5t19.5 -29.5t7 -37t-7 -37t-19.5 -29.5t-31.5 -19.5t-41 -7zM255 716q-31 0 -49.5 -18.5t-18.5 -47.5t18.5 -47.5t49.5 -18.5q32 0 50.5 18.5t18.5 47.5t-18.5 47.5t-50.5 18.5zM436 500
q10 0 10 -10v-480q0 -10 -10 -10h-15q-10 0 -10 10v90q-26 -57 -72.5 -84t-102.5 -27q-73 0 -120 47t-47 130v324q0 10 10 10h16q10 0 10 -10v-324q0 -67 37 -105t98 -38q71 0 121 50.5t50 144.5v272q0 10 10 10h15z" />
    <glyph glyph-name="Uhungarumlaut" unicode="&#x170;" horiz-adv-x="627" 
d="M209 781q-5 -11 7 -11h14q7 0 11 6l64 113q7 11 -6 11h-18q-7 0 -11 -7zM350 781q-2 -4 -0.5 -7.5t7.5 -3.5h13q8 0 12 6l73 113q3 5 1 8t-7 3h-18q-7 0 -11 -6zM313.5 -11q-101.5 0 -166 55.5t-64.5 151.5v494q0 10 10 10h17q10 0 10 -10v-494q0 -80 51.5 -126
t141.5 -46q60 0 103.5 21t67 59.5t23.5 91.5v494q0 10 10 10h16q10 0 10 -10v-494q0 -96 -64 -151.5t-165.5 -55.5z" />
    <glyph glyph-name="uhungarumlaut" unicode="&#x171;" 
d="M161 570q-12 0 -6 11l60 112q4 7 11 7h18q13 0 7 -11l-65 -113q-4 -6 -11 -6h-14zM302 570q-5 0 -7 3.5t1 7.5l69 113q4 6 11 6h18q6 0 7.5 -3t-1.5 -8l-73 -113q-4 -6 -11 -6h-14zM436 500q10 0 10 -10v-480q0 -10 -10 -10h-15q-10 0 -10 10v90q-26 -57 -72.5 -84
t-102.5 -27q-73 0 -120 47t-47 130v324q0 10 10 10h16q10 0 10 -10v-324q0 -45 17 -77.5t47.5 -49t70.5 -16.5q71 0 121 50.5t50 144.5v272q0 10 10 10h15z" />
    <glyph glyph-name="Uogonek" unicode="&#x172;" horiz-adv-x="627" 
d="M533 700q10 0 10 -10v-494q0 -98 -68 -155q-80 -70 -108 -106t-28 -72q0 -30 26.5 -40t53.5 1q11 3 11 -8v-9q0 -9 -7 -11q-17 -7 -43 -7q-35 0 -55 19t-20 51q0 64 84 140q-35 -10 -76 -10q-101 0 -165.5 55.5t-64.5 151.5v494q0 10 10 10h17q10 0 10 -10v-494
q0 -80 51.5 -126t141.5 -46t142 46t52 126v494q0 10 10 10h16z" />
    <glyph glyph-name="uogonek" unicode="&#x173;" 
d="M435 -10q-78 -73 -78 -127q0 -31 25 -40.5t54 1.5q10 2 10 -7v-12q0 -7 -6 -9q-18 -7 -44 -7q-23 0 -39.5 9t-25 24.5t-8.5 36.5q0 61 88 150v1v90q-26 -57 -72.5 -84t-102.5 -27q-73 0 -120 47t-47 130v324q0 10 10 10h16q10 0 10 -10v-324q0 -67 37 -105t98 -38
q71 0 121 50.5t50 144.5v272q0 10 10 10h15q10 0 10 -10v-480q0 -10 -11 -20z" />
    <glyph glyph-name="Wcircumflex" unicode="&#x174;" horiz-adv-x="860" 
d="M314 770q-6 0 -7.5 3.5t2.5 7.5l95 107q4 5 12 5h17h10q7 0 11 -5l96 -107q4 -4 2.5 -7.5t-7.5 -3.5h-18q-7 0 -11 5l-87 97l-86 -97q-4 -5 -11 -5h-18zM825 700q12 0 8 -11l-219 -681q-3 -8 -11 -8h-31q-9 0 -11 8l-131 406l-131 -406q-2 -8 -11 -8h-31q-8 0 -11 8
l-219 681q-3 11 8 11h16q8 0 11 -8l211 -654l139 432l-70 219q-4 11 8 11h15q9 0 12 -8l210 -654l211 654q3 8 11 8h16z" />
    <glyph glyph-name="wcircumflex" unicode="&#x175;" horiz-adv-x="673" 
d="M223 570q-6 0 -7.5 3.5t2.5 7.5l96 107q4 5 11 5h18h9q8 0 12 -5l95 -107q4 -4 2.5 -7.5t-7.5 -3.5h-18q-7 0 -11 5l-86 97l-87 -97q-4 -5 -11 -5h-18zM645 500q12 0 8 -11l-174 -481q-3 -8 -11 -8h-15h-7q-9 0 -12 8l-97 270l-98 -270q-3 -8 -11 -8h-15h-7q-9 0 -12 8
l-173 480q-4 12 8 12h17q8 0 11 -8l160 -449l102 284l-58 161q-4 12 8 12h17q8 0 11 -8l160 -449l160 449q3 8 11 8h17z" />
    <glyph glyph-name="Ycircumflex" unicode="&#x176;" horiz-adv-x="565" 
d="M165 770q-6 0 -7.5 3.5t2.5 7.5l95 107q4 5 11 5h18h10q7 0 11 -5l96 -107q3 -4 1.5 -7.5t-7.5 -3.5h-17q-7 0 -12 5l-86 97l-86 -97q-5 -5 -12 -5h-17zM534 700q6 0 8 -3.5t-2 -8.5l-239 -360v-318q0 -10 -10 -10h-17q-10 0 -10 10v319l-239 359q-4 5 -2 8.5t8 3.5h19
q7 0 12 -6l221 -332l220 332q5 6 12 6h19z" />
    <glyph glyph-name="ycircumflex" unicode="&#x177;" horiz-adv-x="470" 
d="M118 570q-6 0 -7.5 3.5t2.5 7.5l96 107q4 5 11 5h18h9q8 0 12 -5l95 -107q4 -4 2.5 -7.5t-7.5 -3.5h-18q-7 0 -11 5l-86 97l-87 -97q-4 -5 -11 -5h-18zM441 500q12 0 8 -12l-257 -680q-3 -8 -11 -8h-17q-12 0 -8 12l72 189l-206 487q-5 12 7 12h17q8 0 11 -8l188 -443
l168 443q3 8 11 8h17z" />
    <glyph glyph-name="Ydieresis" unicode="&#x178;" horiz-adv-x="565" 
d="M177 780q-9 0 -9 9v49q0 9 9 9h22q9 0 9 -9v-49q0 -9 -9 -9h-22zM363 780q-8 0 -8 9v49q0 9 8 9h23q9 0 9 -9v-49q0 -9 -9 -9h-23zM534 700q6 0 8 -3.5t-2 -8.5l-239 -360v-318q0 -10 -10 -10h-17q-10 0 -10 10v319l-239 359q-4 5 -2 8.5t8 3.5h19q7 0 12 -6l220 -332
l221 332q5 6 12 6h19z" />
    <glyph glyph-name="Zacute" unicode="&#x179;" horiz-adv-x="513" 
d="M235 781q-3 -4 -1 -7.5t8 -3.5h12q8 0 12 6l75 106q3 5 1.5 8t-7.5 3h-19q-8 0 -11 -6zM87 34h380q10 0 10 -10v-14q0 -10 -10 -10h-410q-10 0 -10 10v17q0 6 3 13l377 626h-360q-10 0 -10 10v14q0 10 10 10h390q10 0 10 -10v-17q0 -6 -4 -13z" />
    <glyph glyph-name="zacute" unicode="&#x17a;" horiz-adv-x="463" 
d="M211 581q-3 -4 -1 -7.5t7 -3.5h13q7 0 11 6l76 106q3 5 1.5 8t-7.5 3h-20q-7 0 -11 -6zM102 33h308q10 0 10 -10v-13q0 -10 -10 -10h-347q-10 0 -10 10v5q0 6 4 13l304 439h-288q-10 0 -10 10v13q0 10 10 10h327q10 0 10 -10v-5q0 -6 -4 -13z" />
    <glyph glyph-name="Zdotaccent" unicode="&#x17b;" horiz-adv-x="513" 
d="M249 780q-9 0 -9 9v59q0 9 9 9h26q8 0 8 -9v-59q0 -9 -8 -9h-26zM87 34h380q10 0 10 -10v-14q0 -10 -10 -10h-410q-10 0 -10 10v17q0 6 3 13l377 626h-360q-10 0 -10 10v14q0 10 10 10h390q10 0 10 -10v-17q0 -6 -4 -13z" />
    <glyph glyph-name="zdotaccent" unicode="&#x17c;" horiz-adv-x="463" 
d="M224 580q-8 0 -8 9v59q0 9 8 9h26q9 0 9 -9v-59q0 -9 -9 -9h-26zM102 33h308q10 0 10 -10v-13q0 -10 -10 -10h-347q-10 0 -10 10v5q0 6 4 13l304 439h-288q-10 0 -10 10v13q0 10 10 10h327q10 0 10 -10v-5q0 -6 -4 -13z" />
    <glyph glyph-name="Zcaron" unicode="&#x17d;" horiz-adv-x="513" 
d="M235 775l-95 107q-4 5 -2.5 8t7.5 3h18q7 0 11 -5l86 -96l87 96q4 5 11 5h18q6 0 7.5 -3t-2.5 -8l-96 -107q-4 -5 -11 -5h-18h-9q-8 0 -12 5zM467 34q10 0 10 -10v-14q0 -10 -10 -10h-410q-10 0 -10 10v17q0 6 3 13l377 626h-360q-10 0 -10 10v14q0 10 10 10h390
q10 0 10 -10v-17q0 -6 -4 -13l-376 -626h380z" />
    <glyph glyph-name="zcaron" unicode="&#x17e;" horiz-adv-x="463" 
d="M211 575l-96 107q-3 5 -1.5 8t7.5 3h17q7 0 12 -5l86 -96l86 96q5 5 12 5h17q6 0 7.5 -3t-1.5 -8l-96 -107q-4 -5 -11 -5h-18h-10q-7 0 -11 5zM410 33q10 0 10 -10v-13q0 -10 -10 -10h-347q-10 0 -10 10v5q0 6 4 13l304 439h-288q-10 0 -10 10v13q0 10 10 10h327
q10 0 10 -10v-5q0 -6 -4 -13l-304 -439h308z" />
    <glyph glyph-name="florin" unicode="&#x192;" horiz-adv-x="434" 
d="M425 705q9 -2 9 -12v-13q0 -11 -12 -8q-48 16 -84.5 -9t-45.5 -82l-37 -213h116q10 0 10 -10v-14q0 -10 -10 -10h-122l-72 -420q-12 -73 -59.5 -106t-109.5 -15q-8 2 -8 12v13q0 11 12 8q48 -16 84 9t46 82l71 417h-109q-10 0 -10 10v14q0 10 10 10h115l37 216
q13 73 60.5 106t108.5 15z" />
    <glyph glyph-name="Scommaaccent" unicode="&#x218;" horiz-adv-x="550" 
d="M287 -11q-103 0 -169.5 49.5t-70.5 135.5q-1 10 10 10h17q9 0 10 -10q4 -69 58 -109.5t145 -40.5q81 0 130.5 41t49.5 104q0 21 -5.5 38.5t-13.5 31t-23.5 26t-27 20.5t-34 18.5t-36 15.5t-39.5 15q-3 1 -4 2q-7 2 -21 7q-28 11 -42.5 16.5t-39.5 17t-38 20.5t-30.5 24
t-26 31t-15 37.5t-6.5 46.5q0 77 59.5 126t147.5 49q55 0 101.5 -21.5t76 -61.5t32.5 -90q0 -11 -10 -11h-17q-9 0 -10 10q-2 29 -15.5 54.5t-36 44.5t-54 29.5t-67.5 10.5q-77 0 -123.5 -40t-46.5 -100q0 -20 5.5 -37.5t13 -30.5t22.5 -25.5t26.5 -20.5t33.5 -18t35 -15
l39 -15q8 -2 12 -4q6 -2 16 -6q28 -11 42.5 -17t39.5 -17.5t38.5 -21t30.5 -24.5t26 -31t15 -37.5t6 -46.5q0 -81 -62 -130.5t-154 -49.5zM275 -240q9 0 10 9l17 151q1 10 -9 10h-16q-9 0 -10 -9l-8 -151q-1 -10 9 -10h7z" />
    <glyph glyph-name="scommaaccent" unicode="&#x219;" horiz-adv-x="467" 
d="M97 376q0 -28 13.5 -48t36 -30.5t51 -19.5t58.5 -14.5t58.5 -16.5t51 -24.5t36 -39t13.5 -59.5q0 -30 -13 -54.5t-36.5 -42.5t-57.5 -28t-75 -10q-79 0 -128 36.5t-53 95.5q-1 11 10 11h15q9 0 11 -10q3 -47 43 -73t102 -26q43 0 75.5 11t52 34t19.5 56q0 32 -17.5 54
t-45.5 33t-62 19.5t-68 17.5t-62 23t-45.5 40.5t-17.5 64.5q0 60 47 97.5t124 37.5q73 0 119 -36.5t50 -95.5q1 -11 -10 -11h-15q-9 0 -11 10q-3 47 -40 73t-93 26q-60 0 -98 -26.5t-38 -74.5zM252 -70q10 0 8 -10l-16 -151q-2 -9 -11 -9h-7q-10 0 -9 10l9 151q0 9 9 9h17z
" />
    <glyph glyph-name="uni021A" unicode="&#x21a;" horiz-adv-x="500" 
d="M463 700q10 0 10 -10v-14q0 -10 -10 -10h-195v-656q0 -10 -10 -10h-16q-10 0 -10 10v656h-195q-10 0 -10 10v14q0 10 10 10h231h195zM259 -70q10 0 9 -10l-17 -151q-1 -9 -10 -9h-7q-10 0 -9 10l8 151q1 9 10 9h16z" />
    <glyph glyph-name="uni021B" unicode="&#x21b;" horiz-adv-x="318" 
d="M282 500q10 0 10 -10v-13q0 -10 -10 -10h-105v-457q0 -10 -10 -10h-15q-10 0 -10 10v457h-105q-10 0 -10 10v13q0 10 10 10h105v150q0 10 10 10h15q10 0 10 -10v-150h105zM166 -70q10 0 9 -10l-17 -151q-1 -9 -10 -9h-8q-10 0 -9 10l9 151q1 9 10 9h16z" />
    <glyph glyph-name="circumflex" unicode="&#x2c6;" horiz-adv-x="301" 
d="M271 581q4 -4 2.5 -7.5t-7.5 -3.5h-18q-7 0 -11 5l-87 97l-86 -97q-4 -5 -11 -5h-18q-6 0 -7.5 3.5t2.5 7.5l95 107q4 5 12 5h17h10q7 0 11 -5z" />
    <glyph glyph-name="caron" unicode="&#x2c7;" horiz-adv-x="301" 
d="M266 693q6 0 7.5 -3t-2.5 -8l-96 -107q-4 -5 -11 -5h-18h-9q-8 0 -12 5l-95 107q-4 5 -2.5 8t7.5 3h18q7 0 11 -5l86 -96l87 96q4 5 11 5h18z" />
    <glyph glyph-name="breve" unicode="&#x2d8;" horiz-adv-x="293" 
d="M147 569q-55 0 -89 28t-38 75q0 10 9 10h15q9 0 10 -9q2 -35 27 -54.5t65.5 -19.5t65.5 19.5t28 54.5q0 9 9 9h15q10 0 9 -9q-3 -48 -37 -76t-89 -28z" />
    <glyph glyph-name="dotaccent" unicode="&#x2d9;" horiz-adv-x="83" 
d="M29 580q-9 0 -9 9v59q0 9 9 9h26q8 0 8 -9v-59q0 -9 -8 -9h-26z" />
    <glyph glyph-name="ring" unicode="&#x2da;" horiz-adv-x="237" 
d="M119 557q-44 0 -71.5 26.5t-27.5 66.5t27.5 66.5t71.5 26.5t71 -26.5t27 -66.5q0 -26 -12 -47.5t-34.5 -33.5t-51.5 -12zM119 584q31 0 49.5 18.5t18.5 47.5t-18.5 47.5t-49.5 18.5t-50 -18.5t-19 -47.5t19 -47.5t50 -18.5z" />
    <glyph glyph-name="ogonek" unicode="&#x2db;" horiz-adv-x="165" 
d="M95 -211q-35 0 -55 19t-20 51q0 67 85 141h39q-90 -78 -90 -137q0 -31 26.5 -40.5t53.5 0.5q11 3 11 -7v-10q0 -8 -6 -10q-18 -7 -44 -7z" />
    <glyph glyph-name="tilde" unicode="&#x2dc;" horiz-adv-x="304" 
d="M29 587q-9 0 -9 9q3 70 44 85.5t92 -33.5q41 -41 68 -34.5t29 56.5q1 9 10 9h12q9 0 9 -9q-3 -69 -44 -84.5t-91 32.5q-43 41 -69.5 34.5t-28.5 -56.5q-1 -9 -10 -9h-12z" />
    <glyph glyph-name="hungarumlaut" unicode="&#x2dd;" horiz-adv-x="299" 
d="M26 581q-6 -11 7 -11h14q7 0 11 6l64 113q6 11 -6 11h-19q-7 0 -11 -7zM167 581q-3 -4 -1 -7.5t7 -3.5h14q8 0 11 6l74 113q3 5 1 8t-7 3h-18q-8 0 -11 -6z" />
    <glyph glyph-name="gravecomb" unicode="&#x300;" horiz-adv-x="0" 
d="M-33 570q5 0 7 3.5t-1 7.5l-69 106q-4 6 -11 6h-20q-6 0 -7.5 -3t1.5 -8l76 -106q4 -6 12 -6h12z" />
    <glyph glyph-name="acutecomb" unicode="&#x301;" horiz-adv-x="0" 
d="M-134 581q-3 -4 -1 -7.5t8 -3.5h12q8 0 12 6l75 106q3 5 1.5 8t-7.5 3h-19q-8 0 -11 -6z" />
    <glyph glyph-name="uni0302" unicode="&#x302;" horiz-adv-x="0" 
d="M-30 581q4 -4 2.5 -7.5t-7.5 -3.5h-18q-7 0 -11 5l-86 97l-87 -97q-4 -5 -11 -5h-18q-6 0 -7.5 3.5t2.5 7.5l96 107q4 5 11 5h18h9q8 0 12 -5z" />
    <glyph glyph-name="tildecomb" unicode="&#x303;" horiz-adv-x="0" 
d="M-275 587q-9 0 -9 9q3 70 44 85.5t92 -33.5q41 -41 68 -34.5t29 56.5q1 9 10 9h12q9 0 9 -9q-3 -69 -44 -84.5t-91 32.5q-43 41 -69.5 34.5t-28.5 -56.5q-1 -9 -10 -9h-12z" />
    <glyph glyph-name="uni0304" unicode="&#x304;" horiz-adv-x="0" 
d="M-258 594q-9 0 -9 9v12q0 9 9 9h229q9 0 9 -9v-12q0 -9 -9 -9h-229z" />
    <glyph glyph-name="uni0306" unicode="&#x306;" horiz-adv-x="0" 
d="M-160 569q-55 0 -89 28t-37 75q-1 10 9 10h15q8 0 9 -9q3 -35 28 -54.5t65 -19.5t65 19.5t28 54.5q1 9 9 9h15q10 0 9 -9q-3 -48 -37 -76t-89 -28z" />
    <glyph glyph-name="uni0307" unicode="&#x307;" horiz-adv-x="0" 
d="M-56 580q-9 0 -9 9v59q0 9 9 9h26q8 0 8 -9v-59q0 -9 -8 -9h-26z" />
    <glyph glyph-name="uni0308" unicode="&#x308;" horiz-adv-x="0" 
d="M-238 580q-9 0 -9 9v49q0 9 9 9h23q8 0 8 -9v-49q0 -9 -8 -9h-23zM-51 580q-9 0 -9 9v49q0 9 9 9h22q9 0 9 -9v-49q0 -9 -9 -9h-22z" />
    <glyph glyph-name="uni030A" unicode="&#x30a;" horiz-adv-x="0" 
d="M-119 557q-43 0 -70.5 26.5t-27.5 66.5t27.5 66.5t70.5 26.5q45 0 72 -26.5t27 -66.5q0 -26 -12 -47.5t-34.5 -33.5t-52.5 -12zM-119 584q32 0 50.5 18.5t18.5 47.5t-18.5 47.5t-50.5 18.5q-31 0 -49.5 -18.5t-18.5 -47.5q0 -11 3 -21.5t9 -18.5t14.5 -13.5t19 -9
t22.5 -3.5z" />
    <glyph glyph-name="uni030B" unicode="&#x30b;" horiz-adv-x="0" 
d="M-266 581q-6 -11 6 -11h14q8 0 11 6l65 113q6 11 -7 11h-18q-7 0 -11 -7zM-125 581q-3 -4 -1 -7.5t7 -3.5h14q7 0 11 6l73 113q3 5 1.5 8t-7.5 3h-18q-7 0 -11 -6z" />
    <glyph glyph-name="uni030C" unicode="&#x30c;" horiz-adv-x="0" 
d="M-35 693q6 0 7.5 -3t-2.5 -8l-95 -107q-4 -5 -12 -5h-17h-10q-7 0 -11 5l-96 107q-4 5 -2.5 8t7.5 3h18q7 0 11 -5l87 -96l86 96q4 5 11 5h18z" />
    <glyph glyph-name="uni0312" unicode="&#x312;" horiz-adv-x="0" 
d="M-37 960q-9 0 -10 -9l-17 -151q-1 -10 9 -10h16q9 0 10 9l8 151q1 10 -9 10h-7z" />
    <glyph glyph-name="uni0326" unicode="&#x326;" horiz-adv-x="0" 
d="M-48 -240q9 0 10 9l17 151q1 10 -9 10h-16q-9 0 -10 -9l-9 -151q-1 -10 9 -10h8z" />
    <glyph glyph-name="uni0327" unicode="&#x327;" horiz-adv-x="0" 
d="M-110 -68q37 0 63.5 -18t26.5 -49q0 -39 -42.5 -59.5t-132.5 -12.5q-10 0 -10 9v10q0 10 10 9q48 -4 80 -0.5t48 15t16 29.5q0 45 -80 43q-10 1 -10 10v82h31v-68z" />
    <glyph glyph-name="uni0328" unicode="&#x328;" horiz-adv-x="0" 
d="M-70 -211q-35 0 -55 19t-20 51q0 67 85 141h39q-90 -78 -90 -137q0 -31 26.5 -40.5t54.5 0.5q10 3 10 -7v-10q0 -8 -6 -10q-18 -7 -44 -7z" />
    <glyph glyph-name="uni0394" unicode="&#x394;" horiz-adv-x="622" 
d="M601 12q4 -12 -8 -12h-26h-523h-15q-12 0 -8 12l267 680q3 8 11 8h24q8 0 11 -8zM69 34h484l-242 623z" />
    <glyph glyph-name="uni03A9" unicode="&#x3a9;" horiz-adv-x="828" 
d="M775 350q0 -105 -56 -190t-147 -126h182q10 0 10 -10v-14q0 -10 -10 -10h-250q-10 0 -10 10v15q0 8 9 11q68 20 121 65t83.5 110t30.5 139q0 89 -43 164t-117.5 118.5t-163.5 43.5t-163.5 -43.5t-117.5 -118.5t-43 -164q0 -111 66 -197.5t169 -116.5q9 -3 9 -11v-15
q0 -10 -10 -10h-250q-10 0 -10 10v14q0 10 10 10h182q-92 41 -147.5 126t-55.5 190q0 73 28.5 140t76.5 115.5t115 77t141 28.5t141 -28.5t115 -77t76.5 -115.5t28.5 -140z" />
    <glyph glyph-name="pi" unicode="&#x3c0;" horiz-adv-x="620" 
d="M573 500q10 0 10 -10v-13q0 -10 -10 -10h-73v-457q0 -10 -10 -10h-15q-10 0 -10 10v457h-306v-457q0 -10 -10 -10h-15q-10 0 -10 10v457h-77q-10 0 -10 10v13q0 10 10 10h112h341h73z" />
    <glyph glyph-name="uni0401" unicode="&#x401;" horiz-adv-x="520" 
d="M173 780q-9 0 -9 9v49q0 9 9 9h22q9 0 9 -9v-49q0 -9 -9 -9h-22zM359 780q-8 0 -8 9v49q0 9 8 9h23q9 0 9 -9v-49q0 -9 -9 -9h-23zM463 34q10 0 10 -10v-14q0 -10 -10 -10h-353h-7q-10 0 -10 10v680q0 10 10 10h27h328q10 0 10 -10v-14q0 -10 -10 -10h-328v-296h303
q10 0 10 -10v-14q0 -10 -10 -10h-303v-302h333z" />
    <glyph glyph-name="uni0402" unicode="&#x402;" horiz-adv-x="666" 
d="M421 471q78 0 129 -46.5t51 -132.5v-161q0 -69 -36.5 -105.5t-106.5 -32.5q-10 1 -10 11v13q0 10 11 10q105 -7 105 104v161q0 69 -39.5 107t-102.5 38q-78 0 -164 -46v-381q0 -10 -10 -10h-16q-10 0 -10 10v656h-185q-10 0 -10 10v14q0 10 10 10h221h232q10 0 10 -10
v-14q0 -10 -10 -10h-232v-241q83 46 163 46z" />
    <glyph glyph-name="uni0403" unicode="&#x403;" horiz-adv-x="497" 
d="M256 769q-6 0 -7.5 3.5t1.5 7.5l69 106q4 6 11 6h19q6 0 8 -3t-2 -8l-75 -106q-4 -6 -11 -6h-13zM460 700q10 0 10 -10v-14q0 -10 -10 -10h-330v-656q0 -10 -10 -10h-17q-10 0 -10 10v680q0 10 10 10h27h330z" />
    <glyph glyph-name="uni0404" unicode="&#x404;" horiz-adv-x="777" 
d="M722 207q12 0 8 -12q-38 -93 -123 -149.5t-200 -56.5q-102 0 -183.5 48.5t-126 131t-44.5 181.5t44.5 181.5t126 131t183.5 48.5q114 0 199.5 -56.5t122.5 -149.5q4 -12 -8 -12h-19q-8 0 -11 8q-34 80 -109 127.5t-175 47.5q-135 0 -223 -88.5t-94 -220.5h397
q10 0 10 -10v-14q0 -10 -10 -10h-397q6 -132 94 -220.5t223 -88.5q101 0 175.5 47.5t108.5 127.5q3 8 11 8h20z" />
    <glyph glyph-name="uni0405" unicode="&#x405;" horiz-adv-x="550" 
d="M287 -11q-103 0 -169.5 49.5t-70.5 135.5q-1 10 10 10h17q9 0 10 -10q4 -69 58 -109.5t145 -40.5q81 0 130.5 41t49.5 104q0 21 -5.5 38.5t-13.5 31t-23.5 26t-27 20.5t-34 18.5t-36 15.5t-39.5 15q-3 1 -4 2q-7 2 -21 7q-28 11 -42.5 16.5t-39.5 17t-38 20.5t-30.5 24
t-26 31t-15 37.5t-6.5 46.5q0 77 59.5 126t147.5 49q55 0 101.5 -21.5t76 -61.5t32.5 -90q0 -11 -10 -11h-17q-9 0 -10 10q-2 29 -15.5 54.5t-36 44.5t-54 29.5t-67.5 10.5q-77 0 -123.5 -40t-46.5 -100q0 -20 5.5 -37.5t13 -30.5t22.5 -25.5t26.5 -20.5t33.5 -18t35 -15
l39 -15q8 -2 12 -4q6 -2 16 -6q28 -11 42.5 -17t39.5 -17.5t38.5 -21t30.5 -24.5t26 -31t15 -37.5t6 -46.5q0 -81 -62 -130.5t-154 -49.5z" />
    <glyph glyph-name="uni0406" unicode="&#x406;" horiz-adv-x="223" 
d="M93 690q0 10 10 10h17q10 0 10 -10v-680q0 -10 -10 -10h-17q-10 0 -10 10v680z" />
    <glyph glyph-name="uni0407" unicode="&#x407;" horiz-adv-x="223" 
d="M7 780q-9 0 -9 9v49q0 9 9 9h23q8 0 8 -9v-49q0 -9 -8 -9h-23zM194 780q-9 0 -9 9v49q0 9 9 9h22q9 0 9 -9v-49q0 -9 -9 -9h-22zM93 690q0 10 10 10h17q10 0 10 -10v-680q0 -10 -10 -10h-17q-10 0 -10 10v680z" />
    <glyph glyph-name="uni0408" unicode="&#x408;" horiz-adv-x="537" 
d="M243 -11q-88 0 -147.5 52t-61.5 141q-1 11 9 11h17q10 0 10 -10q2 -73 49.5 -116t123.5 -43q78 0 126 44t48 118v504q0 10 10 10h16q10 0 10 -10v-504q0 -91 -60 -144t-150 -53z" />
    <glyph glyph-name="uni0409" unicode="&#x409;" horiz-adv-x="955" 
d="M705 387q85 0 144 -55.5t59 -138.5t-59 -138t-144 -55h-193h-7q-10 0 -10 10v656h-281v-383q0 -149 -45.5 -219t-137.5 -66q-9 0 -9 10v13q0 10 10 9q69 -3 107 56t38 198v406q0 10 10 10h335q10 0 10 -10v-303h173zM705 34q70 0 118.5 45t48.5 114t-48.5 114.5
t-118.5 45.5h-173v-319h173z" />
    <glyph glyph-name="uni040A" unicode="&#x40a;" horiz-adv-x="947" 
d="M697 387q41 0 78.5 -15t65 -40t43.5 -61.5t16 -77.5q0 -83 -59 -138t-144 -55h-194h-6q-10 0 -10 10v343h-357v-343q0 -10 -10 -10h-17q-10 0 -10 10v680q0 10 10 10h17q10 0 10 -10v-303h357v303q0 10 10 10h16q10 0 10 -10v-303h174zM697 34q69 0 117.5 45t48.5 114
t-48.5 114.5t-117.5 45.5h-174v-319h174z" />
    <glyph glyph-name="uni040B" unicode="&#x40b;" horiz-adv-x="674" 
d="M421 471q50 0 90 -19.5t65 -60.5t25 -99v-282q0 -10 -10 -10h-17q-10 0 -10 10v282q0 69 -39.5 107t-102.5 38q-78 0 -164 -46v-381q0 -10 -10 -10h-16q-10 0 -10 10v656h-185q-10 0 -10 10v14q0 10 10 10h221h232q10 0 10 -10v-14q0 -10 -10 -10h-232v-241q83 46 163 46
z" />
    <glyph glyph-name="uni040C" unicode="&#x40c;" horiz-adv-x="563" 
d="M266 769q-6 0 -7.5 3.5t1.5 7.5l69 106q4 6 11 6h19q6 0 8 -3t-2 -8l-75 -106q-4 -6 -11 -6h-13zM541 12q4 -4 2.5 -8t-7.5 -4h-24q-8 0 -12 5l-370 345v-340q0 -10 -10 -10h-17q-10 0 -10 10v680q0 10 10 10h17q10 0 10 -10v-320l360 325q5 5 12 5h23q7 0 8.5 -4
t-2.5 -8l-361 -328z" />
    <glyph glyph-name="uni040E" unicode="&#x40e;" horiz-adv-x="563" 
d="M173 793q-10 0 -10 10v10q0 10 10 10h226q10 0 10 -10v-10q0 -10 -10 -10h-226zM533 700q13 0 8 -12l-228 -535q-68 -158 -193 -154q-10 1 -10 11v13q0 10 10 10q52 -2 90.5 28.5t67.5 98.5l10 23l-246 505q-5 12 8 12h16q8 0 12 -7l227 -469l200 468q3 8 12 8h16z" />
    <glyph glyph-name="uni040F" unicode="&#x40f;" horiz-adv-x="637" 
d="M533 700q10 0 10 -10v-680q0 -10 -10 -10h-26h-170v-134q0 -10 -10 -10h-17q-10 0 -10 10v134h-187h-10q-10 0 -10 10v680q0 10 10 10h17q10 0 10 -10v-656h377v656q0 10 10 10h16z" />
    <glyph glyph-name="uni0410" unicode="&#x410;" horiz-adv-x="629" 
d="M604 12q4 -12 -8 -12h-18q-8 0 -11 8l-69 177h-368l-68 -177q-3 -8 -12 -8h-18q-12 0 -7 12l266 680q3 8 12 8h23q8 0 11 -8zM144 219h341l-171 438z" />
    <glyph glyph-name="uni0411" unicode="&#x411;" horiz-adv-x="585" 
d="M340 407q84 0 143.5 -60t59.5 -144t-59.5 -143.5t-143.5 -59.5h-230h-7q-10 0 -10 10v680q0 10 10 10h27h350q10 0 10 -10v-14q0 -10 -10 -10h-350v-259h210zM340 34q34 0 64.5 13.5t53 36t36 54t13.5 65.5q0 70 -49 120t-118 50h-210v-339h210z" />
    <glyph glyph-name="uni0412" unicode="&#x412;" horiz-adv-x="682" 
d="M495 448q44 -15 77.5 -47t52 -76.5t18.5 -94.5q0 -96 -63 -163t-158 -67h-309h-10q-10 0 -10 10v680q0 10 10 10h27h230q48 0 86.5 -21t59.5 -57t21 -79q0 -53 -32 -95zM360 666h-230v-206h293q17 0 33 -2q34 35 34 85q0 52 -36.5 87.5t-93.5 35.5zM419 34q81 0 134.5 57
t53.5 139q0 83 -53 139.5t-134 56.5h-290v-392h289z" />
    <glyph glyph-name="uni0413" unicode="&#x413;" horiz-adv-x="497" 
d="M460 700q10 0 10 -10v-14q0 -10 -10 -10h-330v-656q0 -10 -10 -10h-17q-10 0 -10 10v680q0 10 10 10h27h330z" />
    <glyph glyph-name="uni0414" unicode="&#x414;" horiz-adv-x="653" 
d="M602 34q10 0 10 -10v-24v-134q0 -10 -10 -10h-17q-10 0 -10 10v134h-517v-134q0 -10 -10 -10h-16q-10 0 -10 10v149v9q0 10 10 10h44q74 81 74 253v403q0 10 10 10h370q10 0 10 -10v-656h62zM187 286q0 -165 -66 -252h382v632h-316v-380z" />
    <glyph glyph-name="uni0415" unicode="&#x415;" horiz-adv-x="520" 
d="M463 34q10 0 10 -10v-14q0 -10 -10 -10h-353h-7q-10 0 -10 10v680q0 10 10 10h27h328q10 0 10 -10v-14q0 -10 -10 -10h-328v-296h303q10 0 10 -10v-14q0 -10 -10 -10h-303v-302h333z" />
    <glyph glyph-name="uni0416" unicode="&#x416;" horiz-adv-x="822" 
d="M791 12q4 -5 2.5 -8.5t-7.5 -3.5h-21q-7 0 -12 5l-324 346v-341q0 -10 -10 -10h-16q-10 0 -10 10v341l-324 -346q-5 -5 -12 -5h-21q-6 0 -7.5 3.5t2.5 8.5l324 348l-314 328q-4 4 -2.5 8t7.5 4h21q7 0 12 -5l314 -326v321q0 10 10 10h16q10 0 10 -10v-321l314 326
q5 5 12 5h20q7 0 8.5 -4t-2.5 -8l-314 -328z" />
    <glyph glyph-name="uni0417" unicode="&#x417;" horiz-adv-x="530" 
d="M390 410q53 -29 83 -81t30 -113q0 -97 -64 -162t-171 -65t-172.5 60.5t-68.5 153.5q-1 10 10 10h17q9 0 10 -10q3 -80 58.5 -130t145.5 -50t144.5 54t54.5 139q0 81 -55 135.5t-139 54.5h-26q-10 0 -10 10v13q0 10 10 10h26q43 0 81 -13q27 20 41.5 50.5t14.5 63.5
q0 61 -40 99t-108 38q-44 0 -78.5 -16.5t-53.5 -45.5t-21 -66q-2 -9 -11 -9h-16q-11 0 -10 10q4 69 55.5 115t134.5 46q85 0 135 -49t50 -122q0 -78 -57 -130z" />
    <glyph glyph-name="uni0418" unicode="&#x418;" horiz-adv-x="630" 
d="M500 10v618l-369 -621q-4 -7 -12 -7h-16q-10 0 -10 10v680q0 10 10 10h17q10 0 10 -10v-618l369 621q4 7 12 7h16q10 0 10 -10v-680q0 -10 -10 -10h-17q-10 0 -10 10z" />
    <glyph glyph-name="uni0419" unicode="&#x419;" horiz-adv-x="630" 
d="M212 794q-10 0 -10 10v10q0 10 10 10h226q10 0 10 -10v-10q0 -10 -10 -10h-226zM500 10v618l-369 -621q-4 -7 -12 -7h-16q-10 0 -10 10v680q0 10 10 10h17q10 0 10 -10v-618l369 621q4 7 12 7h16q10 0 10 -10v-680q0 -10 -10 -10h-17q-10 0 -10 10z" />
    <glyph glyph-name="uni041A" unicode="&#x41a;" horiz-adv-x="563" 
d="M541 12q4 -4 2.5 -8t-7.5 -4h-24q-8 0 -12 5l-370 345v-340q0 -10 -10 -10h-17q-10 0 -10 10v680q0 10 10 10h17q10 0 10 -10v-320l360 325q5 5 12 5h23q7 0 8.5 -4t-2.5 -8l-361 -328z" />
    <glyph glyph-name="uni041B" unicode="&#x41b;" horiz-adv-x="645" 
d="M31 -2q-9 0 -9 10v13q0 10 10 9q69 -3 107 56t38 198v406q0 10 10 10h355q10 0 10 -10v-680q0 -10 -10 -10h-17q-10 0 -10 10v656h-301v-383q0 -149 -45.5 -219t-137.5 -66z" />
    <glyph glyph-name="uni041C" unicode="&#x41c;" horiz-adv-x="813" 
d="M710 700q10 0 10 -10v-680q0 -10 -10 -10h-17q-10 0 -10 10v632l-255 -507q-4 -7 -12 -7h-19q-8 0 -12 7l-255 507v-632q0 -10 -10 -10h-17q-10 0 -10 10v680q0 10 10 10h17h12q8 0 12 -7l263 -522l263 522q3 7 11 7h18h11z" />
    <glyph glyph-name="uni041D" unicode="&#x41d;" horiz-adv-x="637" 
d="M533 700q10 0 10 -10v-680q0 -10 -10 -10h-16q-10 0 -10 10v333h-377v-333q0 -10 -10 -10h-17q-10 0 -10 10v680q0 10 10 10h17q10 0 10 -10v-313h377v313q0 10 10 10h16z" />
    <glyph glyph-name="uni041E" unicode="&#x41e;" horiz-adv-x="828" 
d="M414 -11q-99 0 -182 48.5t-131 131.5t-48 181q0 73 28.5 140t76.5 115.5t115 77t141 28.5t141 -28.5t115 -77t76.5 -115.5t28.5 -140q0 -98 -48 -181t-131 -131.5t-182 -48.5zM414 24q135 0 229.5 95.5t94.5 230.5t-94.5 230.5t-229.5 95.5t-229.5 -95.5t-94.5 -230.5
t94.5 -230.5t229.5 -95.5z" />
    <glyph glyph-name="uni041F" unicode="&#x41f;" horiz-adv-x="637" 
d="M533 700q10 0 10 -10v-680q0 -10 -10 -10h-16q-10 0 -10 10v656h-377v-656q0 -10 -10 -10h-17q-10 0 -10 10v680q0 10 10 10h27h393h10z" />
    <glyph glyph-name="uni0420" unicode="&#x420;" horiz-adv-x="573" 
d="M323 700q84 0 144 -59.5t60 -143.5t-60 -144t-144 -60h-193v-283q0 -10 -10 -10h-17q-10 0 -10 10v680q0 10 10 10h27h193zM323 327q69 0 118 50t49 120t-49 119.5t-118 49.5h-193v-339h193z" />
    <glyph glyph-name="uni0421" unicode="&#x421;" horiz-adv-x="774" 
d="M416 -11q-104 0 -187.5 48.5t-129.5 131t-46 181.5t46 181.5t129.5 131t187.5 48.5q107 0 193.5 -57t122.5 -149q4 -12 -8 -12h-19q-8 0 -11 8q-34 79 -109.5 127t-168.5 48q-94 0 -169 -44t-116 -118t-41 -164t41 -164t116 -118t169 -44q93 0 168.5 48t109.5 127
q3 8 11 8h20q5 0 7.5 -3t0.5 -8q-37 -93 -123.5 -150t-193.5 -57z" />
    <glyph glyph-name="uni0422" unicode="&#x422;" horiz-adv-x="500" 
d="M463 700q10 0 10 -10v-14q0 -10 -10 -10h-195v-656q0 -10 -10 -10h-16q-10 0 -10 10v656h-195q-10 0 -10 10v14q0 10 10 10h231h195z" />
    <glyph glyph-name="uni0423" unicode="&#x423;" horiz-adv-x="563" 
d="M533 700q13 0 8 -12l-228 -535q-68 -158 -193 -154q-10 1 -10 11v13q0 10 10 10q52 -2 90.5 28.5t67.5 98.5l10 23l-246 505q-5 12 8 12h16q8 0 12 -7l227 -469l200 468q3 8 12 8h16z" />
    <glyph glyph-name="uni0424" unicode="&#x424;" horiz-adv-x="804" 
d="M767 350q0 -85 -45.5 -146.5t-123 -92t-178.5 -33.5v-68q0 -10 -10 -10h-16q-10 0 -10 10v68q-101 3 -178.5 33.5t-123 92t-45.5 146.5q0 64 26 115t73 84.5t110 52t138 20.5v68q0 10 10 10h16q10 0 10 -10v-68q101 -3 178.5 -33.5t123 -92t45.5 -146.5zM73 350
q0 -73 38.5 -126t108 -81.5t164.5 -30.5v476q-144 -4 -227.5 -66t-83.5 -172zM420 112q47 1 88.5 9t76 22t61.5 34.5t46 46t29 57.5t10 69q0 110 -83.5 172t-227.5 66v-476z" />
    <glyph glyph-name="uni0425" unicode="&#x425;" horiz-adv-x="563" 
d="M529 12q3 -5 1 -8.5t-8 -3.5h-18q-8 0 -12 6l-210 322l-211 -322q-4 -6 -12 -6h-18q-6 0 -8 3.5t1 8.5l228 346l-217 330q-3 5 -1 8.5t8 3.5h18q8 0 12 -6l200 -305l199 305q4 6 12 6h18q6 0 8 -3.5t-1 -8.5l-216 -330z" />
    <glyph glyph-name="uni0426" unicode="&#x426;" horiz-adv-x="653" 
d="M543 34h62q10 0 10 -10v-158q0 -10 -10 -10h-17q-10 0 -10 10v134h-475q-10 0 -10 10v680q0 10 10 10h17q10 0 10 -10v-656h377v656q0 10 10 10h16q10 0 10 -10v-656z" />
    <glyph glyph-name="uni0427" unicode="&#x427;" horiz-adv-x="615" 
d="M512 700q10 0 10 -10v-680q0 -10 -10 -10h-17q-10 0 -10 10v297q-93 -44 -190 -44q-104 0 -162 54.5t-58 139.5v233q0 10 10 10h17q10 0 10 -10v-233q0 -72 48 -116t135 -44q94 0 190 45v348q0 10 10 10h17z" />
    <glyph glyph-name="uni0428" unicode="&#x428;" horiz-adv-x="923" 
d="M793 690q0 10 10 10h17q10 0 10 -10v-680q0 -10 -10 -10h-717q-10 0 -10 10v680q0 10 10 10h17q10 0 10 -10v-656h313v656q0 10 10 10h17q10 0 10 -10v-656h313v656z" />
    <glyph glyph-name="uni0429" unicode="&#x429;" horiz-adv-x="940" 
d="M830 34h62q10 0 10 -10v-158q0 -10 -10 -10h-17q-10 0 -10 10v134h-762q-10 0 -10 10v680q0 10 10 10h17q10 0 10 -10v-656h313v656q0 10 10 10h17q10 0 10 -10v-656h313v656q0 10 10 10h17q10 0 10 -10v-656z" />
    <glyph glyph-name="uni042A" unicode="&#x42a;" horiz-adv-x="677" 
d="M207 0q-10 0 -10 10v656h-187q-10 0 -10 10v14q0 10 10 10h213q10 0 10 -10v-283h194q84 0 143.5 -60t59.5 -144t-59.5 -143.5t-143.5 -59.5h-220zM233 34h194q68 0 117 49.5t49 119.5t-49 120t-117 50h-194v-339z" />
    <glyph glyph-name="uni042B" unicode="&#x42b;" horiz-adv-x="742" 
d="M103 0q-10 0 -10 10v680q0 10 10 10h17q10 0 10 -10v-283h193q84 0 144 -60t60 -144t-60 -143.5t-144 -59.5h-220zM622 0q-10 0 -10 10v680q0 10 10 10h16q10 0 10 -10v-680q0 -10 -10 -10h-16zM130 34h193q69 0 118 49.5t49 119.5t-49 120t-118 50h-193v-339z" />
    <glyph glyph-name="uni042C" unicode="&#x42c;" horiz-adv-x="573" 
d="M323 407q84 0 144 -60t60 -144t-60 -143.5t-144 -59.5h-213h-7q-10 0 -10 10v680q0 10 10 10h17q10 0 10 -10v-283h193zM323 34q45 0 83.5 22.5t61 61.5t22.5 85q0 70 -49 120t-118 50h-193v-339h193z" />
    <glyph glyph-name="uni042D" unicode="&#x42d;" horiz-adv-x="777" 
d="M370 711q102 0 183.5 -48.5t126 -131t44.5 -181.5t-44.5 -181.5t-126 -131t-183.5 -48.5q-115 0 -200 56.5t-122 149.5q-5 12 7 12h20q8 0 11 -8q34 -80 108.5 -127.5t175.5 -47.5q135 0 223 88.5t94 220.5h-397q-10 0 -10 10v14q0 10 10 10h397q-6 132 -94 220.5
t-223 88.5q-100 0 -175 -47.5t-109 -127.5q-3 -8 -11 -8h-19q-12 0 -8 12q37 93 122.5 149.5t199.5 56.5z" />
    <glyph glyph-name="uni042E" unicode="&#x42e;" horiz-adv-x="1053" 
d="M639 711q99 0 182 -48.5t131 -131.5t48 -181t-48 -181t-131 -131.5t-182 -48.5q-97 0 -179 47.5t-130 128.5t-50 178h-150v-333q0 -10 -10 -10h-17q-10 0 -10 10v680q0 10 10 10h17q10 0 10 -10v-313h151q7 92 55.5 168.5t128.5 121t174 44.5zM639 24q67 0 127 26
t103 69.5t68.5 103.5t25.5 127q0 89 -43 164t-117.5 118.5t-163 43.5t-163.5 -43.5t-118 -118.5t-43 -164t43 -164t118 -118.5t163 -43.5z" />
    <glyph glyph-name="uni042F" unicode="&#x42f;" horiz-adv-x="613" 
d="M510 700q10 0 10 -10v-680q0 -10 -10 -10h-17q-10 0 -10 10v283h-146l-253 -287q-5 -6 -13 -6h-21q-7 0 -8.5 4t2.5 8l248 281h-2q-84 0 -143.5 60t-59.5 144t59.5 143.5t143.5 59.5h213h7zM290 327h193v339h-193q-69 0 -118 -49.5t-49 -119.5t49 -120t118 -50z" />
    <glyph glyph-name="uni0430" unicode="&#x430;" horiz-adv-x="499" 
d="M250 511q78 0 129 -47.5t51 -131.5v-322q0 -10 -10 -10h-15q-10 0 -10 10v55q-42 -76 -166 -76q-75 0 -127 41t-52 113.5t52 113.5t127 41q56 0 99.5 -19.5t66.5 -55.5v109q0 69 -41 107t-104 38q-60 0 -100 -30.5t-44 -85.5q-2 -9 -10 -9h-16q-10 0 -10 10
q5 66 54 107.5t126 41.5zM234 22q46 0 81 12t57.5 40.5t22.5 69.5q0 61 -46 91t-115 30t-109 -33t-40 -88t40 -88.5t109 -33.5z" />
    <glyph glyph-name="uni0431" unicode="&#x431;" horiz-adv-x="576" 
d="M296 -11q-107 0 -178 71t-71 187q0 60 20 112t52.5 88t72 66t80 53t74.5 43t57 40.5t27 40.5q2 9 10 9h17q11 0 9 -10q-2 -24 -20.5 -46.5t-47.5 -41t-63.5 -37.5t-71.5 -41.5t-69.5 -48.5t-59.5 -62t-40 -78q35 57 91 88.5t116 31.5q66 0 120.5 -29.5t86 -83
t31.5 -120.5q0 -101 -68 -166.5t-175 -65.5zM296 23q92 0 150 55t58 143q0 87 -58.5 143.5t-147.5 56.5q-78 0 -140 -50.5t-75 -131.5q0 -95 60 -155.5t153 -60.5z" />
    <glyph glyph-name="uni0432" unicode="&#x432;" horiz-adv-x="528" 
d="M412 298q42 -19 65 -55.5t23 -82.5q0 -70 -46.5 -115t-133.5 -45h-210h-17q-10 0 -10 10v480q0 10 10 10h26h151q73 0 116.5 -39t43.5 -100q0 -34 -18 -63zM270 467h-151v-152h201q31 0 58 -6q17 24 17 52q0 33 -16 57t-44 37t-65 12zM320 33q68 0 106.5 33.5t38.5 93.5
q0 38 -17.5 66t-50 42.5t-77.5 14.5h-201v-250h201z" />
    <glyph glyph-name="uni0433" unicode="&#x433;" horiz-adv-x="378" 
d="M360 500q10 0 10 -10v-13q0 -10 -10 -10h-241v-457q0 -10 -10 -10h-16q-10 0 -10 10v480q0 10 10 10h26h241z" />
    <glyph glyph-name="uni0434" unicode="&#x434;" horiz-adv-x="570" 
d="M523 33q10 0 10 -10v-23v-134q0 -10 -10 -10h-15q-10 0 -10 10v134h-70h-366v-134q0 -10 -10 -10h-15q-10 0 -10 10v152v5q0 10 10 10h45q30 42 43.5 91.5t13.5 121.5v244q0 10 10 10h26h267h11q10 0 10 -10v-457h60zM125 33h303v434h-253v-221q0 -129 -50 -213z" />
    <glyph glyph-name="uni0435" unicode="&#x435;" horiz-adv-x="576" 
d="M297 511q73 0 129.5 -37.5t84.5 -96.5t28 -129v-7q-1 -10 -10 -10h-25h-421q6 -94 66 -151t151 -57q63 0 111 27.5t69 73.5q4 8 11 8h18q13 0 9 -10q-24 -61 -82.5 -97t-135.5 -36q-74 0 -132 33.5t-89.5 93t-31.5 134.5q0 112 69.5 186.5t180.5 74.5zM297 477
q-91 0 -150.5 -59t-64.5 -154h422q-7 97 -65 155t-142 58z" />
    <glyph glyph-name="uni0436" unicode="&#x436;" horiz-adv-x="653" 
d="M615 12q4 -4 2.5 -8t-8.5 -4h-20q-7 0 -12 5l-233 245v-240q0 -10 -10 -10h-15q-10 0 -10 10v240l-233 -245q-5 -5 -13 -5h-20q-6 0 -8 4t3 8l237 248l-227 228q-4 4 -2.5 8t8.5 4h19q8 0 13 -5l223 -225v220q0 10 10 10h15q10 0 10 -10v-220l223 225q5 5 12 5h20
q7 0 8.5 -4t-3.5 -8l-227 -228z" />
    <glyph glyph-name="uni0437" unicode="&#x437;" horiz-adv-x="427" 
d="M326 279q36 -20 55 -54t19 -76q0 -66 -50 -113t-134 -47q-57 0 -99.5 21t-64.5 54t-25 75q-1 10 10 10h15q9 0 11 -10q3 -53 45 -84.5t108 -31.5q65 0 107 35t42 91q0 57 -40 90.5t-105 33.5h-18q-10 0 -10 10v12q0 10 10 10h18q40 0 73 -11q37 32 37 74q0 49 -34.5 79
t-85.5 30q-53 0 -86.5 -27t-36.5 -74q-2 -10 -10 -10h-16q-10 0 -10 11q2 29 14 53.5t32 42.5t49 28t64 10q69 0 112 -41.5t43 -101.5q0 -51 -39 -89z" />
    <glyph glyph-name="uni0438" unicode="&#x438;" horiz-adv-x="543" 
d="M424 494q4 6 12 6h14q10 0 10 -10v-480q0 -10 -10 -10h-15q-10 0 -10 10v427l-305 -431q-5 -6 -12 -6h-15q-10 0 -10 10v480q0 10 10 10h16q10 0 10 -10v-427z" />
    <glyph glyph-name="uni0439" unicode="&#x439;" horiz-adv-x="543" 
d="M158 594q-10 0 -10 10v10q0 10 10 10h227q10 0 10 -10v-10q0 -10 -10 -10h-227zM424 494q4 6 12 6h14q10 0 10 -10v-480q0 -10 -10 -10h-15q-10 0 -10 10v427l-305 -431q-5 -6 -12 -6h-15q-10 0 -10 10v480q0 10 10 10h16q10 0 10 -10v-427z" />
    <glyph glyph-name="uni043A" unicode="&#x43a;" horiz-adv-x="472" 
d="M432 12q5 -4 3.5 -8t-8.5 -4h-23q-7 0 -12 5l-273 245v-240q0 -10 -10 -10h-16q-10 0 -10 10v480q0 10 10 10h16q10 0 10 -10v-220l263 225q5 5 12 5h23q7 0 8.5 -4t-4.5 -8l-266 -228z" />
    <glyph glyph-name="uni043B" unicode="&#x43b;" horiz-adv-x="537" 
d="M443 500q10 0 10 -10v-480q0 -10 -10 -10h-15q-10 0 -10 10v457h-243v-261q0 -115 -40 -162t-109 -44q-9 0 -9 10v13q0 9 10 9q57 -2 84.5 40t27.5 134v284q0 10 10 10h26h256h12z" />
    <glyph glyph-name="uni043C" unicode="&#x43c;" horiz-adv-x="643" 
d="M550 500q10 0 10 -10v-480q0 -10 -10 -10h-15q-10 0 -10 10v437l-185 -336q-4 -7 -12 -7h-13q-8 0 -11 7l-185 336v-437q0 -10 -10 -10h-16q-10 0 -10 10v480q0 10 10 10h16h10q8 0 12 -7l191 -347l191 347q3 7 12 7h15h10z" />
    <glyph glyph-name="uni043D" unicode="&#x43d;" horiz-adv-x="543" 
d="M450 500q10 0 10 -10v-480q0 -10 -10 -10h-15q-10 0 -10 10v223h-306v-223q0 -10 -10 -10h-16q-10 0 -10 10v480q0 10 10 10h16q10 0 10 -10v-223h306v223q0 10 10 10h15z" />
    <glyph glyph-name="uni043E" unicode="&#x43e;" horiz-adv-x="617" 
d="M308.5 -11q-109.5 0 -185.5 75.5t-76 185.5t76 185.5t185.5 75.5t185.5 -75.5t76 -185.5t-76 -185.5t-185.5 -75.5zM308.5 23q95.5 0 161 65.5t65.5 161.5t-65.5 161.5t-161 65.5t-161 -65.5t-65.5 -161.5t65.5 -161.5t161 -65.5z" />
    <glyph glyph-name="uni043F" unicode="&#x43f;" horiz-adv-x="543" 
d="M450 500q10 0 10 -10v-480q0 -10 -10 -10h-15q-10 0 -10 10v457h-306v-457q0 -10 -10 -10h-16q-10 0 -10 10v480q0 10 10 10h26h317h14z" />
    <glyph glyph-name="uni0440" unicode="&#x440;" horiz-adv-x="653" 
d="M347 511q71 0 130.5 -34.5t94.5 -94.5t35 -132q0 -110 -76 -185.5t-184 -75.5q-77 0 -137.5 39.5t-90.5 105.5v-324q0 -10 -10 -10h-16q-10 0 -10 10v680q0 10 10 10h16q10 0 10 -10v-124q30 66 90.5 105.5t137.5 39.5zM345 23q95 0 160.5 65.5t65.5 161.5t-65.5 161.5
t-160.5 65.5t-160.5 -65.5t-65.5 -161.5t65.5 -161.5t160.5 -65.5z" />
    <glyph glyph-name="uni0441" unicode="&#x441;" horiz-adv-x="578" 
d="M530 147q12 0 8 -12q-25 -66 -87.5 -106t-142.5 -40q-73 0 -133 34.5t-94 94t-34 132.5q0 111 74.5 186t186.5 75q80 0 142.5 -40t87.5 -106q4 -12 -8 -12h-17q-8 0 -11 8q-12 26 -31 47.5t-43.5 37t-55.5 23.5t-64 8q-96 0 -161 -65.5t-65 -161.5t65 -161.5t161 -65.5
q67 0 119 31.5t75 84.5q3 8 11 8h17z" />
    <glyph glyph-name="uni0442" unicode="&#x442;" horiz-adv-x="400" 
d="M373 500q10 0 10 -10v-13q0 -10 -10 -10h-155v-457q0 -10 -10 -10h-16q-10 0 -10 10v457h-155q-10 0 -10 10v13q0 10 10 10h346z" />
    <glyph glyph-name="uni0443" unicode="&#x443;" horiz-adv-x="487" 
d="M461 500q12 0 8 -12l-193 -534q-26 -71 -76 -113.5t-109 -40.5q-10 -1 -10 10v12q0 10 10 10q48 0 89 35t62 95l9 23l-210 503q-5 12 8 12h16q9 0 11 -8l192 -459l166 459q3 8 11 8h16z" />
    <glyph glyph-name="uni0444" unicode="&#x444;" horiz-adv-x="670" 
d="M623 250q0 -71 -33.5 -129t-95.5 -93.5t-141 -39.5v-178q0 -10 -10 -10h-16q-10 0 -10 10v178q-120 6 -195 80t-75 182t75 182t195 80v178q0 10 10 10h16q10 0 10 -10v-178q120 -6 195 -80t75 -182zM82 250q0 -95 65 -159t170 -69v456q-105 -5 -170 -69t-65 -159zM353 22
q105 5 170 69t65 159t-65 159t-170 69v-456z" />
    <glyph glyph-name="uni0445" unicode="&#x445;" horiz-adv-x="451" 
d="M415 12q4 -5 2 -8.5t-8 -3.5h-16q-8 0 -12 6l-156 224l-155 -224q-5 -6 -13 -6h-16q-6 0 -8 3.5t2 8.5l171 246l-160 230q-4 5 -2 8.5t8 3.5h16q8 0 12 -6l145 -208l145 208q4 6 12 6h16q6 0 8 -3.5t-2 -8.5l-160 -230z" />
    <glyph glyph-name="uni0446" unicode="&#x446;" horiz-adv-x="567" 
d="M450 33h70q10 0 10 -10v-157q0 -10 -10 -10h-15q-10 0 -10 10v134h-402q-10 0 -10 10v480q0 10 10 10h16q10 0 10 -10v-457h296v457q0 10 10 10h15q10 0 10 -10v-457z" />
    <glyph glyph-name="uni0447" unicode="&#x447;" horiz-adv-x="513" 
d="M420 500q10 0 10 -10v-480q0 -10 -10 -10h-15q-10 0 -10 10v192q-73 -35 -149 -35q-85 0 -134 43t-49 120v160q0 10 10 10h16q10 0 10 -10v-160q0 -62 38 -96.5t109 -34.5q72 0 149 36v255q0 10 10 10h15z" />
    <glyph glyph-name="uni0448" unicode="&#x448;" horiz-adv-x="763" 
d="M670 500q10 0 10 -10v-480q0 -10 -10 -10h-25h-281h-258h-13q-10 0 -10 10v480q0 10 10 10h16q10 0 10 -10v-457h245v457q0 10 10 10h15q10 0 10 -10v-457h246v457q0 10 10 10h15z" />
    <glyph glyph-name="uni0449" unicode="&#x449;" horiz-adv-x="787" 
d="M740 33q10 0 10 -10v-23v-134q0 -10 -10 -10h-15q-10 0 -10 10v134h-609h-13q-10 0 -10 10v480q0 10 10 10h16q10 0 10 -10v-457h245v457q0 10 10 10h15q10 0 10 -10v-457h246v457q0 10 10 10h15q10 0 10 -10v-457h60z" />
    <glyph glyph-name="uni044A" unicode="&#x44a;" horiz-adv-x="540" 
d="M340 302q68 0 115.5 -41.5t47.5 -108.5t-47.5 -109.5t-115.5 -42.5h-173h-10q-10 0 -10 10v457h-137q-10 0 -10 10v13q0 10 10 10h157h5q10 0 10 -10v-188h158zM340 33q36 0 65 15t46 42t17 61.5t-17 61.5t-46 41.5t-65 14.5h-158v-236h158z" />
    <glyph glyph-name="uni044B" unicode="&#x44b;" horiz-adv-x="642" 
d="M276 302q68 0 116 -41.5t48 -108.5t-48 -109.5t-116 -42.5h-172h-11q-10 0 -10 10v480q0 10 10 10h16q10 0 10 -10v-188h157zM549 500q10 0 10 -10v-480q0 -10 -10 -10h-16q-10 0 -10 10v480q0 10 10 10h16zM276 33q55 0 92 33.5t37 85.5q0 34 -17 61t-46.5 41.5
t-65.5 14.5h-157v-236h157z" />
    <glyph glyph-name="uni044C" unicode="&#x44c;" horiz-adv-x="477" 
d="M276 302q68 0 116 -41.5t48 -108.5t-48 -109.5t-116 -42.5h-172h-11q-10 0 -10 10v480q0 10 10 10h16q10 0 10 -10v-188h157zM276 33q55 0 92 33.5t37 85.5q0 34 -17 61t-46.5 41.5t-65.5 14.5h-157v-236h157z" />
    <glyph glyph-name="uni044D" unicode="&#x44d;" horiz-adv-x="577" 
d="M275 511q73 0 131.5 -34.5t91 -94t32.5 -132.5q0 -111 -72 -186t-183 -75q-82 0 -144.5 40t-89.5 106q-5 12 8 12h16q8 0 12 -8q25 -53 77 -84.5t121 -31.5q91 0 152 60t67 150h-258q-10 0 -10 10v14q0 10 10 10h258q-6 91 -67 150.5t-152 59.5q-69 0 -121 -31t-77 -85
q-4 -8 -12 -8h-16q-13 0 -8 12q28 67 90 106.5t144 39.5z" />
    <glyph glyph-name="uni044E" unicode="&#x44e;" horiz-adv-x="807" 
d="M498 511q110 0 186 -75.5t76 -185.5t-76 -185.5t-186 -75.5q-105 0 -179 70t-81 174h-119v-223q0 -10 -10 -10h-16q-10 0 -10 10v480q0 10 10 10h16q10 0 10 -10v-223h119q7 104 81 174t179 70zM498.5 23q95.5 0 161 65.5t65.5 161.5t-65.5 161.5t-161 65.5t-161 -65.5
t-65.5 -161.5t65.5 -161.5t161 -65.5z" />
    <glyph glyph-name="uni044F" unicode="&#x44f;" horiz-adv-x="500" 
d="M407 500q10 0 10 -10v-480q0 -10 -10 -10h-16q-10 0 -10 10v189h-132l-172 -194q-5 -5 -12 -5h-22q-6 0 -8 4t3 8l169 187q-62 6 -104.5 46.5t-42.5 102.5q0 67 48 109.5t116 42.5h172h11zM224 231h157v236h-157q-36 0 -65.5 -15t-46.5 -42t-17 -62q0 -51 36.5 -84
t92.5 -33z" />
    <glyph glyph-name="uni0451" unicode="&#x451;" horiz-adv-x="576" 
d="M192 580q-9 0 -9 9v49q0 9 9 9h22q9 0 9 -9v-49q0 -9 -9 -9h-22zM378 580q-8 0 -8 9v49q0 9 8 9h23q9 0 9 -9v-49q0 -9 -9 -9h-23zM297 511q73 0 129.5 -37.5t84.5 -96.5t28 -129v-7q0 -10 -10 -10h-25h-421q6 -94 66 -151t151 -57q63 0 111 27.5t69 73.5q4 8 12 8h17
q13 0 9 -10q-24 -61 -82.5 -97t-135.5 -36q-112 0 -182.5 73.5t-70.5 187.5q0 112 69.5 186.5t180.5 74.5zM297 477q-91 0 -150.5 -59t-64.5 -154h422q-7 97 -65 155t-142 58z" />
    <glyph glyph-name="uni0452" unicode="&#x452;" horiz-adv-x="542" 
d="M310 511q73 0 120 -47t47 -130v-407q0 -69 -36.5 -106t-106.5 -32q-10 0 -10 10v13q0 10 11 10q106 -7 106 105v407q0 67 -37 105t-98 38q-71 0 -121 -50.5t-50 -144.5v-272q0 -10 -10 -10h-15q-10 0 -10 10v579h-67q-10 0 -10 10v9q0 10 10 10h67v72q0 10 10 10h15
q10 0 10 -10v-72h158q10 0 10 -10v-9q0 -10 -10 -10h-158v-190q25 57 72 84.5t103 27.5z" />
    <glyph glyph-name="uni0453" unicode="&#x453;" horiz-adv-x="378" 
d="M183 570q-6 0 -8 3.5t1 7.5l70 106q3 6 11 6h19q6 0 7.5 -3t-1.5 -8l-75 -106q-4 -6 -12 -6h-12zM360 500q10 0 10 -10v-13q0 -10 -10 -10h-241v-457q0 -10 -10 -10h-16q-10 0 -10 10v480q0 10 10 10h26h241z" />
    <glyph glyph-name="uni0454" unicode="&#x454;" horiz-adv-x="577" 
d="M528 147q13 0 8 -12q-28 -67 -90 -106.5t-144 -39.5q-111 0 -183 75t-72 186t72 186t183 75q82 0 144 -39.5t90 -106.5q5 -12 -8 -12h-16q-8 0 -12 8q-26 54 -77.5 85t-120.5 31q-91 0 -152.5 -60t-66.5 -150h257q10 0 10 -10v-14q0 -10 -10 -10h-257q5 -90 66.5 -150
t152.5 -60q68 0 120 31.5t78 84.5q4 8 12 8h16z" />
    <glyph glyph-name="uni0455" unicode="&#x455;" horiz-adv-x="467" 
d="M97 376q0 -28 13.5 -48t36 -30.5t51 -19.5t58.5 -14.5t58.5 -16.5t51 -24.5t36 -39t13.5 -59.5q0 -30 -13 -54.5t-36.5 -42.5t-57.5 -28t-75 -10q-79 0 -128 36.5t-53 95.5q-1 11 10 11h15q9 0 11 -10q3 -47 43 -73t102 -26q43 0 75.5 11t52 34t19.5 56q0 32 -17.5 54
t-45.5 33t-62 19.5t-68 17.5t-62 23t-45.5 40.5t-17.5 64.5q0 60 47 97.5t124 37.5q73 0 119 -36.5t50 -95.5q1 -11 -10 -11h-15q-9 0 -11 10q-3 47 -40 73t-93 26q-60 0 -98 -26.5t-38 -74.5z" />
    <glyph glyph-name="uni0456" unicode="&#x456;" horiz-adv-x="202" 
d="M93 600q-10 0 -10 10v80q0 10 10 10h16q10 0 10 -10v-80q0 -10 -10 -10h-16zM93 0q-10 0 -10 10v480q0 10 10 10h16q10 0 10 -10v-480q0 -10 -10 -10h-16z" />
    <glyph glyph-name="uni0457" unicode="&#x457;" horiz-adv-x="202" 
d="M-4 580q-8 0 -8 9v49q0 9 8 9h23q9 0 9 -9v-49q0 -9 -9 -9h-23zM183 580q-9 0 -9 9v49q0 9 9 9h23q8 0 8 -9v-49q0 -9 -8 -9h-23zM93 0q-10 0 -10 10v480q0 10 10 10h16q10 0 10 -10v-480q0 -10 -10 -10h-16z" />
    <glyph glyph-name="uni0458" unicode="&#x458;" horiz-adv-x="216" 
d="M123 700q10 0 10 -10v-80q0 -10 -10 -10h-16q-10 0 -10 10v80q0 10 10 10h16zM123 500q10 0 10 -10v-563q0 -69 -36.5 -106t-106.5 -32q-10 0 -10 10v13q0 10 11 10q106 -7 106 105v563q0 10 10 10h16z" />
    <glyph glyph-name="uni0459" unicode="&#x459;" horiz-adv-x="780" 
d="M589 282q66 0 110 -37t44 -103.5t-44 -104t-110 -37.5h-160h-11q-10 0 -10 10v457h-233v-261q0 -115 -40 -162t-109 -44q-9 0 -9 10v13q0 9 10 9q57 -2 84.5 40t27.5 134v284q0 10 10 10h26h246h12q10 0 10 -10v-208h146zM589 33q53 0 86 29t33 79.5t-33 79t-86 28.5
h-146v-216h146z" />
    <glyph glyph-name="uni045A" unicode="&#x45a;" horiz-adv-x="773" 
d="M583 282q65 0 109 -37t44 -103q0 -45 -21 -77.5t-55.5 -48.5t-76.5 -16h-161h-11q-10 0 -10 10v239h-289v-239q0 -10 -10 -10h-15q-10 0 -10 10v480q0 10 10 10h15q10 0 10 -10v-208h289v208q0 10 10 10h16q10 0 10 -10v-208h146zM583 33q52 0 85 29t33 79.5t-33 79
t-85 28.5h-146v-216h146z" />
    <glyph glyph-name="uni045B" unicode="&#x45b;" horiz-adv-x="546" 
d="M310 511q73 0 120 -47t47 -130v-324q0 -10 -10 -10h-16q-10 0 -10 10v324q0 67 -37 105t-98 38q-71 0 -121 -50.5t-50 -144.5v-272q0 -10 -10 -10h-15q-10 0 -10 10v579h-67q-10 0 -10 10v9q0 10 10 10h67v72q0 10 10 10h15q10 0 10 -10v-72h158q10 0 10 -10v-9
q0 -10 -10 -10h-158v-190q25 57 72 84.5t103 27.5z" />
    <glyph glyph-name="uni045C" unicode="&#x45c;" horiz-adv-x="472" 
d="M219 570q-5 0 -7 3.5t1 7.5l69 106q4 6 11 6h20q6 0 7.5 -3t-1.5 -8l-76 -106q-4 -6 -11 -6h-13zM432 12q5 -4 3.5 -8t-8.5 -4h-23q-7 0 -12 5l-273 245v-240q0 -10 -10 -10h-16q-10 0 -10 10v480q0 10 10 10h16q10 0 10 -10v-220l263 225q5 5 12 5h23q7 0 8.5 -4
t-4.5 -8l-266 -228z" />
    <glyph glyph-name="uni045E" unicode="&#x45e;" horiz-adv-x="487" 
d="M140 594q-10 0 -10 10v10q0 10 10 10h226q10 0 10 -10v-10q0 -10 -10 -10h-226zM461 500q12 0 8 -12l-193 -534q-26 -71 -76 -113.5t-109 -40.5q-10 -1 -10 10v12q0 10 10 10q48 0 89 35t62 95l9 23l-210 503q-5 12 8 12h16q9 0 11 -8l192 -459l166 459q3 8 11 8h16z" />
    <glyph glyph-name="uni045F" unicode="&#x45f;" horiz-adv-x="543" 
d="M450 500q10 0 10 -10v-480q0 -10 -10 -10h-25h-136v-134q0 -10 -10 -10h-15q-10 0 -10 10v134h-151h-10q-10 0 -10 10v480q0 10 10 10h16q10 0 10 -10v-457h306v457q0 10 10 10h15z" />
    <glyph glyph-name="uni0490" unicode="&#x490;" horiz-adv-x="497" 
d="M460 820q10 0 10 -10v-127v-7q0 -10 -10 -10h-330v-656q0 -10 -10 -10h-17q-10 0 -10 10v680q0 10 10 10h27h303v110q0 10 10 10h17z" />
    <glyph glyph-name="uni0491" unicode="&#x491;" horiz-adv-x="378" 
d="M360 604q10 0 10 -10v-117v-2q-1 -8 -10 -8h-241v-457q0 -10 -10 -10h-16q-10 0 -10 10v480q0 10 10 10h26h216v94q0 10 10 10h15z" />
    <glyph glyph-name="Wgrave" unicode="&#x1e80;" horiz-adv-x="860" 
d="M424 776l-76 106q-3 5 -1.5 8t7.5 3h19q8 0 11 -6l70 -106q3 -4 1 -7.5t-8 -3.5h-12q-7 0 -11 6zM825 700q12 0 8 -11l-219 -681q-3 -8 -11 -8h-31q-9 0 -11 8l-131 406l-131 -406q-2 -8 -11 -8h-31q-8 0 -11 8l-219 681q-4 11 8 11h16q8 0 11 -8l211 -654l139 432
l-70 219q-4 11 8 11h15q9 0 12 -8l210 -654l211 654q3 8 11 8h16z" />
    <glyph glyph-name="wgrave" unicode="&#x1e81;" horiz-adv-x="673" 
d="M333 576l-75 106q-4 5 -2.5 8t7.5 3h20q7 0 11 -6l69 -106q3 -4 1 -7.5t-7 -3.5h-12q-8 0 -12 6zM645 500q12 0 8 -11l-174 -481q-3 -8 -12 -8h-14h-7q-9 0 -12 8l-97 270l-98 -270q-3 -8 -12 -8h-14h-7q-9 0 -12 8l-173 480q-4 12 8 12h16q9 0 12 -8l160 -449l102 284
l-58 162q-4 11 8 11h16q9 0 12 -8l160 -449l160 449q3 8 11 8h17z" />
    <glyph glyph-name="Wacute" unicode="&#x1e82;" horiz-adv-x="860" 
d="M411 770q-6 0 -8 3.5t1 7.5l70 106q3 6 11 6h19q6 0 7.5 -3t-1.5 -8l-75 -106q-4 -6 -12 -6h-12zM825 700q12 0 8 -11l-219 -681q-3 -8 -11 -8h-31q-9 0 -11 8l-131 406l-131 -406q-2 -8 -11 -8h-31q-8 0 -11 8l-219 681q-4 11 8 11h16q8 0 11 -8l211 -654l139 432
l-70 219q-4 11 8 11h15q9 0 12 -8l210 -654l211 654q3 8 11 8h16z" />
    <glyph glyph-name="wacute" unicode="&#x1e83;" horiz-adv-x="673" 
d="M320 570q-6 0 -7.5 3.5t1.5 7.5l69 106q4 6 11 6h19q6 0 8 -3t-2 -8l-75 -106q-4 -6 -11 -6h-13zM645 500q12 0 8 -11l-174 -481q-3 -8 -12 -8h-14h-7q-9 0 -12 8l-97 270l-98 -270q-3 -8 -12 -8h-14h-7q-9 0 -12 8l-173 480q-4 12 8 12h16q9 0 12 -8l160 -449l102 284
l-58 162q-4 11 8 11h16q9 0 12 -8l160 -449l160 449q3 8 11 8h17z" />
    <glyph glyph-name="Wdieresis" unicode="&#x1e84;" horiz-adv-x="860" 
d="M326 780q-9 0 -9 9v49q0 9 9 9h23q8 0 8 -9v-49q0 -9 -8 -9h-23zM513 780q-9 0 -9 9v49q0 9 9 9h22q9 0 9 -9v-49q0 -9 -9 -9h-22zM825 700q12 0 8 -11l-219 -681q-3 -8 -11 -8h-31q-9 0 -11 8l-131 406l-131 -406q-2 -8 -11 -8h-31q-8 0 -11 8l-219 681q-4 11 8 11h16
q8 0 11 -8l211 -654l139 432l-70 219q-4 11 8 11h15q9 0 12 -8l210 -654l211 654q3 8 11 8h16z" />
    <glyph glyph-name="wdieresis" unicode="&#x1e85;" horiz-adv-x="673" 
d="M235 580q-8 0 -8 9v49q0 9 8 9h23q9 0 9 -9v-49q0 -9 -9 -9h-23zM422 580q-9 0 -9 9v49q0 9 9 9h23q8 0 8 -9v-49q0 -9 -8 -9h-23zM645 500q12 0 8 -11l-174 -481q-3 -8 -12 -8h-14h-7q-9 0 -12 8l-97 270l-98 -270q-3 -8 -12 -8h-14h-7q-9 0 -12 8l-173 480q-4 12 8 12
h16q9 0 12 -8l160 -449l102 284l-58 161q-4 12 8 12h16q9 0 12 -8l160 -449l160 449q3 8 11 8h17z" />
    <glyph glyph-name="Ygrave" unicode="&#x1ef2;" horiz-adv-x="565" 
d="M275 776l-76 106q-4 5 -2 8t8 3h19q7 0 11 -6l69 -106q3 -4 1.5 -7.5t-7.5 -3.5h-12q-7 0 -11 6zM534 700q6 0 8 -3.5t-2 -8.5l-239 -360v-318q0 -10 -10 -10h-17q-10 0 -10 10v319l-239 359q-4 5 -2 8.5t8 3.5h19q7 0 12 -6l221 -332l220 332q5 6 12 6h19z" />
    <glyph glyph-name="ygrave" unicode="&#x1ef3;" horiz-adv-x="470" 
d="M252 570q5 0 7 3.5t-1 7.5l-69 106q-4 6 -11 6h-20q-6 0 -7.5 -3t1.5 -8l76 -106q4 -6 12 -6h12zM413 492q3 8 11 8h17q12 0 8 -12l-257 -680q-3 -8 -11 -8h-17q-12 0 -8 11l72 190l-206 487q-5 12 7 12h17q8 0 11 -8l188 -443z" />
    <glyph glyph-name="endash" unicode="&#x2013;" horiz-adv-x="687" 
d="M103 292q-10 0 -10 10v14q0 10 10 10h480q10 0 10 -10v-14q0 -10 -10 -10h-480z" />
    <glyph glyph-name="emdash" unicode="&#x2014;" horiz-adv-x="787" 
d="M103 292q-10 0 -10 10v14q0 10 10 10h580q10 0 10 -10v-14q0 -10 -10 -10h-580z" />
    <glyph glyph-name="quoteleft" unicode="&#x2018;" horiz-adv-x="210" 
d="M124 702q9 3 9 -7v-8q0 -6 -5 -10q-22 -14 -23 -67h5q10 0 10 -10v-77q0 -10 -10 -10h-23q-10 0 -10 10v87q0 74 47 92z" />
    <glyph glyph-name="quoteright" unicode="&#x2019;" horiz-adv-x="210" 
d="M123 700q10 0 10 -10v-87q0 -74 -47 -92q-9 -3 -9 7v8q0 6 5 10q22 14 23 67h-5q-10 0 -10 10v77q0 10 10 10h23z" />
    <glyph glyph-name="quotesinglbase" unicode="&#x201a;" horiz-adv-x="210" 
d="M123 70q10 0 10 -10v-87q0 -74 -47 -92q-9 -3 -9 7v8q0 6 5 10q22 14 23 67h-5q-10 0 -10 10v77q0 10 10 10h23z" />
    <glyph glyph-name="quotedblleft" unicode="&#x201c;" horiz-adv-x="323" 
d="M124 702q9 3 9 -7v-8q0 -6 -5 -10q-22 -14 -23 -67h5q10 0 10 -10v-77q0 -10 -10 -10h-23q-10 0 -10 10v87q0 74 47 92zM238 702q9 3 9 -7v-8q0 -6 -6 -10q-22 -14 -23 -67h5q10 0 10 -10v-77q0 -10 -10 -10h-23q-10 0 -10 10v87q0 74 48 92z" />
    <glyph glyph-name="quotedblright" unicode="&#x201d;" horiz-adv-x="323" 
d="M123 700q10 0 10 -10v-87q0 -74 -47 -92q-9 -3 -9 7v8q0 6 5 10q22 14 23 67h-5q-10 0 -10 10v77q0 10 10 10h23zM237 700q10 0 10 -10v-87q0 -74 -48 -92q-9 -3 -9 7v8q0 6 5 10q22 14 23 67h-5q-10 0 -10 10v77q0 10 10 10h24z" />
    <glyph glyph-name="quotedblbase" unicode="&#x201e;" horiz-adv-x="323" 
d="M123 70q10 0 10 -10v-87q0 -74 -47 -92q-9 -3 -9 7v8q0 6 5 10q22 14 23 67h-5q-10 0 -10 10v77q0 10 10 10h23zM237 70q10 0 10 -10v-87q0 -74 -48 -92q-9 -3 -9 7v8q0 6 5 10q22 14 23 67h-5q-10 0 -10 10v77q0 10 10 10h24z" />
    <glyph glyph-name="dagger" unicode="&#x2020;" horiz-adv-x="467" 
d="M390 520q10 0 10 -10v-14q0 -10 -10 -10h-139v-476q0 -10 -10 -10h-15q-10 0 -10 10v476h-139q-10 0 -10 10v14q0 10 10 10h139v170q0 10 10 10h15q10 0 10 -10v-170h139z" />
    <glyph glyph-name="daggerdbl" unicode="&#x2021;" horiz-adv-x="467" 
d="M390 486h-139v-272h139q10 0 10 -10v-14q0 -10 -10 -10h-139v-170q0 -10 -10 -10h-15q-10 0 -10 10v170h-139q-10 0 -10 10v14q0 10 10 10h139v272h-139q-10 0 -10 10v14q0 10 10 10h139v170q0 10 10 10h15q10 0 10 -10v-170h139q10 0 10 -10v-14q0 -10 -10 -10z" />
    <glyph glyph-name="bullet" unicode="&#x2022;" horiz-adv-x="260" 
d="M131 277q-31 0 -52.5 21.5t-21.5 52.5q0 15 5.5 28.5t15.5 23t24 15t29 5.5q30 0 51 -21t21 -51q0 -31 -21 -52.5t-51 -21.5z" />
    <glyph glyph-name="ellipsis" unicode="&#x2026;" horiz-adv-x="577" 
d="M87 0q-10 0 -10 10v50q0 10 10 10h23q10 0 10 -10v-50q0 -10 -10 -10h-23zM277 0q-10 0 -10 10v50q0 10 10 10h23q10 0 10 -10v-50q0 -10 -10 -10h-23zM467 0q-10 0 -10 10v50q0 10 10 10h23q10 0 10 -10v-50q0 -10 -10 -10h-23z" />
    <glyph glyph-name="perthousand" unicode="&#x2030;" horiz-adv-x="1116" 
d="M220 413q-66 0 -109.5 43t-43.5 106t43.5 106t109 43t109.5 -43t44 -106t-43.5 -106t-109.5 -43zM130 0q-6 0 -8 3.5t2 8.5l478 682q5 6 12 6h18q6 0 8 -3.5t-2 -8.5l-479 -682q-4 -6 -12 -6h-17zM220 445q51 0 84.5 33.5t33.5 83.5t-33.5 83.5t-84.5 33.5t-85 -33.5
t-34 -83.5q0 -33 15.5 -59.5t42.5 -42t61 -15.5zM542.5 -11q-65.5 0 -109 43t-43.5 106t43.5 106t109 43t109.5 -43t44 -106t-44 -106t-109.5 -43zM909.5 -11q-65.5 0 -109.5 43t-44 106t44 106t109.5 43t109 -43t43.5 -106t-43.5 -106t-109 -43zM543 21q51 0 84.5 33.5
t33.5 83.5t-33.5 83.5t-84.5 33.5t-85 -33.5t-34 -83.5t34 -83.5t85 -33.5zM909 21q51 0 85 33.5t34 83.5t-34 83.5t-85 33.5t-84.5 -33.5t-33.5 -83.5t33.5 -83.5t84.5 -33.5z" />
    <glyph glyph-name="guilsinglleft" unicode="&#x2039;" horiz-adv-x="325" 
d="M221 476q14 0 7 -12l-96 -155l96 -155q7 -12 -7 -12h-20q-8 0 -12 7l-95 153q-4 7 0 14l95 153q4 7 12 7h20z" />
    <glyph glyph-name="guilsinglright" unicode="&#x203a;" horiz-adv-x="325" 
d="M104 476h20q8 0 12 -7l95 -153q5 -7 0 -14l-95 -153q-4 -7 -12 -7h-20q-14 0 -6 12l95 155l-95 155q-8 12 6 12z" />
    <glyph glyph-name="fraction" unicode="&#x2044;" horiz-adv-x="233" 
d="M-93 0q-6 0 -8 3.5t1 8.5l403 681q3 7 12 7h11q6 0 8 -3.5t-1 -8.5l-402 -681q-4 -7 -12 -7h-12z" />
    <glyph glyph-name="Euro" unicode="&#x20ac;" horiz-adv-x="621" 
d="M573 211q12 0 10 -11q-19 -98 -79.5 -154.5t-151.5 -56.5q-106 0 -172 75.5t-82 205.5h-78q-10 0 -10 10v11q0 10 10 10h75q-2 24 -2 49q0 26 2 51h-75q-10 0 -10 10v12q0 10 10 10h78q17 129 83 203.5t171 74.5q90 0 150.5 -55.5t79.5 -152.5q3 -12 -9 -12h-17
q-9 0 -11 10q-17 83 -68 129t-125 46q-88 0 -145 -64t-72 -179h272q10 0 10 -10v-12q0 -10 -10 -10h-275q-2 -25 -2 -51q0 -25 2 -49h275q10 0 10 -10v-11q0 -10 -10 -10h-272q15 -117 71.5 -181.5t145.5 -64.5q75 0 126 46.5t68 131.5q2 9 11 9h16z" />
    <glyph glyph-name="uni20BD" unicode="&#x20bd;" horiz-adv-x="563" 
d="M327 293h-194v-112h264q10 0 10 -10v-12q0 -10 -10 -10h-264v-139q0 -10 -10 -10h-16q-10 0 -10 10v139h-80q-10 0 -10 10v12q0 10 10 10h80v112h-80q-10 0 -10 10v14q0 10 10 10h80v363q0 10 10 10h26h194q84 0 143.5 -59.5t59.5 -143.5t-59.5 -144t-143.5 -60zM133 666
v-339h194q68 0 117 50t49 120t-49 119.5t-117 49.5h-194z" />
    <glyph glyph-name="uni2116" unicode="&#x2116;" horiz-adv-x="966" 
d="M766 424q-41 0 -74.5 19.5t-52.5 52t-19 71.5q0 60 42 102t104.5 42t104.5 -42t42 -102q0 -39 -18.5 -71.5t-52.5 -52t-76 -19.5zM500 690q0 10 10 10h17q10 0 10 -10v-680q0 -10 -10 -10h-16q-8 0 -12 7l-369 621v-618q0 -10 -10 -10h-17q-10 0 -10 10v680q0 10 10 10
h16q8 0 12 -7l369 -621v618zM766 456q48 0 80 32t32 79t-32 79.5t-79.5 32.5t-79.5 -32.5t-32 -79.5q0 -31 14.5 -56.5t40 -40t56.5 -14.5zM641 302q-10 0 -10 10v13q0 10 10 10h251q10 0 10 -10v-13q0 -10 -10 -10h-251z" />
    <glyph glyph-name="trademark" unicode="&#x2122;" horiz-adv-x="493" 
d="M200 700q6 0 6 -7v-11q0 -7 -6 -7h-54v-168q0 -7 -7 -7h-13q-7 0 -7 7v168h-52q-7 0 -7 7v11q0 7 7 7h79h54zM426 700q7 0 7 -7v-186q0 -7 -7 -7h-13q-7 0 -7 7v155l-57 -114q-2 -5 -8 -5h-14q-5 0 -8 5l-56 114v-155q0 -7 -7 -7h-13q-7 0 -7 7v186q0 7 7 7h13h11
q5 0 8 -5l59 -121l61 121q2 5 8 5h13h10z" />
    <glyph glyph-name="estimated" unicode="&#x212e;" horiz-adv-x="847" 
d="M423 710q108 0 193.5 -48.5t131 -130.5t45.5 -181q0 -15 -15 -15h-560q-15 0 -15 -15v-192q0 -11 7 -19q85 -89 233 -89q145 0 231 97q8 9 18 9h37q10 0 13 -6t-4 -13q-109 -117 -295 -117q-88 0 -162 28.5t-123.5 77t-77 114t-27.5 140.5q0 99 46 181t131 130.5
t193 48.5zM643 572q0 11 -7 19q-84 89 -212.5 89t-213.5 -89q-7 -8 -7 -19v-192q0 -15 15 -15h410q15 0 15 15v192z" />
    <glyph glyph-name="oneeighth" unicode="&#x215b;" horiz-adv-x="827" 
d="M145 309v355l-108 -58q-10 -6 -10 7v16q0 7 6 11l107 57q5 3 11 3h19q9 0 9 -9v-382q0 -9 -9 -9h-16q-9 0 -9 9zM572 700q6 0 8 -3.5t-1 -8.5l-403 -681q-3 -7 -12 -7h-11q-6 0 -8 3.5t1 8.5l402 681q4 7 12 7h12zM716 210q35 -14 56 -42t21 -65q0 -35 -18 -61t-49.5 -40
t-71.5 -14q-63 0 -101.5 31.5t-38.5 83.5q0 37 20.5 65t55.5 42q-29 13 -46 36.5t-17 54.5q0 52 36.5 81.5t90.5 29.5q53 0 89.5 -29.5t36.5 -81.5q0 -31 -17.5 -54.5t-46.5 -36.5zM561 301q0 -34 26.5 -55t66.5 -21q38 0 65 21t27 55q0 19 -7 34t-19.5 25t-29.5 15.5
t-36 5.5q-41 0 -67 -21.5t-26 -58.5zM654 20q47 0 76 23t29 62q0 27 -14 47t-37.5 30.5t-53.5 10.5q-48 0 -77 -23.5t-29 -64.5q0 -39 29 -62t77 -23z" />
    <glyph glyph-name="threeeighths" unicode="&#x215c;" horiz-adv-x="928" 
d="M308 414q0 -55 -37 -90.5t-101 -35.5q-41 0 -72 15.5t-47.5 41.5t-18.5 59q-1 10 9 10h16q8 0 9 -9q3 -37 29.5 -61t74.5 -24q17 0 32 3.5t26 9.5t20 14.5t14.5 19t8.5 22.5t3 25q0 26 -11.5 46.5t-35.5 33.5t-57 13h-10q-9 0 -9 9v11q0 6 4 11l98 130h-197q-9 0 -9 9v14
q0 9 9 9h227q9 0 9 -9v-17q0 -5 -4 -11l-97 -128q37 -4 63.5 -21t40 -43t13.5 -57zM672 700q6 0 8 -3.5t-1 -8.5l-402 -681q-4 -7 -12 -7h-12q-6 0 -8 3.5t1 8.5l403 681q3 7 12 7h11zM817 210q35 -14 55.5 -42t20.5 -65q0 -52 -38.5 -83.5t-100.5 -31.5t-101 31.5t-39 83.5
q0 19 5.5 35.5t15.5 30t24 24t32 17.5q-29 13 -46.5 36.5t-17.5 54.5q0 52 36.5 81.5t90.5 29.5q53 0 89.5 -29.5t36.5 -81.5q0 -31 -17.5 -54.5t-45.5 -36.5zM661 301q0 -34 27 -55t66 -21t65.5 21t26.5 55q0 37 -26 58.5t-66 21.5q-41 0 -67 -21.5t-26 -58.5zM754 20
q47 0 76 23t29 62q0 27 -14 47t-37.5 30.5t-53.5 10.5q-47 0 -76.5 -23.5t-29.5 -64.5q0 -39 29 -62t77 -23z" />
    <glyph glyph-name="fiveeighths" unicode="&#x215d;" horiz-adv-x="919" 
d="M299 414q0 -56 -37 -91t-99 -35q-59 0 -96 32t-40 85q-1 9 9 9h16q8 0 9 -9q3 -39 30.5 -62t71.5 -23q47 0 74.5 25.5t27.5 68.5t-27.5 69t-74.5 26h-106q-9 0 -8 9l13 173q1 9 10 9h202q9 0 9 -9v-13q0 -9 -9 -9h-181l-10 -128h81q60 0 97.5 -35.5t37.5 -91.5zM664 700
q6 0 8 -3.5t-1 -8.5l-403 -681q-3 -7 -12 -7h-11q-6 0 -8 3.5t1 8.5l402 681q4 7 12 7h12zM808 210q35 -14 56 -42t21 -65q0 -52 -39 -83.5t-100 -31.5q-63 0 -101.5 31.5t-38.5 83.5q0 25 9.5 46t26.5 36.5t40 24.5q-29 13 -46 36.5t-17 54.5q0 52 36.5 81.5t90.5 29.5
q53 0 89.5 -29.5t36.5 -81.5q0 -31 -17.5 -54.5t-46.5 -36.5zM653 301q0 -34 26.5 -55t66.5 -21q38 0 65 21t27 55q0 37 -26 58.5t-66 21.5q-41 0 -67 -21.5t-26 -58.5zM746 20q47 0 76 23t29 62q0 40 -29.5 64t-75.5 24q-48 0 -77 -23.5t-29 -64.5q0 -39 29 -62t77 -23z
" />
    <glyph glyph-name="seveneighths" unicode="&#x215e;" horiz-adv-x="904" 
d="M289 678q0 -5 -2 -11l-156 -360q-3 -7 -10 -7h-18q-5 0 -7 3t0 8l155 357h-219q-9 0 -9 9v14q0 9 9 9h248q9 0 9 -9v-13zM649 700q6 0 8 -3.5t-1 -8.5l-403 -681q-3 -7 -12 -7h-11q-6 0 -8 3.5t1 8.5l402 681q4 7 12 7h12zM793 210q35 -14 56 -42t21 -65q0 -52 -39 -83.5
t-100 -31.5q-63 0 -101.5 31.5t-38.5 83.5q0 37 20.5 65t55.5 42q-29 13 -46 36.5t-17 54.5q0 26 10 47.5t27.5 35t40.5 21t49 7.5q53 0 89.5 -29.5t36.5 -81.5q0 -31 -17.5 -54.5t-46.5 -36.5zM638 301q0 -17 7 -31.5t20 -24t30 -15t36 -5.5q38 0 65 21t27 55q0 19 -7 34
t-19.5 25t-29.5 15.5t-36 5.5q-41 0 -67 -21.5t-26 -58.5zM731 20q47 0 76 23t29 62q0 27 -14 47t-37.5 30.5t-53.5 10.5q-48 0 -77 -23.5t-29 -64.5q0 -39 29 -62t77 -23z" />
    <glyph glyph-name="arrowleft" unicode="&#x2190;" horiz-adv-x="833" 
d="M757 367q10 0 10 -10v-14q0 -10 -10 -10h-626l271 -271q5 -4 3.5 -8t-8.5 -4h-23q-7 0 -12 5l-288 288q-7 7 0 14l288 288q5 5 12 5h23q7 0 8.5 -4t-3.5 -8l-271 -271h626z" />
    <glyph glyph-name="arrowup" unicode="&#x2191;" horiz-adv-x="733" 
d="M662 405q5 -5 5 -12v-24q0 -6 -4 -7.5t-9 2.5l-270 270v-624q0 -10 -10 -10h-15q-10 0 -10 10v624l-270 -270q-4 -4 -8 -2.5t-4 7.5v24q0 7 5 12l288 288q7 7 14 0z" />
    <glyph glyph-name="arrowright" unicode="&#x2192;" horiz-adv-x="833" 
d="M760 357q7 -7 0 -14l-288 -288q-5 -5 -12 -5h-24q-7 0 -8.5 4t3.5 8l271 271h-625q-10 0 -10 10v14q0 10 10 10h625l-271 271q-5 4 -3.5 8t8.5 4h24q7 0 12 -5z" />
    <glyph glyph-name="arrowdown" unicode="&#x2193;" horiz-adv-x="733" 
d="M654 336q5 4 9 2.5t4 -8.5v-23q0 -7 -5 -12l-288 -288q-7 -7 -14 0l-288 288q-5 5 -5 12v24q0 6 4 7.5t8 -2.5l270 -270v624q0 10 10 10h15q10 0 10 -10v-624z" />
    <glyph glyph-name="arrowboth" unicode="&#x2194;" horiz-adv-x="1027" 
d="M953 357q7 -7 0 -14l-231 -231q-5 -5 -12 -5h-24q-6 0 -7.5 4t2.5 8l214 214h-764l214 -214q5 -4 3.5 -8t-8.5 -4h-23q-7 0 -12 5l-231 231q-7 7 0 14l231 231q5 5 12 5h23q7 0 8.5 -4t-3.5 -8l-214 -214h764l-214 214q-4 4 -2.5 8t7.5 4h24q7 0 12 -5z" />
    <glyph glyph-name="arrowupdn" unicode="&#x2195;" horiz-adv-x="633" 
d="M548 518l-214 213v-762l214 213q4 5 8 3.5t4 -8.5v-24q0 -7 -5 -12l-231 -231q-7 -7 -14 0l-232 231q-5 5 -5 12v24q0 7 4 8.5t9 -3.5l213 -213v762l-213 -213q-5 -5 -9 -3.5t-4 8.5v24q0 7 5 12l232 231q7 7 14 0l231 -231q5 -5 5 -12v-24q0 -7 -4 -8.5t-8 3.5z" />
    <glyph glyph-name="uni2196" unicode="&#x2196;" horiz-adv-x="641" 
d="M567 112q7 -7 0 -14l-12 -11q-7 -7 -14 0l-441 441v-381q0 -7 -3.5 -8.5t-8.5 3.5l-16 16q-5 5 -5 12v407q0 10 10 10h407q7 0 12 -5l16 -16q5 -5 3.5 -9t-8.5 -4h-382z" />
    <glyph glyph-name="uni2197" unicode="&#x2197;" horiz-adv-x="641" 
d="M564 587q10 0 10 -10v-407q0 -7 -5 -12l-16 -16q-5 -5 -9 -3.5t-4 8.5v381l-441 -441q-7 -7 -14 0l-11 11q-7 7 0 14l441 441h-381q-7 0 -8.5 4t3.5 9l16 16q5 5 12 5h407z" />
    <glyph glyph-name="uni2198" unicode="&#x2198;" horiz-adv-x="641" 
d="M569 518q5 -5 5 -12v-407q0 -10 -10 -10h-407q-7 0 -12 5l-16 16q-5 5 -3.5 9t8.5 4h381l-441 441q-7 7 0 14l11 11q7 7 14 0l441 -441v381q0 7 4 8.5t9 -3.5z" />
    <glyph glyph-name="uni2199" unicode="&#x2199;" horiz-adv-x="641" 
d="M567 578q7 -7 0 -14l-442 -441h382q7 0 8.5 -4t-3.5 -9l-16 -16q-5 -5 -12 -5h-407q-10 0 -10 10v407q0 7 5 12l16 16q4 5 8 3.5t4 -8.5v-381l441 441q7 7 14 0z" />
    <glyph glyph-name="partialdiff" unicode="&#x2202;" horiz-adv-x="579" 
d="M235 711q118 0 197.5 -99.5t79.5 -261.5q0 -170 -70.5 -265.5t-181.5 -95.5q-62 0 -108.5 28.5t-70.5 76t-24 106.5q0 103 60.5 166.5t164.5 63.5q109 0 194 -58q-4 132 -70 218.5t-171 86.5q-65 0 -114 -28q-10 -5 -10 5v18q0 7 5 10q51 29 119 29zM260 23
q96 0 154.5 83t61.5 228q-84 63 -194 63q-87 0 -138.5 -53t-51.5 -144q0 -78 45.5 -127.5t122.5 -49.5z" />
    <glyph glyph-name="emptyset" unicode="&#x2205;" horiz-adv-x="831" 
d="M658 618q56 -50 87.5 -119.5t31.5 -148.5q0 -98 -48.5 -181.5t-131.5 -131.5t-182 -48q-122 0 -218 73l-65 -77q-4 -5 -10 -5h-20q-5 0 -6.5 3.5t1.5 7.5l76 91q-56 50 -88 119.5t-32 148.5q0 98 48.5 181t132 131.5t181.5 48.5q122 0 219 -73l64 77q5 5 11 5h19
q6 0 7.5 -3.5t-2.5 -7.5zM87 350q0 -71 28 -134.5t78 -109.5l421 507q-88 66 -199 66q-89 0 -165 -43.5t-119.5 -119.5t-43.5 -166zM415 21q67 0 128 26t105 69.5t70 105t26 128.5q0 71 -28.5 134.5t-78.5 109.5l-420 -507q88 -66 198 -66z" />
    <glyph glyph-name="product" unicode="&#x220f;" horiz-adv-x="640" 
d="M103 -200q-10 0 -10 10v880q0 10 10 10h434q10 0 10 -10v-880q0 -10 -10 -10h-16q-10 0 -10 10v857h-382v-857q0 -10 -10 -10h-16z" />
    <glyph glyph-name="summation" unicode="&#x2211;" horiz-adv-x="541" 
d="M73 -200q-10 0 -10 10v16q0 6 4 13l262 421l-248 401q-4 6 -4 12v17q0 10 10 10h393q10 0 10 -10v-13q0 -10 -10 -10h-363l249 -400q4 -7 0 -14l-263 -420h392q10 0 10 -10v-13q0 -10 -10 -10h-422z" />
    <glyph glyph-name="minus" unicode="&#x2212;" horiz-adv-x="540" 
d="M77 333q-10 0 -10 10v14q0 10 10 10h386q10 0 10 -10v-14q0 -10 -10 -10h-386z" />
    <glyph glyph-name="radical" unicode="&#x221a;" horiz-adv-x="634" 
d="M312 0q-8 0 -12 7l-153 260h-70q-10 0 -10 10v13q0 10 10 10h81q8 0 12 -7l150 -253l248 752q3 8 11 8h16q12 0 8 -11l-258 -781q-3 -8 -11 -8h-22z" />
    <glyph glyph-name="infinity" unicode="&#x221e;" horiz-adv-x="813" 
d="M597 503q65 0 108 -42.5t43 -110.5t-43 -110.5t-108 -42.5q-22 0 -42.5 5t-38 15t-32.5 21t-30 27t-24.5 28t-22.5 29q-20 -26 -36 -43.5t-40.5 -39t-53.5 -32t-61 -10.5q-65 0 -108 42.5t-43 110.5t43 110.5t108 42.5q32 0 61 -10.5t53.5 -32t40.5 -39t36 -43.5
q20 26 35.5 43.5t40 39t53.5 32t61 10.5zM216 229q28 0 52.5 10t46.5 30t36.5 37t34.5 44q-20 27 -34.5 44t-36.5 37t-46.5 30t-52.5 10q-51 0 -83.5 -33.5t-32.5 -87.5t32.5 -87.5t83.5 -33.5zM597 229q51 0 83.5 33.5t32.5 87.5t-32.5 87.5t-83.5 33.5q-28 0 -52.5 -10
t-46.5 -30t-36 -37t-34 -44q20 -27 34 -44t36 -37t46.5 -30t52.5 -10z" />
    <glyph glyph-name="integral" unicode="&#x222b;" horiz-adv-x="434" 
d="M8 -206q-8 2 -8 12v13q0 11 12 8q47 -16 80.5 8.5t43.5 82.5l114 667q13 75 59.5 106.5t115.5 13.5q9 -2 9 -11v-14q0 -11 -12 -8q-37 11 -65 4t-46 -31t-25 -63l-115 -667q-13 -73 -57.5 -106t-105.5 -15z" />
    <glyph glyph-name="approxequal" unicode="&#x2248;" horiz-adv-x="579" 
d="M89 377l-14 6q-8 4 -6 13q7 21 18 38.5t31 33t44 20.5t59.5 -5t76.5 -38q34 -24 63 -33t47.5 -6t33.5 15t22.5 25.5t12.5 30.5q4 10 13 6l14 -6q9 -4 6 -12q-7 -20 -17.5 -38t-30 -33.5t-44 -21t-60 4.5t-77.5 38q-34 24 -63 33t-47.5 5.5t-33 -15t-22.5 -25t-13 -30.5
q-4 -10 -13 -6zM89 217l-14 6q-8 4 -6 13q7 21 18 38.5t31 33t44 20.5t59.5 -5t76.5 -38q34 -24 63 -33t47.5 -6t33.5 15t22.5 25.5t12.5 30.5q4 10 13 6l14 -6q9 -4 6 -13q-7 -21 -18 -38.5t-30.5 -33t-43.5 -20t-60 5t-77 37.5q-34 24 -63 33t-47.5 5.5t-33 -15t-22.5 -25
t-13 -30.5q-4 -10 -13 -6z" />
    <glyph glyph-name="notequal" unicode="&#x2260;" horiz-adv-x="533" 
d="M457 433h-133l-77 -166h210q10 0 10 -10v-14q0 -10 -10 -10h-225l-71 -154q-3 -6 -10 -6h-13q-10 0 -6 10l70 150h-125q-10 0 -10 10v14q0 10 10 10h140l77 166h-217q-10 0 -10 10v14q0 10 10 10h232l71 154q2 6 9 6h13q10 0 7 -10l-70 -150h118q10 0 10 -10v-14
q0 -10 -10 -10z" />
    <glyph glyph-name="lessequal" unicode="&#x2264;" horiz-adv-x="533" 
d="M455 236l-380 153q-8 3 -8 11v18q0 8 8 11l380 153q12 5 12 -8v-17q0 -8 -8 -11l-350 -137l350 -137q8 -3 8 -11v-17q0 -13 -12 -8zM457 113h-380q-10 0 -10 10v14q0 10 10 10h380q10 0 10 -10v-14q0 -10 -10 -10z" />
    <glyph glyph-name="greaterequal" unicode="&#x2265;" horiz-adv-x="533" 
d="M78 236q-11 -5 -11 8v17q0 8 8 11l349 137l-349 137q-8 3 -8 11v17q0 13 11 8l381 -153q8 -3 8 -11v-18q0 -8 -8 -11zM77 113q-10 0 -10 10v14q0 10 10 10h380q10 0 10 -10v-14q0 -10 -10 -10h-380z" />
    <glyph glyph-name="lozenge" unicode="&#x25ca;" horiz-adv-x="536" 
d="M258 0q-8 0 -12 7l-179 336q-4 7 0 14l179 336q4 7 12 7h20q8 0 12 -7l179 -336q4 -7 0 -14l-179 -336q-4 -7 -12 -7h-20zM268 39l166 311l-166 311l-166 -311z" />
    <glyph glyph-name="i.loclTRK" horiz-adv-x="202" 
d="M88 580q-9 0 -9 9v59q0 9 9 9h26q9 0 9 -9v-59q0 -9 -9 -9h-26zM93 0q-10 0 -10 10v480q0 10 10 10h16q10 0 10 -10v-480q0 -10 -10 -10h-16z" />
    <glyph glyph-name="a.ss01" horiz-adv-x="653" 
d="M560 500q10 0 10 -10v-480q0 -10 -10 -10h-15q-10 0 -10 10v122q-31 -65 -91.5 -104t-136.5 -39q-109 0 -184.5 75.5t-75.5 185.5t75.5 185.5t184.5 75.5q76 0 136.5 -39t91.5 -104v122q0 10 10 10h15zM308.5 23q95.5 0 161 65.5t65.5 161.5t-65.5 161.5t-161 65.5
t-161 -65.5t-65.5 -161.5t65.5 -161.5t161 -65.5z" />
    <glyph glyph-name="aacute.ss01" horiz-adv-x="653" 
d="M287 570q-6 0 -8 3.5t1 7.5l70 106q3 6 11 6h19q6 0 7.5 -3t-1.5 -8l-75 -106q-4 -6 -12 -6h-12zM560 500q10 0 10 -10v-480q0 -10 -10 -10h-15q-10 0 -10 10v122q-31 -65 -91.5 -104t-136.5 -39q-109 0 -184.5 75.5t-75.5 185.5t75.5 185.5t184.5 75.5q76 0 136.5 -39
t91.5 -104v122q0 10 10 10h15zM308.5 23q95.5 0 161 65.5t65.5 161.5t-65.5 161.5t-161 65.5t-161 -65.5t-65.5 -161.5t65.5 -161.5t161 -65.5z" />
    <glyph glyph-name="abreve.ss01" horiz-adv-x="653" 
d="M307 569q-36 0 -64 12.5t-44 36t-19 54.5q0 10 9 10h15q9 0 10 -9q2 -35 27 -54.5t66 -19.5q26 0 46.5 8.5t32.5 25.5t14 40q0 9 9 9h15q10 0 9 -9q-3 -48 -37 -76t-89 -28zM560 500q10 0 10 -10v-480q0 -10 -10 -10h-15q-10 0 -10 10v122q-31 -65 -91.5 -104t-136.5 -39
q-109 0 -184.5 75.5t-75.5 185.5t75.5 185.5t184.5 75.5q50 0 95 -18t78.5 -50t54.5 -75v122q0 10 10 10h15zM308.5 23q95.5 0 161 65.5t65.5 161.5t-65.5 161.5t-161 65.5t-161 -65.5t-65.5 -161.5t65.5 -161.5t161 -65.5z" />
    <glyph glyph-name="acircumflex.ss01" horiz-adv-x="653" 
d="M190 570q-6 0 -7.5 3.5t2.5 7.5l95 107q4 5 12 5h17h10q7 0 11 -5l96 -107q4 -4 2.5 -7.5t-7.5 -3.5h-18q-7 0 -11 5l-87 97l-86 -97q-4 -5 -11 -5h-18zM560 500q10 0 10 -10v-480q0 -10 -10 -10h-15q-10 0 -10 10v122q-31 -65 -91.5 -104t-136.5 -39q-109 0 -184.5 75.5
t-75.5 185.5t75.5 185.5t184.5 75.5q76 0 136.5 -39t91.5 -104v122q0 10 10 10h15zM308.5 23q95.5 0 161 65.5t65.5 161.5t-65.5 161.5t-161 65.5t-161 -65.5t-65.5 -161.5t65.5 -161.5t161 -65.5z" />
    <glyph glyph-name="adieresis.ss01" horiz-adv-x="653" 
d="M202 580q-9 0 -9 9v49q0 9 9 9h23q8 0 8 -9v-49q0 -9 -8 -9h-23zM389 580q-9 0 -9 9v49q0 9 9 9h22q9 0 9 -9v-49q0 -9 -9 -9h-22zM560 500q10 0 10 -10v-480q0 -10 -10 -10h-15q-10 0 -10 10v122q-31 -65 -91.5 -104t-136.5 -39q-109 0 -184.5 75.5t-75.5 185.5
t75.5 185.5t184.5 75.5q76 0 136.5 -39t91.5 -104v122q0 10 10 10h15zM308.5 23q95.5 0 161 65.5t65.5 161.5t-65.5 161.5t-161 65.5t-161 -65.5t-65.5 -161.5t65.5 -161.5t161 -65.5z" />
    <glyph glyph-name="agrave.ss01" horiz-adv-x="653" 
d="M300 576l-76 106q-3 5 -1.5 8t7.5 3h19q8 0 11 -6l70 -106q3 -4 1 -7.5t-8 -3.5h-12q-7 0 -11 6zM560 500q10 0 10 -10v-480q0 -10 -10 -10h-15q-10 0 -10 10v122q-31 -65 -91.5 -104t-136.5 -39q-109 0 -184.5 75.5t-75.5 185.5t75.5 185.5t184.5 75.5q50 0 95 -18
t78.5 -50t54.5 -75v122q0 10 10 10h15zM308.5 23q95.5 0 161 65.5t65.5 161.5t-65.5 161.5t-161 65.5t-161 -65.5t-65.5 -161.5t65.5 -161.5t161 -65.5z" />
    <glyph glyph-name="amacron.ss01" horiz-adv-x="653" 
d="M192 594q-9 0 -9 9v12q0 9 9 9h229q9 0 9 -9v-12q0 -9 -9 -9h-229zM560 500q10 0 10 -10v-480q0 -10 -10 -10h-15q-10 0 -10 10v122q-31 -65 -91.5 -104t-136.5 -39q-109 0 -184.5 75.5t-75.5 185.5t75.5 185.5t184.5 75.5q76 0 136.5 -39t91.5 -104v122q0 10 10 10h15z
M308.5 23q95.5 0 161 65.5t65.5 161.5t-65.5 161.5t-161 65.5t-161 -65.5t-65.5 -161.5t65.5 -161.5t161 -65.5z" />
    <glyph glyph-name="aogonek.ss01" horiz-adv-x="653" 
d="M559 -10q-78 -73 -78 -127q0 -31 25 -40.5t54 1.5q10 2 10 -7v-12q0 -7 -6 -9q-18 -7 -44 -7q-23 0 -39.5 9t-25 24.5t-8.5 36.5q0 61 88 150v1v122q-31 -65 -91.5 -104t-136.5 -39q-109 0 -184.5 75.5t-75.5 185.5t75.5 185.5t184.5 75.5q76 0 136.5 -39t91.5 -104v122
q0 10 10 10h15q10 0 10 -10v-480q0 -10 -11 -20zM308.5 23q95.5 0 161 65.5t65.5 161.5t-65.5 161.5t-161.5 65.5q-62 0 -114 -30t-82 -82t-30 -115q0 -96 65.5 -161.5t161 -65.5z" />
    <glyph glyph-name="aring.ss01" horiz-adv-x="653" 
d="M307 557q-29 0 -52 12t-35 33.5t-12 47.5q0 40 27.5 66.5t71.5 26.5q22 0 40.5 -7t31 -19.5t19.5 -29.5t7 -37q0 -26 -12 -47.5t-34.5 -33.5t-51.5 -12zM307 716q-31 0 -50 -18.5t-19 -47.5t19 -47.5t50 -18.5t49.5 18.5t18.5 47.5t-18.5 47.5t-49.5 18.5zM560 500
q10 0 10 -10v-480q0 -10 -10 -10h-15q-10 0 -10 10v122q-31 -65 -91.5 -104t-136.5 -39q-109 0 -184.5 75.5t-75.5 185.5t75.5 185.5t184.5 75.5q76 0 136.5 -39t91.5 -104v122q0 10 10 10h15zM308.5 23q95.5 0 161 65.5t65.5 161.5t-65.5 161.5t-161 65.5t-161 -65.5
t-65.5 -161.5t65.5 -161.5t161 -65.5z" />
    <glyph glyph-name="atilde.ss01" horiz-adv-x="653" 
d="M184 587q-10 0 -9 9q3 70 43.5 85.5t91.5 -33.5q42 -41 69 -34.5t29 56.5q0 9 9 9h12q10 0 9 -9q-3 -69 -44 -84.5t-91 32.5q-42 41 -68.5 34.5t-28.5 -56.5q-1 -9 -10 -9h-12zM560 500q10 0 10 -10v-480q0 -10 -10 -10h-15q-10 0 -10 10v122q-31 -65 -91.5 -104
t-136.5 -39q-109 0 -184.5 75.5t-75.5 185.5t75.5 185.5t184.5 75.5q50 0 95 -18t78.5 -50t54.5 -75v122q0 10 10 10h15zM308.5 23q95.5 0 161 65.5t65.5 161.5t-65.5 161.5t-161 65.5t-161 -65.5t-65.5 -161.5t65.5 -161.5t161 -65.5z" />
    <glyph glyph-name="ae.ss01" horiz-adv-x="1064" 
d="M788 511q73 0 128.5 -37.5t83 -96.5t27.5 -129v-8q-1 -9 -10 -9h-25h-421q6 -93 67 -150.5t152 -57.5q62 0 109.5 27.5t68.5 74.5q3 7 11 7h19q12 0 9 -10q-24 -60 -81 -96.5t-134 -36.5q-79 0 -137 38.5t-86 104.5v-123q0 -9 -10 -9h-15q-9 0 -9 9v123
q-31 -65 -91.5 -104t-136.5 -39q-109 0 -184.5 75.5t-75.5 185.5t75.5 185.5t184.5 75.5q50 0 95 -18t78.5 -50t54.5 -75v123q0 9 9 9h15q10 0 10 -9v-124q11 26 26.5 48t36 39.5t44.5 30t52.5 19.5t59.5 7zM308.5 23q95.5 0 161 65.5t65.5 161.5t-65.5 161.5t-161 65.5
t-161 -65.5t-65.5 -161.5t65.5 -161.5t161 -65.5zM787 477q-92 0 -152 -59.5t-65 -153.5h422q-6 98 -63.5 155.5t-141.5 57.5z" />
    <glyph glyph-name="y.ss01" 
d="M436 500q10 0 10 -10v-522q0 -84 -51 -131.5t-129 -47.5q-77 0 -126 41.5t-54 107.5q0 10 10 10h16q8 0 10 -9q3 -37 22.5 -63.5t51 -39.5t70.5 -13q63 0 104 38t41 107v133q-25 -57 -72 -84.5t-103 -27.5q-73 0 -120 47t-47 130v324q0 10 10 10h16q10 0 10 -10v-324
q0 -67 37 -105t98 -38q71 0 121 50.5t50 144.5v272q0 10 10 10h15z" />
    <glyph glyph-name="yacute.ss01" 
d="M238 570q-6 0 -8 3.5t1 7.5l70 106q3 6 11 6h19q6 0 7.5 -3t-1.5 -8l-75 -106q-4 -6 -12 -6h-12zM436 500q10 0 10 -10v-522q0 -84 -51 -131.5t-129 -47.5q-77 0 -126 41.5t-54 107.5q0 10 10 10h16q8 0 10 -9q3 -37 22.5 -63.5t51 -39.5t70.5 -13q63 0 104 38t41 107
v133q-25 -57 -72 -84.5t-103 -27.5q-47 0 -84.5 20t-60 61t-22.5 96v324q0 10 10 10h16q10 0 10 -10v-324q0 -67 37 -105t98 -38q71 0 121 50.5t50 144.5v272q0 10 10 10h15z" />
    <glyph glyph-name="ycircumflex.ss01" 
d="M141 570q-6 0 -7.5 3.5t2.5 7.5l95 107q4 5 12 5h17h10q7 0 11 -5l96 -107q4 -4 2.5 -7.5t-7.5 -3.5h-18q-7 0 -11 5l-87 97l-86 -97q-4 -5 -11 -5h-18zM436 500q10 0 10 -10v-522q0 -84 -51 -131.5t-129 -47.5q-77 0 -126 41.5t-54 107.5q0 10 10 10h16q8 0 10 -9
q3 -37 22.5 -63.5t51 -39.5t70.5 -13q41 0 73.5 15.5t52 49t19.5 80.5v133q-25 -57 -72 -84.5t-103 -27.5q-73 0 -120 47t-47 130v324q0 10 10 10h16q10 0 10 -10v-324q0 -67 37 -105t98 -38q71 0 121 50.5t50 144.5v272q0 10 10 10h15z" />
    <glyph glyph-name="ydieresis.ss01" 
d="M153 580q-9 0 -9 9v49q0 9 9 9h23q8 0 8 -9v-49q0 -9 -8 -9h-23zM340 580q-9 0 -9 9v49q0 9 9 9h22q9 0 9 -9v-49q0 -9 -9 -9h-22zM436 500q10 0 10 -10v-522q0 -84 -51 -131.5t-129 -47.5q-77 0 -126 41.5t-54 107.5q0 10 10 10h16q8 0 10 -9q3 -37 22.5 -63.5t51 -39.5
t70.5 -13q63 0 104 38t41 107v133q-25 -57 -72 -84.5t-103 -27.5q-73 0 -120 47t-47 130v324q0 10 10 10h16q10 0 10 -10v-324q0 -67 37 -105t98 -38q71 0 121 50.5t50 144.5v272q0 10 10 10h15z" />
    <glyph glyph-name="ygrave.ss01" 
d="M251 576l-76 106q-3 5 -1.5 8t7.5 3h19q8 0 11 -6l70 -106q3 -4 1 -7.5t-8 -3.5h-12q-7 0 -11 6zM436 500q10 0 10 -10v-522q0 -84 -51 -131.5t-129 -47.5q-77 0 -126 41.5t-54 107.5q0 10 10 10h16q8 0 10 -9q3 -37 22.5 -63.5t51 -39.5t70.5 -13q63 0 104 38t41 107
v133q-25 -57 -72 -84.5t-103 -27.5q-47 0 -84.5 20t-60 61t-22.5 96v324q0 10 10 10h16q10 0 10 -10v-324q0 -67 37 -105t98 -38q71 0 121 50.5t50 144.5v272q0 10 10 10h15z" />
    <glyph glyph-name="f_f_j" horiz-adv-x="766" 
d="M672 500q10 0 10 -10v-563q0 -69 -36.5 -106t-105.5 -32q-10 0 -10 10v13q0 10 10 10q107 -7 107 105v540h-234v-457q0 -10 -10 -10h-15q-10 0 -10 10v457h-89h-145v-457q0 -10 -10 -10h-16q-10 0 -10 10v457h-78q-10 0 -10 10v13q0 10 10 10h78v33q0 88 45.5 135.5
t134.5 42.5q10 0 10 -10v-14q0 -9 -11 -9q-143 7 -143 -145v-33h154h80v43q0 178 189 178q44 0 90 -9q9 -2 9 -11v-12q0 -11 -11 -9q-42 7 -88 7q-80 0 -117 -34.5t-37 -109.5v-43h251h8z" />
    <glyph glyph-name="f_j" horiz-adv-x="496" 
d="M403 500q10 0 10 -10v-563q0 -69 -36.5 -106t-106.5 -32q-10 0 -10 10v13q0 10 11 10q107 -7 107 105v540h-234v-457q0 -10 -10 -10h-16q-10 0 -10 10v457h-78q-10 0 -10 10v13q0 10 10 10h78v33q0 178 190 178q44 0 89 -9q9 -2 9 -11v-12q0 -11 -11 -9q-41 7 -87 7
q-81 0 -117.5 -34.5t-36.5 -109.5v-33h250h9z" />
    <glyph glyph-name="uni0414.loclBGR" horiz-adv-x="707" 
d="M668 34q10 0 10 -10v-24v-134q0 -10 -10 -10h-16q-10 0 -10 10v134h-53h-510h-14v-134q0 -10 -10 -10h-17q-10 0 -10 10v152v6q0 10 10 10h54l238 658q3 8 12 8h23q8 0 11 -8l239 -658h53zM130 34h446l-223 623z" />
    <glyph glyph-name="uni041B.loclBGR" horiz-adv-x="601" 
d="M289 700h23q9 0 12 -8l257 -680q4 -12 -9 -12h-18q-8 0 -11 8l-242 648l-243 -648q-3 -8 -11 -8h-18q-12 0 -8 12l257 680q3 8 11 8z" />
    <glyph glyph-name="uni0424.loclBGR" horiz-adv-x="857" 
d="M804 350q0 -105 -46 -186t-126.5 -125.5t-184.5 -48.5v-80q0 -10 -10 -10h-17q-10 0 -10 10v80q-158 6 -257.5 104t-99.5 256t99.5 256t257.5 104v80q0 10 10 10h17q10 0 10 -10v-80q158 -6 257.5 -104t99.5 -256zM90 350q0 -142 86.5 -231.5t233.5 -95.5v654
q-147 -6 -233.5 -95.5t-86.5 -231.5zM447 23q98 4 170.5 46.5t111 115t38.5 165.5q0 142 -86.5 231.5t-233.5 95.5v-654z" />
    <glyph glyph-name="uni0414.ss01" horiz-adv-x="653" 
d="M602 34q10 0 10 -10v-14q0 -10 -10 -10h-570q-10 0 -10 10v14q0 10 10 10h44q74 81 74 253v403q0 10 10 10h370q10 0 10 -10v-656h62zM187 286q0 -165 -66 -252h382v632h-316v-380z" />
    <glyph glyph-name="uni0426.ss01" horiz-adv-x="653" 
d="M543 34h62q10 0 10 -10v-14q0 -10 -10 -10h-502q-10 0 -10 10v680q0 10 10 10h17q10 0 10 -10v-656h377v656q0 10 10 10h16q10 0 10 -10v-656z" />
    <glyph glyph-name="uni0429.ss01" horiz-adv-x="940" 
d="M830 34h62q10 0 10 -10v-14q0 -10 -10 -10h-789q-10 0 -10 10v680q0 10 10 10h17q10 0 10 -10v-656h313v656q0 10 10 10h17q10 0 10 -10v-656h313v656q0 10 10 10h17q10 0 10 -10v-656z" />
    <glyph glyph-name="uni0414.loclBGR.ss01" horiz-adv-x="707" 
d="M668 34q10 0 10 -10v-14q0 -10 -10 -10h-79h-510h-41q-10 0 -10 10v14q0 10 10 10h54l238 658q3 8 12 8h23q8 0 11 -8l239 -658h53zM130 34h446l-223 623z" />
    <glyph glyph-name="uni0432.loclBGR" horiz-adv-x="577" 
d="M377 403q49 -9 83.5 -37t52 -70t17.5 -96q0 -99 -59 -155t-164.5 -56t-164.5 64t-59 177v242q0 112 55.5 175.5t154.5 63.5q79 0 124.5 -45.5t45.5 -111.5q0 -41 -22 -81t-64 -70zM293 677q-83 0 -128.5 -54t-45.5 -151v-95l127 24q45 9 84 8q48 28 73 66.5t25 78.5
q0 51 -36 87t-99 36zM306.5 23q88.5 0 138.5 46.5t50 130.5q0 98 -64.5 144.5t-184.5 23.5l-127 -25v-113q0 -98 49.5 -152.5t138 -54.5z" />
    <glyph glyph-name="uni0433.loclBGR" horiz-adv-x="457" 
d="M374 122q2 10 10 10h16q10 0 10 -11q-4 -59 -53.5 -95.5t-128.5 -36.5q-84 0 -132.5 35.5t-48.5 96.5q0 34 13.5 59.5t35.5 39.5t50.5 25.5t58 17.5t58 15.5t51 20.5t36 31t13.5 48q0 48 -36.5 73.5t-95.5 25.5q-57 0 -95.5 -27t-42.5 -74q-1 -10 -10 -10h-15
q-11 0 -10 11q2 38 24.5 68.5t61 48t87.5 17.5q75 0 121 -36.5t46 -96.5q0 -34 -13.5 -59t-36 -38.5t-50.5 -24.5t-58 -17.5t-58 -16t-50.5 -20.5t-36 -32t-13.5 -49q0 -34 19 -56t51 -32t76 -10q40 0 72 11t51.5 34t22.5 54z" />
    <glyph glyph-name="uni0434.loclBGR" horiz-adv-x="660" 
d="M567 500q10 0 10 -10v-463q0 -110 -68 -174t-180 -64q-63 0 -116.5 24t-85 62t-35.5 81q0 10 10 10h16q8 0 10 -9q6 -52 62 -93t139 -41q101 0 156.5 55t55.5 149v107q-30 -66 -90.5 -105.5t-137.5 -39.5q-108 0 -184 75.5t-76 185.5t76 185.5t184 75.5q77 0 137.5 -39.5
t90.5 -105.5v124q0 10 10 10h16zM315 23q95 0 160.5 65.5t65.5 161.5t-65.5 161.5t-160.5 65.5t-160.5 -65.5t-65.5 -161.5t65.5 -161.5t160.5 -65.5z" />
    <glyph glyph-name="uni0436.loclBGR" horiz-adv-x="653" 
d="M615 12q4 -4 2.5 -8t-7.5 -4h-21q-7 0 -12 5l-233 244v-239q0 -10 -10 -10h-15q-10 0 -10 10v239l-233 -244q-5 -5 -13 -5h-20q-6 0 -8 4t3 8l237 248l-227 228q-4 4 -2.5 8t8.5 4h19q8 0 13 -5l223 -224v419q0 10 10 10h15q10 0 10 -10v-419l223 224q5 5 12 5h20
q7 0 8.5 -4t-3.5 -8l-227 -228z" />
    <glyph glyph-name="uni0438.loclBGR" 
d="M436 500q10 0 10 -10v-480q0 -10 -10 -10h-15q-10 0 -10 10v90q-26 -57 -72.5 -84t-102.5 -27q-73 0 -120 47t-47 130v324q0 10 10 10h16q10 0 10 -10v-324q0 -67 37 -105t98 -38q71 0 121 50.5t50 144.5v272q0 10 10 10h15z" />
    <glyph glyph-name="uni0439.loclBGR" 
d="M142 594q-10 0 -10 10v10q0 10 10 10h226q10 0 10 -10v-10q0 -10 -10 -10h-226zM436 500q10 0 10 -10v-480q0 -10 -10 -10h-15q-10 0 -10 10v90q-26 -57 -72.5 -84t-102.5 -27q-73 0 -120 47t-47 130v324q0 10 10 10h16q10 0 10 -10v-324q0 -67 37 -105t98 -38
q71 0 121 50.5t50 144.5v272q0 10 10 10h15z" />
    <glyph glyph-name="uni043A.loclBGR" horiz-adv-x="472" 
d="M432 12q5 -4 3.5 -8t-8.5 -4h-23q-7 0 -12 5l-273 245v-240q0 -10 -10 -10h-16q-10 0 -10 10v680q0 10 10 10h16q10 0 10 -10v-420l263 225q5 5 12 5h23q7 0 8.5 -4t-4.5 -8l-266 -228z" />
    <glyph glyph-name="uni043B.loclBGR" horiz-adv-x="485" 
d="M463 12q5 -12 -8 -12h-16q-8 0 -11 8l-186 454l-185 -454q-3 -8 -11 -8h-17q-12 0 -8 12l198 480q3 8 11 8h15h10q8 0 11 -8z" />
    <glyph glyph-name="uni043F.loclBGR" 
d="M293 511q73 0 120 -47t47 -130v-324q0 -10 -10 -10h-15q-10 0 -10 10v324q0 67 -37.5 105t-98.5 38q-71 0 -120.5 -50.5t-49.5 -144.5v-272q0 -10 -10 -10h-16q-10 0 -10 10v480q0 10 10 10h16q10 0 10 -10v-90q17 39 46 64.5t60.5 36t67.5 10.5z" />
    <glyph glyph-name="uni0442.loclBGR" horiz-adv-x="786" 
d="M564 511q43 0 76.5 -17.5t55 -56t21.5 -93.5v-334q0 -10 -10 -10h-16q-10 0 -10 10v334q0 66 -32.5 99.5t-86.5 33.5q-58 0 -101 -45t-43 -130v-292q0 -10 -10 -10h-16q-10 0 -10 10v334q0 66 -32.5 99.5t-86.5 33.5q-58 0 -101 -45t-43 -130v-292q0 -10 -10 -10h-16
q-10 0 -10 10v480q0 10 10 10h16q10 0 10 -10v-75q23 49 63 72.5t85 23.5q51 0 89.5 -27t53.5 -79q22 55 64 80.5t90 25.5z" />
    <glyph glyph-name="uni0446.loclBGR" horiz-adv-x="555" 
d="M508 33q10 0 10 -10v-23v-134q0 -10 -10 -10h-15q-10 0 -10 10v134q-34 2 -53 23.5t-19 56.5v19q-25 -56 -72 -83t-103 -27q-73 0 -120 47t-47 130v324q0 10 10 10h16q10 0 10 -10v-324q0 -67 37 -105t98 -38q71 0 121 50.5t50 144.5v272q0 10 10 10h15q10 0 10 -10v-410
q0 -11 3 -19.5t9 -14.5t14.5 -9.5t19.5 -3.5h16z" />
    <glyph glyph-name="uni0448.loclBGR" horiz-adv-x="786" 
d="M693 500q10 0 10 -10v-480q0 -10 -10 -10h-16q-10 0 -10 10v75q-23 -49 -63 -72.5t-85 -23.5q-51 0 -89.5 27t-53.5 79q-22 -55 -64 -80.5t-90 -25.5q-67 0 -110 42.5t-43 124.5v334q0 10 10 10h16q10 0 10 -10v-334q0 -66 32.5 -99.5t86.5 -33.5q58 0 101 45t43 130v292
q0 10 10 10h16q10 0 10 -10v-334q0 -66 32.5 -99.5t86.5 -33.5q58 0 101 45t43 130v292q0 10 10 10h16z" />
    <glyph glyph-name="uni0449.loclBGR" horiz-adv-x="811" 
d="M765 33q10 0 10 -10v-23v-134q0 -10 -10 -10h-16q-10 0 -10 10v134q-33 2 -52.5 23.5t-19.5 56.5v5q-15 -34 -40.5 -56.5t-52 -31t-55.5 -8.5q-51 0 -89.5 27t-53.5 80q-22 -56 -64 -81.5t-90 -25.5q-67 0 -110 42.5t-43 124.5v334q0 10 10 10h16q10 0 10 -10v-334
q0 -66 32.5 -99.5t86.5 -33.5q58 0 101 45t43 130v292q0 10 10 10h16q10 0 10 -10v-334q0 -66 32.5 -99.5t86.5 -33.5q58 0 101 45t43 130v292q0 10 10 10h16q10 0 10 -10v-410q0 -15 5.5 -25.5t15.5 -16t24 -5.5h17z" />
    <glyph glyph-name="uni044C.loclBGR" horiz-adv-x="483" 
d="M258 326q86 0 137 -44.5t51 -118.5t-52.5 -124t-135.5 -50q-91 0 -140 48t-49 126v327q0 10 10 10h16q10 0 10 -10v-164h153zM258 23q67 0 110 40.5t43 99.5q0 39 -19 68.5t-53.5 45.5t-80.5 16h-153v-130q0 -62 39.5 -101t113.5 -39z" />
    <glyph glyph-name="uni044A.loclBGR" horiz-adv-x="567" 
d="M342 326q86 0 137 -44.5t51 -118.5t-52.5 -124t-135.5 -50q-91 0 -140 48t-49 126v304h-143q-10 0 -10 10v13q0 10 10 10h163h6q10 0 10 -10v-164h153zM342 23q67 0 110 40.5t43 99.5t-42 94.5t-111 35.5h-153v-130q0 -40 16.5 -71t51.5 -50t85 -19z" />
    <glyph glyph-name="uni044E.loclBGR" horiz-adv-x="807" 
d="M498 511q110 0 186 -75.5t76 -185.5t-76 -185.5t-186 -75.5q-105 0 -179 70t-81 174h-119v-223q0 -10 -10 -10h-16q-10 0 -10 10v680q0 10 10 10h16q10 0 10 -10v-423h119q7 104 81 174t179 70zM498.5 23q95.5 0 161 65.5t65.5 161.5t-65.5 161.5t-161 65.5t-161 -65.5
t-65.5 -161.5t65.5 -161.5t161 -65.5z" />
    <glyph glyph-name="uni0430.ss01" horiz-adv-x="653" 
d="M560 500q10 0 10 -10v-480q0 -10 -10 -10h-15q-10 0 -10 10v122q-31 -65 -91.5 -104t-136.5 -39q-109 0 -184.5 75.5t-75.5 185.5t75.5 185.5t184.5 75.5q76 0 136.5 -39t91.5 -104v122q0 10 10 10h15zM308.5 23q95.5 0 161 65.5t65.5 161.5t-65.5 161.5t-161 65.5
t-161 -65.5t-65.5 -161.5t65.5 -161.5t161 -65.5z" />
    <glyph glyph-name="uni0443.ss01" 
d="M436 500q10 0 10 -10v-522q0 -84 -51 -131.5t-129 -47.5q-77 0 -126 41.5t-54 107.5q0 10 10 10h16q8 0 10 -9q3 -37 22.5 -63.5t51 -39.5t70.5 -13q63 0 104 38t41 107v133q-25 -57 -72 -84.5t-103 -27.5q-73 0 -120 47t-47 130v324q0 10 10 10h16q10 0 10 -10v-324
q0 -67 37 -105t98 -38q71 0 121 50.5t50 144.5v272q0 10 10 10h15z" />
    <glyph glyph-name="zero.sinf" horiz-adv-x="410" 
d="M205 -172q-77 0 -122.5 58.5t-45.5 153.5t45.5 153.5t122.5 58.5t122.5 -58.5t45.5 -153.5t-45.5 -153.5t-122.5 -58.5zM205 -140q63 0 98.5 48t35.5 132t-35.5 132t-98.5 48t-98.5 -48t-35.5 -132t35.5 -132t98.5 -48z" />
    <glyph glyph-name="one.sinf" horiz-adv-x="246" 
d="M140 237q5 3 11 3h19q9 0 9 -9v-382q0 -9 -9 -9h-16q-9 0 -9 9v355l-108 -58q-10 -6 -10 7v16q0 7 6 11z" />
    <glyph glyph-name="two.sinf" horiz-adv-x="344" 
d="M46 -160q-9 0 -9 9v11q0 7 5 12l176 166q47 44 47 98q0 34 -25 59t-67 25t-68.5 -22t-29.5 -58q-1 -8 -9 -8h-16q-10 0 -9 9q4 50 40 80.5t92 30.5t91 -34t35 -81q0 -65 -58 -120l-154 -145h211q9 0 9 -9v-14q0 -9 -9 -9h-252z" />
    <glyph glyph-name="three.sinf" horiz-adv-x="346" 
d="M191 75q55 -6 86 -39.5t31 -81.5q0 -55 -37 -90.5t-101 -35.5q-62 0 -98.5 32.5t-39.5 83.5q-1 10 9 10h16q8 0 9 -9q2 -18 9 -33t19.5 -27t31.5 -18.5t44 -6.5t45.5 7.5t33 20.5t19 29.5t6.5 36t-7 36.5t-19.5 30t-32.5 20t-45 7h-10q-9 0 -9 9v11q0 6 4 11l98 130h-197
q-9 0 -9 9v14q0 9 9 9h227q9 0 9 -9v-17q0 -5 -4 -11z" />
    <glyph glyph-name="four.sinf" horiz-adv-x="357" 
d="M322 -44q9 0 9 -9v-13q0 -9 -9 -9h-50v-76q0 -9 -9 -9h-16q-9 0 -9 9v76h-211q-9 0 -9 9v16q0 7 3 12l146 272q3 6 11 6h16q5 0 7 -3t0 -8l-146 -273h183v104q0 9 9 9h16q9 0 9 -9v-104h50z" />
    <glyph glyph-name="five.sinf" horiz-adv-x="338" 
d="M165 81q61 0 98.5 -35.5t37.5 -91.5t-37 -91t-99 -35q-60 0 -96.5 32t-39.5 85q-1 9 8 9h17q7 0 9 -9q2 -26 15 -45.5t35.5 -29.5t51.5 -10q46 0 74 25.5t28 68.5q0 21 -7.5 39t-20.5 30t-32 19t-42 7h-106q-9 0 -9 9l14 173q1 9 9 9h203q9 0 9 -9v-13q0 -9 -9 -9h-181
l-10 -128h80z" />
    <glyph glyph-name="six.sinf" horiz-adv-x="335" 
d="M167 94q39 0 71.5 -17t51 -47.5t18.5 -68.5q0 -57 -40.5 -95t-100.5 -38t-100 38t-40 95q0 38 18 68l133 205q4 6 10 6h20q5 0 7 -3.5t-1 -7.5l-95 -143q23 8 48 8zM167 -140q47 0 77 28t30 73t-30 73t-77 28q-30 0 -54.5 -12.5t-38 -35.5t-13.5 -53q0 -45 30 -73t76 -28
z" />
    <glyph glyph-name="seven.sinf" horiz-adv-x="323" 
d="M23 231q0 9 9 9h248q9 0 9 -9v-13q0 -5 -2 -11l-156 -360q-3 -7 -10 -7h-18q-5 0 -7 3t0 8l155 357h-219q-9 0 -9 9v14z" />
    <glyph glyph-name="eight.sinf" horiz-adv-x="348" 
d="M237 50q35 -14 56 -42t21 -65q0 -52 -39 -83.5t-100 -31.5q-63 0 -101.5 31.5t-38.5 83.5q0 37 20.5 65t55.5 42q-29 13 -46 36.5t-17 54.5q0 52 36.5 81.5t90.5 29.5q34 0 62.5 -12.5t46 -38t17.5 -60.5q0 -31 -17.5 -54.5t-46.5 -36.5zM82 141q0 -34 26.5 -55t66.5 -21
q38 0 65 21t27 55q0 37 -26 58.5t-66 21.5q-41 0 -67 -21.5t-26 -58.5zM175 -140q31 0 54.5 10.5t37 30t13.5 44.5q0 40 -29.5 64t-75.5 24q-48 0 -77 -23.5t-29 -64.5q0 -39 29 -62t77 -23z" />
    <glyph glyph-name="nine.sinf" horiz-adv-x="335" 
d="M308 119q0 -38 -18 -68l-133 -205q-4 -6 -10 -6h-20q-5 0 -7 3.5t1 7.5l95 143q-23 -8 -48 -8q-60 0 -100.5 38t-40.5 95t40.5 95t100.5 38t100 -38t40 -95zM61 119q0 -45 30 -73t77 -28q46 0 76 28t30 73t-30 73t-76 28q-47 0 -77 -28t-30 -73z" />
    <glyph glyph-name="zero.tf" horiz-adv-x="570" 
d="M285 -11q-122 0 -190 98.5t-68 262.5t68 262.5t190 98.5t190 -98.5t68 -262.5t-68 -262.5t-190 -98.5zM285 24q103 0 162.5 86.5t59.5 239.5t-59.5 239.5t-162.5 86.5t-162.5 -86.5t-59.5 -239.5t59.5 -239.5t162.5 -86.5z" />
    <glyph glyph-name="one.tf" horiz-adv-x="570" 
d="M53 0q-10 0 -10 10v15q0 10 10 10h247v625l-199 -108q-5 -3 -8.5 -1t-3.5 8v18q0 8 7 12l198 108q5 3 13 3h20q10 0 10 -10v-655h196q10 0 10 -10v-15q0 -10 -10 -10h-480z" />
    <glyph glyph-name="two.tf" horiz-adv-x="570" 
d="M65 0q-10 0 -10 10v16q0 7 5 12l277 244q42 37 70 68t48 70.5t20 76.5q0 81 -51 130t-139 49q-80 0 -134.5 -46.5t-58.5 -118.5q-1 -10 -10 -10h-17q-10 0 -10 10q4 89 71.5 144.5t158.5 55.5q99 0 163 -58t64 -156q0 -62 -40 -120.5t-111 -119.5l-255 -222h414
q10 0 10 -10v-15q0 -10 -10 -10h-455z" />
    <glyph glyph-name="three.tf" horiz-adv-x="570" 
d="M308 410q101 -6 163 -62t62 -147q0 -97 -69 -154.5t-179 -57.5q-107 0 -175.5 55t-72.5 147q-1 10 10 10h17q9 0 10 -10q3 -75 59.5 -121t151.5 -46q99 0 155.5 48.5t56.5 128.5t-56.5 128.5t-155.5 48.5v0h-16q-10 0 -10 10v6q0 7 4 13l191 259h-377q-10 0 -10 10v14
q0 10 10 10h410q10 0 10 -10v-17q0 -7 -5 -13z" />
    <glyph glyph-name="four.tf" horiz-adv-x="570" 
d="M527 187q10 0 10 -10v-14q0 -10 -10 -10h-80v-143q0 -10 -10 -10h-17q-10 0 -10 10v143h-373q-10 0 -10 10v18q0 6 3 12l263 500q4 7 12 7h19q13 0 7 -12l-264 -501h343v210q0 10 10 10h17q10 0 10 -10v-210h80z" />
    <glyph glyph-name="five.tf" horiz-adv-x="570" 
d="M285 413q106 0 174 -58t68 -154t-68 -154t-174 -58q-103 0 -170.5 55t-70.5 147q-1 10 9 10h17q10 0 10 -10q4 -75 59 -121t146 -46q94 0 149.5 49t55.5 128t-55.5 128t-149.5 49h-194q-10 0 -9 10l21 302q1 10 10 10h375q10 0 10 -10v-14q0 -10 -10 -10h-351l-17 -253
h165z" />
    <glyph glyph-name="six.tf" horiz-adv-x="570" 
d="M282 450q111 0 179.5 -64t68.5 -166.5t-68.5 -166.5t-180 -64t-180 64t-68.5 167q0 82 46 141l245 333q4 6 12 6h19q6 0 8 -3.5t-1 -8.5l-188 -257q48 19 108 19zM281.5 24q99.5 0 155.5 54.5t56 141t-56 141t-155.5 54.5t-155.5 -54.5t-56 -141t56 -141t155.5 -54.5z
" />
    <glyph glyph-name="seven.tf" horiz-adv-x="570" 
d="M40 690q0 10 10 10h457q10 0 10 -10v-18q0 -7 -3 -12l-300 -653q-3 -7 -12 -7h-16q-13 0 -8 12l301 654h-429q-10 0 -10 10v14z" />
    <glyph glyph-name="eight.tf" horiz-adv-x="570" 
d="M387 362q67 -21 104 -67.5t37 -111.5q0 -90 -65.5 -142t-177.5 -52t-177.5 52t-65.5 142q0 65 37 111.5t104 67.5q-55 21 -87 64.5t-32 100.5q0 56 28.5 98t78.5 64t114 22q98 0 159.5 -50t61.5 -134q0 -57 -32 -100.5t-87 -64.5zM101 527q0 -66 49 -108t135 -42t135 42
t49 108q0 67 -48.5 108t-135.5 41t-135.5 -41t-48.5 -108zM285 24q100 0 153.5 43.5t53.5 116t-53.5 116t-153.5 43.5t-153.5 -43.5t-53.5 -116t53.5 -116t153.5 -43.5z" />
    <glyph glyph-name="nine.tf" horiz-adv-x="570" 
d="M537 480q0 -82 -46 -141l-244 -333q-5 -6 -13 -6h-19q-6 0 -8 3.5t1 8.5l188 257q-48 -19 -108 -19q-111 0 -179.5 64t-68.5 166.5t68.5 166.5t180 64t180 -64t68.5 -167zM77 480q0 -86 56 -140.5t155.5 -54.5t155.5 54.5t56 141t-56 141t-156 54.5q-66 0 -114.5 -26
t-72.5 -69.5t-24 -100.5z" />
    <glyph glyph-name="zero.dnom" horiz-adv-x="410" 
d="M205 -12q-77 0 -122.5 58.5t-45.5 153.5q0 47 11.5 86t33 67t53 43.5t70.5 15.5q77 0 122.5 -58.5t45.5 -153.5t-45.5 -153.5t-122.5 -58.5zM205 20q63 0 98.5 48t35.5 132t-35.5 132t-98.5 48t-98.5 -48t-35.5 -132t35.5 -132t98.5 -48z" />
    <glyph glyph-name="one.dnom" horiz-adv-x="246" 
d="M140 397q5 3 11 3h19q9 0 9 -9v-382q0 -9 -9 -9h-16q-9 0 -9 9v355l-108 -58q-10 -6 -10 7v16q0 7 6 11z" />
    <glyph glyph-name="two.dnom" horiz-adv-x="344" 
d="M46 0q-9 0 -9 9v11q0 7 5 12l176 166q47 44 47 98q0 34 -25 59t-67 25t-68.5 -22t-29.5 -58q-1 -8 -9 -8h-16q-10 0 -9 9q4 50 40 80.5t92 30.5t91 -34t35 -81q0 -65 -58 -120l-154 -145h211q9 0 9 -9v-14q0 -9 -9 -9h-252z" />
    <glyph glyph-name="three.dnom" horiz-adv-x="346" 
d="M191 235q55 -6 86 -39.5t31 -81.5q0 -55 -37 -90.5t-101 -35.5q-62 0 -98.5 32.5t-39.5 83.5q-1 10 9 10h16q8 0 9 -9q3 -37 29.5 -61t74.5 -24q25 0 45.5 7.5t33 20.5t19 29.5t6.5 36.5q0 40 -27.5 66.5t-76.5 26.5h-10q-9 0 -9 9v11q0 6 4 11l98 130h-197q-9 0 -9 9v14
q0 9 9 9h227q9 0 9 -9v-17q0 -5 -4 -11z" />
    <glyph glyph-name="four.dnom" horiz-adv-x="357" 
d="M322 116q9 0 9 -9v-13q0 -9 -9 -9h-50v-76q0 -9 -9 -9h-16q-9 0 -9 9v76h-211q-9 0 -9 9v16q0 7 3 12l146 272q3 6 11 6h16q5 0 7 -3t0 -8l-146 -273h183v104q0 9 9 9h16q9 0 9 -9v-104h50z" />
    <glyph glyph-name="five.dnom" horiz-adv-x="338" 
d="M164 241q60 0 97.5 -35.5t37.5 -91.5t-37 -91t-99 -35q-59 0 -96 32t-40 85q-1 9 9 9h16q8 0 9 -9q3 -39 30.5 -62t71.5 -23q47 0 74.5 25.5t27.5 68.5t-27.5 69t-74.5 26h-106q-9 0 -8 9l13 173q1 9 10 9h202q9 0 9 -9v-13q0 -9 -9 -9h-181l-10 -128h81z" />
    <glyph glyph-name="six.dnom" horiz-adv-x="335" 
d="M167 254q39 0 71.5 -17t51 -47.5t18.5 -68.5q0 -57 -40.5 -95t-100.5 -38t-100 38t-40 95q0 38 18 68l133 205q4 6 10 6h20q5 0 7 -3.5t-1 -7.5l-95 -143q23 8 48 8zM167 20q47 0 77 28t30 73t-30 73t-77 28q-30 0 -54.5 -12.5t-38 -35.5t-13.5 -53q0 -45 30 -73t76 -28z
" />
    <glyph glyph-name="seven.dnom" horiz-adv-x="323" 
d="M23 391q0 9 9 9h248q9 0 9 -9v-13q0 -5 -2 -11l-156 -360q-3 -7 -10 -7h-18q-5 0 -7 3t0 8l155 357h-219q-9 0 -9 9v14z" />
    <glyph glyph-name="eight.dnom" horiz-adv-x="348" 
d="M237 210q35 -14 56 -42t21 -65q0 -52 -39 -83.5t-100 -31.5q-63 0 -101.5 31.5t-38.5 83.5q0 37 20.5 65t55.5 42q-29 13 -46 36.5t-17 54.5q0 52 36.5 81.5t90.5 29.5q34 0 62.5 -12.5t46 -38t17.5 -60.5q0 -31 -17.5 -54.5t-46.5 -36.5zM82 301q0 -34 26.5 -55
t66.5 -21q38 0 65 21t27 55q0 37 -26 58.5t-66 21.5q-41 0 -67 -21.5t-26 -58.5zM175 20q47 0 76 23t29 62q0 40 -29.5 64t-75.5 24q-48 0 -77 -23.5t-29 -64.5q0 -39 29 -62t77 -23z" />
    <glyph glyph-name="nine.dnom" horiz-adv-x="335" 
d="M308 279q0 -38 -18 -68l-133 -205q-4 -6 -10 -6h-20q-5 0 -7 3.5t1 7.5l95 143q-23 -8 -48 -8q-60 0 -100.5 38t-40.5 95q0 38 18.5 68.5t51 47.5t71.5 17q60 0 100 -38t40 -95zM61 279q0 -45 30 -73t77 -28q46 0 76 28t30 73t-30 73t-76 28q-47 0 -77 -28t-30 -73z" />
    <glyph glyph-name="zero.numr" horiz-adv-x="410" 
d="M205 288q-77 0 -122.5 58.5t-45.5 153.5t45.5 153.5t122.5 58.5t122.5 -58.5t45.5 -153.5q0 -47 -11.5 -86t-33 -67t-53 -43.5t-70.5 -15.5zM205 320q63 0 98.5 48t35.5 132t-35.5 132t-98.5 48t-98.5 -48t-35.5 -132t35.5 -132t98.5 -48z" />
    <glyph glyph-name="one.numr" horiz-adv-x="246" 
d="M140 697q5 3 11 3h19q9 0 9 -9v-382q0 -9 -9 -9h-16q-9 0 -9 9v355l-108 -58q-10 -6 -10 7v16q0 7 6 11z" />
    <glyph glyph-name="two.numr" horiz-adv-x="344" 
d="M46 300q-9 0 -9 9v11q0 7 5 12l176 166q47 44 47 98q0 34 -25 59t-67 25t-68.5 -22t-29.5 -58q-1 -8 -9 -8h-16q-10 0 -9 9q4 50 40 80.5t92 30.5t91 -34t35 -81q0 -65 -58 -120l-154 -145h211q9 0 9 -9v-14q0 -9 -9 -9h-252z" />
    <glyph glyph-name="three.numr" horiz-adv-x="346" 
d="M191 535q55 -6 86 -39.5t31 -81.5q0 -36 -16 -64t-48 -45t-74 -17q-62 0 -98.5 32.5t-39.5 83.5q-1 10 9 10h16q8 0 9 -9q3 -37 29.5 -61t74.5 -24q17 0 32 3.5t26 9.5t20 14.5t14.5 19t8.5 22.5t3 25q0 19 -7 36t-19.5 29.5t-32.5 20t-45 7.5h-10q-9 0 -9 9v11q0 6 4 11
l98 130h-197q-9 0 -9 9v14q0 9 9 9h227q9 0 9 -9v-17q0 -5 -4 -11z" />
    <glyph glyph-name="four.numr" horiz-adv-x="357" 
d="M322 416q9 0 9 -9v-13q0 -9 -9 -9h-50v-76q0 -9 -9 -9h-16q-9 0 -9 9v76h-211q-9 0 -9 9v16q0 7 3 12l146 272q3 6 11 6h16q5 0 7 -3t0 -8l-146 -273h183v104q0 9 9 9h16q9 0 9 -9v-104h50z" />
    <glyph glyph-name="five.numr" horiz-adv-x="338" 
d="M164 541q60 0 97.5 -35.5t37.5 -91.5t-37 -91t-99 -35q-59 0 -96 32t-40 85q-1 9 9 9h16q8 0 9 -9q3 -39 30.5 -62t71.5 -23q47 0 74.5 25.5t27.5 68.5t-27.5 69t-74.5 26h-106q-9 0 -8 9l13 173q1 9 10 9h202q9 0 9 -9v-13q0 -9 -9 -9h-181l-10 -128h81z" />
    <glyph glyph-name="six.numr" horiz-adv-x="335" 
d="M167 554q39 0 71.5 -17t51 -47.5t18.5 -68.5t-18.5 -68.5t-51 -47.5t-71.5 -17q-60 0 -100 38t-40 95q0 38 18 68l133 205q4 6 10 6h20q5 0 7 -3.5t-1 -7.5l-95 -143q23 8 48 8zM167 320q47 0 77 28t30 73t-30 73t-77 28q-30 0 -54.5 -12.5t-38 -35.5t-13.5 -53
q0 -45 30 -73t76 -28z" />
    <glyph glyph-name="seven.numr" horiz-adv-x="323" 
d="M23 691q0 9 9 9h248q9 0 9 -9v-13q0 -5 -2 -11l-156 -360q-3 -7 -10 -7h-18q-5 0 -7 3t0 8l155 357h-219q-9 0 -9 9v14z" />
    <glyph glyph-name="eight.numr" horiz-adv-x="348" 
d="M237 510q35 -14 56 -42t21 -65q0 -52 -39 -83.5t-100 -31.5q-63 0 -101.5 31.5t-38.5 83.5q0 37 20.5 65t55.5 42q-29 13 -46 36.5t-17 54.5q0 52 36.5 81.5t90.5 29.5q25 0 48 -7.5t40 -21t27.5 -35t10.5 -47.5q0 -31 -17.5 -54.5t-46.5 -36.5zM82 601q0 -34 26.5 -55
t66.5 -21q38 0 65 21t27 55q0 37 -26 58.5t-66 21.5q-41 0 -67 -21.5t-26 -58.5zM175 320q31 0 54.5 10.5t37 30t13.5 44.5q0 40 -29.5 64t-75.5 24q-31 0 -55 -10.5t-37.5 -30.5t-13.5 -47q0 -39 29 -62t77 -23z" />
    <glyph glyph-name="nine.numr" horiz-adv-x="335" 
d="M308 579q0 -38 -18 -68l-133 -205q-4 -6 -10 -6h-20q-5 0 -7 3.5t1 7.5l95 143q-23 -8 -48 -8q-60 0 -100.5 38t-40.5 95t40.5 95t100.5 38t100 -38t40 -95zM61 579q0 -45 30 -73t77 -28q46 0 76 28t30 73t-30 73t-76 28q-47 0 -77 -28t-30 -73z" />
    <glyph glyph-name="zero.sups" horiz-adv-x="410" 
d="M205 448q-77 0 -122.5 58.5t-45.5 153.5q0 63 20 111t58.5 74.5t89.5 26.5q77 0 122.5 -58.5t45.5 -153.5q0 -47 -11.5 -86t-33 -67t-53 -43.5t-70.5 -15.5zM205 480q63 0 98.5 48t35.5 132t-35.5 132t-98.5 48t-98.5 -48t-35.5 -132t35.5 -132t98.5 -48z" />
    <glyph glyph-name="one.sups" horiz-adv-x="246" 
d="M140 857q5 3 11 3h19q9 0 9 -9v-382q0 -9 -9 -9h-16q-9 0 -9 9v355l-108 -58q-10 -6 -10 7v16q0 7 6 11z" />
    <glyph glyph-name="two.sups" horiz-adv-x="344" 
d="M46 460q-9 0 -9 9v11q0 7 5 12l176 166q47 44 47 98q0 34 -25 59t-67 25q-28 0 -49.5 -10t-34 -28t-14.5 -42q-1 -8 -9 -8h-16q-10 0 -9 9q4 50 40 80.5t92 30.5t91 -34t35 -81q0 -65 -58 -120l-154 -145h211q9 0 9 -9v-14q0 -9 -9 -9h-252z" />
    <glyph glyph-name="three.sups" horiz-adv-x="346" 
d="M191 695q55 -6 86 -39.5t31 -81.5q0 -55 -37 -90.5t-101 -35.5q-62 0 -98.5 32.5t-39.5 83.5q-1 10 9 10h16q8 0 9 -9q3 -37 29.5 -61t74.5 -24q25 0 45.5 7.5t33 20.5t19 29.5t6.5 36.5q0 40 -27.5 66.5t-76.5 26.5h-10q-9 0 -9 9v11q0 6 4 11l98 130h-197q-9 0 -9 9v14
q0 9 9 9h227q9 0 9 -9v-17q0 -5 -4 -11z" />
    <glyph glyph-name="four.sups" horiz-adv-x="357" 
d="M322 576q9 0 9 -9v-13q0 -9 -9 -9h-50v-76q0 -9 -9 -9h-16q-9 0 -9 9v76h-211q-9 0 -9 9v16q0 7 3 12l146 272q3 6 11 6h16q5 0 7 -3t0 -8l-146 -273h183v104q0 9 9 9h16q9 0 9 -9v-104h50z" />
    <glyph glyph-name="five.sups" horiz-adv-x="338" 
d="M164 701q60 0 97.5 -35.5t37.5 -91.5t-37 -91t-99 -35q-59 0 -96 32t-40 85q-1 9 9 9h16q8 0 9 -9q3 -39 30.5 -62t71.5 -23q47 0 74.5 25.5t27.5 68.5t-27.5 69t-74.5 26h-106q-9 0 -8 9l13 173q1 9 10 9h202q9 0 9 -9v-13q0 -9 -9 -9h-181l-10 -128h81z" />
    <glyph glyph-name="six.sups" horiz-adv-x="335" 
d="M167 714q30 0 56 -10t44.5 -27.5t29.5 -42t11 -53.5q0 -38 -18.5 -68.5t-51 -47.5t-71.5 -17q-60 0 -100 38t-40 95q0 38 18 68l133 205q4 6 10 6h20q5 0 7 -3.5t-1 -7.5l-95 -143q23 8 48 8zM167 480q47 0 77 28t30 73t-30 73t-77 28q-23 0 -42.5 -7.5t-33.5 -20.5
t-22 -32t-8 -41q0 -45 30 -73t76 -28z" />
    <glyph glyph-name="seven.sups" horiz-adv-x="323" 
d="M23 851q0 9 9 9h248q9 0 9 -9v-13q0 -5 -2 -11l-156 -360q-3 -7 -10 -7h-18q-5 0 -7 3t0 8l155 357h-219q-9 0 -9 9v14z" />
    <glyph glyph-name="eight.sups" horiz-adv-x="348" 
d="M237 670q35 -14 56 -42t21 -65q0 -52 -39 -83.5t-100 -31.5q-63 0 -101.5 31.5t-38.5 83.5q0 25 9.5 46t26.5 36.5t40 24.5q-29 13 -46 36.5t-17 54.5q0 52 36.5 81.5t90.5 29.5q25 0 48 -7.5t40 -21t27.5 -35t10.5 -47.5q0 -31 -17.5 -54.5t-46.5 -36.5zM82 761
q0 -34 26.5 -55t66.5 -21q38 0 65 21t27 55q0 37 -26 58.5t-66 21.5q-41 0 -67 -21.5t-26 -58.5zM175 480q47 0 76 23t29 62q0 27 -14 47t-37.5 30.5t-53.5 10.5q-48 0 -77 -23.5t-29 -64.5q0 -39 29 -62t77 -23z" />
    <glyph glyph-name="nine.sups" horiz-adv-x="335" 
d="M308 739q0 -38 -18 -68l-133 -205q-4 -6 -10 -6h-20q-5 0 -7 3.5t1 7.5l95 143q-23 -8 -48 -8q-60 0 -100.5 38t-40.5 95t40.5 95t100.5 38t100 -38t40 -95zM61 739q0 -45 30 -73t77 -28q46 0 76 28t30 73t-30 73t-76 28q-47 0 -77 -28t-30 -73z" />
    <glyph glyph-name="cent.tf" horiz-adv-x="570" 
d="M526 247q12 0 8 -12q-25 -66 -87.5 -106t-142.5 -40q-40 0 -78 11l-31 -93q-2 -7 -10 -7h-12q-10 0 -7 10l33 100q-71 29 -113.5 93.5t-42.5 146.5q0 111 74.5 186t186.5 75q31 0 60 -7l29 89q2 7 10 7h12q10 0 7 -10l-31 -93q50 -17 87.5 -51.5t55.5 -80.5q4 -12 -8 -12
h-17q-8 0 -11 8q-33 76 -117 104l-144 -433q32 -9 67 -9q44 0 83 14.5t67 40.5t44 61q3 8 11 8h17zM78 350q0 -70 36 -125.5t96 -82.5l143 431q-24 4 -49 4q-96 0 -161 -65.5t-65 -161.5z" />
    <glyph glyph-name="dollar.tf" horiz-adv-x="570" 
d="M523 171q0 -81 -62 -131t-159 -51v-79q0 -10 -10 -10h-14q-10 0 -10 10v80q-98 7 -157.5 54t-63.5 127q-1 10 10 10h17q9 0 10 -10q3 -63 51 -101.5t133 -44.5v318q-38 13 -63 23t-54.5 26.5t-46.5 35.5t-28.5 47.5t-11.5 62.5q0 74 57 121.5t147 50.5v80q0 10 10 10h14
q10 0 10 -10v-80q84 -5 140.5 -52.5t60.5 -119.5q1 -11 -9 -11h-17q-10 0 -10 10q-4 56 -49 94.5t-116 43.5v-305q27 -10 42 -15t39.5 -14.5t38.5 -18t32.5 -20t29 -24.5t20.5 -29t14.5 -36t4.5 -42zM100 538q0 -33 12.5 -58.5t38 -43.5t51 -29.5t66.5 -25.5v295
q-78 -4 -123 -42.5t-45 -95.5zM302 24q85 1 135 42t50 105q0 23 -6.5 42.5t-20 35t-28 26.5t-38.5 22t-43 18t-49 17v-308z" />
    <glyph glyph-name="Euro.tf" horiz-adv-x="570" 
d="M528 211q11 0 9 -10q-12 -97 -71.5 -154.5t-145.5 -57.5q-99 0 -161.5 75.5t-77.5 205.5h-59q-10 0 -10 10v11q0 10 10 10h57q-2 24 -2 49q0 26 2 51h-57q-10 0 -10 10v12q0 10 10 10h60q15 129 77.5 203.5t160.5 74.5q86 0 145.5 -56.5t71.5 -152.5q1 -11 -10 -11h-17
q-9 0 -10 10q-11 81 -61 128t-119 47q-54 0 -96 -28.5t-69 -83.5t-37 -131h262q10 0 10 -10v-12q0 -10 -10 -10h-265q-1 -25 -1 -51q0 -25 1 -49h265q10 0 10 -10v-11q0 -10 -10 -10h-262q14 -117 67 -181.5t135 -64.5q70 0 120.5 47.5t59.5 129.5q2 10 11 10h17z" />
    <glyph glyph-name="florin.tf" horiz-adv-x="570" 
d="M525 705q8 -2 8 -12v-14q0 -11 -11 -8q-54 17 -90.5 -7.5t-49.5 -82.5l-51 -213h146q10 0 10 -10v-14q0 -10 -10 -10h-154l-99 -420q-17 -73 -64.5 -105.5t-114.5 -15.5q-8 2 -8 12v14q0 11 11 8q54 -17 90.5 7.5t50.5 82.5l98 417h-143q-10 0 -10 10v14q0 10 10 10h151
l51 216q18 73 65 105.5t114 15.5z" />
    <glyph glyph-name="uni20BD.tf" horiz-adv-x="570" 
d="M337 293h-200v-112h270q10 0 10 -10v-12q0 -10 -10 -10h-270v-139q0 -10 -10 -10h-17q-10 0 -10 10v139h-80q-10 0 -10 10v12q0 10 10 10h80v112h-80q-10 0 -10 10v14q0 10 10 10h80v363q0 10 10 10h27h200q84 0 143.5 -59.5t59.5 -143.5t-59.5 -144t-143.5 -60zM137 666
v-339h200q68 0 117 50t49 120t-49 119.5t-117 49.5h-200z" />
    <glyph glyph-name="sterling.tf" horiz-adv-x="570" 
d="M520 35q10 0 10 -10v-15q0 -10 -10 -10h-510q-10 0 -10 10v15q0 10 10 10h95v259h-75q-10 0 -10 10v12q0 10 10 10h75v191q0 89 57 141.5t141 52.5q83 0 140.5 -53t57.5 -141v-14q0 -10 -10 -10h-16q-10 0 -10 10v14q0 47 -21 83.5t-57.5 56t-83.5 19.5q-72 0 -117 -43.5
t-45 -115.5v-191h241q10 0 10 -10v-12q0 -10 -10 -10h-241v-259h379z" />
    <glyph glyph-name="yen.tf" horiz-adv-x="570" 
d="M536 700q7 0 8.5 -3.5t-1.5 -8.5l-232 -348h173q10 0 10 -10v-11q0 -10 -10 -10h-181v-93h181q10 0 10 -10v-12q0 -10 -10 -10h-181v-174q0 -10 -10 -10h-16q-10 0 -10 10v174h-179q-10 0 -10 10v12q0 10 10 10h179v93h-179q-10 0 -10 10v11q0 10 10 10h171l-232 348
q-3 5 -1 8.5t8 3.5h18q7 0 12 -6l221 -333l222 333q4 6 12 6h17z" />
    <glyph glyph-name="brevecy" horiz-adv-x="287" 
d="M30 594q-10 0 -10 10v10q0 10 10 10h227q10 0 10 -10v-10q0 -10 -10 -10h-227z" />
    </font>
</defs>
</svg>
