<?xml version="1.0" standalone="no"?>
<!DOCTYPE svg PUBLIC "-//W3C//DTD SVG 1.1//EN" "http://www.w3.org/Graphics/SVG/1.1/DTD/svg11.dtd" >
<svg xmlns="http://www.w3.org/2000/svg" xmlns:xlink="http://www.w3.org/1999/xlink" version="1.1">
<metadata>
Created by FontForge 20170731 at Tue Jan  5 21:45:28 2016
 By ,,,
Copyright (c) 2015 by Radomir Tinkov. All rights reserved.
</metadata>
<defs>
<font id="QanelasSoft-Medium" horiz-adv-x="523" >
  <font-face 
    font-family="Qanelas Soft Medium"
    font-weight="500"
    font-stretch="normal"
    units-per-em="1000"
    panose-1="0 0 6 0 0 0 0 0 0 0"
    ascent="800"
    descent="-200"
    x-height="500"
    cap-height="700"
    bbox="-339.789 -248 1075 965"
    underline-thickness="50"
    underline-position="-200"
    unicode-range="U+0020-FB02"
  />
<missing-glyph horiz-adv-x="500" 
d="M410 800v-1000h-317v1000h317zM333 733h-165v-33h65v-37h-66v-33h166v33h-66v37h66v33zM267 604h-100v-104h166v34h-66v70zM233 570v-36h-33v36h33zM333 473h-166v-33h66v-37h-66v-33h100v70h66v33zM333 413h-33v-66h-133v-34h166v100zM333 291h-100v-56h34v23h33v-47
h-100v80h-33v-113h166v113zM333 118h-166v-113h166v113zM300 85v-47h-100v47h100zM333 -18h-166v-33h70l-70 -47v-33h166v33h-102l70 47h32v33z" />
    <glyph glyph-name="fi" unicode="fi" horiz-adv-x="521" 
d="M433 500q21 0 21 -21v-458q0 -21 -21 -21h-44q-21 0 -21 21v395h-186v-395q0 -21 -21 -21h-44q-21 0 -21 21v395h-60q-21 0 -21 21v42q0 21 21 21h60v15q0 197 218 197q38 0 84 -8q19 -4 19 -23v-37q0 -11 -6 -16.5t-17 -3.5q-38 4 -80 4q-68 0 -100 -25t-32 -88v-15h224
h27z" />
    <glyph glyph-name="fl" unicode="fl" horiz-adv-x="521" 
d="M436 701q18 -3 18 -23v-657q0 -21 -21 -21h-44q-21 0 -21 21v611q-27 3 -54 3q-67 0 -99.5 -28t-32.5 -92v-15h83q21 0 21 -21v-42q0 -21 -21 -21h-83v-395q0 -21 -21 -21h-44q-21 0 -21 21v395h-60q-21 0 -21 21v42q0 21 21 21h60v15q0 197 218 197q56 0 122 -11z" />
    <glyph glyph-name="f_f" unicode="ff" horiz-adv-x="586" 
d="M564 640q-109 0 -109 -115v-25h110q21 0 21 -21v-42q0 -21 -21 -21h-110v-395q0 -21 -21 -21h-45q-21 0 -21 21v395h-80h-106v-395q0 -21 -21 -21h-44q-21 0 -21 21v395h-60q-21 0 -21 21v42q0 21 21 21h60v15q0 96 50.5 148t145.5 51q22 0 22 -23v-41q0 -20 -22 -20
q-110 0 -110 -115v-15h132h54v25q0 96 50.5 148t146.5 51q21 0 21 -23v-41q0 -20 -22 -20z" />
    <glyph glyph-name="f_f_i" unicode="ffi" horiz-adv-x="793" 
d="M706 500q21 0 21 -21v-458q0 -21 -21 -21h-45q-21 0 -21 21v395h-185v-395q0 -21 -21 -21h-45q-21 0 -21 21v395h-80h-106v-395q0 -21 -21 -21h-44q-21 0 -21 21v395h-60q-21 0 -21 21v42q0 21 21 21h60v15q0 96 50.5 148t145.5 51q22 0 22 -23v-41q0 -20 -22 -20
q-110 0 -110 -115v-15h132h54v25q0 197 218 197q39 0 84 -8q20 -4 20 -23v-37q0 -11 -6.5 -16.5t-17.5 -3.5q-37 4 -80 4q-67 0 -99 -25t-32 -88v-25h224h27z" />
    <glyph glyph-name="f_f_l" unicode="ffl" horiz-adv-x="793" 
d="M708 711q19 -3 19 -23v-667q0 -21 -21 -21h-45q-21 0 -21 21v621q-27 3 -54 3q-66 0 -98.5 -28t-32.5 -92v-25h83q21 0 21 -21v-42q0 -21 -21 -21h-83v-395q0 -21 -21 -21h-45q-21 0 -21 21v395h-80h-106v-395q0 -21 -21 -21h-44q-21 0 -21 21v395h-60q-21 0 -21 21v42
q0 21 21 21h60v15q0 96 50.5 148t145.5 51q22 0 22 -23v-41q0 -20 -22 -20q-110 0 -110 -115v-15h132h54v25q0 197 218 197q57 0 122 -11z" />
    <glyph glyph-name=".notdef" horiz-adv-x="500" 
d="M410 800v-1000h-317v1000h317zM333 733h-165v-33h65v-37h-66v-33h166v33h-66v37h66v33zM267 604h-100v-104h166v34h-66v70zM233 570v-36h-33v36h33zM333 473h-166v-33h66v-37h-66v-33h100v70h66v33zM333 413h-33v-66h-133v-34h166v100zM333 291h-100v-56h34v23h33v-47
h-100v80h-33v-113h166v113zM333 118h-166v-113h166v113zM300 85v-47h-100v47h100zM333 -18h-166v-33h70l-70 -47v-33h166v33h-102l70 47h32v33z" />
    <glyph glyph-name=".null" horiz-adv-x="0" 
 />
    <glyph glyph-name="nonmarkingreturn" horiz-adv-x="333" 
 />
    <glyph glyph-name="space" unicode=" " horiz-adv-x="250" 
 />
    <glyph glyph-name="exclam" unicode="!" horiz-adv-x="243" 
d="M104 205q-17 0 -18 16l-17 279v179q0 21 21 21h62q22 0 22 -21v-179l-18 -279q0 -16 -18 -16h-34zM89 0q-21 0 -21 21v65q0 22 21 22h65q21 0 21 -22v-65q0 -21 -21 -21h-65z" />
    <glyph glyph-name="quotedbl" unicode="&#x22;" horiz-adv-x="333" 
d="M80 490q-20 0 -21 20l-10 170q-2 20 19 20h47q20 0 19 -20l-10 -170q-2 -20 -21 -20h-23zM230 490q-20 0 -21 20l-10 170q-2 20 19 20h47q20 0 19 -20l-10 -170q-2 -20 -21 -20h-23z" />
    <glyph glyph-name="numbersign" unicode="#" horiz-adv-x="605" 
d="M554 478q10 0 15.5 -6.5t3.5 -17.5l-5 -30q-3 -19 -23 -19h-96l-18 -110h93q11 0 16 -6.5t4 -16.5l-5 -30q-3 -20 -23 -20h-97l-25 -153q-3 -19 -23 -19h-34q-10 0 -15.5 6.5t-3.5 16.5l25 149h-122l-26 -153q-3 -19 -22 -19h-34q-11 0 -16 6.5t-4 16.5l25 149h-93
q-11 0 -16 6.5t-3 17.5l4 30q3 19 24 19h96l18 110h-94q-10 0 -15.5 6.5t-3.5 16.5l5 30q3 20 23 20h97l26 153q3 19 22 19h34q11 0 16 -6.5t4 -16.5l-25 -149h122l25 153q3 19 23 19h34q10 0 15.5 -6.5t3.5 -16.5l-25 -149h93zM355 295l18 110h-122l-18 -110h122z" />
    <glyph glyph-name="dollar" unicode="$" horiz-adv-x="548" 
d="M513 178q0 -83 -59.5 -133t-147.5 -57v-68q0 -20 -20 -20h-23q-20 0 -20 20v70q-86 10 -143 60.5t-64 134.5q-2 22 20 22h51q19 0 22 -21q6 -44 36 -71t78 -34v238q-34 13 -57.5 23.5t-51.5 29t-44.5 38.5t-28.5 50t-12 67q0 79 56 127.5t138 56.5v69q0 20 20 20h23
q20 0 20 -20v-70q78 -9 131.5 -57t60.5 -127q2 -22 -20 -22h-50q-19 0 -21 20q-6 39 -33 63.5t-68 32.5v-233q37 -14 60.5 -24t54.5 -29t48.5 -38.5t30.5 -50t13 -67.5zM142 526q0 -39 26.5 -65.5t74.5 -48.5v209q-45 -6 -73 -30.5t-28 -64.5zM306 79q52 5 83.5 31t31.5 68
q0 41 -30 68t-85 49v-216z" />
    <glyph glyph-name="percent" unicode="%" horiz-adv-x="765" 
d="M213 402q-67 0 -112.5 45.5t-45.5 110.5q0 42 20.5 77.5t57 56t80.5 20.5q68 0 113 -44.5t45 -110t-44.5 -110.5t-113.5 -45zM122 0q-13 0 -17 7.5t3 18.5l464 660q10 14 26 14h45q13 0 17 -7.5t-4 -18.5l-464 -660q-10 -14 -26 -14h-44zM213 476q35 0 57.5 23.5
t22.5 58.5q0 34 -22.5 57.5t-57.5 23.5t-57.5 -23.5t-22.5 -58t22.5 -58t57.5 -23.5zM552.5 -12q-67.5 0 -113 45t-45.5 110t45.5 110t113 45t112.5 -45t45 -110t-45 -110t-112.5 -45zM552 62q35 0 57.5 23.5t22.5 57.5q0 23 -10 41.5t-28.5 29t-41.5 10.5
q-35 0 -57.5 -23.5t-22.5 -57.5t22.5 -57.5t57.5 -23.5z" />
    <glyph glyph-name="ampersand" unicode="&#x26;" horiz-adv-x="676" 
d="M632 26q10 -10 6.5 -18t-17.5 -8h-68q-16 0 -26 11l-37 36q-78 -60 -200 -60q-105 0 -174 57t-69 150q0 59 28.5 108t81.5 83q-50 61 -50 134q0 35 11 65.5t31 54t46.5 40t59 25t66.5 8.5q85 0 148.5 -48.5t71.5 -137.5q2 -22 -21 -22h-50q-19 0 -22 21q-7 48 -42 72.5
t-85 24.5q-52 0 -87 -28.5t-35 -78.5t65 -115l221 -225q29 54 33 133q1 21 21 21h51q21 0 21 -14q-4 -121 -61 -205zM294 75q81 0 133 36l-211 212q-76 -44 -76 -124q0 -37 19 -65t54 -43.5t81 -15.5z" />
    <glyph glyph-name="quotesingle" unicode="'" horiz-adv-x="183" 
d="M80 490q-20 0 -21 20l-10 170q-2 20 19 20h47q20 0 19 -20l-10 -170q-2 -20 -21 -20h-23z" />
    <glyph glyph-name="parenleft" unicode="(" horiz-adv-x="280" 
d="M184 -100q-17 0 -24 16q-102 211 -102 434t102 434q7 16 24 16h43q12 0 16.5 -7t-0.5 -18q-99 -209 -99 -425t99 -425q5 -11 0.5 -18t-16.5 -7h-43z" />
    <glyph glyph-name="parenright" unicode=")" horiz-adv-x="280" 
d="M95 -100h-42q-12 0 -16.5 7t0.5 18q98 209 98 425t-98 425q-5 11 -0.5 18t16.5 7h42q17 0 25 -16q102 -211 102 -434t-102 -434q-8 -16 -25 -16z" />
    <glyph glyph-name="asterisk" unicode="*" horiz-adv-x="394" 
d="M316 608q20 1 20 -18v-24q0 -20 -20 -19l-70 3l40 -57q12 -16 -5 -27l-21 -13q-18 -11 -28 7l-35 64l-35 -64q-10 -18 -28 -7l-21 13q-17 10 -5 27l40 57l-70 -3q-20 -1 -20 19v24q0 19 20 18l70 -3l-40 57q-12 16 5 27l21 13q18 11 28 -8l35 -64l35 64q10 19 28 8
l21 -12q17 -11 5 -28l-40 -57z" />
    <glyph glyph-name="plus" unicode="+" horiz-adv-x="545" 
d="M466 392q22 0 22 -22v-40q0 -22 -22 -22h-152v-152q0 -21 -21 -21h-41q-21 0 -21 21v152h-152q-21 0 -21 22v40q0 22 21 22h152v152q0 21 21 21h41q21 0 21 -21v-152h152z" />
    <glyph glyph-name="comma" unicode="," horiz-adv-x="243" 
d="M154 108q21 0 21 -22v-86q0 -53 -23.5 -87t-67.5 -43q-8 -2 -12 2t-4 12v15q0 12 12 18q20 7 30 26t10 57h-31q-21 0 -21 21v65q0 22 21 22h65z" />
    <glyph glyph-name="hyphen" unicode="-" horiz-adv-x="515" 
d="M96 264q-21 0 -21 22v41q0 21 21 21h323q21 0 21 -21v-41q0 -22 -21 -22h-323z" />
    <glyph glyph-name="period" unicode="." horiz-adv-x="243" 
d="M89 0q-21 0 -21 21v65q0 22 21 22h65q21 0 21 -22v-65q0 -21 -21 -21h-65z" />
    <glyph glyph-name="slash" unicode="/" horiz-adv-x="528" 
d="M77 -100h-19q-9 0 -12.5 5t0.5 14l386 869q6 12 18 12h19q21 0 13 -19l-387 -869q-5 -12 -18 -12z" />
    <glyph glyph-name="zero" unicode="0" horiz-adv-x="630" 
d="M315 -12q-85 0 -146.5 45.5t-92.5 127t-31 189.5t31 189.5t92.5 127t146.5 45.5q128 0 199 -98.5t71 -263.5t-71 -263.5t-199 -98.5zM315 78q85 0 131 71t46 201t-46 201t-131 71q-56 0 -96 -31.5t-60.5 -92.5t-20.5 -148q0 -130 46 -201t131 -71z" />
    <glyph glyph-name="one" unicode="1" horiz-adv-x="355" 
d="M172 694q11 6 27 6h57q22 0 22 -21v-658q0 -21 -22 -21h-50q-21 0 -21 21v581l-146 -78q-11 -6 -18 -2t-7 16v52q0 17 14 26z" />
    <glyph glyph-name="two" unicode="2" horiz-adv-x="528" 
d="M59 0q-21 0 -21 21v40q0 15 10 26l237 239q99 99 99 172q0 59 -35.5 91.5t-87.5 32.5q-53 0 -88.5 -26t-41.5 -78q-2 -22 -22 -22h-50q-22 0 -21 23q8 94 71.5 143.5t150.5 49.5q56 0 104 -23t80 -73t32 -118q0 -107 -123 -230l-180 -178h296q21 0 21 -22v-47
q0 -21 -21 -21h-410z" />
    <glyph glyph-name="three" unicode="3" horiz-adv-x="535" 
d="M315 412q52 -9 92.5 -35t65.5 -70t25 -100q0 -102 -70 -161t-170 -59q-95 0 -163.5 53t-76.5 145q-1 22 21 22h51q19 0 22 -21q6 -51 46 -80t100 -29q65 0 106 34.5t41 95.5t-41 95.5t-106 34.5h-38q-21 0 -21 21v25q0 15 9 27l150 203h-290q-21 0 -21 21v45q0 21 21 21
h378q21 0 21 -21v-46q0 -15 -9 -27z" />
    <glyph glyph-name="four" unicode="4" horiz-adv-x="575" 
d="M540 220q21 0 21 -22v-44q0 -21 -21 -21h-64v-112q0 -21 -21 -21h-51q-21 0 -21 21v112h-338q-21 0 -21 21v52q0 13 6 26l236 453q8 15 26 15h55q12 0 16 -7t-1 -19l-238 -454h259v176q0 22 21 22h51q21 0 21 -22v-176h64z" />
    <glyph glyph-name="five" unicode="5" horiz-adv-x="553" 
d="M279 427q99 0 168 -58.5t69 -161t-70 -161t-170 -58.5q-94 0 -162.5 52.5t-76.5 144.5q-1 22 21 22h51q19 0 21 -21q7 -51 47 -79.5t99 -28.5q43 0 76 14.5t52.5 44t19.5 70.5q0 61 -41 95.5t-107 34.5h-184q-22 0 -20 22l23 321q2 20 21 20h352q21 0 21 -21v-45
q0 -21 -21 -21h-286l-13 -186h110z" />
    <glyph glyph-name="six" unicode="6" horiz-adv-x="538" 
d="M269 458q106 0 173.5 -66t67.5 -169.5t-67.5 -169.5t-173.5 -66t-174 66t-68 169q0 81 43 141l216 323q9 14 25 14h58q13 0 17 -7.5t-3 -18.5l-148 -218q17 2 34 2zM269 76q66 0 107 40t41 106.5t-41 106.5t-107.5 40t-107.5 -40t-41 -107q0 -43 19 -76.5t52.5 -51.5
t77.5 -18z" />
    <glyph glyph-name="seven" unicode="7" horiz-adv-x="490" 
d="M18 679q0 21 21 21h395q21 0 21 -21v-48q0 -13 -5 -27l-244 -588q-5 -16 -24 -16h-53q-12 0 -16 6.5t0 17.5l243 588h-317q-21 0 -21 21v46z" />
    <glyph glyph-name="eight" unicode="8" horiz-adv-x="555" 
d="M408 362q51 -26 80 -70t29 -100q0 -96 -67 -150t-173 -54q-69 0 -122.5 23t-85 70t-31.5 111q0 56 29 100t80 70q-86 53 -86 153q0 64 31.5 110t79.5 66.5t105.5 20.5t105 -20.5t79.5 -66.5t32 -110q0 -100 -86 -153zM277 624q-53 0 -88.5 -28t-35.5 -84q0 -52 36 -81.5
t88 -29.5t88 29.5t36 81.5q0 56 -35.5 84t-88.5 28zM277.5 76q66.5 0 106.5 31.5t40 90t-40 90t-106.5 31.5t-107 -31.5t-40.5 -90t40.5 -90t107 -31.5z" />
    <glyph glyph-name="nine" unicode="9" horiz-adv-x="538" 
d="M510 478q0 -81 -43 -141h1l-216 -323q-9 -14 -26 -14h-58q-13 0 -17 7.5t3 17.5l148 219q-16 -2 -33 -2q-106 0 -173.5 66t-67.5 169.5t67.5 169t173.5 65.5t173.5 -65.5t67.5 -168.5zM120 477.5q0 -32.5 11 -60t30.5 -46.5t47 -29.5t60 -10.5t60.5 10.5t47.5 29.5
t30.5 46.5t11 59.5q0 67 -41.5 107t-107.5 40q-33 0 -60.5 -10.5t-47 -29.5t-30.5 -46.5t-11 -60z" />
    <glyph glyph-name="colon" unicode=":" horiz-adv-x="243" 
d="M89 392q-21 0 -21 22v65q0 21 21 21h65q21 0 21 -21v-65q0 -22 -21 -22h-65zM89 0q-21 0 -21 21v65q0 22 21 22h65q21 0 21 -22v-65q0 -21 -21 -21h-65z" />
    <glyph glyph-name="semicolon" unicode=";" horiz-adv-x="243" 
d="M154 500q21 0 21 -21v-65q0 -22 -21 -22h-65q-21 0 -21 22v65q0 21 21 21h65zM154 108q21 0 21 -22v-86q0 -53 -23.5 -87t-67.5 -43q-8 -2 -12 2t-4 12v15q0 12 12 18q20 7 30 26t10 57h-31q-21 0 -21 21v65q0 22 21 22h65z" />
    <glyph glyph-name="less" unicode="&#x3c;" 
d="M468 545v-49q0 -17 -17 -24l-297 -122l297 -122q17 -7 17 -24v-49q0 -12 -7 -17t-18 0l-372 162q-16 8 -16 26v48q0 18 16 26l372 162q11 5 18 0t7 -17z" />
    <glyph glyph-name="equal" unicode="=" horiz-adv-x="535" 
d="M76 410q-21 0 -21 21v41q0 21 21 21h383q21 0 21 -21v-41q0 -21 -21 -21h-383zM76 207q-21 0 -21 21v41q0 21 21 21h383q21 0 21 -21v-41q0 -21 -21 -21h-383z" />
    <glyph glyph-name="greater" unicode="&#x3e;" 
d="M55 545q0 12 6.5 17t18.5 0l372 -162q16 -8 16 -26v-48q0 -18 -16 -26l-372 -162q-12 -5 -18.5 0t-6.5 17v49q0 17 16 24l298 122l-298 122q-16 7 -16 24v49z" />
    <glyph glyph-name="question" unicode="?" horiz-adv-x="541" 
d="M229 205q-23 0 -20 22q4 40 24.5 74t46.5 59t51.5 48.5t42.5 52t17 59.5q0 50 -34 76t-90 26q-55 0 -92 -24.5t-43 -72.5q-3 -21 -22 -21h-51q-22 0 -21 22q8 90 73.5 138t156.5 48q89 0 152.5 -49.5t63.5 -138.5q0 -34 -12.5 -64.5t-31 -52.5t-41 -45t-42.5 -42
t-35.5 -44t-19.5 -52q-4 -19 -22 -19h-51zM221 0q-21 0 -21 21v65q0 22 21 22h65q21 0 21 -22v-65q0 -21 -21 -21h-65z" />
    <glyph glyph-name="at" unicode="@" horiz-adv-x="789" 
d="M402 612q80 0 147.5 -30t111 -79t67.5 -109.5t24 -123.5q0 -106 -44 -160t-105 -54q-45 0 -76.5 21.5t-42.5 62.5q-41 -51 -107 -51q-68 0 -112.5 46t-44.5 115t44.5 115t112.5 46q61 0 101 -44v15q0 21 21 21h35q21 0 21 -21v-200q0 -88 63 -88q28 0 50 16.5t36.5 57.5
t14.5 102q0 133 -91.5 222.5t-225.5 89.5q-139 0 -235.5 -95.5t-96.5 -236.5q0 -144 99.5 -238t250.5 -94q92 0 157 24q13 3 13 -10v-8q0 -11 -7 -12q-71 -24 -163 -24q-108 0 -195.5 46.5t-137 129.5t-49.5 186q0 74 27.5 141t75.5 115.5t116 77t145 28.5zM389 161
q37 0 63 24.5t26 64.5q0 26 -12 47t-32.5 31.5t-44.5 10.5q-39 0 -65 -24.5t-26 -64.5t26 -64.5t65 -24.5z" />
    <glyph glyph-name="A" unicode="A" horiz-adv-x="638" 
d="M621 24q4 -11 -0.5 -17.5t-16.5 -6.5h-55q-18 0 -24 17l-50 139h-312l-50 -139q-6 -17 -25 -17h-54q-12 0 -16.5 6.5t-1.5 17.5l244 659q6 17 24 17h69q18 0 25 -17zM194 244h250l-125 347z" />
    <glyph glyph-name="B" unicode="B" horiz-adv-x="685" 
d="M523 437q59 -27 94 -83t35 -127q0 -95 -63 -161t-157 -66h-317h-19q-21 0 -21 21v658q0 21 21 21h72h190q84 0 137 -51t53 -126q0 -46 -25 -86zM358 613h-191v-155h264q24 26 24 62q0 41 -26 67t-71 26zM419 87q43 0 75.5 19.5t49 51.5t16.5 72q0 61 -38 102t-102 41
h-253v-286h252z" />
    <glyph glyph-name="C" unicode="C" horiz-adv-x="761" 
d="M404 -12q-105 0 -189.5 48t-130.5 131t-46 183t46 183t130.5 131t189.5 48q55 0 106.5 -15.5t93.5 -44.5t74.5 -69.5t49.5 -88.5q2 -7 0.5 -12.5t-6 -8.5t-12.5 -3h-55q-17 0 -25 16q-29 62 -90 99t-136 37q-80 0 -143 -36t-97 -98t-34 -138q0 -117 76.5 -194.5
t197.5 -77.5q75 0 136 37t90 99q8 16 25 16h55q12 0 17 -6.5t2 -15.5q-35 -99 -124.5 -159.5t-200.5 -60.5z" />
    <glyph glyph-name="D" unicode="D" horiz-adv-x="738" 
d="M368 700q143 0 237.5 -101.5t94.5 -248.5t-94.5 -248.5t-237.5 -101.5h-258h-14q-21 0 -21 21v658q0 21 21 21h72h200zM368 88q70 0 126 34.5t86 94.5t30 133t-30 133t-86 94.5t-126 34.5h-200v-524h200z" />
    <glyph glyph-name="E" unicode="E" horiz-adv-x="518" 
d="M459 88q21 0 21 -21v-46q0 -21 -21 -21h-349h-14q-21 0 -21 21v658q0 21 21 21h72h286q21 0 21 -21v-46q0 -21 -21 -21h-286v-215h261q21 0 21 -21v-45q0 -21 -21 -21h-261v-222h291z" />
    <glyph glyph-name="F" unicode="F" horiz-adv-x="498" 
d="M454 700q21 0 21 -21v-46q0 -21 -21 -21h-286v-245h273q21 0 21 -21v-46q0 -21 -21 -21h-273v-258q0 -21 -22 -21h-50q-21 0 -21 21v658q0 21 21 21h72h286z" />
    <glyph glyph-name="G" unicode="G" horiz-adv-x="792" 
d="M710 360q22 0 22 -21v-63v-255q0 -21 -22 -21h-47q-21 0 -21 21v81q-39 -57 -103.5 -85.5t-143.5 -28.5q-101 0 -183.5 48t-128.5 131t-46 183q0 75 27.5 141.5t75 115.5t115.5 77t145 28q110 0 199 -59t125 -154q4 -11 -1 -17.5t-17 -6.5h-55q-17 0 -26 16
q-28 59 -89.5 95t-135.5 36q-119 0 -194.5 -77.5t-75.5 -194.5q0 -118 76 -196.5t194 -78.5q101 0 170 52.5t71 148.5h-205q-22 0 -22 21v42q0 21 22 21h274z" />
    <glyph glyph-name="H" unicode="H" horiz-adv-x="633" 
d="M536 700q22 0 22 -21v-658q0 -21 -22 -21h-50q-21 0 -21 21v295h-297v-295q0 -21 -22 -21h-50q-21 0 -21 21v658q0 21 21 21h50q22 0 22 -21v-275h297v275q0 21 21 21h50z" />
    <glyph glyph-name="I" unicode="I" horiz-adv-x="243" 
d="M75 679q0 21 21 21h50q22 0 22 -21v-658q0 -21 -22 -21h-50q-21 0 -21 21v658z" />
    <glyph glyph-name="J" unicode="J" horiz-adv-x="533" 
d="M242 -12q-89 0 -153 51.5t-71 151.5q-1 23 21 23h50q20 0 22 -22q4 -40 22.5 -66.5t46 -37t62.5 -10.5q60 0 96.5 30.5t36.5 92.5v478q0 21 21 21h50q22 0 22 -21v-478q0 -70 -33 -119.5t-82.5 -71.5t-110.5 -22z" />
    <glyph glyph-name="K" unicode="K" horiz-adv-x="592" 
d="M561 26q9 -10 5.5 -18t-17.5 -8h-63q-18 0 -27 12l-291 324v-315q0 -21 -22 -21h-50q-21 0 -21 21v658q0 21 21 21h50q22 0 22 -21v-296l281 305q11 12 26 12h63q14 0 18 -8t-5 -18l-286 -315z" />
    <glyph glyph-name="L" unicode="L" horiz-adv-x="485" 
d="M446 88q22 0 22 -21v-46q0 -21 -22 -21h-321h-29q-21 0 -21 21v658q0 21 21 21h50q22 0 22 -21v-591h278z" />
    <glyph glyph-name="M" unicode="M" horiz-adv-x="805" 
d="M709 700q21 0 21 -21v-658q0 -21 -21 -21h-50q-21 0 -21 21v525l-188 -412q-7 -16 -25 -16h-45q-18 0 -25 16l-187 412v-525q0 -21 -22 -21h-50q-21 0 -21 21v658q0 21 21 21h50h23q17 0 24 -16l209 -460l210 460q7 16 24 16h44h29z" />
    <glyph glyph-name="N" unicode="N" horiz-adv-x="635" 
d="M468 679q0 21 21 21h50q21 0 21 -21v-658q0 -21 -21 -21h-37q-18 0 -26 14l-308 504v-497q0 -21 -22 -21h-50q-21 0 -21 21v658q0 21 21 21h37q18 0 26 -14l309 -504v497z" />
    <glyph glyph-name="O" unicode="O" horiz-adv-x="800" 
d="M400 -12q-100 0 -183.5 48t-131 131.5t-47.5 182.5t47.5 182.5t131 131.5t183.5 48t183.5 -48t131 -131.5t47.5 -182.5t-47.5 -182.5t-131 -131.5t-183.5 -48zM400 78q115 0 192.5 78.5t77.5 193.5t-77.5 193.5t-192.5 78.5t-192.5 -78.5t-77.5 -193.5t77.5 -193.5
t192.5 -78.5z" />
    <glyph glyph-name="P" unicode="P" horiz-adv-x="583" 
d="M329 700q91 0 155 -63.5t64 -154.5q0 -58 -29.5 -108t-80 -79.5t-109.5 -29.5h-161v-244q0 -21 -22 -21h-50q-21 0 -21 21v658q0 21 21 21h72h161zM329 352q52 0 89 38t37 92q0 55 -37 93t-89 38h-161v-261h161z" />
    <glyph glyph-name="Q" unicode="Q" horiz-adv-x="805" 
d="M664 101l73 -83q13 -17 -3 -30l-34 -28q-16 -13 -29 3l-73 83q-90 -58 -198 -58q-99 0 -182 48t-131.5 131.5t-48.5 182.5t48.5 182.5t131.5 132t182 48.5t182 -48.5t131.5 -132t48.5 -182.5q0 -145 -98 -249zM400 78q75 0 138 37l-80 90q-14 17 2 30l34 28q16 13 30 -3
l79 -91q67 77 67 181q0 115 -78.5 194t-191.5 79t-191.5 -79t-78.5 -194t78.5 -193.5t191.5 -78.5z" />
    <glyph glyph-name="R" unicode="R" horiz-adv-x="630" 
d="M620 26q9 -10 5 -18t-17 -8h-62q-17 0 -27 12l-219 256h-133v-247q0 -21 -21 -21h-50q-21 0 -21 21v658q0 21 21 21h71h163q90 0 153.5 -63.5t63.5 -154.5q0 -68 -40.5 -124t-104.5 -78zM167 613v-261h163q25 0 48.5 10.5t40 28t26.5 41.5t10 50q0 55 -36.5 93t-88.5 38
h-163z" />
    <glyph glyph-name="S" unicode="S" horiz-adv-x="549" 
d="M284 -12q-101 0 -170.5 51.5t-77.5 145.5q-2 22 20 22h51q19 0 22 -21q7 -52 48 -80t107 -28q61 0 99 28.5t38 75.5q0 19 -8 36t-20 28.5t-33 23.5t-39 19.5t-45 17.5q-5 1 -14 5q-29 10 -44 16t-41 18t-40.5 22t-33 26.5t-28 34t-16.5 42t-7 52.5q0 87 64 138t153 51
t152.5 -49t71.5 -137q1 -22 -21 -22h-50q-20 0 -22 20q-4 32 -22 54.5t-46 33t-63 10.5q-54 0 -89 -26.5t-35 -72.5q0 -26 10 -45.5t32 -34.5t43 -25t55 -23q6 -2 18 -7q29 -11 44 -17t41 -18t40.5 -22t33 -26t28.5 -33t17 -40.5t7 -49.5q0 -89 -67.5 -141.5t-162.5 -52.5z
" />
    <glyph glyph-name="T" unicode="T" horiz-adv-x="500" 
d="M461 700q21 0 21 -21v-46q0 -21 -21 -21h-165v-591q0 -21 -21 -21h-50q-21 0 -21 21v591h-165q-21 0 -21 21v46q0 21 21 21h257h165z" />
    <glyph glyph-name="U" unicode="U" horiz-adv-x="620" 
d="M310 -12q-106 0 -175.5 58.5t-69.5 163.5v469q0 21 21 21h50q22 0 22 -21v-465q0 -34 10.5 -59.5t30 -42.5t48 -25.5t63.5 -8.5q72 0 112 35t40 101v465q0 21 22 21h50q21 0 21 -21v-469q0 -105 -69.5 -163.5t-175.5 -58.5z" />
    <glyph glyph-name="V" unicode="V" horiz-adv-x="616" 
d="M274 0q-18 0 -24 17l-234 659q-2 5 -1.5 9.5t3 8t6.5 5t10 1.5h54q19 0 25 -17l195 -571l195 571q6 17 25 17h54q12 0 17 -6.5t1 -17.5l-234 -659q-6 -17 -24 -17h-68z" />
    <glyph glyph-name="W" unicode="W" horiz-adv-x="870" 
d="M837 700q12 0 16.5 -6.5t1.5 -17.5l-199 -658q-5 -18 -24 -18h-75q-19 0 -23 18l-99 325l-99 -325q-4 -18 -23 -18h-75q-19 0 -24 18l-199 658q-3 11 1.5 17.5t16.5 6.5h49q19 0 24 -18l172 -576l114 378l-58 192q-3 11 2 17.5t16 6.5h45q18 0 23 -18l172 -576l172 576
q5 18 24 18h49z" />
    <glyph glyph-name="X" unicode="X" horiz-adv-x="580" 
d="M547 26q6 -11 2 -18.5t-16 -7.5h-57q-17 0 -25 14l-161 263l-161 -263q-8 -14 -25 -14h-57q-12 0 -16 7.5t2 18.5l205 335l-191 313q-7 11 -3 18.5t17 7.5h57q17 0 25 -14l147 -240l147 240q8 14 25 14h57q13 0 17 -7.5t-3 -18.5l-191 -313z" />
    <glyph glyph-name="Y" unicode="Y" horiz-adv-x="584" 
d="M546 700q13 0 17 -7.5t-3 -18.5l-222 -354v-299q0 -21 -22 -21h-50q-21 0 -21 21v301l-221 352q-7 11 -3 18.5t17 7.5h57q17 0 25 -14l172 -277l171 277q9 14 25 14h58z" />
    <glyph glyph-name="Z" unicode="Z" horiz-adv-x="525" 
d="M149 88h326q21 0 21 -21v-46q0 -21 -21 -21h-415q-21 0 -21 21v45q0 13 7 26l331 520h-308q-21 0 -21 21v46q0 21 21 21h397q22 0 22 -21v-45q0 -13 -8 -26z" />
    <glyph glyph-name="bracketleft" unicode="[" horiz-adv-x="270" 
d="M249 716h-105v-732h105q21 0 21 -21v-42q0 -21 -21 -21h-144h-26q-21 0 -21 21v858q0 21 21 21h65h105q21 0 21 -21v-42q0 -21 -21 -21z" />
    <glyph glyph-name="backslash" unicode="\" horiz-adv-x="528" 
d="M450 -100q-12 0 -18 12l-386 869q-4 9 -0.5 14t12.5 5h19q13 0 18 -12l387 -869q8 -19 -13 -19h-19z" />
    <glyph glyph-name="bracketright" unicode="]" horiz-adv-x="270" 
d="M191 800q21 0 21 -21v-858q0 -21 -21 -21h-65h-105q-21 0 -21 21v42q0 21 21 21h105v732h-105q-21 0 -21 21v42q0 21 21 21h144h26z" />
    <glyph glyph-name="asciicircum" unicode="^" horiz-adv-x="520" 
d="M465 416q7 -11 2.5 -18.5t-17.5 -7.5h-51q-17 0 -25 15l-114 197l-114 -197q-8 -15 -25 -15h-51q-13 0 -17.5 7.5t2.5 18.5l157 269q9 15 26 15h44q17 0 26 -15z" />
    <glyph glyph-name="underscore" unicode="_" horiz-adv-x="520" 
d="M59 -151q-21 0 -21 21v42q0 21 21 21h402q21 0 21 -21v-42q0 -21 -21 -21h-402z" />
    <glyph glyph-name="grave" unicode="`" horiz-adv-x="225" 
d="M179 568q11 0 14.5 6.5t-1.5 15.5l-60 98q-7 12 -22 12h-62q-11 0 -14.5 -6.5t3.5 -16.5l75 -99q8 -10 23 -10h44z" />
    <glyph glyph-name="a" unicode="a" horiz-adv-x="502" 
d="M253 512q86 0 140.5 -50.5t54.5 -139.5v-301q0 -21 -22 -21h-43q-21 0 -21 21v31q-48 -64 -149 -64q-73 0 -124 41.5t-51 117.5t51 118t124 42q97 0 149 -58v71q0 38 -15.5 63.5t-39 36t-54.5 10.5q-40 0 -69.5 -18t-36.5 -52q-6 -20 -22 -20h-44q-23 0 -21 22
q8 68 61.5 109t131.5 41zM238 60q54 0 89 25t35 62q0 40 -34.5 63.5t-89.5 23.5q-56 0 -85 -23.5t-29 -63t29 -63.5t85 -24z" />
    <glyph glyph-name="b" unicode="b" horiz-adv-x="633" 
d="M342 512q105 0 179 -76t74 -186t-74 -186t-179 -76q-124 0 -189 97v-64q0 -21 -21 -21h-44q-22 0 -22 21v658q0 21 22 21h44q21 0 21 -21v-264q65 97 189 97zM331 71q75 0 126 51.5t51 127.5t-51 127.5t-126.5 51.5t-126.5 -51.5t-51 -127.5q0 -50 23.5 -91t64 -64.5
t90.5 -23.5z" />
    <glyph glyph-name="c" unicode="c" horiz-adv-x="571" 
d="M519 168q12 0 17 -7t0 -18q-25 -70 -89.5 -112.5t-145.5 -42.5q-113 0 -188 75t-75 187t75 187t188 75q81 0 145 -42.5t90 -112.5q3 -8 2 -13t-6 -8.5t-13 -3.5h-49q-17 0 -26 16q-20 37 -58 58.5t-85 21.5q-49 0 -89.5 -23.5t-64 -64.5t-23.5 -90q0 -75 51 -126.5
t126 -51.5q47 0 85.5 21.5t57.5 58.5q9 16 26 16h49z" />
    <glyph glyph-name="d" unicode="d" horiz-adv-x="633" 
d="M545 700q21 0 21 -21v-658q0 -21 -21 -21h-44q-21 0 -21 21v64q-65 -97 -189 -97q-105 0 -179 76t-74 186t74 186t179 76q124 0 189 -97v264q0 21 21 21h44zM302 71q75 0 126.5 51.5t51.5 127.5t-51.5 127.5t-126.5 51.5t-126.5 -51.5t-51.5 -127.5q0 -50 23.5 -91
t64 -64.5t90.5 -23.5z" />
    <glyph glyph-name="e" unicode="e" horiz-adv-x="571" 
d="M296 512q110 0 178 -77t68 -187q0 -6 -1 -18q-2 -20 -22 -20h-66h-326q11 -68 57.5 -106t114.5 -38q41 0 74 16t51 43q12 14 26 14h48q12 0 17.5 -6t1.5 -16q-27 -59 -85.5 -94t-133.5 -35q-77 0 -136.5 34t-91.5 93.5t-32 134.5q0 112 71.5 187t186.5 75zM127 287h326
q-9 70 -53 107t-104 37q-68 0 -113.5 -39t-55.5 -105z" />
    <glyph glyph-name="f" unicode="f" horiz-adv-x="314" 
d="M292 630q-55 0 -82.5 -28t-27.5 -87v-15h110q22 0 22 -21v-42q0 -21 -22 -21h-110v-395q0 -21 -21 -21h-44q-21 0 -21 21v395h-60q-21 0 -21 21v42q0 21 21 21h60v15q0 96 50.5 148t145.5 51q22 0 22 -23v-41q0 -20 -22 -20z" />
    <glyph glyph-name="g" unicode="g" horiz-adv-x="633" 
d="M545 500q21 0 21 -21v-458q0 -75 -36 -129t-92 -79t-124 -25q-90 0 -160.5 47t-81.5 121q-1 23 22 23h44q18 0 23 -19q10 -37 51 -64.5t102 -27.5q80 0 123 41t43 112v70q-64 -99 -189 -99q-105 0 -179 76t-74 184.5t74 184t179 75.5q125 0 189 -98v65q0 21 22 21h43z
M302.5 75q75.5 0 126.5 51t51 126.5t-51 126.5t-127 51q-49 0 -90 -23.5t-64.5 -64t-23.5 -90.5q0 -75 51.5 -126t127 -51z" />
    <glyph glyph-name="h" unicode="h" 
d="M301 512q72 0 120 -51t48 -137v-303q0 -21 -21 -21h-45q-21 0 -21 21v300q0 52 -29 80.5t-75 28.5q-25 0 -46 -8t-39.5 -24t-29 -45.5t-10.5 -68.5v-263q0 -21 -21 -21h-44q-22 0 -22 21v658q0 21 22 21h44q21 0 21 -21v-241q49 74 148 74z" />
    <glyph glyph-name="i" unicode="i" horiz-adv-x="220" 
d="M88 590q-22 0 -22 21v68q0 21 22 21h44q21 0 21 -21v-68q0 -21 -21 -21h-44zM88 0q-22 0 -22 21v458q0 21 22 21h44q21 0 21 -21v-458q0 -21 -21 -21h-44z" />
    <glyph glyph-name="j" unicode="j" horiz-adv-x="241" 
d="M154 700q21 0 21 -21v-68q0 -21 -21 -21h-45q-21 0 -21 21v68q0 21 21 21h45zM154 500q21 0 21 -21v-509q0 -91 -43.5 -138t-127.5 -46q-22 0 -22 22v42q0 20 21 21q44 0 64.5 23.5t20.5 75.5v509q0 21 21 21h45z" />
    <glyph glyph-name="k" unicode="k" horiz-adv-x="502" 
d="M462 26q9 -10 5.5 -18t-17.5 -8h-56q-16 0 -26 12l-215 224v-215q0 -21 -21 -21h-44q-22 0 -22 21v658q0 21 22 21h44q21 0 21 -21v-401l205 210q10 12 26 12h57q14 0 17 -8t-6 -18l-212 -216z" />
    <glyph glyph-name="l" unicode="l" horiz-adv-x="220" 
d="M88 0q-22 0 -22 21v678q0 21 22 21h44q21 0 21 -21v-678q0 -21 -21 -21h-44z" />
    <glyph glyph-name="m" unicode="m" horiz-adv-x="768" 
d="M556 512q45 0 80 -19t56.5 -59.5t21.5 -96.5v-316q0 -21 -22 -21h-44q-21 0 -21 21v313q0 49 -24.5 72.5t-62.5 23.5q-42 0 -74 -29.5t-32 -96.5v-283q0 -21 -22 -21h-44q-22 0 -22 21v313q0 33 -12 55t-31 31.5t-44 9.5q-41 0 -73.5 -29.5t-32.5 -96.5v-283
q0 -21 -21 -21h-44q-22 0 -22 21v458q0 21 22 21h44q21 0 21 -21v-34q46 67 129 67q28 0 52 -8.5t44.5 -26t33.5 -43.5q50 78 144 78z" />
    <glyph glyph-name="n" unicode="n" 
d="M301 512q72 0 120 -51t48 -137v-303q0 -21 -21 -21h-45q-21 0 -21 21v300q0 52 -29 80.5t-75 28.5q-25 0 -46 -8t-39.5 -24t-29 -45.5t-10.5 -68.5v-263q0 -21 -21 -21h-44q-22 0 -22 21v458q0 21 22 21h44q21 0 21 -21v-41q49 74 148 74z" />
    <glyph glyph-name="o" unicode="o" horiz-adv-x="602" 
d="M301 -12q-110 0 -186.5 75.5t-76.5 186.5t76.5 186.5t186.5 75.5t186.5 -75.5t76.5 -186.5t-76.5 -186.5t-186.5 -75.5zM301 72q75 0 126 51t51 127t-51 127t-126 51t-126 -51t-51 -127t51 -127t126 -51z" />
    <glyph glyph-name="p" unicode="p" horiz-adv-x="633" 
d="M342 512q105 0 179 -76t74 -186t-74 -186t-179 -76q-124 0 -189 97v-264q0 -21 -21 -21h-44q-22 0 -22 21v658q0 21 22 21h44q21 0 21 -21v-64q65 97 189 97zM331 71q75 0 126 51.5t51 127.5t-51 127.5t-126.5 51.5t-126.5 -51.5t-51 -127.5q0 -50 23.5 -91t64 -64.5
t90.5 -23.5z" />
    <glyph glyph-name="q" unicode="q" horiz-adv-x="633" 
d="M545 500q21 0 21 -21v-658q0 -21 -21 -21h-44q-21 0 -21 21v264q-65 -97 -189 -97q-105 0 -179 76t-74 186t74 186t179 76q124 0 189 -97v64q0 21 21 21h44zM302 71q75 0 126.5 51.5t51.5 127.5t-51.5 127.5t-126.5 51.5t-126.5 -51.5t-51.5 -127.5q0 -50 23.5 -91
t64 -64.5t90.5 -23.5z" />
    <glyph glyph-name="r" unicode="r" horiz-adv-x="322" 
d="M283 507q21 3 21 -20v-48q0 -21 -14 -21q-59 -2 -98 -38.5t-39 -112.5v-246q0 -21 -21 -21h-44q-22 0 -22 21v458q0 21 22 21h44q21 0 21 -21v-55q42 75 130 83z" />
    <glyph glyph-name="s" unicode="s" horiz-adv-x="467" 
d="M138 364q0 -26 21.5 -43t53 -24.5t68.5 -18.5t69 -24t53 -43.5t21 -74.5q0 -67 -53.5 -107.5t-137.5 -40.5q-78 0 -130 37t-59 103q-2 22 21 22h44q16 0 22 -20q12 -62 102 -62q46 0 75 17t29 51q0 26 -21 43t-53 24.5t-69 18.5t-68.5 24t-53 43.5t-21.5 74.5
q0 66 52 107t130 41q28 0 53.5 -5.5t47 -17.5t38.5 -28.5t27.5 -39t13.5 -49.5q2 -22 -21 -22h-44q-16 0 -23 20q-6 32 -31.5 47t-60.5 15q-40 0 -67.5 -17.5t-27.5 -50.5z" />
    <glyph glyph-name="t" unicode="t" horiz-adv-x="321" 
d="M281 500q21 0 21 -21v-42q0 -21 -21 -21h-77v-395q0 -21 -21 -21h-44q-21 0 -21 21v395h-78q-21 0 -21 21v42q0 21 21 21h78v139q0 21 21 21h44q21 0 21 -21v-139h77z" />
    <glyph glyph-name="u" unicode="u" 
d="M435 500q21 0 21 -21v-458q0 -21 -21 -21h-44q-22 0 -22 21v41q-48 -74 -147 -74q-72 0 -120 51t-48 137v303q0 21 21 21h45q21 0 21 -21v-300q0 -52 28.5 -80.5t75.5 -28.5q24 0 45.5 8t39.5 24t29 45.5t11 68.5v263q0 21 21 21h44z" />
    <glyph glyph-name="v" unicode="v" horiz-adv-x="480" 
d="M446 500q12 0 16.5 -6.5t0.5 -17.5l-168 -459q-6 -17 -24 -17h-40h-22q-17 0 -24 17l-168 459q-4 11 1 17.5t16 6.5h48q18 0 24 -17l134 -384l134 384q6 17 24 17h48z" />
    <glyph glyph-name="w" unicode="w" horiz-adv-x="695" 
d="M660 500q7 0 12 -3t6 -8.5t-1 -12.5l-156 -459q-6 -17 -25 -17h-37h-15q-19 0 -25 17l-71 210l-72 -210q-6 -17 -25 -17h-31h-21q-19 0 -25 17l-156 459q-3 11 1.5 17.5t15.5 6.5h49q18 0 24 -17l120 -382l81 240l-46 135q-3 11 1.5 17.5t15.5 6.5h42q17 0 23 -17
l123 -377l119 377q6 17 24 17h49z" />
    <glyph glyph-name="x" unicode="x" horiz-adv-x="460" 
d="M426 26q7 -11 3 -18.5t-17 -7.5h-46q-17 0 -26 14l-111 172l-111 -172q-10 -14 -26 -14h-46q-13 0 -17 7.5t3 18.5l150 233l-139 215q-7 11 -3 18.5t17 7.5h46q17 0 26 -14l100 -155l100 155q9 14 25 14h46q13 0 17.5 -7.5t-3.5 -18.5l-139 -215z" />
    <glyph glyph-name="y" unicode="y" horiz-adv-x="480" 
d="M374 483q6 17 24 17h49q11 0 16 -6.5t1 -17.5l-230 -659q-6 -17 -24 -17h-49q-12 0 -16.5 6.5t-0.5 17.5l62 181l-188 471q-5 11 -0.5 17.5t16.5 6.5h48q18 0 24 -16l144 -358z" />
    <glyph glyph-name="z" unicode="z" horiz-adv-x="451" 
d="M157 83h244q21 0 21 -21v-41q0 -21 -21 -21h-342q-21 0 -21 21v22q0 14 8 27l247 347h-224q-21 0 -21 21v41q0 21 21 21h322q21 0 21 -21v-22q0 -14 -8 -27z" />
    <glyph glyph-name="braceleft" unicode="{" horiz-adv-x="353" 
d="M336 -87q0 -22 -22 -22q-83 -1 -125.5 42t-42.5 129v161q0 48 -18 66t-56 20q-22 1 -22 21v42q0 21 22 21q38 2 56 20t18 66v161q0 86 42.5 129.5t125.5 41.5q22 0 22 -21v-42q0 -21 -23 -21q-28 1 -45 -6.5t-26.5 -27t-9.5 -53.5v-161q0 -101 -71 -128q71 -27 71 -128
v-161q0 -49 19.5 -68.5t61.5 -18.5q23 0 23 -21v-41z" />
    <glyph glyph-name="bar" unicode="|" horiz-adv-x="237" 
d="M96 -200q-21 0 -21 21v878q0 21 21 21h45q21 0 21 -21v-878q0 -21 -21 -21h-45z" />
    <glyph glyph-name="braceright" unicode="}" horiz-adv-x="353" 
d="M18 -87v41q0 21 22 21q42 -1 61 18.5t19 68.5v161q0 101 72 128q-72 27 -72 128v161q0 50 -19 69.5t-61 17.5q-22 0 -22 21v42q0 21 21 21q83 2 126 -41.5t43 -129.5v-161q0 -32 9 -51t24 -26.5t41 -8.5q21 0 21 -21v-42q0 -20 -21 -21q-39 -2 -56.5 -20t-17.5 -66v-161
q0 -86 -43 -129t-126 -42q-21 0 -21 22z" />
    <glyph glyph-name="asciitilde" unicode="~" horiz-adv-x="596" 
d="M458 403q8 21 28 11l36 -18q19 -8 12 -27q-29 -78 -91.5 -95t-153.5 34q-68 37 -101 33.5t-50 -45.5q-9 -20 -28 -11l-37 17q-18 9 -12 28q29 77 92.5 94.5t152.5 -32.5q70 -39 102.5 -35t49.5 46z" />
    <glyph glyph-name="exclamdown" unicode="&#xa1;" horiz-adv-x="243" 
d="M89 500h65q21 0 21 -21v-65q0 -22 -21 -22h-65q-21 0 -21 22v65q0 21 21 21zM104 295h34q18 0 18 -16l18 -279v-179q0 -21 -22 -21h-62q-21 0 -21 21v179l17 279q1 16 18 16z" />
    <glyph glyph-name="cent" unicode="&#xa2;" horiz-adv-x="571" 
d="M519 268q12 0 17 -7t0 -18q-25 -70 -89.5 -113t-145.5 -43q-35 0 -68 9l-27 -83q-4 -13 -18 -13h-20q-17 0 -13 18l31 94q-68 31 -108.5 94.5t-40.5 143.5q0 112 75.5 187t188.5 75q23 0 45 -3l26 78q4 13 18 13h19q18 0 13 -18l-28 -86q50 -18 87 -54.5t56 -84.5
q4 -11 -1 -18t-17 -7h-49q-17 0 -25 16q-26 46 -77 67l-109 -338q20 -5 42 -5q31 0 59.5 10t49.5 28t34 42q9 16 26 16h49zM124 350q0 -50 24 -91t65 -64l107 332h-19q-49 0 -89.5 -23t-64 -64t-23.5 -90z" />
    <glyph glyph-name="sterling" unicode="&#xa3;" horiz-adv-x="585" 
d="M549 90q21 0 21 -22v-47q0 -21 -21 -21h-490q-21 0 -21 21v47q0 22 21 22h65v182h-48q-21 0 -21 21v39q0 21 21 21h48v146q0 31 6.5 58t17.5 48t26.5 39t34 30.5t39.5 21t42.5 12.5t43.5 4q39 0 75.5 -13t67 -38t49 -67.5t18.5 -94.5v-8q0 -21 -21 -21h-50q-21 0 -21 21
v8q0 61 -35 92t-83 31q-49 0 -83 -31t-34 -92v-146h195q22 0 22 -21v-39q0 -21 -22 -21h-195v-182h332z" />
    <glyph glyph-name="currency" unicode="&#xa4;" horiz-adv-x="549" 
d="M500 159q11 -12 0 -24l-11 -10q-12 -12 -23 0l-59 58q-57 -45 -133 -45q-74 0 -132 45l-59 -58q-11 -12 -23 0l-11 10q-11 12 0 24l58 58q-46 57 -46 133t46 133l-58 58q-11 12 0 24l11 10q12 12 23 0l59 -58q58 44 133 44t132 -44l59 58q12 12 23 0l11 -10q12 -12 0 -24
l-58 -58q46 -57 46 -133t-46 -133zM274 222q36 0 65 17t45.5 46t16.5 65q0 54 -36 91t-90.5 37t-91 -37t-36.5 -91t36.5 -91t90.5 -37z" />
    <glyph glyph-name="yen" unicode="&#xa5;" horiz-adv-x="584" 
d="M546 700q13 0 17 -7.5t-3 -18.5l-202 -322h134q20 0 20 -20v-25q0 -21 -20 -21h-154v-54h154q20 0 20 -21v-25q0 -20 -20 -20h-154v-145q0 -21 -22 -21h-50q-21 0 -21 21v145h-152q-21 0 -21 20v25q0 21 21 21h152v54h-152q-21 0 -21 21v25q0 20 21 20h133l-202 322
q-7 11 -3 18.5t17 7.5h57q17 0 25 -14l172 -277l171 277q9 14 25 14h58z" />
    <glyph glyph-name="brokenbar" unicode="&#xa6;" horiz-adv-x="237" 
d="M96 350q-21 0 -21 21v328q0 21 21 21h45q21 0 21 -21v-328q0 -21 -21 -21h-45zM96 -200q-21 0 -21 21v328q0 21 21 21h45q21 0 21 -21v-328q0 -21 -21 -21h-45z" />
    <glyph glyph-name="section" unicode="&#xa7;" horiz-adv-x="522" 
d="M474 269q0 -77 -65 -127q42 -43 42 -103q0 -68 -51.5 -109.5t-135.5 -41.5q-80 0 -133 39t-60 111q-2 22 20 22h44q19 0 22 -20q12 -72 107 -72q30 0 52 7.5t35 23.5t13 40q0 10 -4 20t-9.5 18t-16.5 16.5t-20.5 14.5t-25 14t-26.5 13t-29.5 13.5t-29.5 13.5
q-27 12 -46.5 23t-41.5 27t-35.5 32.5t-23 40t-9.5 49.5q0 78 70 127q-39 42 -39 102q0 67 51 108t128 41q74 0 125 -39t58 -111q2 -22 -21 -22h-44q-18 0 -22 21q-6 37 -32.5 54t-63.5 17q-39 0 -65.5 -17.5t-26.5 -51.5q0 -9 2.5 -17t6 -14.5t10.5 -13.5t12.5 -12
t16.5 -12t17.5 -10.5t20.5 -10.5t20.5 -10t22.5 -10.5t23 -10.5q35 -17 58 -30.5t48.5 -34.5t38 -48t12.5 -60zM135 337q0 -34 26.5 -57t77.5 -46q96 -42 107 -48q41 32 41 78q0 18 -8 34t-24.5 28.5t-33.5 22t-43 20.5q-82 36 -100 46q-43 -31 -43 -78z" />
    <glyph glyph-name="dieresis" unicode="&#xa8;" horiz-adv-x="328" 
d="M38 574q-18 0 -18 18v56q0 18 18 18h56q18 0 18 -18v-56q0 -18 -18 -18h-56zM234 574q-19 0 -19 18v56q0 18 19 18h55q19 0 19 -18v-56q0 -18 -19 -18h-55z" />
    <glyph glyph-name="copyright" unicode="&#xa9;" horiz-adv-x="799" 
d="M399.5 -12q-98.5 0 -182 48.5t-131.5 132t-48 181.5t48 181.5t131.5 132t182 48.5t182 -48.5t132 -132t48.5 -181.5t-48.5 -181.5t-132 -132t-182 -48.5zM399.5 18q136.5 0 233 97t96.5 235t-96.5 235t-233 97t-233 -97t-96.5 -235t96.5 -235t233 -97zM402 157
q-81 0 -138 56.5t-57 136.5t57 136.5t139 56.5q61 0 110 -33.5t69 -89.5q3 -10 -2 -17t-17 -7h-42q-16 0 -25 17q-8 16 -23 28t-33 18t-38 6q-51 0 -83 -34t-32 -81t32 -81t83 -34q15 0 29 3.5t26.5 10t22.5 16.5t16 22q9 17 25 17h42q12 0 17 -6.5t2 -17.5q-20 -55 -69 -89
t-111 -34z" />
    <glyph glyph-name="ordfeminine" unicode="&#xaa;" horiz-adv-x="278" 
d="M139 712q30 0 53 -11t35.5 -32.5t12.5 -50.5v-149q0 -13 -13 -13h-29q-13 0 -13 13v11q-25 -30 -73 -30q-35 0 -59.5 22t-24.5 58.5t24.5 58t59.5 21.5q46 0 73 -27v34q0 20 -12 31t-34 11q-36 0 -43 -21q-6 -11 -15 -11h-30q-14 0 -12 13q5 34 32 53t68 19zM128 495
q21 0 39 9t18 26q0 18 -18 26.5t-39 8.5t-33 -9.5t-12 -25.5t12 -25.5t33 -9.5z" />
    <glyph glyph-name="guillemotleft" unicode="&#xab;" horiz-adv-x="510" 
d="M242 492q13 0 17 -7.5t-3 -18.5l-94 -157l94 -157q7 -11 3 -18.5t-17 -7.5h-48q-17 0 -25 14l-93 154q-9 15 0 30l93 154q8 14 25 14h48zM412 492q13 0 17 -7.5t-3 -18.5l-94 -157l94 -157q7 -11 3 -18.5t-17 -7.5h-48q-17 0 -25 14l-93 154q-9 15 0 30l93 154
q8 14 25 14h48z" />
    <glyph glyph-name="logicalnot" unicode="&#xac;" horiz-adv-x="530" 
d="M454 392q21 0 21 -22v-62v-95q0 -21 -21 -21h-45q-21 0 -21 21v95h-312q-21 0 -21 22v40q0 22 21 22h378z" />
    <glyph glyph-name="registered" unicode="&#xae;" horiz-adv-x="799" 
d="M399.5 712q98.5 0 182 -48.5t132 -132t48.5 -181.5t-48.5 -181.5t-132 -132t-182 -48.5t-182 48.5t-131.5 132t-48 181.5t48 181.5t131.5 132t182 48.5zM399.5 18q136.5 0 233 97t96.5 235t-96.5 235t-233 97t-233 -97t-96.5 -235t96.5 -235t233 -97zM484 302l84 -111
q8 -11 4 -18.5t-17 -7.5h-38q-16 0 -26 13l-82 109h-51v-101q0 -21 -22 -21h-34q-21 0 -21 21v328q0 21 21 21h56h52q64 0 102 -35t38 -86q0 -81 -66 -112zM358 462v-105h48q21 0 36 6.5t23 18.5t8 28q0 25 -17.5 38.5t-49.5 13.5h-48z" />
    <glyph glyph-name="macron" unicode="&#xaf;" horiz-adv-x="310" 
d="M38 575q-18 0 -18 18v37q0 18 18 18h234q18 0 18 -18v-37q0 -18 -18 -18h-234z" />
    <glyph glyph-name="degree" unicode="&#xb0;" horiz-adv-x="391" 
d="M196 500q-68 0 -113 45t-45 110t45 110t112.5 45t113 -45t45.5 -110t-45 -110t-113 -45zM196 575q13 0 25.5 4t22 11.5t16.5 17t10.5 22t3.5 25.5q0 34 -22 57t-56.5 23t-57 -23t-22.5 -57t22.5 -57t57.5 -23z" />
    <glyph glyph-name="plusminus" unicode="&#xb1;" horiz-adv-x="545" 
d="M466 465q22 0 22 -21v-40q0 -22 -22 -22h-152v-136q0 -21 -21 -21h-41q-21 0 -21 21v136h-152q-21 0 -21 22v40q0 21 21 21h152v136q0 21 21 21h41q21 0 21 -21v-136h152zM466 160q22 0 22 -21v-40q0 -21 -22 -21h-387q-21 0 -21 21v40q0 21 21 21h387z" />
    <glyph glyph-name="acute" unicode="&#xb4;" horiz-adv-x="225" 
d="M34 592q-6 -11 -2 -17.5t15 -6.5h42q15 0 24 11l74 97q7 10 3.5 17t-15.5 7h-59q-16 0 -24 -13z" />
    <glyph glyph-name="uni00B5" unicode="&#xb5;" horiz-adv-x="570" 
d="M521 83q21 0 21 -21v-41q0 -21 -21 -21h-30q-73 0 -99 60q-48 -72 -146 -72q-54 0 -93 28v-195q0 -21 -21 -21h-44q-22 0 -22 21v658q0 21 22 21h44q21 0 21 -21v-300q0 -52 29 -80.5t75 -28.5q53 0 89 35.5t36 110.5v263q0 21 21 21h45q21 0 21 -21v-361q0 -21 12 -28
t40 -7z" />
    <glyph glyph-name="paragraph" unicode="&#xb6;" horiz-adv-x="610" 
d="M546 700q22 0 22 -21v-37q0 -21 -22 -21h-39v-800q0 -21 -21 -21h-41q-21 0 -21 21v800h-101v-800q0 -21 -21 -21h-41q-21 0 -21 21v469q-85 0 -145 60t-60 145t60 145t145 60h83h184h39z" />
    <glyph glyph-name="periodcentered" unicode="&#xb7;" horiz-adv-x="243" 
d="M89 295q-21 0 -21 21v65q0 21 21 21h65q21 0 21 -21v-65q0 -21 -21 -21h-65z" />
    <glyph glyph-name="cedilla" unicode="&#xb8;" horiz-adv-x="250" 
d="M144 -45q39 -7 62.5 -28t23.5 -52q0 -99 -190 -92q-20 1 -20 19v29q0 19 20 19q114 -7 114 31q0 28 -65 35q-18 1 -18 19v65h73v-45z" />
    <glyph glyph-name="ordmasculine" unicode="&#xba;" horiz-adv-x="319" 
d="M160 450q-56 0 -94 38t-38 93.5t38 93t94 37.5q36 0 66.5 -17t47.5 -47t17 -66.5t-17 -66.5t-47.5 -47.5t-66.5 -17.5zM160 504q22 0 39 9.5t26.5 27t9.5 40.5q0 35 -21 56t-54 21q-34 0 -55 -21t-21 -55.5t21 -56t55 -21.5z" />
    <glyph glyph-name="guillemotright" unicode="&#xbb;" horiz-adv-x="510" 
d="M97 492h48q17 0 25 -14l94 -154q9 -15 0 -30l-94 -154q-8 -14 -25 -14h-48q-12 0 -16 7.5t2 18.5l95 157l-95 157q-6 11 -2 18.5t16 7.5zM267 492h48q17 0 25 -14l94 -154q9 -15 0 -30l-94 -154q-8 -14 -25 -14h-48q-12 0 -16 7.5t2 18.5l95 157l-95 157q-6 11 -2 18.5
t16 7.5z" />
    <glyph glyph-name="onequarter" unicode="&#xbc;" horiz-adv-x="819" 
d="M178 300h-38q-20 0 -20 19v299l-80 -43q-10 -5 -16 -1t-6 15v39q0 16 13 24l79 42q9 6 23 6h45q20 0 20 -19v-362q0 -19 -20 -19zM564 700q13 0 17 -7.5t-2 -18.5l-377 -659q-7 -15 -25 -15h-24q-12 0 -16.5 7.5t1.5 18.5l377 659q8 15 26 15h23zM781 142q19 0 19 -18
v-34q0 -18 -19 -18h-29v-53q0 -19 -18 -19h-38q-19 0 -19 19v53h-181q-18 0 -18 18v40q0 13 5 24l129 232q7 14 23 14h42q11 0 15 -6.5t-2 -15.5l-128 -236h115v69q0 19 19 19h38q18 0 18 -19v-69h29z" />
    <glyph glyph-name="onehalf" unicode="&#xbd;" horiz-adv-x="809" 
d="M110 694q9 6 23 6h45q20 0 20 -19v-362q0 -19 -20 -19h-38q-20 0 -20 19v299l-80 -43q-10 -5 -16 -1t-6 15v39q0 16 13 24zM153 0q-12 0 -16.5 7.5t1.5 18.5l377 659q8 15 26 15h23q13 0 17 -7.5t-2 -18.5l-377 -659q-7 -15 -25 -15h-24zM513 0q-19 0 -19 19v25
q0 13 10 23l152 143q40 36 40 77q0 24 -16.5 38.5t-44.5 14.5q-53 0 -63 -42q-6 -17 -20 -17h-40q-21 0 -18 20q6 52 44.5 81.5t96.5 29.5q61 0 99.5 -34.5t38.5 -89.5q0 -66 -64 -125l-101 -91h153q19 0 19 -18v-35q0 -19 -19 -19h-248z" />
    <glyph glyph-name="threequarters" unicode="&#xbe;" horiz-adv-x="916" 
d="M319 418q0 -60 -40.5 -95t-108.5 -35q-41 0 -73 13t-51 38t-23 59q-3 20 18 20h40q13 0 21 -17q9 -42 68 -42q23 0 39.5 7.5t24.5 20.5t8 31q0 27 -19 43.5t-53 16.5h-24q-19 0 -19 18v20q0 13 9 24l73 88h-152q-19 0 -19 18v35q0 19 19 19h226q19 0 19 -19v-34
q0 -12 -9 -23l-74 -90q47 -10 73.5 -40.5t26.5 -75.5zM661 700q13 0 17 -7.5t-2 -18.5l-377 -659q-8 -15 -25 -15h-24q-13 0 -17 7.5t2 18.5l377 659q8 15 26 15h23zM878 142q19 0 19 -18v-34q0 -18 -19 -18h-29v-53q0 -19 -19 -19h-37q-19 0 -19 19v53h-181q-19 0 -19 18
v40q0 13 6 24l129 232q7 14 23 14h42q11 0 14.5 -6.5t-1.5 -15.5l-128 -236h115v69q0 19 19 19h37q19 0 19 -19v-69h29z" />
    <glyph glyph-name="questiondown" unicode="&#xbf;" horiz-adv-x="539" 
d="M318 500q21 0 21 -21v-65q0 -22 -21 -22h-65q-21 0 -21 22v65q0 21 21 21h65zM310 295q23 0 20 -22q-4 -34 -19 -64t-35 -50.5t-43 -43t-42 -41t-31 -43.5t-12 -51q0 -50 34 -76t90 -26q55 0 92 24.5t43 72.5q3 21 22 21h51q22 0 20 -22q-7 -90 -72.5 -138t-157.5 -48
q-57 0 -104.5 20.5t-79 64t-31.5 103.5q0 34 12 64.5t31 52.5t41 45t42 42t36 44t20 52q4 19 22 19h51z" />
    <glyph glyph-name="Agrave" unicode="&#xc0;" horiz-adv-x="638" 
d="M279 778l-76 99q-7 10 -3.5 16.5t14.5 6.5h63q15 0 21 -12l60 -98q6 -9 2 -15.5t-14 -6.5h-44q-15 0 -23 10zM621 24q4 -11 -0.5 -17.5t-16.5 -6.5h-55q-18 0 -24 17l-50 139h-312l-50 -139q-6 -17 -25 -17h-54q-12 0 -16.5 6.5t-1.5 17.5l244 659q6 17 24 17h69
q18 0 25 -17zM194 244h250l-125 347z" />
    <glyph glyph-name="Aacute" unicode="&#xc1;" horiz-adv-x="638" 
d="M286 768q-11 0 -15 6.5t2 17.5l58 95q7 13 23 13h60q12 0 15.5 -7t-3.5 -17l-74 -97q-9 -11 -24 -11h-42zM621 24q4 -11 -0.5 -17.5t-16.5 -6.5h-55q-18 0 -24 17l-50 139h-312l-50 -139q-6 -17 -25 -17h-54q-12 0 -16.5 6.5t-1.5 17.5l244 659q6 17 24 17h69
q18 0 25 -17zM194 244h250l-125 347z" />
    <glyph glyph-name="Acircumflex" unicode="&#xc2;" horiz-adv-x="638" 
d="M192 765q-11 0 -14 6.5t4 16.5l79 101q8 11 22 11h47h22q14 0 22 -11l80 -101q6 -10 3 -16.5t-14 -6.5h-50q-14 0 -22 11l-53 70l-54 -70q-8 -11 -22 -11h-50zM621 24q4 -11 -0.5 -17.5t-16.5 -6.5h-55q-18 0 -24 17l-50 139h-312l-50 -139q-6 -17 -25 -17h-54
q-12 0 -16.5 6.5t-1.5 17.5l244 659q6 17 24 17h69q18 0 25 -17zM194 244h250l-125 347z" />
    <glyph glyph-name="Atilde" unicode="&#xc3;" horiz-adv-x="638" 
d="M187 773q-19 0 -17 20q3 56 27 83t57 24.5t70 -28.5q14 -11 23 -17t18.5 -9.5t14.5 -1.5t9 10t5 22q2 19 19 19h37q19 0 18 -19q-4 -57 -27.5 -84t-56.5 -24t-70 28q-17 14 -28 20.5t-21 8t-15 -6.5t-7 -26q-2 -19 -19 -19h-37zM621 24q4 -11 -0.5 -17.5t-16.5 -6.5h-55
q-18 0 -24 17l-50 139h-312l-50 -139q-6 -17 -25 -17h-54q-12 0 -16.5 6.5t-1.5 17.5l244 659q6 17 24 17h69q18 0 25 -17zM194 244h250l-125 347z" />
    <glyph glyph-name="Adieresis" unicode="&#xc4;" horiz-adv-x="638" 
d="M194 774q-19 0 -19 18v56q0 18 19 18h55q19 0 19 -18v-56q0 -18 -19 -18h-55zM388 774q-18 0 -18 18v56q0 18 18 18h56q18 0 18 -18v-56q0 -18 -18 -18h-56zM621 24q4 -11 -0.5 -17.5t-16.5 -6.5h-55q-18 0 -24 17l-50 139h-312l-50 -139q-6 -17 -25 -17h-54
q-12 0 -16.5 6.5t-1.5 17.5l244 659q6 17 24 17h69q18 0 25 -17zM194 244h250l-125 347z" />
    <glyph glyph-name="Aring" unicode="&#xc5;" horiz-adv-x="638" 
d="M319 746q-50 0 -81.5 30.5t-31.5 76t31.5 76t81.5 30.5q33 0 59 -14t40 -38t14 -55q0 -46 -31.5 -76t-81.5 -30zM319 898q-22 0 -34.5 -13t-12.5 -32.5t12.5 -32.5t34.5 -13q23 0 35.5 12.5t12.5 33t-12.5 33t-35.5 12.5zM621 24q4 -11 -0.5 -17.5t-16.5 -6.5h-55
q-18 0 -24 17l-50 139h-312l-50 -139q-6 -17 -25 -17h-54q-12 0 -16.5 6.5t-1.5 17.5l244 659q6 17 24 17h69q18 0 25 -17zM194 244h250l-125 347z" />
    <glyph glyph-name="AE" unicode="&#xc6;" horiz-adv-x="880" 
d="M821 88q21 0 21 -21v-46q0 -21 -21 -21h-329h-21q-21 0 -21 21v135h-251l-85 -142q-8 -14 -26 -14h-58q-13 0 -17 7t3 19l400 660q8 14 25 14h44h56h275q22 0 22 -21v-46q0 -21 -22 -21h-275v-215h258q21 0 21 -21v-45q0 -21 -21 -21h-258v-222h280zM252 244h198v328z
" />
    <glyph glyph-name="Ccedilla" unicode="&#xc7;" horiz-adv-x="761" 
d="M710 230q8 0 13 -3t6.5 -8t-0.5 -11q-21 -60 -63.5 -107t-100.5 -76t-124 -36v-34q38 -7 61.5 -28t23.5 -52q0 -99 -190 -92q-20 1 -20 20v28q0 19 21 19q113 -7 113 31q0 28 -64 35q-19 1 -19 19v54q-145 13 -237 115.5t-92 245.5q0 100 46 183t130.5 131t189.5 48
q55 0 106.5 -15.5t93.5 -44.5t74.5 -69.5t49.5 -88.5q2 -7 0.5 -12.5t-6 -8.5t-12.5 -3h-55q-17 0 -25 16q-29 62 -90 99t-136 37q-80 0 -143 -36t-97 -98t-34 -138q0 -117 76.5 -194.5t197.5 -77.5q75 0 136 37t90 99q8 16 25 16h55z" />
    <glyph glyph-name="Egrave" unicode="&#xc8;" horiz-adv-x="518" 
d="M236 778l-76 99q-7 10 -3.5 16.5t14.5 6.5h63q14 0 21 -12l60 -98q5 -9 1.5 -15.5t-14.5 -6.5h-44q-15 0 -22 10zM459 88q21 0 21 -21v-46q0 -21 -21 -21h-349h-14q-21 0 -21 21v658q0 21 21 21h72h286q21 0 21 -21v-46q0 -21 -21 -21h-286v-215h261q21 0 21 -21v-45
q0 -21 -21 -21h-261v-222h291z" />
    <glyph glyph-name="Eacute" unicode="&#xc9;" horiz-adv-x="518" 
d="M243 768q-12 0 -15.5 6.5t2.5 17.5l58 95q7 13 23 13h59q13 0 16.5 -7t-4.5 -17l-74 -97q-8 -11 -24 -11h-41zM459 88q21 0 21 -21v-46q0 -21 -21 -21h-349h-14q-21 0 -21 21v658q0 21 21 21h72h286q21 0 21 -21v-46q0 -21 -21 -21h-286v-215h261q21 0 21 -21v-45
q0 -21 -21 -21h-261v-222h291z" />
    <glyph glyph-name="Ecircumflex" unicode="&#xca;" horiz-adv-x="518" 
d="M149 765q-11 0 -14.5 6.5t3.5 16.5l80 101q8 11 22 11h47h21q15 0 23 -11l79 -101q7 -10 4 -16.5t-14 -6.5h-50q-14 0 -22 11l-54 70l-53 -70q-8 -11 -23 -11h-49zM459 88q21 0 21 -21v-46q0 -21 -21 -21h-349h-14q-21 0 -21 21v658q0 21 21 21h72h286q21 0 21 -21v-46
q0 -21 -21 -21h-286v-215h261q21 0 21 -21v-45q0 -21 -21 -21h-261v-222h291z" />
    <glyph glyph-name="Edieresis" unicode="&#xcb;" horiz-adv-x="518" 
d="M150 774q-18 0 -18 18v56q0 18 18 18h56q18 0 18 -18v-56q0 -18 -18 -18h-56zM345 774q-18 0 -18 18v56q0 18 18 18h56q18 0 18 -18v-56q0 -18 -18 -18h-56zM459 88q21 0 21 -21v-46q0 -21 -21 -21h-349h-14q-21 0 -21 21v658q0 21 21 21h72h286q21 0 21 -21v-46
q0 -21 -21 -21h-286v-215h261q21 0 21 -21v-45q0 -21 -21 -21h-261v-222h291z" />
    <glyph glyph-name="Igrave" unicode="&#xcc;" horiz-adv-x="243" 
d="M148 768q11 0 14.5 6.5t-2.5 15.5l-59 98q-7 12 -22 12h-62q-12 0 -15 -6.5t4 -16.5l75 -99q8 -10 23 -10h44zM75 679q0 21 21 21h50q22 0 22 -21v-658q0 -21 -22 -21h-50q-21 0 -21 21v658z" />
    <glyph glyph-name="Iacute" unicode="&#xcd;" horiz-adv-x="243" 
d="M75 792q-6 -11 -2 -17.5t15 -6.5h42q16 0 24 11l74 97q8 10 4 17t-16 7h-59q-16 0 -23 -13zM75 679q0 21 21 21h50q22 0 22 -21v-658q0 -21 -22 -21h-50q-21 0 -21 21v658z" />
    <glyph glyph-name="Icircumflex" unicode="&#xce;" horiz-adv-x="243" 
d="M256 788q7 -10 4 -16.5t-15 -6.5h-49q-15 0 -23 11l-53 70l-53 -70q-8 -11 -23 -11h-49q-12 0 -15 6.5t4 16.5l79 101q8 11 23 11h47h21q15 0 23 -11zM146 700q22 0 22 -21v-658q0 -21 -22 -21h-50q-21 0 -21 21v658q0 21 21 21h50z" />
    <glyph glyph-name="Idieresis" unicode="&#xcf;" horiz-adv-x="243" 
d="M-4 774q-18 0 -18 18v56q0 18 18 18h56q18 0 18 -18v-56q0 -18 -18 -18h-56zM191 774q-19 0 -19 18v56q0 18 19 18h55q19 0 19 -18v-56q0 -18 -19 -18h-55zM75 679q0 21 21 21h50q22 0 22 -21v-658q0 -21 -22 -21h-50q-21 0 -21 21v658z" />
    <glyph glyph-name="Eth" unicode="&#xd0;" horiz-adv-x="763" 
d="M392 700q144 0 238.5 -101.5t94.5 -248.5t-94.5 -248.5t-238.5 -101.5h-257h-14q-21 0 -21 21v285h-51q-21 0 -21 21v41q0 22 21 22h51v289q0 21 21 21h71h200zM392 88q71 0 127 34.5t86.5 94.5t30.5 133t-30.5 133t-86.5 94.5t-127 34.5h-200v-222h179q21 0 21 -22v-41
q0 -21 -21 -21h-179v-218h200z" />
    <glyph glyph-name="Ntilde" unicode="&#xd1;" horiz-adv-x="635" 
d="M186 773q-19 0 -18 20q4 56 28 83t57 24.5t69 -28.5q15 -11 24 -17t18 -9.5t14.5 -1.5t9.5 10t5 22q2 19 19 19h37q19 0 17 -19q-3 -57 -27 -84t-56.5 -24t-69.5 28q-18 14 -29 20.5t-20.5 8t-15 -6.5t-6.5 -26q-2 -19 -19 -19h-37zM468 679q0 21 21 21h50q21 0 21 -21
v-658q0 -21 -21 -21h-37q-18 0 -26 14l-308 504v-497q0 -21 -22 -21h-50q-21 0 -21 21v658q0 21 21 21h37q18 0 26 -14l309 -504v497z" />
    <glyph glyph-name="Ograve" unicode="&#xd2;" horiz-adv-x="800" 
d="M427 770q11 0 14.5 6.5t-2.5 15.5l-59 98q-7 12 -22 12h-62q-12 0 -15.5 -6.5t3.5 -15.5l76 -99q8 -11 23 -11h44zM400 -12q-100 0 -183.5 48t-131 131.5t-47.5 182.5t47.5 182.5t131 131.5t183.5 48t183.5 -48t131 -131.5t47.5 -182.5t-47.5 -182.5t-131 -131.5
t-183.5 -48zM400 78q115 0 192.5 78.5t77.5 193.5t-77.5 193.5t-192.5 78.5t-192.5 -78.5t-77.5 -193.5t77.5 -193.5t192.5 -78.5z" />
    <glyph glyph-name="Oacute" unicode="&#xd3;" horiz-adv-x="800" 
d="M354 794q-6 -10 -2 -17t15 -7h42q15 0 24 12l74 96q7 10 3.5 17t-15.5 7h-59q-16 0 -24 -13zM400 -12q-100 0 -183.5 48t-131 131.5t-47.5 182.5t47.5 182.5t131 131.5t183.5 48t183.5 -48t131 -131.5t47.5 -182.5t-47.5 -182.5t-131 -131.5t-183.5 -48zM400 78
q115 0 192.5 78.5t77.5 193.5t-77.5 193.5t-192.5 78.5t-192.5 -78.5t-77.5 -193.5t77.5 -193.5t192.5 -78.5z" />
    <glyph glyph-name="Ocircumflex" unicode="&#xd4;" horiz-adv-x="800" 
d="M274 768q-12 0 -15 6.5t4 15.5l79 102q8 10 22 10h48h21q14 0 23 -10l79 -102q7 -9 3.5 -15.5t-14.5 -6.5h-50q-14 0 -22 11l-53 70l-53 -70q-9 -11 -23 -11h-49zM400 712q100 0 183.5 -48t131 -131.5t47.5 -182.5t-47.5 -182.5t-131 -131.5t-183.5 -48t-183.5 48
t-131 131.5t-47.5 182.5t47.5 182.5t131 131.5t183.5 48zM400 78q115 0 192.5 78.5t77.5 193.5t-77.5 193.5t-192.5 78.5t-192.5 -78.5t-77.5 -193.5t77.5 -193.5t192.5 -78.5z" />
    <glyph glyph-name="Otilde" unicode="&#xd5;" horiz-adv-x="800" 
d="M268 776q-19 0 -17 19q3 56 27 83t57 24.5t70 -28.5q18 -13 28.5 -19.5t20.5 -8t15 6.5t6 25q2 20 19 20h37q19 0 18 -20q-4 -56 -27.5 -83t-56.5 -24.5t-69 28.5q-18 13 -29 19.5t-21 8t-15 -6t-7 -25.5q-1 -19 -19 -19h-37zM400 -12q-100 0 -183.5 48t-131 131.5
t-47.5 182.5t47.5 182.5t131 131.5t183.5 48t183.5 -48t131 -131.5t47.5 -182.5t-47.5 -182.5t-131 -131.5t-183.5 -48zM400 78q115 0 192.5 78.5t77.5 193.5t-77.5 193.5t-192.5 78.5t-192.5 -78.5t-77.5 -193.5t77.5 -193.5t192.5 -78.5z" />
    <glyph glyph-name="Odieresis" unicode="&#xd6;" horiz-adv-x="800" 
d="M275 776q-19 0 -19 19v55q0 19 19 19h55q19 0 19 -19v-55q0 -19 -19 -19h-55zM470 776q-19 0 -19 19v55q0 19 19 19h55q19 0 19 -19v-55q0 -19 -19 -19h-55zM400 -12q-100 0 -183.5 48t-131 131.5t-47.5 182.5t47.5 182.5t131 131.5t183.5 48t183.5 -48t131 -131.5
t47.5 -182.5t-47.5 -182.5t-131 -131.5t-183.5 -48zM400 78q115 0 192.5 78.5t77.5 193.5t-77.5 193.5t-192.5 78.5t-192.5 -78.5t-77.5 -193.5t77.5 -193.5t192.5 -78.5z" />
    <glyph glyph-name="multiply" unicode="&#xd7;" horiz-adv-x="485" 
d="M300 350l120 -120q14 -15 -1 -30l-28 -27q-15 -14 -30 1l-119 119l-118 -119q-16 -15 -30 -1l-28 27q-16 15 -1 30l120 120l-120 120q-15 15 1 30l28 27q14 14 30 -1l118 -119l119 119q15 15 30 1l28 -27q15 -15 1 -30z" />
    <glyph glyph-name="Oslash" unicode="&#xd8;" horiz-adv-x="809" 
d="M666 607q33 -33 56.5 -73t36 -87t12.5 -97q0 -99 -47.5 -182.5t-131 -132t-183.5 -48.5q-117 0 -210 66l-34 -41q-10 -12 -27 -12h-30q-13 0 -16.5 8t4.5 19l56 66q-50 50 -78 116t-28 141q0 99 48 182.5t131.5 132t183.5 48.5q116 0 209 -66l35 41q10 12 26 12h30
q14 0 17.5 -8t-5.5 -18zM139 350q0 -110 71 -188l350 416q-67 44 -151 44q-115 0 -192.5 -78.5t-77.5 -193.5zM409 78q114 0 192 78.5t78 193.5q0 110 -72 188l-349 -416q67 -44 151 -44z" />
    <glyph glyph-name="Ugrave" unicode="&#xd9;" horiz-adv-x="620" 
d="M337 768q11 0 14.5 6.5t-2.5 15.5l-59 98q-7 12 -22 12h-62q-12 0 -15.5 -6.5t3.5 -16.5l76 -99q8 -10 23 -10h44zM310 -12q-106 0 -175.5 58.5t-69.5 163.5v469q0 21 21 21h50q22 0 22 -21v-465q0 -34 10.5 -59.5t30 -42.5t48 -25.5t63.5 -8.5q72 0 112 35t40 101v465
q0 21 22 21h50q21 0 21 -21v-469q0 -105 -69.5 -163.5t-175.5 -58.5z" />
    <glyph glyph-name="Uacute" unicode="&#xda;" horiz-adv-x="620" 
d="M264 792q-6 -11 -2 -17.5t15 -6.5h42q15 0 24 11l74 97q7 10 3.5 17t-15.5 7h-59q-16 0 -24 -13zM310 -12q-106 0 -175.5 58.5t-69.5 163.5v469q0 21 21 21h50q22 0 22 -21v-465q0 -34 10.5 -59.5t30 -42.5t48 -25.5t63.5 -8.5q72 0 112 35t40 101v465q0 21 22 21h50
q21 0 21 -21v-469q0 -105 -69.5 -163.5t-175.5 -58.5z" />
    <glyph glyph-name="Ucircumflex" unicode="&#xdb;" horiz-adv-x="620" 
d="M184 765q-12 0 -15 6.5t4 16.5l79 101q8 11 22 11h48h21q14 0 23 -11l79 -101q7 -10 3.5 -16.5t-14.5 -6.5h-50q-14 0 -22 11l-53 70l-53 -70q-9 -11 -23 -11h-49zM534 700q21 0 21 -21v-469q0 -105 -69.5 -163.5t-175.5 -58.5t-175.5 58.5t-69.5 163.5v469q0 21 21 21
h50q22 0 22 -21v-465q0 -34 10.5 -59.5t30 -42.5t48 -25.5t63.5 -8.5q72 0 112 35t40 101v465q0 21 22 21h50z" />
    <glyph glyph-name="Udieresis" unicode="&#xdc;" horiz-adv-x="620" 
d="M185 774q-19 0 -19 18v56q0 18 19 18h55q19 0 19 -18v-56q0 -18 -19 -18h-55zM380 774q-19 0 -19 18v56q0 18 19 18h55q19 0 19 -18v-56q0 -18 -19 -18h-55zM310 -12q-106 0 -175.5 58.5t-69.5 163.5v469q0 21 21 21h50q22 0 22 -21v-465q0 -34 10.5 -59.5t30 -42.5
t48 -25.5t63.5 -8.5q72 0 112 35t40 101v465q0 21 22 21h50q21 0 21 -21v-469q0 -105 -69.5 -163.5t-175.5 -58.5z" />
    <glyph glyph-name="Yacute" unicode="&#xdd;" horiz-adv-x="584" 
d="M256 768q-11 0 -15 6.5t2 17.5l59 95q7 13 23 13h59q12 0 16 -7t-4 -17l-74 -97q-8 -11 -24 -11h-42zM546 700q13 0 17 -7.5t-3 -18.5l-222 -354v-299q0 -21 -22 -21h-50q-21 0 -21 21v301l-221 352q-7 11 -3 18.5t17 7.5h57q17 0 25 -14l172 -277l171 277q9 14 25 14h58
z" />
    <glyph glyph-name="Thorn" unicode="&#xde;" horiz-adv-x="583" 
d="M330 568q90 0 154 -64t64 -154t-64 -154t-154 -64h-162v-111q0 -21 -22 -21h-50q-21 0 -21 21v658q0 21 21 21h50q22 0 22 -21v-111h162zM330 220q25 0 48.5 10t40 27.5t26.5 41.5t10 51q0 54 -36.5 92t-88.5 38h-162v-260h162z" />
    <glyph glyph-name="germandbls" unicode="&#xdf;" horiz-adv-x="502" 
d="M297 -5q-21 0 -21 22v35q0 21 22 21q99 1 99 77q0 24 -14 49.5t-33.5 48t-39.5 45t-34 47t-14 46.5q0 14 6 28.5t15 26t19.5 25.5t19.5 27t14.5 30t5.5 34q0 37 -24 55t-62 18q-19 0 -36 -4.5t-32.5 -16t-25 -34t-9.5 -53.5v-501q0 -21 -21 -21h-44q-22 0 -22 21v501
q0 91 53 140.5t139 49.5q52 0 91.5 -19t60 -52.5t20.5 -76.5q0 -32 -13 -61t-28.5 -46t-28.5 -36t-13 -32q0 -17 14 -37.5t34.5 -41.5t40.5 -45t34 -56t14 -67q0 -68 -48 -109t-139 -38z" />
    <glyph glyph-name="agrave" unicode="&#xe0;" horiz-adv-x="502" 
d="M214 581l-75 99q-7 9 -3.5 15.5t14.5 6.5h62q15 0 22 -12l60 -98q5 -9 1.5 -15.5t-14.5 -6.5h-44q-15 0 -23 11zM253 512q86 0 140.5 -50.5t54.5 -139.5v-301q0 -21 -22 -21h-43q-21 0 -21 21v31q-48 -64 -149 -64q-73 0 -124 41.5t-51 117.5t51 118t124 42q97 0 149 -58
v71q0 38 -15.5 63.5t-39 36t-54.5 10.5q-40 0 -69.5 -18t-36.5 -52q-6 -20 -22 -20h-44q-23 0 -21 22q8 68 61.5 109t131.5 41zM238 60q54 0 89 25t35 62q0 40 -34.5 63.5t-89.5 23.5q-56 0 -85 -23.5t-29 -63t29 -63.5t85 -24z" />
    <glyph glyph-name="aacute" unicode="&#xe1;" horiz-adv-x="502" 
d="M222 570q-12 0 -15.5 7t1.5 17l59 95q7 13 23 13h59q13 0 16.5 -7t-4.5 -17l-73 -96q-9 -12 -25 -12h-41zM253 512q86 0 140.5 -50.5t54.5 -139.5v-301q0 -21 -22 -21h-43q-21 0 -21 21v31q-48 -64 -149 -64q-73 0 -124 41.5t-51 117.5t51 118t124 42q97 0 149 -58v71
q0 38 -15.5 63.5t-39 36t-54.5 10.5q-40 0 -69.5 -18t-36.5 -52q-6 -20 -22 -20h-44q-23 0 -21 22q8 68 61.5 109t131.5 41zM238 60q54 0 89 25t35 62q0 40 -34.5 63.5t-89.5 23.5q-56 0 -85 -23.5t-29 -63t29 -63.5t85 -24z" />
    <glyph glyph-name="acircumflex" unicode="&#xe2;" horiz-adv-x="502" 
d="M128 568q-11 0 -14.5 6.5t3.5 15.5l79 102q9 10 23 10h47h22q14 0 22 -10l79 -102q7 -9 4 -15.5t-15 -6.5h-49q-14 0 -23 11l-53 70l-53 -70q-8 -11 -22 -11h-50zM253 512q86 0 140.5 -50.5t54.5 -139.5v-301q0 -21 -22 -21h-43q-21 0 -21 21v31q-48 -64 -149 -64
q-73 0 -124 41.5t-51 117.5t51 118t124 42q97 0 149 -58v71q0 38 -15.5 63.5t-39 36t-54.5 10.5q-40 0 -69.5 -18t-36.5 -52q-6 -20 -22 -20h-44q-23 0 -21 22q8 68 61.5 109t131.5 41zM238 60q54 0 89 25t35 62q0 40 -34.5 63.5t-89.5 23.5q-56 0 -85 -23.5t-29 -63
t29 -63.5t85 -24z" />
    <glyph glyph-name="atilde" unicode="&#xe3;" horiz-adv-x="502" 
d="M123 576q-19 0 -17 19q3 56 27 83t57 24.5t69 -28.5l24 -16t18 -9.5t14.5 -1.5t9.5 9.5t5 21.5q2 20 19 20h37q19 0 17 -20q-3 -56 -27 -83t-56.5 -24.5t-69.5 28.5q-18 13 -29 19.5t-20.5 8t-15 -6t-6.5 -25.5q-2 -19 -19 -19h-37zM253 512q86 0 140.5 -50.5
t54.5 -139.5v-301q0 -21 -22 -21h-43q-21 0 -21 21v31q-48 -64 -149 -64q-73 0 -124 41.5t-51 117.5t51 118t124 42q97 0 149 -58v71q0 38 -15.5 63.5t-39 36t-54.5 10.5q-40 0 -69.5 -18t-36.5 -52q-6 -20 -22 -20h-44q-23 0 -21 22q8 68 61.5 109t131.5 41zM238 60
q54 0 89 25t35 62q0 40 -34.5 63.5t-89.5 23.5q-56 0 -85 -23.5t-29 -63t29 -63.5t85 -24z" />
    <glyph glyph-name="adieresis" unicode="&#xe4;" horiz-adv-x="502" 
d="M129 576q-18 0 -18 19v55q0 19 18 19h56q18 0 18 -19v-55q0 -19 -18 -19h-56zM324 576q-18 0 -18 19v55q0 19 18 19h56q18 0 18 -19v-55q0 -19 -18 -19h-56zM253 512q86 0 140.5 -50.5t54.5 -139.5v-301q0 -21 -22 -21h-43q-21 0 -21 21v31q-48 -64 -149 -64
q-73 0 -124 41.5t-51 117.5t51 118t124 42q97 0 149 -58v71q0 38 -15.5 63.5t-39 36t-54.5 10.5q-40 0 -69.5 -18t-36.5 -52q-6 -20 -22 -20h-44q-23 0 -21 22q8 68 61.5 109t131.5 41zM238 60q54 0 89 25t35 62q0 40 -34.5 63.5t-89.5 23.5q-56 0 -85 -23.5t-29 -63
t29 -63.5t85 -24z" />
    <glyph glyph-name="aring" unicode="&#xe5;" horiz-adv-x="502" 
d="M254 549q-49 0 -80.5 30t-31.5 76q0 30 14 54t40 38t58 14q34 0 60 -14t39.5 -38t13.5 -54q0 -46 -31 -76t-82 -30zM254 700q-22 0 -34 -12.5t-12 -32.5t12 -32.5t34 -12.5q23 0 35.5 12.5t12.5 32.5t-12.5 32.5t-35.5 12.5zM253 512q86 0 140.5 -50.5t54.5 -139.5v-301
q0 -21 -22 -21h-43q-21 0 -21 21v31q-48 -64 -149 -64q-73 0 -124 41.5t-51 117.5t51 118t124 42q97 0 149 -58v71q0 38 -15.5 63.5t-39 36t-54.5 10.5q-40 0 -69.5 -18t-36.5 -52q-6 -20 -22 -20h-44q-23 0 -21 22q8 68 61.5 109t131.5 41zM238 60q54 0 89 25t35 62
q0 40 -34.5 63.5t-89.5 23.5q-56 0 -85 -23.5t-29 -63t29 -63.5t85 -24z" />
    <glyph glyph-name="ae" unicode="&#xe6;" horiz-adv-x="838" 
d="M594 512q69 0 118.5 -37t73 -95.5t23.5 -131.5q0 -6 -1 -18q-2 -20 -22 -20h-66h-269q4 -34 15.5 -61t29.5 -45.5t43 -28t55 -9.5q37 0 62.5 15.5t37.5 40.5q8 17 24 17h49q12 0 17 -6t2 -16q-10 -30 -28 -53.5t-42 -40.5t-55 -26t-65 -9q-121 0 -177 96
q-22 -46 -70 -71.5t-115 -25.5q-86 0 -141 42.5t-55 117.5q0 76 51 118t124 42q93 0 149 -51v64l24 1l-24 -1q0 38 -15.5 63.5t-39 36t-54.5 10.5q-40 0 -69.5 -18t-36.5 -52q-6 -20 -22 -20h-44q-23 0 -21 22q8 68 60.5 109t127.5 41q59 0 104 -25t68 -72q58 97 174 97z
M450 287h272q-6 70 -41.5 107t-87.5 37q-43 0 -73.5 -18t-47.5 -50t-22 -76zM240 60q38 0 65.5 11.5t41.5 31t14 44.5q0 40 -34 63.5t-89 23.5q-56 0 -85 -23.5t-29 -63.5q0 -25 13.5 -44.5t40 -31t62.5 -11.5z" />
    <glyph glyph-name="ccedilla" unicode="&#xe7;" horiz-adv-x="571" 
d="M519 168q12 0 17 -7t1 -18q-23 -61 -76.5 -102.5t-123.5 -50.5v-35q39 -7 62.5 -28t23.5 -52q0 -99 -191 -92q-19 1 -19 20v28q0 19 20 19q114 -7 114 31q0 28 -65 35q-18 1 -18 19v55q-99 13 -162.5 85.5t-63.5 174.5q0 112 75 187t188 75q81 0 145 -42.5t90 -112.5
q3 -8 2 -13t-6 -8.5t-13 -3.5h-49q-17 0 -26 16q-20 37 -58 58.5t-85 21.5q-49 0 -89.5 -23.5t-64 -64.5t-23.5 -90q0 -75 51 -126.5t126 -51.5q47 0 85.5 21.5t57.5 58.5q9 16 26 16h49z" />
    <glyph glyph-name="egrave" unicode="&#xe8;" horiz-adv-x="571" 
d="M256 580l-75 98q-7 10 -4 16.5t15 6.5h62q15 0 22 -12l60 -98q5 -9 1.5 -15.5t-14.5 -6.5h-44q-15 0 -23 11zM296 512q110 0 178 -77t68 -187q0 -6 -1 -18q-2 -20 -22 -20h-66h-326q11 -68 57.5 -106t114.5 -38q41 0 74 16t51 43q12 14 26 14h48q12 0 17.5 -6t1.5 -16
q-27 -59 -85.5 -94t-133.5 -35q-77 0 -136.5 34t-91.5 93.5t-32 134.5q0 112 71.5 187t186.5 75zM127 287h326q-9 70 -53 107t-104 37q-68 0 -113.5 -39t-55.5 -105z" />
    <glyph glyph-name="eacute" unicode="&#xe9;" horiz-adv-x="571" 
d="M264 569q-12 0 -16 7t2 17l58 95q8 13 24 13h59q12 0 16 -7t-4 -17l-74 -97q-8 -11 -24 -11h-41zM296 512q110 0 178 -77t68 -187q0 -6 -1 -18q-2 -20 -22 -20h-66h-326q11 -68 57.5 -106t114.5 -38q41 0 74 16t51 43q12 14 26 14h48q12 0 17.5 -6t1.5 -16
q-27 -59 -85.5 -94t-133.5 -35q-77 0 -136.5 34t-91.5 93.5t-32 134.5q0 112 71.5 187t186.5 75zM127 287h326q-9 70 -53 107t-104 37q-68 0 -113.5 -39t-55.5 -105z" />
    <glyph glyph-name="ecircumflex" unicode="&#xea;" horiz-adv-x="571" 
d="M170 566q-12 0 -15 7t4 16l79 101q8 11 23 11h47h21q15 0 23 -11l79 -101q7 -9 4 -16t-15 -7h-49q-15 0 -23 12l-53 69l-53 -69q-8 -12 -23 -12h-49zM296 512q110 0 178 -77t68 -187q0 -6 -1 -18q-2 -20 -22 -20h-66h-326q11 -68 57.5 -106t114.5 -38q41 0 74 16t51 43
q12 14 26 14h48q12 0 17.5 -6t1.5 -16q-27 -59 -85.5 -94t-133.5 -35q-77 0 -136.5 34t-91.5 93.5t-32 134.5q0 112 71.5 187t186.5 75zM127 287h326q-9 70 -53 107t-104 37q-68 0 -113.5 -39t-55.5 -105z" />
    <glyph glyph-name="edieresis" unicode="&#xeb;" horiz-adv-x="571" 
d="M171 575q-19 0 -19 19v55q0 19 19 19h55q19 0 19 -19v-55q0 -19 -19 -19h-55zM366 575q-18 0 -18 19v55q0 19 18 19h56q18 0 18 -19v-55q0 -19 -18 -19h-56zM296 512q110 0 178 -77t68 -187q0 -6 -1 -18q-2 -20 -22 -20h-66h-326q11 -68 57.5 -106t114.5 -38q41 0 74 16
t51 43q12 14 26 14h48q12 0 17.5 -6t1.5 -16q-27 -59 -85.5 -94t-133.5 -35q-77 0 -136.5 34t-91.5 93.5t-32 134.5q0 112 71.5 187t186.5 75zM127 287h326q-9 70 -53 107t-104 37q-68 0 -113.5 -39t-55.5 -105z" />
    <glyph glyph-name="igrave" unicode="&#xec;" horiz-adv-x="220" 
d="M84 565q-17 0 -25 15l-46 95q-6 11 -1 18t17 7h56q18 0 24 -17l33 -94q4 -11 -1 -17.5t-17 -6.5h-40zM88 0q-22 0 -22 21v458q0 21 22 21h44q21 0 21 -21v-458q0 -21 -21 -21h-44z" />
    <glyph glyph-name="iacute" unicode="&#xed;" horiz-adv-x="220" 
d="M77 589q-4 -11 1 -17.5t16 -6.5h41q17 0 25 15l46 95q6 11 1 18t-17 7h-56q-18 0 -24 -17zM88 0q-22 0 -22 21v458q0 21 22 21h44q21 0 21 -21v-458q0 -21 -21 -21h-44z" />
    <glyph glyph-name="icircumflex" unicode="&#xee;" horiz-adv-x="220" 
d="M229 590q7 -10 3 -17.5t-17 -7.5h-45q-17 0 -26 14l-34 56l-36 -56q-8 -14 -25 -14h-45q-13 0 -17 7.5t3 17.5l62 96q10 14 27 14h42h19q18 0 27 -14zM132 500q21 0 21 -21v-458q0 -21 -21 -21h-44q-22 0 -22 21v458q0 21 22 21h44z" />
    <glyph glyph-name="idieresis" unicode="&#xef;" horiz-adv-x="220" 
d="M10 574q-22 0 -22 21v50q0 21 22 21h50q21 0 21 -21v-50q0 -21 -21 -21h-50zM160 574q-22 0 -22 21v50q0 21 22 21h50q21 0 21 -21v-50q0 -21 -21 -21h-50zM88 0q-22 0 -22 21v458q0 21 22 21h44q21 0 21 -21v-458q0 -21 -21 -21h-44z" />
    <glyph glyph-name="eth" unicode="&#xf0;" horiz-adv-x="581" 
d="M498 370q46 -63 46 -140q0 -72 -35.5 -128t-93 -85t-124.5 -29q-105 0 -179 67t-74 175q0 106 76 172.5t179 57.5q20 0 38 -4l-75 102l-92 -53q-12 -6 -19 -2t-7 17v23q0 17 15 26l67 38l-50 68q-8 11 -4 18t16 7h54q16 0 25 -13l30 -40l89 51q11 6 18 2t7 -16v-24
q0 -17 -14 -26l-64 -36zM290.5 71q69.5 0 118 43.5t48.5 115.5q0 56 -27 92q-48 63 -138 63q-48 0 -86 -19t-59.5 -54.5t-21.5 -81.5q0 -72 48 -115.5t117.5 -43.5z" />
    <glyph glyph-name="ntilde" unicode="&#xf1;" 
d="M135 576q-19 0 -17 19q3 56 27 83t57 24.5t69 -28.5l24 -16t18 -9.5t14.5 -1.5t9.5 9.5t5 21.5q2 20 19 20h37q19 0 17 -20q-3 -56 -27 -83t-56.5 -24.5t-69.5 28.5q-18 13 -29 19.5t-20.5 8t-15 -6t-6.5 -25.5q-2 -19 -19 -19h-37zM301 512q72 0 120 -51t48 -137v-303
q0 -21 -21 -21h-45q-21 0 -21 21v300q0 52 -29 80.5t-75 28.5q-25 0 -46 -8t-39.5 -24t-29 -45.5t-10.5 -68.5v-263q0 -21 -21 -21h-44q-22 0 -22 21v458q0 21 22 21h44q21 0 21 -21v-41q49 74 148 74z" />
    <glyph glyph-name="ograve" unicode="&#xf2;" horiz-adv-x="602" 
d="M328 570q11 0 14.5 6.5t-2.5 15.5l-59 98q-7 12 -22 12h-62q-12 0 -15.5 -6.5t4.5 -15.5l75 -99q8 -11 23 -11h44zM301 -12q-110 0 -186.5 75.5t-76.5 186.5t76.5 186.5t186.5 75.5t186.5 -75.5t76.5 -186.5t-76.5 -186.5t-186.5 -75.5zM301 72q75 0 126 51t51 127
t-51 127t-126 51t-126 -51t-51 -127t51 -127t126 -51z" />
    <glyph glyph-name="oacute" unicode="&#xf3;" horiz-adv-x="602" 
d="M255 594q-6 -10 -2 -17t15 -7h42q15 0 24 12l74 96q7 10 3.5 17t-15.5 7h-60q-15 0 -23 -13zM301 -12q-110 0 -186.5 75.5t-76.5 186.5t76.5 186.5t186.5 75.5t186.5 -75.5t76.5 -186.5t-76.5 -186.5t-186.5 -75.5zM301 72q75 0 126 51t51 127t-51 127t-126 51t-126 -51
t-51 -127t51 -127t126 -51z" />
    <glyph glyph-name="ocircumflex" unicode="&#xf4;" horiz-adv-x="602" 
d="M174 568q-11 0 -14 6.5t4 15.5l79 102q8 10 23 10h47h21q14 0 22 -10l80 -102q7 -9 3.5 -15.5t-14.5 -6.5h-49q-15 0 -23 11l-53 70l-54 -70q-8 -11 -22 -11h-50zM301 512q110 0 186.5 -75.5t76.5 -186.5t-76.5 -186.5t-186.5 -75.5t-186.5 75.5t-76.5 186.5t76.5 186.5
t186.5 75.5zM301 72q75 0 126 51t51 127t-51 127t-126 51t-126 -51t-51 -127t51 -127t126 -51z" />
    <glyph glyph-name="otilde" unicode="&#xf5;" horiz-adv-x="602" 
d="M170 576q-20 0 -18 19q3 56 27 83t57 24.5t70 -28.5q14 -10 23.5 -16t18.5 -9.5t14.5 -1.5t9 9.5t4.5 21.5q2 20 20 20h36q19 0 18 -20q-4 -56 -27.5 -83t-56.5 -24.5t-69 28.5q-18 13 -29 19.5t-21 8t-15 -6t-6 -25.5q-2 -19 -20 -19h-36zM301 -12q-110 0 -186.5 75.5
t-76.5 186.5t76.5 186.5t186.5 75.5t186.5 -75.5t76.5 -186.5t-76.5 -186.5t-186.5 -75.5zM301 72q75 0 126 51t51 127t-51 127t-126 51t-126 -51t-51 -127t51 -127t126 -51z" />
    <glyph glyph-name="odieresis" unicode="&#xf6;" horiz-adv-x="602" 
d="M176 576q-19 0 -19 19v55q0 19 19 19h55q19 0 19 -19v-55q0 -19 -19 -19h-55zM371 576q-19 0 -19 19v55q0 19 19 19h55q19 0 19 -19v-55q0 -19 -19 -19h-55zM301 -12q-110 0 -186.5 75.5t-76.5 186.5t76.5 186.5t186.5 75.5t186.5 -75.5t76.5 -186.5t-76.5 -186.5
t-186.5 -75.5zM301 72q75 0 126 51t51 127t-51 127t-126 51t-126 -51t-51 -127t51 -127t126 -51z" />
    <glyph glyph-name="divide" unicode="&#xf7;" horiz-adv-x="575" 
d="M287 476q-27 0 -45 18t-18 45t18 45.5t45 18.5t45.5 -18.5t18.5 -45.5t-18.5 -45t-45.5 -18zM76 308q-21 0 -21 22v40q0 22 21 22h423q21 0 21 -22v-40q0 -22 -21 -22h-423zM287 97q-27 0 -45 18.5t-18 45.5t18 45t45 18t45.5 -18t18.5 -45t-18.5 -45.5t-45.5 -18.5z" />
    <glyph glyph-name="oslash" unicode="&#xf8;" horiz-adv-x="602" 
d="M489 435q76 -75 76 -185q0 -111 -77 -187t-187 -76q-83 0 -151 47l-18 -22q-10 -12 -26 -12h-19q-13 0 -16.5 8t5.5 18l34 41q-72 76 -72 183q0 111 76.5 186.5t186.5 75.5q81 0 147 -43l17 19q10 12 27 12h17q13 0 17 -8t-5 -18zM125 250q0 -67 41 -117l227 270
q-42 25 -92 25q-75 0 -125.5 -51t-50.5 -127zM301 72q75 0 125.5 51t50.5 127q0 70 -44 120l-227 -271q42 -27 95 -27z" />
    <glyph glyph-name="ugrave" unicode="&#xf9;" 
d="M217 578l-75 99q-8 10 -4.5 16.5t15.5 6.5h62q15 0 22 -12l59 -98q6 -9 2.5 -15.5t-14.5 -6.5h-44q-15 0 -23 10zM435 500q21 0 21 -21v-458q0 -21 -21 -21h-44q-22 0 -22 21v41q-48 -74 -147 -74q-72 0 -120 51t-48 137v303q0 21 21 21h45q21 0 21 -21v-300
q0 -52 28.5 -80.5t75.5 -28.5q24 0 45.5 8t39.5 24t29 45.5t11 68.5v263q0 21 21 21h44z" />
    <glyph glyph-name="uacute" unicode="&#xfa;" 
d="M224 568q-11 0 -15 6.5t2 17.5l58 95q8 13 23 13h60q12 0 15.5 -7t-3.5 -17l-74 -97q-9 -11 -24 -11h-42zM435 500q21 0 21 -21v-458q0 -21 -21 -21h-44q-22 0 -22 21v41q-48 -74 -147 -74q-72 0 -120 51t-48 137v303q0 21 21 21h45q21 0 21 -21v-300q0 -52 28.5 -80.5
t75.5 -28.5q24 0 45.5 8t39.5 24t29 45.5t11 68.5v263q0 21 21 21h44z" />
    <glyph glyph-name="ucircumflex" unicode="&#xfb;" 
d="M130 565q-11 0 -14 6.5t4 16.5l79 101q8 11 23 11h47h21q14 0 22 -11l80 -101q7 -10 3.5 -16.5t-14.5 -6.5h-49q-15 0 -23 11l-53 70l-54 -70q-8 -11 -22 -11h-50zM435 500q21 0 21 -21v-458q0 -21 -21 -21h-44q-22 0 -22 21v41q-48 -74 -147 -74q-72 0 -120 51t-48 137
v303q0 21 21 21h45q21 0 21 -21v-300q0 -52 28.5 -80.5t75.5 -28.5q24 0 45.5 8t39.5 24t29 45.5t11 68.5v263q0 21 21 21h44z" />
    <glyph glyph-name="udieresis" unicode="&#xfc;" 
d="M132 574q-19 0 -19 18v56q0 18 19 18h55q19 0 19 -18v-56q0 -18 -19 -18h-55zM327 574q-19 0 -19 18v56q0 18 19 18h55q19 0 19 -18v-56q0 -18 -19 -18h-55zM435 500q21 0 21 -21v-458q0 -21 -21 -21h-44q-22 0 -22 21v41q-48 -74 -147 -74q-72 0 -120 51t-48 137v303
q0 21 21 21h45q21 0 21 -21v-300q0 -52 28.5 -80.5t75.5 -28.5q24 0 45.5 8t39.5 24t29 45.5t11 68.5v263q0 21 21 21h44z" />
    <glyph glyph-name="yacute" unicode="&#xfd;" horiz-adv-x="480" 
d="M194 592q-6 -11 -2 -17.5t15 -6.5h42q15 0 24 11l74 97q7 10 3.5 17t-15.5 7h-59q-16 0 -24 -13zM374 483q6 17 24 17h49q11 0 16 -6.5t1 -17.5l-230 -659q-6 -17 -24 -17h-49q-12 0 -16.5 6.5t-0.5 17.5l62 181l-188 471q-5 11 -0.5 17.5t16.5 6.5h48q18 0 24 -16
l144 -358z" />
    <glyph glyph-name="thorn" unicode="&#xfe;" horiz-adv-x="633" 
d="M342 512q105 0 179 -76t74 -186t-74 -186t-179 -76q-124 0 -189 97v-264q0 -21 -21 -21h-44q-22 0 -22 21v858q0 21 22 21h44q21 0 21 -21v-264q65 97 189 97zM331 71q75 0 126 51.5t51 127.5t-51 127.5t-126.5 51.5t-126.5 -51.5t-51 -127.5q0 -50 23.5 -91t64 -64.5
t90.5 -23.5z" />
    <glyph glyph-name="ydieresis" unicode="&#xff;" horiz-adv-x="480" 
d="M115 574q-19 0 -19 18v56q0 18 19 18h55q19 0 19 -18v-56q0 -18 -19 -18h-55zM310 574q-19 0 -19 18v56q0 18 19 18h55q19 0 19 -18v-56q0 -18 -19 -18h-55zM374 483q6 17 24 17h49q11 0 16 -6.5t1 -17.5l-230 -659q-6 -17 -24 -17h-49q-12 0 -16.5 6.5t-0.5 17.5l62 181
l-188 471q-5 11 -0.5 17.5t16.5 6.5h48q18 0 24 -16l144 -358z" />
    <glyph glyph-name="Amacron" unicode="&#x100;" horiz-adv-x="638" 
d="M202 775q-18 0 -18 18v37q0 18 18 18h233q19 0 19 -18v-37q0 -18 -19 -18h-233zM621 24q4 -11 -0.5 -17.5t-16.5 -6.5h-55q-18 0 -24 17l-50 139h-312l-50 -139q-6 -17 -25 -17h-54q-12 0 -16.5 6.5t-1.5 17.5l244 659q6 17 24 17h69q18 0 25 -17zM194 244h250l-125 347z
" />
    <glyph glyph-name="amacron" unicode="&#x101;" horiz-adv-x="502" 
d="M138 577q-18 0 -18 19v36q0 19 18 19h233q19 0 19 -19v-36q0 -19 -19 -19h-233zM253 512q86 0 140.5 -50.5t54.5 -139.5v-301q0 -21 -22 -21h-43q-21 0 -21 21v31q-48 -64 -149 -64q-73 0 -124 41.5t-51 117.5t51 118t124 42q97 0 149 -58v71q0 38 -15.5 63.5t-39 36
t-54.5 10.5q-40 0 -69.5 -18t-36.5 -52q-6 -20 -22 -20h-44q-23 0 -21 22q8 68 61.5 109t131.5 41zM238 60q54 0 89 25t35 62q0 40 -34.5 63.5t-89.5 23.5q-56 0 -85 -23.5t-29 -63t29 -63.5t85 -24z" />
    <glyph glyph-name="Abreve" unicode="&#x102;" horiz-adv-x="638" 
d="M319 757q-64 0 -103 30t-45 85q-2 20 18 20h45q16 0 18 -18q9 -48 67 -48t66 48q3 18 19 18h45q19 0 17 -18q-5 -56 -43.5 -86.5t-103.5 -30.5zM621 24q4 -11 -0.5 -17.5t-16.5 -6.5h-55q-18 0 -24 17l-50 139h-312l-50 -139q-6 -17 -25 -17h-54q-12 0 -16.5 6.5
t-1.5 17.5l244 659q6 17 24 17h69q18 0 25 -17zM194 244h250l-125 347z" />
    <glyph glyph-name="abreve" unicode="&#x103;" horiz-adv-x="502" 
d="M254 560q-63 0 -102 30t-45 85q-2 19 17 19h45q17 0 19 -18q8 -47 66.5 -47t66.5 47q2 18 19 18h44q20 0 18 -18q-5 -56 -43.5 -86t-104.5 -30zM253 512q86 0 140.5 -50.5t54.5 -139.5v-301q0 -21 -22 -21h-43q-21 0 -21 21v31q-48 -64 -149 -64q-73 0 -124 41.5
t-51 117.5t51 118t124 42q97 0 149 -58v71q0 38 -15.5 63.5t-39 36t-54.5 10.5q-40 0 -69.5 -18t-36.5 -52q-6 -20 -22 -20h-44q-23 0 -21 22q8 68 61.5 109t131.5 41zM238 60q54 0 89 25t35 62q0 40 -34.5 63.5t-89.5 23.5q-56 0 -85 -23.5t-29 -63t29 -63.5t85 -24z" />
    <glyph glyph-name="Aogonek" unicode="&#x104;" horiz-adv-x="638" 
d="M608 -142q20 3 20 -16v-26q0 -17 -12 -20q-23 -8 -54 -8q-40 0 -63 21t-23 58q0 50 65 134q-12 3 -16 16l-50 139h-312l-50 -139q-6 -17 -25 -17h-54q-12 0 -16.5 6.5t-1.5 17.5l244 659q6 17 24 17h69q18 0 25 -17l243 -659q8 -22 -11 -42q-50 -56 -50 -96q0 -34 48 -28
zM194 244h250l-125 347z" />
    <glyph glyph-name="aogonek" unicode="&#x105;" horiz-adv-x="502" 
d="M448 322v-301v-2q0 -16 -21 -38q-50 -55 -50 -95q0 -34 48 -29q21 4 21 -15v-27q0 -16 -13 -19q-23 -9 -54 -9q-40 0 -63 21.5t-23 58.5q0 54 71 142q-2 5 -2 12v31q-48 -64 -149 -64q-73 0 -124 41.5t-51 117.5t51 118t124 42q97 0 149 -58v71q0 38 -15.5 63.5t-39 36
t-54.5 10.5q-40 0 -69.5 -18t-36.5 -52q-6 -20 -22 -20h-44q-23 0 -21 22q8 68 61.5 109t131.5 41q86 0 140.5 -50.5t54.5 -139.5zM238 60q54 0 89 25t35 62q0 40 -34.5 63.5t-89.5 23.5q-56 0 -84.5 -23.5t-28.5 -63t28.5 -63.5t84.5 -24z" />
    <glyph glyph-name="Cacute" unicode="&#x106;" horiz-adv-x="761" 
d="M358 794q-6 -10 -2 -17t15 -7h41q16 0 25 12l73 96q8 10 4.5 17t-16.5 7h-59q-16 0 -23 -13zM404 -12q-105 0 -189.5 48t-130.5 131t-46 183t46 183t130.5 131t189.5 48q55 0 106.5 -15.5t93.5 -44.5t74.5 -69.5t49.5 -88.5q2 -7 0.5 -12.5t-6 -8.5t-12.5 -3h-55
q-17 0 -25 16q-29 62 -90 99t-136 37q-80 0 -143 -36t-97 -98t-34 -138q0 -117 76.5 -194.5t197.5 -77.5q75 0 136 37t90 99q8 16 25 16h55q12 0 17 -6.5t2 -15.5q-35 -99 -124.5 -159.5t-200.5 -60.5z" />
    <glyph glyph-name="cacute" unicode="&#x107;" horiz-adv-x="571" 
d="M247 592q-6 -11 -2 -17.5t15 -6.5h42q16 0 24 11l74 97q8 10 4 17t-16 7h-59q-16 0 -23 -13zM519 168q12 0 17 -7t0 -18q-25 -70 -89.5 -112.5t-145.5 -42.5q-113 0 -188 75t-75 187t75 187t188 75q81 0 145 -42.5t90 -112.5q3 -8 2 -13t-6 -8.5t-13 -3.5h-49
q-17 0 -26 16q-20 37 -58 58.5t-85 21.5q-49 0 -89.5 -23.5t-64 -64.5t-23.5 -90q0 -75 51 -126.5t126 -51.5q47 0 85.5 21.5t57.5 58.5q9 16 26 16h49z" />
    <glyph glyph-name="Cdotaccent" unicode="&#x10a;" horiz-adv-x="761" 
d="M370 775q-19 0 -19 19v68q0 18 19 18h68q18 0 18 -18v-68q0 -19 -18 -19h-68zM404 -12q-105 0 -189.5 48t-130.5 131t-46 183t46 183t130.5 131t189.5 48q55 0 106.5 -15.5t93.5 -44.5t74.5 -69.5t49.5 -88.5q2 -7 0.5 -12.5t-6 -8.5t-12.5 -3h-55q-17 0 -25 16
q-29 62 -90 99t-136 37q-80 0 -143 -36t-97 -98t-34 -138q0 -117 76.5 -194.5t197.5 -77.5q75 0 136 37t90 99q8 16 25 16h55q12 0 17 -6.5t2 -15.5q-35 -99 -124.5 -159.5t-200.5 -60.5z" />
    <glyph glyph-name="cdotaccent" unicode="&#x10b;" horiz-adv-x="571" 
d="M259 572q-18 0 -18 19v68q0 19 18 19h68q19 0 19 -19v-68q0 -19 -19 -19h-68zM519 168q12 0 17 -7t0 -18q-25 -70 -89.5 -112.5t-145.5 -42.5q-113 0 -188 75t-75 187t75 187t188 75q81 0 145 -42.5t90 -112.5q3 -8 2 -13t-6 -8.5t-13 -3.5h-49q-17 0 -26 16
q-20 37 -58 58.5t-85 21.5q-49 0 -89.5 -23.5t-64 -64.5t-23.5 -90q0 -75 51 -126.5t126 -51.5q47 0 85.5 21.5t57.5 58.5q9 16 26 16h49z" />
    <glyph glyph-name="Ccaron" unicode="&#x10c;" horiz-adv-x="761" 
d="M346 778l-80 102q-6 9 -3 15.5t14 6.5h50q14 0 22 -11l53 -70l54 70q8 11 22 11h50q11 0 14 -6.5t-4 -15.5l-79 -102q-8 -10 -22 -10h-47h-22q-14 0 -22 10zM710 230q12 0 17 -6.5t2 -15.5q-35 -99 -124.5 -159.5t-200.5 -60.5q-105 0 -189.5 48t-130.5 131t-46 183
t46 183t130.5 131t189.5 48q55 0 106.5 -15.5t93.5 -44.5t74.5 -69.5t49.5 -88.5q2 -7 0.5 -12.5t-6 -8.5t-12.5 -3h-55q-17 0 -25 16q-29 62 -90 99t-136 37q-80 0 -143 -36t-97 -98t-34 -138q0 -117 76.5 -194.5t197.5 -77.5q75 0 136 37t90 99q8 16 25 16h55z" />
    <glyph glyph-name="ccaron" unicode="&#x10d;" horiz-adv-x="571" 
d="M235 576l-79 102q-7 9 -4 15.5t15 6.5h49q15 0 23 -12l53 -69l53 69q8 12 23 12h49q12 0 15 -6.5t-4 -15.5l-79 -102q-8 -11 -23 -11h-47h-21q-15 0 -23 11zM519 168q12 0 17 -7t0 -18q-25 -70 -89.5 -112.5t-145.5 -42.5q-113 0 -188 75t-75 187t75 187t188 75
q81 0 145 -42.5t90 -112.5q3 -8 2 -13t-6 -8.5t-13 -3.5h-49q-17 0 -26 16q-20 37 -58 58.5t-85 21.5q-49 0 -89.5 -23.5t-64 -64.5t-23.5 -90q0 -75 51 -126.5t126 -51.5q47 0 85.5 21.5t57.5 58.5q9 16 26 16h49z" />
    <glyph glyph-name="Dcaron" unicode="&#x10e;" horiz-adv-x="738" 
d="M287 776l-79 102q-7 9 -4 15.5t14 6.5h50q14 0 22 -12l54 -69l53 69q8 12 23 12h49q11 0 14.5 -6.5t-3.5 -15.5l-80 -102q-8 -11 -22 -11h-47h-21q-15 0 -23 11zM368 700q143 0 237.5 -101.5t94.5 -248.5t-94.5 -248.5t-237.5 -101.5h-258h-14q-21 0 -21 21v658
q0 21 21 21h72h200zM368 88q70 0 126 34.5t86 94.5t30 133t-30 133t-86 94.5t-126 34.5h-200v-524h200z" />
    <glyph glyph-name="dcaron" unicode="&#x10f;" horiz-adv-x="713" 
d="M545 700q21 0 21 -21v-658q0 -21 -21 -21h-44q-21 0 -21 21v64q-65 -97 -189 -97q-105 0 -179 76t-74 186t74 186t179 76q124 0 189 -97v264q0 21 21 21h44zM700 700q7 0 11.5 -3t6.5 -8t1 -12l-23 -138q-3 -19 -22 -19h-23q-23 0 -21 22l8 138q1 20 21 20h41zM302 71
q75 0 126.5 51.5t51.5 127.5t-51.5 127.5t-126.5 51.5t-126.5 -51.5t-51.5 -127.5q0 -50 23.5 -91t64 -64.5t90.5 -23.5z" />
    <glyph glyph-name="Dcroat" unicode="&#x110;" horiz-adv-x="763" 
d="M392 700q144 0 238.5 -101.5t94.5 -248.5t-94.5 -248.5t-238.5 -101.5h-257h-14q-21 0 -21 21v285h-51q-21 0 -21 21v41q0 22 21 22h51v289q0 21 21 21h71h200zM392 88q71 0 127 34.5t86.5 94.5t30.5 133t-30.5 133t-86.5 94.5t-127 34.5h-200v-222h179q21 0 21 -22v-41
q0 -21 -21 -21h-179v-218h200z" />
    <glyph glyph-name="dcroat" unicode="&#x111;" horiz-adv-x="642" 
d="M613 632q21 0 21 -21v-21q0 -22 -21 -22h-47v-547q0 -21 -21 -21h-44q-21 0 -21 21v64q-65 -97 -189 -97q-105 0 -179 76t-74 186t74 186t179 76q124 0 189 -97v153h-152q-22 0 -22 22v21q0 21 22 21h152v47q0 21 21 21h44q21 0 21 -21v-47h47zM302 71q75 0 126.5 51.5
t51.5 127.5t-51.5 127.5t-126.5 51.5t-126.5 -51.5t-51.5 -127.5q0 -50 23.5 -91t64 -64.5t90.5 -23.5z" />
    <glyph glyph-name="Emacron" unicode="&#x112;" horiz-adv-x="518" 
d="M159 775q-19 0 -19 18v37q0 18 19 18h233q18 0 18 -18v-37q0 -18 -18 -18h-233zM459 88q21 0 21 -21v-46q0 -21 -21 -21h-349h-14q-21 0 -21 21v658q0 21 21 21h72h286q21 0 21 -21v-46q0 -21 -21 -21h-286v-215h261q21 0 21 -21v-45q0 -21 -21 -21h-261v-222h291z" />
    <glyph glyph-name="emacron" unicode="&#x113;" horiz-adv-x="571" 
d="M180 576q-19 0 -19 18v37q0 19 19 19h233q18 0 18 -19v-37q0 -18 -18 -18h-233zM296 512q110 0 178 -77t68 -187q0 -6 -1 -18q-2 -20 -22 -20h-66h-326q11 -68 57.5 -106t114.5 -38q41 0 74 16t51 43q12 14 26 14h48q12 0 17.5 -6t1.5 -16q-27 -59 -85.5 -94t-133.5 -35
q-77 0 -136.5 34t-91.5 93.5t-32 134.5q0 112 71.5 187t186.5 75zM127 287h326q-9 70 -53 107t-104 37q-68 0 -113.5 -39t-55.5 -105z" />
    <glyph glyph-name="Edotaccent" unicode="&#x116;" horiz-adv-x="518" 
d="M242 772q-19 0 -19 19v68q0 19 19 19h68q18 0 18 -19v-68q0 -19 -18 -19h-68zM459 88q21 0 21 -21v-46q0 -21 -21 -21h-349h-14q-21 0 -21 21v658q0 21 21 21h72h286q21 0 21 -21v-46q0 -21 -21 -21h-286v-215h261q21 0 21 -21v-45q0 -21 -21 -21h-261v-222h291z" />
    <glyph glyph-name="edotaccent" unicode="&#x117;" horiz-adv-x="571" 
d="M262 574q-18 0 -18 18v68q0 19 18 19h68q19 0 19 -19v-68q0 -18 -19 -18h-68zM296 512q110 0 178 -77t68 -187q0 -6 -1 -18q-2 -20 -22 -20h-66h-326q11 -68 57.5 -106t114.5 -38q41 0 74 16t51 43q12 14 26 14h48q12 0 17.5 -6t1.5 -16q-27 -59 -85.5 -94t-133.5 -35
q-77 0 -136.5 34t-91.5 93.5t-32 134.5q0 112 71.5 187t186.5 75zM127 287h326q-9 70 -53 107t-104 37q-68 0 -113.5 -39t-55.5 -105z" />
    <glyph glyph-name="Eogonek" unicode="&#x118;" horiz-adv-x="518" 
d="M414 -212q-41 0 -64 21t-23 58q0 63 70 133h-301q-21 0 -21 21v658q0 21 21 21h358q21 0 21 -21v-46q0 -21 -21 -21h-286v-215h261q21 0 21 -21v-45q0 -21 -21 -21h-261v-222h291q21 0 21 -21v-51q0 -16 -11 -27q-57 -59 -57 -103q-1 -34 46 -28q22 3 22 -17v-24
q0 -17 -15 -23q-25 -6 -51 -6z" />
    <glyph glyph-name="eogonek" unicode="&#x119;" horiz-adv-x="571" 
d="M296 512q110 0 178 -77t68 -186q0 -7 -1 -19q-2 -20 -22 -20h-66h-326q11 -68 57.5 -106t114.5 -38q41 0 74 16t51 43q11 14 26 14h48q12 0 17.5 -6t1.5 -16q-17 -37 -46 -65q-104 -113 -104 -166q-1 -34 46 -28q22 3 22 -18v-22q0 -19 -15 -23q-23 -7 -51 -7
q-41 0 -64 21t-23 58q0 61 64 125q-24 -4 -48 -4q-77 0 -136.5 34t-91.5 93.5t-32 134.5q0 112 71.5 187t186.5 75zM127 287h326q-9 70 -53 107t-104 37q-68 0 -113.5 -39t-55.5 -105z" />
    <glyph glyph-name="Ecaron" unicode="&#x11a;" horiz-adv-x="518" 
d="M218 776l-80 102q-7 9 -3.5 15.5t14.5 6.5h49q15 0 23 -12l53 -69l54 69q8 12 22 12h50q11 0 14 -6.5t-4 -15.5l-79 -102q-8 -11 -23 -11h-47h-21q-14 0 -22 11zM459 88q21 0 21 -21v-46q0 -21 -21 -21h-349h-14q-21 0 -21 21v658q0 21 21 21h72h286q21 0 21 -21v-46
q0 -21 -21 -21h-286v-215h261q21 0 21 -21v-45q0 -21 -21 -21h-261v-222h291z" />
    <glyph glyph-name="ecaron" unicode="&#x11b;" horiz-adv-x="571" 
d="M238 577l-79 102q-7 9 -4 15.5t15 6.5h49q15 0 23 -11l53 -70l53 70q8 11 23 11h49q12 0 15 -6.5t-4 -15.5l-79 -102q-8 -11 -23 -11h-47h-21q-15 0 -23 11zM296 512q110 0 178 -77t68 -187q0 -6 -1 -18q-2 -20 -22 -20h-66h-326q11 -68 57.5 -106t114.5 -38q41 0 74 16
t51 43q12 14 26 14h48q12 0 17.5 -6t1.5 -16q-27 -59 -85.5 -94t-133.5 -35q-77 0 -136.5 34t-91.5 93.5t-32 134.5q0 112 71.5 187t186.5 75zM127 287h326q-9 70 -53 107t-104 37q-68 0 -113.5 -39t-55.5 -105z" />
    <glyph glyph-name="Gbreve" unicode="&#x11e;" horiz-adv-x="792" 
d="M392 760q-63 0 -102 30t-45 85q-2 19 17 19h45q17 0 19 -18q8 -47 66.5 -47t66.5 47q2 18 19 18h44q20 0 18 -18q-5 -56 -43.5 -86t-104.5 -30zM710 360q22 0 22 -21v-63v-255q0 -21 -22 -21h-47q-21 0 -21 21v81q-39 -57 -103.5 -85.5t-143.5 -28.5q-101 0 -183.5 48
t-128.5 131t-46 183q0 75 27.5 141.5t75 115.5t115.5 77t145 28q110 0 199 -59t125 -154q4 -11 -1 -17.5t-17 -6.5h-55q-17 0 -26 16q-28 59 -89.5 95t-135.5 36q-119 0 -194.5 -77.5t-75.5 -194.5q0 -118 76 -196.5t194 -78.5q101 0 170 52.5t71 148.5h-205q-22 0 -22 21
v42q0 21 22 21h274z" />
    <glyph glyph-name="gbreve" unicode="&#x11f;" horiz-adv-x="633" 
d="M304 560q-64 0 -102.5 30t-45.5 85q-1 19 18 19h45q16 0 19 -18q8 -47 66 -47t66 47q3 18 20 18h44q20 0 18 -18q-5 -56 -44 -86t-104 -30zM545 500q21 0 21 -21v-458q0 -75 -36 -129t-92 -79t-124 -25q-90 0 -160.5 47t-81.5 121q-1 23 22 23h44q18 0 23 -19
q10 -37 51 -64.5t102 -27.5q80 0 123 41t43 112v70q-64 -99 -189 -99q-105 0 -179 76t-74 184.5t74 184t179 75.5q125 0 189 -98v65q0 21 22 21h43zM302.5 75q75.5 0 126.5 51t51 126.5t-51 126.5t-127 51q-49 0 -90 -23.5t-64.5 -64t-23.5 -90.5q0 -75 51.5 -126t127 -51z
" />
    <glyph glyph-name="Gdotaccent" unicode="&#x120;" horiz-adv-x="792" 
d="M358 775q-18 0 -18 19v68q0 18 18 18h68q19 0 19 -18v-68q0 -19 -19 -19h-68zM710 360q22 0 22 -21v-63v-255q0 -21 -22 -21h-47q-21 0 -21 21v81q-39 -57 -103.5 -85.5t-143.5 -28.5q-101 0 -183.5 48t-128.5 131t-46 183q0 75 27.5 141.5t75 115.5t115.5 77t145 28
q110 0 199 -59t125 -154q4 -11 -1 -17.5t-17 -6.5h-55q-17 0 -26 16q-28 59 -89.5 95t-135.5 36q-119 0 -194.5 -77.5t-75.5 -194.5q0 -118 76 -196.5t194 -78.5q101 0 170 52.5t71 148.5h-205q-22 0 -22 21v42q0 21 22 21h274z" />
    <glyph glyph-name="gdotaccent" unicode="&#x121;" horiz-adv-x="633" 
d="M270 575q-18 0 -18 19v68q0 18 18 18h68q19 0 19 -18v-68q0 -19 -19 -19h-68zM545 500q21 0 21 -21v-458q0 -75 -36 -129t-92 -79t-124 -25q-90 0 -160.5 47t-81.5 121q-1 23 22 23h44q18 0 23 -19q10 -37 51 -64.5t102 -27.5q80 0 123 41t43 112v70q-64 -99 -189 -99
q-105 0 -179 76t-74 184.5t74 184t179 75.5q125 0 189 -98v65q0 21 22 21h43zM302.5 75q75.5 0 126.5 51t51 126.5t-51 126.5t-127 51q-49 0 -90 -23.5t-64.5 -64t-23.5 -90.5q0 -75 51.5 -126t127 -51z" />
    <glyph glyph-name="Gcommaaccent" unicode="&#x122;" horiz-adv-x="792" 
d="M710 360q22 0 22 -21v-63v-255q0 -21 -22 -21h-47q-21 0 -21 21v81q-39 -57 -103.5 -85.5t-143.5 -28.5q-101 0 -183.5 48t-128.5 131t-46 183q0 75 27.5 141.5t75 115.5t115.5 77t145 28q110 0 199 -59t125 -154q4 -11 -1 -17.5t-17 -6.5h-55q-17 0 -26 16
q-28 59 -89.5 95t-135.5 36q-119 0 -194.5 -77.5t-75.5 -194.5q0 -118 76 -196.5t194 -78.5q101 0 170 52.5t71 148.5h-205q-22 0 -22 21v42q0 21 22 21h274zM443 -68q21 0 18 -19l-24 -144q-3 -17 -21 -17h-28q-19 0 -18 20l8 143q2 17 19 17h46z" />
    <glyph glyph-name="gcommaaccent" unicode="&#x123;" horiz-adv-x="633" 
d="M276 588q-20 0 -17 19l24 144q3 17 20 17h28q20 0 18 -20l-8 -143q-1 -17 -19 -17h-46zM545 500q21 0 21 -21v-458q0 -75 -36 -129t-92 -79t-124 -25q-90 0 -160.5 47t-81.5 121q-1 23 22 23h44q18 0 23 -19q10 -37 51 -64.5t102 -27.5q80 0 123 41t43 112v70
q-64 -99 -189 -99q-105 0 -179 76t-74 184.5t74 184t179 75.5q125 0 189 -98v65q0 21 22 21h43zM302.5 75q75.5 0 126.5 51t51 126.5t-51 126.5t-127 51q-49 0 -90 -23.5t-64.5 -64t-23.5 -90.5q0 -75 51.5 -126t127 -51z" />
    <glyph glyph-name="Hbar" unicode="&#x126;" horiz-adv-x="680" 
d="M624 579q21 0 21 -21v-28q0 -22 -21 -22h-43v-487q0 -21 -21 -21h-50q-21 0 -21 21v287h-298v-287q0 -21 -21 -21h-50q-21 0 -21 21v487h-43q-21 0 -21 22v28q0 21 21 21h43v100q0 21 21 21h50q21 0 21 -21v-100h298v100q0 21 21 21h50q21 0 21 -21v-100h43zM489 396v112
h-298v-112h298z" />
    <glyph glyph-name="hbar" unicode="&#x127;" horiz-adv-x="532" 
d="M310 512q72 0 120 -51t48 -137v-303q0 -21 -22 -21h-44q-21 0 -21 21v300q0 52 -29 80.5t-75 28.5q-53 0 -89 -35.5t-36 -110.5v-263q0 -21 -21 -21h-45q-21 0 -21 21v547h-46q-21 0 -21 22v21q0 21 21 21h46v47q0 21 21 21h45q21 0 21 -21v-47h122q21 0 21 -21v-21
q0 -22 -21 -22h-122v-130q49 74 148 74z" />
    <glyph glyph-name="Imacron" unicode="&#x12a;" horiz-adv-x="243" 
d="M5 775q-19 0 -19 18v37q0 18 19 18h233q18 0 18 -18v-37q0 -18 -18 -18h-233zM75 679q0 21 21 21h50q22 0 22 -21v-658q0 -21 -22 -21h-50q-21 0 -21 21v658z" />
    <glyph glyph-name="imacron" unicode="&#x12b;" horiz-adv-x="220" 
d="M26 575q-21 0 -21 21v34q0 21 21 21h168q21 0 21 -21v-34q0 -21 -21 -21h-168zM88 0q-22 0 -22 21v458q0 21 22 21h44q21 0 21 -21v-458q0 -21 -21 -21h-44z" />
    <glyph glyph-name="Iogonek" unicode="&#x12e;" horiz-adv-x="243" 
d="M172 -142q22 3 22 -18v-22q0 -18 -16 -24q-24 -7 -50 -7q-40 0 -63 21.5t-23 58.5q0 54 43 135q-10 5 -10 19v658q0 21 21 21h50q22 0 22 -21v-658v-1q0 -18 -13 -45q-2 -5 -9 -18.5t-10 -21t-6.5 -21.5t-3.5 -28q0 -34 46 -28z" />
    <glyph glyph-name="iogonek" unicode="&#x12f;" horiz-adv-x="220" 
d="M88 590q-22 0 -22 21v68q0 21 22 21h44q21 0 21 -21v-68q0 -21 -21 -21h-44zM160 -142q23 3 23 -18v-22q0 -18 -17 -24q-24 -7 -50 -7q-40 0 -63 21.5t-23 58.5q0 55 44 137q-8 5 -8 17v458q0 21 22 21h44q21 0 21 -21v-458v-1q0 -17 -13 -47q-1 -3 -5.5 -12l-6.5 -13
t-5 -13t-4.5 -15t-3 -15.5t-1.5 -18.5q0 -34 46 -28z" />
    <glyph glyph-name="Idotaccent" unicode="&#x130;" horiz-adv-x="243" 
d="M87 772q-18 0 -18 19v68q0 19 18 19h68q19 0 19 -19v-68q0 -19 -19 -19h-68zM75 679q0 21 21 21h50q22 0 22 -21v-658q0 -21 -22 -21h-50q-21 0 -21 21v658z" />
    <glyph glyph-name="dotlessi" unicode="&#x131;" horiz-adv-x="220" 
d="M88 0q-22 0 -22 21v458q0 21 22 21h44q21 0 21 -21v-458q0 -21 -21 -21h-44z" />
    <glyph glyph-name="Kcommaaccent" unicode="&#x136;" horiz-adv-x="592" 
d="M561 26q9 -10 5.5 -18t-17.5 -8h-63q-18 0 -27 12l-291 324v-315q0 -21 -22 -21h-50q-21 0 -21 21v658q0 21 21 21h50q22 0 22 -21v-296l281 305q11 12 26 12h63q14 0 18 -8t-5 -18l-286 -315zM332 -68q20 0 17 -19l-24 -144q-3 -17 -21 -17h-27q-20 0 -19 20l8 143
q2 17 19 17h47z" />
    <glyph glyph-name="kcommaaccent" unicode="&#x137;" horiz-adv-x="502" 
d="M462 26q9 -10 5.5 -18t-17.5 -8h-56q-16 0 -26 12l-215 224v-215q0 -21 -21 -21h-44q-22 0 -22 21v658q0 21 22 21h44q21 0 21 -21v-401l205 210q10 12 26 12h57q14 0 17 -8t-6 -18l-212 -216zM294 -68q21 0 18 -19l-24 -144q-3 -17 -20 -17h-28q-20 0 -18 20l8 143
q1 17 18 17h46z" />
    <glyph glyph-name="Lacute" unicode="&#x139;" horiz-adv-x="485" 
d="M104 768q-11 0 -15 6.5t2 17.5l58 95q8 13 23 13h60q12 0 15.5 -7t-3.5 -17l-74 -97q-9 -11 -24 -11h-42zM446 88q22 0 22 -21v-46q0 -21 -22 -21h-321h-29q-21 0 -21 21v658q0 21 21 21h50q22 0 22 -21v-591h278z" />
    <glyph glyph-name="lacute" unicode="&#x13a;" horiz-adv-x="220" 
d="M80 792q-6 -11 -2.5 -17.5t15.5 -6.5h41q16 0 24 11l74 97q8 10 4.5 17t-16.5 7h-59q-16 0 -23 -13zM88 0q-22 0 -22 21v678q0 21 22 21h44q21 0 21 -21v-678q0 -21 -21 -21h-44z" />
    <glyph glyph-name="Lcommaaccent" unicode="&#x13b;" horiz-adv-x="485" 
d="M446 88q22 0 22 -21v-46q0 -21 -22 -21h-321h-29q-21 0 -21 21v658q0 21 21 21h50q22 0 22 -21v-591h278zM306 -68q20 0 17 -19l-24 -144q-3 -17 -20 -17h-28q-20 0 -18 20l8 143q1 17 19 17h46z" />
    <glyph glyph-name="lcommaaccent" unicode="&#x13c;" horiz-adv-x="220" 
d="M88 0q-22 0 -22 21v678q0 21 22 21h44q21 0 21 -21v-678q0 -21 -21 -21h-44zM106 -248q17 0 20 17l24 144q4 19 -17 19h-46q-18 0 -19 -17l-8 -143q-2 -20 18 -20h28z" />
    <glyph glyph-name="Lcaron" unicode="&#x13d;" horiz-adv-x="485" 
d="M446 88q22 0 22 -21v-46q0 -21 -22 -21h-321h-29q-21 0 -21 21v658q0 21 21 21h50q22 0 22 -21v-591h278zM282 525q-23 0 -21 22l8 133q1 20 21 20h44q10 0 15 -6.5t4 -16.5l-23 -133q-3 -19 -22 -19h-26z" />
    <glyph glyph-name="lcaron" unicode="&#x13e;" horiz-adv-x="299" 
d="M88 0q-22 0 -22 21v678q0 21 22 21h44q21 0 21 -21v-678q0 -21 -21 -21h-44zM260 540q19 0 22 19l23 138q2 10 -3.5 16.5t-15.5 6.5h-41q-20 0 -21 -20l-8 -138q-2 -22 21 -22h23z" />
    <glyph glyph-name="Lslash" unicode="&#x141;" horiz-adv-x="505" 
d="M466 88q22 0 22 -21v-46q0 -21 -22 -21h-321h-29q-21 0 -21 21v214l-32 -21q-11 -7 -18 -3t-7 17v41q0 17 13 26l44 29v355q0 21 21 21h50q22 0 22 -21v-295l134 88q10 7 18 3t8 -17v-40q0 -17 -14 -26l-146 -96v-208h278z" />
    <glyph glyph-name="lslash" unicode="&#x142;" horiz-adv-x="248" 
d="M204 452q12 8 19 4t7 -17v-36q0 -16 -14 -25l-49 -34v-323q0 -21 -21 -21h-44q-22 0 -22 21v264l-37 -25q-11 -8 -18 -4t-7 16v36q0 17 13 26l49 33v332q0 21 22 21h44q21 0 21 -21v-272z" />
    <glyph glyph-name="Nacute" unicode="&#x143;" horiz-adv-x="635" 
d="M272 792q-6 -11 -2.5 -17.5t15.5 -6.5h41q16 0 24 11l74 97q8 10 4.5 17t-16.5 7h-59q-16 0 -23 -13zM468 679q0 21 21 21h50q21 0 21 -21v-658q0 -21 -21 -21h-37q-18 0 -26 14l-308 504v-497q0 -21 -22 -21h-50q-21 0 -21 21v658q0 21 21 21h37q18 0 26 -14l309 -504
v497z" />
    <glyph glyph-name="nacute" unicode="&#x144;" 
d="M234 570q-12 0 -15.5 7t1.5 17l59 95q7 13 23 13h59q13 0 16.5 -7t-4.5 -17l-73 -96q-9 -12 -25 -12h-41zM301 512q72 0 120 -51t48 -137v-303q0 -21 -21 -21h-45q-21 0 -21 21v300q0 52 -29 80.5t-75 28.5q-25 0 -46 -8t-39.5 -24t-29 -45.5t-10.5 -68.5v-263
q0 -21 -21 -21h-44q-22 0 -22 21v458q0 21 22 21h44q21 0 21 -21v-41q49 74 148 74z" />
    <glyph glyph-name="Ncommaaccent" unicode="&#x145;" horiz-adv-x="635" 
d="M468 679q0 21 21 21h50q21 0 21 -21v-658q0 -21 -21 -21h-37q-18 0 -26 14l-308 504v-497q0 -21 -22 -21h-50q-21 0 -21 21v658q0 21 21 21h37q18 0 26 -14l309 -504v497zM315 -248q17 0 21 17l24 144q2 19 -18 19h-46q-18 0 -19 -17l-8 -143q-2 -20 18 -20h28z" />
    <glyph glyph-name="ncommaaccent" unicode="&#x146;" 
d="M301 512q72 0 120 -51t48 -137v-303q0 -21 -21 -21h-45q-21 0 -21 21v300q0 52 -29 80.5t-75 28.5q-25 0 -46 -8t-39.5 -24t-29 -45.5t-10.5 -68.5v-263q0 -21 -21 -21h-44q-22 0 -22 21v458q0 21 22 21h44q21 0 21 -21v-41q49 74 148 74zM295 -68q21 0 18 -19l-24 -144
q-4 -17 -21 -17h-28q-20 0 -18 20l8 143q1 17 19 17h46z" />
    <glyph glyph-name="Ncaron" unicode="&#x147;" horiz-adv-x="635" 
d="M260 776l-80 102q-7 9 -3.5 15.5t14.5 6.5h49q15 0 23 -12l53 -69l54 69q8 12 22 12h50q11 0 14 -6.5t-4 -15.5l-79 -102q-8 -11 -23 -11h-47h-21q-14 0 -22 11zM539 700q21 0 21 -21v-658q0 -21 -21 -21h-37q-18 0 -26 14l-308 504v-497q0 -21 -22 -21h-50q-21 0 -21 21
v658q0 21 21 21h37q18 0 26 -14l309 -504v497q0 21 21 21h50z" />
    <glyph glyph-name="ncaron" unicode="&#x148;" 
d="M208 578l-79 102q-7 9 -3.5 15.5t14.5 6.5h50q14 0 22 -11l53 -70l53 70q9 11 23 11h49q12 0 15 -6.5t-4 -15.5l-79 -102q-8 -10 -22 -10h-48h-21q-14 0 -23 10zM301 512q72 0 120 -51t48 -137v-303q0 -21 -21 -21h-45q-21 0 -21 21v300q0 52 -29 80.5t-75 28.5
q-25 0 -46 -8t-39.5 -24t-29 -45.5t-10.5 -68.5v-263q0 -21 -21 -21h-44q-22 0 -22 21v458q0 21 22 21h44q21 0 21 -21v-41q49 74 148 74z" />
    <glyph glyph-name="Eng" unicode="&#x14a;" horiz-adv-x="635" 
d="M539 700q21 0 21 -21v-658v-21q0 -189 -196 -199q-22 -2 -22 20v44q0 20 22 21q51 4 77.5 29t26.5 85v28l-300 490v-497q0 -21 -22 -21h-50q-21 0 -21 21v658q0 21 21 21h37q18 0 26 -14l309 -504v497q0 21 21 21h50z" />
    <glyph glyph-name="eng" unicode="&#x14b;" 
d="M301 512q72 0 120 -51t48 -137v-354q0 -89 -43.5 -136.5t-125.5 -47.5q-21 0 -21 22v41q0 21 22 22q41 0 61 23.5t20 75.5v351q0 52 -29 80.5t-75 28.5q-25 0 -46 -8t-39.5 -24t-29 -45.5t-10.5 -68.5v-263q0 -21 -21 -21h-44q-22 0 -22 21v458q0 21 22 21h44
q21 0 21 -21v-41q49 74 148 74z" />
    <glyph glyph-name="Omacron" unicode="&#x14c;" horiz-adv-x="800" 
d="M284 777q-19 0 -19 19v36q0 19 19 19h232q19 0 19 -19v-36q0 -19 -19 -19h-232zM400 -12q-100 0 -183.5 48t-131 131.5t-47.5 182.5t47.5 182.5t131 131.5t183.5 48t183.5 -48t131 -131.5t47.5 -182.5t-47.5 -182.5t-131 -131.5t-183.5 -48zM400 78q115 0 192.5 78.5
t77.5 193.5t-77.5 193.5t-192.5 78.5t-192.5 -78.5t-77.5 -193.5t77.5 -193.5t192.5 -78.5z" />
    <glyph glyph-name="omacron" unicode="&#x14d;" horiz-adv-x="602" 
d="M184 577q-18 0 -18 19v36q0 19 18 19h234q18 0 18 -19v-36q0 -19 -18 -19h-234zM301 -12q-110 0 -186.5 75.5t-76.5 186.5t76.5 186.5t186.5 75.5t186.5 -75.5t76.5 -186.5t-76.5 -186.5t-186.5 -75.5zM301 72q75 0 126 51t51 127t-51 127t-126 51t-126 -51t-51 -127
t51 -127t126 -51z" />
    <glyph glyph-name="Ohungarumlaut" unicode="&#x150;" horiz-adv-x="800" 
d="M278 791q-5 -11 -1.5 -17t15.5 -6h46q14 0 23 13l56 95q6 10 2.5 17t-15.5 7h-51q-15 0 -23 -14zM432 792q-6 -10 -2 -17t16 -7h45q16 0 24 12l64 96q6 10 2.5 17t-15.5 7h-50q-16 0 -24 -13zM400 -12q-100 0 -183.5 48t-131 131.5t-47.5 182.5t47.5 182.5t131 131.5
t183.5 48t183.5 -48t131 -131.5t47.5 -182.5t-47.5 -182.5t-131 -131.5t-183.5 -48zM400 78q115 0 192.5 78.5t77.5 193.5t-77.5 193.5t-192.5 78.5t-192.5 -78.5t-77.5 -193.5t77.5 -193.5t192.5 -78.5z" />
    <glyph glyph-name="ohungarumlaut" unicode="&#x151;" horiz-adv-x="602" 
d="M179 591q-5 -11 -1.5 -17t14.5 -6h46q15 0 24 13l56 95q6 10 2.5 17t-15.5 7h-51q-15 0 -23 -14zM334 592q-7 -10 -3 -17t16 -7h45q16 0 24 12l64 96q6 10 2.5 17t-15.5 7h-50q-16 0 -23 -13zM301 -12q-110 0 -186.5 75.5t-76.5 186.5t76.5 186.5t186.5 75.5t186.5 -75.5
t76.5 -186.5t-76.5 -186.5t-186.5 -75.5zM301 72q75 0 126 51t51 127t-51 127t-126 51t-126 -51t-51 -127t51 -127t126 -51z" />
    <glyph glyph-name="OE" unicode="&#x152;" horiz-adv-x="915" 
d="M856 88q22 0 22 -21v-46q0 -21 -22 -21h-336h-35q-45 -12 -95 -12q-100 0 -181 48t-126 131t-45 183q0 75 26.5 141.5t73 115.5t112 77t140.5 28q50 0 95 -12h93h274q21 0 21 -21v-46q0 -21 -21 -21h-274v-215h256q21 0 21 -21v-45q0 -21 -21 -21h-256v-222h278zM485 92
v516q-43 14 -95 14q-114 0 -187 -78t-73 -194t73 -194t187 -78q52 0 95 14z" />
    <glyph glyph-name="oe" unicode="&#x153;" horiz-adv-x="1011" 
d="M736 512q110 0 178 -77t68 -186q0 -7 -1 -19q-2 -20 -22 -20h-66h-326q8 -45 31.5 -78t59.5 -49.5t81 -16.5q41 0 74 16t52 43q11 14 25 14h48q12 0 17.5 -6t0.5 -16q-27 -59 -85 -94t-134 -35q-52 0 -95 16t-73.5 45.5t-49.5 70.5q-31 -61 -88.5 -96.5t-130.5 -35.5
q-113 0 -187.5 75t-74.5 187t74.5 187.5t187.5 75.5q73 0 130.5 -36t88.5 -97q29 62 84.5 97t132.5 35zM567 287h326q-9 70 -53 107t-104 37q-68 0 -113.5 -39t-55.5 -105zM301 72q75 0 126 51t51 127t-51 127t-126 51q-77 0 -126.5 -51t-49.5 -127t49.5 -127t126.5 -51z
" />
    <glyph glyph-name="Racute" unicode="&#x154;" horiz-adv-x="630" 
d="M247 768q-11 0 -15 6.5t2 17.5l58 95q8 13 24 13h59q12 0 15.5 -7t-3.5 -17l-74 -97q-9 -11 -24 -11h-42zM620 26q9 -10 5 -18t-17 -8h-62q-17 0 -27 12l-219 256h-133v-247q0 -21 -21 -21h-50q-21 0 -21 21v658q0 21 21 21h71h163q90 0 153.5 -63.5t63.5 -154.5
q0 -68 -40.5 -124t-104.5 -78zM167 613v-261h163q25 0 48.5 10.5t40 28t26.5 41.5t10 50q0 55 -36.5 93t-88.5 38h-163z" />
    <glyph glyph-name="racute" unicode="&#x155;" horiz-adv-x="322" 
d="M153 568q-11 0 -15 6.5t2 17.5l58 95q7 13 23 13h59q13 0 16.5 -7t-4.5 -17l-73 -97q-9 -11 -25 -11h-41zM283 507q21 3 21 -20v-48q0 -21 -14 -21q-59 -2 -98 -38.5t-39 -112.5v-246q0 -21 -21 -21h-44q-22 0 -22 21v458q0 21 22 21h44q21 0 21 -21v-55q42 75 130 83z
" />
    <glyph glyph-name="Rcommaaccent" unicode="&#x156;" horiz-adv-x="630" 
d="M620 26q9 -10 5 -18t-17 -8h-62q-17 0 -27 12l-219 256h-133v-247q0 -21 -21 -21h-50q-21 0 -21 21v658q0 21 21 21h71h163q90 0 153.5 -63.5t63.5 -154.5q0 -68 -40.5 -124t-104.5 -78zM167 613v-261h163q25 0 48.5 10.5t40 28t26.5 41.5t10 50q0 55 -36.5 93t-88.5 38
h-163zM374 -68q21 0 18 -19l-24 -144q-3 -17 -21 -17h-27q-20 0 -19 20l8 143q2 17 19 17h46z" />
    <glyph glyph-name="rcommaaccent" unicode="&#x157;" horiz-adv-x="322" 
d="M283 507q21 3 21 -20v-48q0 -21 -14 -21q-59 -2 -98 -38.5t-39 -112.5v-246q0 -21 -21 -21h-44q-22 0 -22 21v458q0 21 22 21h44q21 0 21 -21v-55q42 75 130 83zM133 -68q21 0 18 -19l-24 -144q-3 -17 -21 -17h-28q-19 0 -18 20l8 143q2 17 19 17h46z" />
    <glyph glyph-name="Rcaron" unicode="&#x158;" horiz-adv-x="630" 
d="M222 776l-79 102q-7 9 -4 15.5t15 6.5h49q14 0 23 -12l53 -69l53 69q8 12 22 12h50q11 0 14.5 -6.5t-3.5 -15.5l-79 -102q-9 -11 -23 -11h-47h-22q-14 0 -22 11zM620 26q9 -10 5 -18t-17 -8h-62q-17 0 -27 12l-219 256h-133v-247q0 -21 -21 -21h-50q-21 0 -21 21v658
q0 21 21 21h71h163q90 0 153.5 -63.5t63.5 -154.5q0 -68 -40.5 -124t-104.5 -78zM167 613v-261h163q25 0 48.5 10.5t40 28t26.5 41.5t10 50q0 55 -36.5 93t-88.5 38h-163z" />
    <glyph glyph-name="rcaron" unicode="&#x159;" horiz-adv-x="322" 
d="M310 700q11 0 14 -6.5t-4 -15.5l-79 -102q-8 -11 -22 -11h-47h-22q-14 0 -22 11l-80 102q-6 9 -3 15.5t14 6.5h50q14 0 22 -12l53 -69l54 69q8 12 22 12h50zM283 507q21 3 21 -20v-48q0 -21 -14 -21q-59 -2 -98 -38.5t-39 -112.5v-246q0 -21 -21 -21h-44q-22 0 -22 21
v458q0 21 22 21h44q21 0 21 -21v-55q42 75 130 83z" />
    <glyph glyph-name="Sacute" unicode="&#x15a;" horiz-adv-x="549" 
d="M225 794q-6 -10 -2 -17t15 -7h42q15 0 24 12l74 96q7 10 3.5 17t-15.5 7h-60q-15 0 -23 -13zM284 -12q-101 0 -170.5 51.5t-77.5 145.5q-2 22 20 22h51q19 0 22 -21q7 -52 48 -80t107 -28q61 0 99 28.5t38 75.5q0 19 -8 36t-20 28.5t-33 23.5t-39 19.5t-45 17.5
q-5 1 -14 5q-29 10 -44 16t-41 18t-40.5 22t-33 26.5t-28 34t-16.5 42t-7 52.5q0 87 64 138t153 51t152.5 -49t71.5 -137q1 -22 -21 -22h-50q-20 0 -22 20q-4 32 -22 54.5t-46 33t-63 10.5q-54 0 -89 -26.5t-35 -72.5q0 -26 10 -45.5t32 -34.5t43 -25t55 -23q6 -2 18 -7
q29 -11 44 -17t41 -18t40.5 -22t33 -26t28.5 -33t17 -40.5t7 -49.5q0 -89 -67.5 -141.5t-162.5 -52.5z" />
    <glyph glyph-name="sacute" unicode="&#x15b;" horiz-adv-x="467" 
d="M200 570q-12 0 -15.5 7t1.5 17l59 95q7 13 23 13h59q13 0 16.5 -7t-4.5 -17l-73 -96q-9 -12 -25 -12h-41zM138 364q0 -26 21.5 -43t53 -24.5t68.5 -18.5t69 -24t53 -43.5t21 -74.5q0 -67 -53.5 -107.5t-137.5 -40.5q-78 0 -130 37t-59 103q-2 22 21 22h44q16 0 22 -20
q12 -62 102 -62q46 0 75 17t29 51q0 26 -21 43t-53 24.5t-69 18.5t-68.5 24t-53 43.5t-21.5 74.5q0 66 52 107t130 41q28 0 53.5 -5.5t47 -17.5t38.5 -28.5t27.5 -39t13.5 -49.5q2 -22 -21 -22h-44q-16 0 -23 20q-6 32 -31.5 47t-60.5 15q-40 0 -67.5 -17.5t-27.5 -50.5z
" />
    <glyph glyph-name="Scedilla" unicode="&#x15e;" horiz-adv-x="549" 
d="M514 182q0 -81 -56.5 -132.5t-141.5 -60.5v-34q39 -7 62 -28t23 -52q0 -99 -190 -92q-20 1 -20 19v29q0 19 21 19q113 -7 113 31q0 28 -64 35q-19 1 -19 19v55q-85 10 -142 60.5t-64 134.5q-2 22 20 22h51q19 0 22 -21q7 -52 48 -80t107 -28q61 0 99 28.5t38 75.5
q0 19 -8 36t-20 28.5t-33 23.5t-39 19.5t-45 17.5q-5 1 -14 5q-29 10 -44 16t-41 18t-40.5 22t-33 26.5t-28 34t-16.5 42t-7 52.5q0 87 64 138t153 51t152.5 -49t71.5 -137q1 -22 -21 -22h-50q-20 0 -22 20q-4 32 -22 54.5t-46 33t-63 10.5q-54 0 -89 -26.5t-35 -72.5
q0 -26 10 -45.5t32 -34.5t43 -25t55 -23q6 -2 18 -7q29 -11 44 -17t41 -18t40.5 -22t33 -26t28.5 -33t17 -40.5t7 -49.5z" />
    <glyph glyph-name="scedilla" unicode="&#x15f;" horiz-adv-x="467" 
d="M424 136q0 -59 -41 -97.5t-109 -48.5v-35q38 -7 61.5 -28t23.5 -52q0 -99 -191 -92q-19 1 -19 19v29q0 18 21 18q113 -6 113 32q0 28 -65 34q-18 2 -18 20v54q-66 8 -107.5 44t-48.5 95q-2 22 21 22h44q16 0 22 -20q12 -62 102 -62q46 0 75 17t29 51q0 26 -21 43
t-53 24.5t-69 18.5t-68.5 24t-53 43.5t-21.5 74.5q0 66 52 107t130 41q28 0 53.5 -5.5t47 -17.5t38.5 -28.5t27.5 -39t13.5 -49.5q2 -22 -21 -22h-44q-16 0 -23 20q-6 32 -31.5 47t-60.5 15q-40 0 -67.5 -17.5t-27.5 -50.5q0 -26 21.5 -43t53 -24.5t68.5 -18.5t69 -24
t53 -43.5t21 -74.5z" />
    <glyph glyph-name="Scaron" unicode="&#x160;" horiz-adv-x="549" 
d="M213 778l-79 102q-7 9 -4 15.5t14 6.5h50q14 0 22 -11l54 -70l53 70q8 11 23 11h49q11 0 14.5 -6.5t-3.5 -15.5l-80 -102q-8 -10 -22 -10h-47h-21q-15 0 -23 10zM285 395q6 -2 18 -7q29 -11 44 -17t41 -18t40.5 -22t33 -26t28.5 -33t17 -40.5t7 -49.5q0 -89 -67.5 -141.5
t-162.5 -52.5q-101 0 -170.5 51.5t-77.5 145.5q-2 22 20 22h51q19 0 22 -21q7 -52 48 -80t107 -28q61 0 99 28.5t38 75.5q0 19 -8 36t-20 28.5t-33 23.5t-39 19.5t-45 17.5q-5 1 -14 5q-29 10 -44 16t-41 18t-40.5 22t-33 26.5t-28 34t-16.5 42t-7 52.5q0 87 64 138t153 51
t152.5 -49t71.5 -137q1 -22 -21 -22h-50q-20 0 -22 20q-4 32 -22 54.5t-46 33t-63 10.5q-54 0 -89 -26.5t-35 -72.5q0 -26 10 -45.5t32 -34.5t43 -25t55 -23z" />
    <glyph glyph-name="scaron" unicode="&#x161;" horiz-adv-x="467" 
d="M174 578l-79 102q-7 9 -3.5 15.5t14.5 6.5h50q14 0 22 -11l53 -70l53 70q9 11 23 11h49q12 0 15 -6.5t-4 -15.5l-79 -102q-8 -10 -22 -10h-48h-21q-14 0 -23 10zM138 364q0 -26 21.5 -43t53 -24.5t68.5 -18.5t69 -24t53 -43.5t21 -74.5q0 -67 -53.5 -107.5t-137.5 -40.5
q-78 0 -130 37t-59 103q-2 22 21 22h44q16 0 22 -20q12 -62 102 -62q46 0 75 17t29 51q0 26 -21 43t-53 24.5t-69 18.5t-68.5 24t-53 43.5t-21.5 74.5q0 66 52 107t130 41q28 0 53.5 -5.5t47 -17.5t38.5 -28.5t27.5 -39t13.5 -49.5q2 -22 -21 -22h-44q-16 0 -23 20
q-6 32 -31.5 47t-60.5 15q-40 0 -67.5 -17.5t-27.5 -50.5z" />
    <glyph glyph-name="uni0162" unicode="&#x162;" horiz-adv-x="500" 
d="M461 700q21 0 21 -21v-46q0 -21 -21 -21h-165v-591q0 -21 -21 -21h-50q-21 0 -21 21v591h-165q-21 0 -21 21v46q0 21 21 21h257h165zM274 -68q21 0 18 -19l-24 -144q-3 -17 -20 -17h-28q-20 0 -18 20l8 143q1 17 18 17h46z" />
    <glyph glyph-name="uni0163" unicode="&#x163;" horiz-adv-x="321" 
d="M281 500q21 0 21 -21v-42q0 -21 -21 -21h-77v-395q0 -21 -21 -21h-44q-21 0 -21 21v395h-78q-21 0 -21 21v42q0 21 21 21h78v139q0 21 21 21h44q21 0 21 -21v-139h77zM185 -68q20 0 17 -19l-24 -144q-3 -17 -20 -17h-28q-20 0 -18 20l8 143q1 17 18 17h47z" />
    <glyph glyph-name="Tcaron" unicode="&#x164;" horiz-adv-x="500" 
d="M192 776l-79 102q-7 9 -4 15.5t15 6.5h49q14 0 23 -12l53 -69l53 69q8 12 22 12h50q11 0 14.5 -6.5t-3.5 -15.5l-79 -102q-9 -11 -23 -11h-47h-22q-14 0 -22 11zM461 700q21 0 21 -21v-46q0 -21 -21 -21h-165v-591q0 -21 -21 -21h-50q-21 0 -21 21v591h-165q-21 0 -21 21
v46q0 21 21 21h257h165z" />
    <glyph glyph-name="tcaron" unicode="&#x165;" horiz-adv-x="346" 
d="M327 725q11 0 16.5 -6.5t2.5 -16.5l-22 -125q-3 -19 -23 -19h-23q-23 0 -21 22l8 125q2 20 21 20h41zM281 500q21 0 21 -21v-42q0 -21 -21 -21h-77v-395q0 -21 -21 -21h-44q-21 0 -21 21v395h-78q-21 0 -21 21v42q0 21 21 21h78v139q0 21 21 21h44q21 0 21 -21v-139h77z
" />
    <glyph glyph-name="Tbar" unicode="&#x166;" horiz-adv-x="500" 
d="M461 700q21 0 21 -21v-46q0 -21 -21 -21h-165v-222h115q21 0 21 -22v-41q0 -21 -21 -21h-115v-285q0 -21 -21 -21h-50q-21 0 -21 21v285h-115q-21 0 -21 21v41q0 22 21 22h115v222h-165q-21 0 -21 21v46q0 21 21 21h257h165z" />
    <glyph glyph-name="tbar" unicode="&#x167;" horiz-adv-x="321" 
d="M281 500q21 0 21 -21v-42q0 -21 -21 -21h-77v-92h53q21 0 21 -21v-28q0 -21 -21 -21h-53v-233q0 -21 -21 -21h-44q-21 0 -21 21v233h-53q-21 0 -21 21v28q0 21 21 21h53v92h-78q-21 0 -21 21v42q0 21 21 21h78v139q0 21 21 21h44q21 0 21 -21v-139h77z" />
    <glyph glyph-name="Umacron" unicode="&#x16a;" horiz-adv-x="620" 
d="M194 775q-19 0 -19 18v37q0 18 19 18h232q19 0 19 -18v-37q0 -18 -19 -18h-232zM310 -12q-106 0 -175.5 58.5t-69.5 163.5v469q0 21 21 21h50q22 0 22 -21v-465q0 -34 10.5 -59.5t30 -42.5t48 -25.5t63.5 -8.5q72 0 112 35t40 101v465q0 21 22 21h50q21 0 21 -21v-469
q0 -105 -69.5 -163.5t-175.5 -58.5z" />
    <glyph glyph-name="umacron" unicode="&#x16b;" 
d="M140 575q-18 0 -18 18v37q0 18 18 18h234q18 0 18 -18v-37q0 -18 -18 -18h-234zM435 500q21 0 21 -21v-458q0 -21 -21 -21h-44q-22 0 -22 21v41q-48 -74 -147 -74q-72 0 -120 51t-48 137v303q0 21 21 21h45q21 0 21 -21v-300q0 -52 28.5 -80.5t75.5 -28.5q24 0 45.5 8
t39.5 24t29 45.5t11 68.5v263q0 21 21 21h44z" />
    <glyph glyph-name="Uring" unicode="&#x16e;" horiz-adv-x="620" 
d="M310 746q-50 0 -81.5 30.5t-31.5 76t31.5 76t81.5 30.5q33 0 59 -14t40 -38t14 -55q0 -46 -31.5 -76t-81.5 -30zM310 807q23 0 35.5 12.5t12.5 33t-12.5 33t-35.5 12.5q-22 0 -34.5 -13t-12.5 -32.5t12.5 -32.5t34.5 -13zM310 -12q-106 0 -175.5 58.5t-69.5 163.5v469
q0 21 21 21h50q22 0 22 -21v-465q0 -34 10.5 -59.5t30 -42.5t48 -25.5t63.5 -8.5q72 0 112 35t40 101v465q0 21 22 21h50q21 0 21 -21v-469q0 -105 -69.5 -163.5t-175.5 -58.5z" />
    <glyph glyph-name="uring" unicode="&#x16f;" 
d="M257 546q-50 0 -81.5 30.5t-31.5 76t31.5 76t81.5 30.5q33 0 59 -14t40 -38t14 -55q0 -46 -31.5 -76t-81.5 -30zM257 698q-22 0 -34.5 -13t-12.5 -32.5t12.5 -32.5t34.5 -13q23 0 35.5 12.5t12.5 33t-12.5 33t-35.5 12.5zM435 500q21 0 21 -21v-458q0 -21 -21 -21h-44
q-22 0 -22 21v41q-48 -74 -147 -74q-72 0 -120 51t-48 137v303q0 21 21 21h45q21 0 21 -21v-300q0 -52 28.5 -80.5t75.5 -28.5q24 0 45.5 8t39.5 24t29 45.5t11 68.5v263q0 21 21 21h44z" />
    <glyph glyph-name="Uhungarumlaut" unicode="&#x170;" horiz-adv-x="620" 
d="M188 788q-5 -10 -1.5 -16.5t15.5 -6.5h46q14 0 23 13l56 96q6 10 2.5 17t-15.5 7h-51q-15 0 -23 -14zM342 789q-6 -10 -2 -17t16 -7h45q16 0 24 13l64 96q6 10 2.5 17t-15.5 7h-50q-16 0 -24 -14zM310 -12q-106 0 -175.5 58.5t-69.5 163.5v469q0 21 21 21h50q22 0 22 -21
v-465q0 -34 10.5 -59.5t30 -42.5t48 -25.5t63.5 -8.5q72 0 112 35t40 101v465q0 21 22 21h50q21 0 21 -21v-469q0 -105 -69.5 -163.5t-175.5 -58.5z" />
    <glyph glyph-name="uhungarumlaut" unicode="&#x171;" 
d="M148 565q-11 0 -14.5 6.5t1.5 16.5l52 96q8 14 23 14h51q12 0 15.5 -7t-2.5 -17l-56 -96q-9 -13 -24 -13h-46zM303 565q-12 0 -16 7t3 17l60 95q7 14 23 14h50q12 0 15.5 -7t-2.5 -17l-64 -96q-8 -13 -24 -13h-45zM435 500q21 0 21 -21v-458q0 -21 -21 -21h-44
q-22 0 -22 21v41q-48 -74 -147 -74q-72 0 -120 51t-48 137v303q0 21 21 21h45q21 0 21 -21v-300q0 -52 28.5 -80.5t75.5 -28.5q24 0 45.5 8t39.5 24t29 45.5t11 68.5v263q0 21 21 21h44z" />
    <glyph glyph-name="Uogonek" unicode="&#x172;" horiz-adv-x="620" 
d="M534 700q21 0 21 -21v-469q0 -106 -73 -167q-63 -57 -88.5 -91.5t-25.5 -65.5q0 -34 46 -28q22 3 22 -18v-22q0 -19 -14 -23q-23 -7 -52 -7q-40 0 -63 21t-23 58q0 58 59 122q-16 -1 -33 -1q-106 0 -175.5 58.5t-69.5 163.5v469q0 21 21 21h50q22 0 22 -21v-465
q0 -34 10.5 -59.5t30 -42.5t48 -25.5t63.5 -8.5q72 0 112 35t40 101v465q0 21 22 21h50z" />
    <glyph glyph-name="uogonek" unicode="&#x173;" 
d="M456 479l1 -458q0 -1 -1 -2q0 -16 -20 -38q-50 -55 -50 -95q0 -34 48 -29q20 4 20 -15v-27q0 -16 -12 -19q-23 -9 -54 -9q-40 0 -63 21.5t-23 58.5q0 54 71 142q-4 5 -4 12v41q-48 -74 -147 -74q-72 0 -120 51t-48 137v303q0 21 21 21h45q21 0 21 -21v-300
q0 -52 28.5 -80.5t75.5 -28.5q24 0 45.5 8t39.5 24t29 45.5t11 68.5v263q0 21 21 21h44q21 0 21 -21z" />
    <glyph glyph-name="Wcircumflex" unicode="&#x174;" horiz-adv-x="870" 
d="M308 765q-11 0 -14 6.5t4 16.5l79 101q8 11 23 11h47h21q14 0 22 -11l80 -101q7 -10 3.5 -16.5t-14.5 -6.5h-49q-15 0 -23 11l-53 70l-54 -70q-8 -11 -22 -11h-50zM837 700q12 0 16.5 -6.5t1.5 -17.5l-199 -658q-5 -18 -24 -18h-75q-19 0 -23 18l-99 325l-99 -325
q-4 -18 -23 -18h-75q-19 0 -24 18l-199 658q-3 11 1.5 17.5t16.5 6.5h49q19 0 24 -18l172 -576l114 378l-58 192q-3 11 2 17.5t16 6.5h45q18 0 23 -18l172 -576l172 576q5 18 24 18h49z" />
    <glyph glyph-name="wcircumflex" unicode="&#x175;" horiz-adv-x="695" 
d="M221 565q-11 0 -14.5 6.5t3.5 16.5l80 101q8 11 22 11h47h21q15 0 23 -11l79 -101q7 -10 4 -16.5t-14 -6.5h-50q-14 0 -22 11l-54 70l-53 -70q-8 -11 -23 -11h-49zM660 500q7 0 12 -3t6 -8.5t-1 -12.5l-156 -459q-6 -17 -25 -17h-37h-15q-19 0 -25 17l-71 210l-72 -210
q-6 -17 -25 -17h-31h-21q-19 0 -25 17l-156 459q-3 11 1.5 17.5t15.5 6.5h49q18 0 24 -17l120 -382l81 240l-46 135q-3 11 1.5 17.5t15.5 6.5h42q17 0 23 -17l123 -377l119 377q6 17 24 17h49z" />
    <glyph glyph-name="Ycircumflex" unicode="&#x176;" horiz-adv-x="584" 
d="M163 765q-12 0 -15 6.5t4 16.5l79 101q8 11 23 11h47h21q15 0 23 -11l79 -101q7 -10 4 -16.5t-15 -6.5h-49q-15 0 -23 11l-53 70l-53 -70q-8 -11 -23 -11h-49zM546 700q13 0 17 -7.5t-3 -18.5l-222 -354v-299q0 -21 -22 -21h-50q-21 0 -21 21v301l-221 352q-7 11 -3 18.5
t17 7.5h57q17 0 25 -14l172 -277l171 277q9 14 25 14h58z" />
    <glyph glyph-name="ycircumflex" unicode="&#x177;" horiz-adv-x="480" 
d="M114 565q-12 0 -15 6.5t4 16.5l79 101q8 11 22 11h48h21q14 0 23 -11l79 -101q7 -10 3.5 -16.5t-14.5 -6.5h-50q-14 0 -22 11l-53 70l-53 -70q-9 -11 -23 -11h-49zM447 500q11 0 16 -6.5t1 -17.5l-230 -659q-6 -17 -24 -17h-49q-12 0 -16.5 6.5t-0.5 17.5l62 181
l-188 471q-5 11 -0.5 17.5t16.5 6.5h48q18 0 24 -16l144 -358l124 357q6 17 24 17h49z" />
    <glyph glyph-name="Ydieresis" unicode="&#x178;" horiz-adv-x="584" 
d="M164 774q-18 0 -18 18v56q0 18 18 18h56q18 0 18 -18v-56q0 -18 -18 -18h-56zM359 774q-19 0 -19 18v56q0 18 19 18h55q19 0 19 -18v-56q0 -18 -19 -18h-55zM546 700q13 0 17 -7.5t-3 -18.5l-222 -354v-299q0 -21 -22 -21h-50q-21 0 -21 21v301l-221 352q-7 11 -3 18.5
t17 7.5h57q17 0 25 -14l172 -277l171 277q9 14 25 14h58z" />
    <glyph glyph-name="Zacute" unicode="&#x179;" horiz-adv-x="525" 
d="M222 792q-6 -11 -2.5 -17.5t15.5 -6.5h41q16 0 24 11l74 97q8 10 4.5 17t-16.5 7h-59q-16 0 -23 -13zM149 88h326q21 0 21 -21v-46q0 -21 -21 -21h-415q-21 0 -21 21v45q0 13 7 26l331 520h-308q-21 0 -21 21v46q0 21 21 21h397q22 0 22 -21v-45q0 -13 -8 -26z" />
    <glyph glyph-name="zacute" unicode="&#x17a;" horiz-adv-x="451" 
d="M186 592q-6 -11 -2.5 -17.5t15.5 -6.5h41q16 0 24 11l74 97q8 10 4.5 17t-16.5 7h-59q-16 0 -23 -13zM157 83h244q21 0 21 -21v-41q0 -21 -21 -21h-342q-21 0 -21 21v22q0 14 8 27l247 347h-224q-21 0 -21 21v41q0 21 21 21h322q21 0 21 -21v-22q0 -14 -8 -27z" />
    <glyph glyph-name="Zdotaccent" unicode="&#x17b;" horiz-adv-x="525" 
d="M234 772q-19 0 -19 19v68q0 19 19 19h68q18 0 18 -19v-68q0 -19 -18 -19h-68zM149 88h326q21 0 21 -21v-46q0 -21 -21 -21h-415q-21 0 -21 21v45q0 13 7 26l331 520h-308q-21 0 -21 21v46q0 21 21 21h397q22 0 22 -21v-45q0 -13 -8 -26z" />
    <glyph glyph-name="zdotaccent" unicode="&#x17c;" horiz-adv-x="451" 
d="M198 572q-19 0 -19 19v68q0 19 19 19h68q18 0 18 -19v-68q0 -19 -18 -19h-68zM157 83h244q21 0 21 -21v-41q0 -21 -21 -21h-342q-21 0 -21 21v22q0 14 8 27l247 347h-224q-21 0 -21 21v41q0 21 21 21h322q21 0 21 -21v-22q0 -14 -8 -27z" />
    <glyph glyph-name="Zcaron" unicode="&#x17d;" horiz-adv-x="525" 
d="M210 776l-80 102q-7 9 -3.5 15.5t14.5 6.5h49q15 0 23 -12l53 -69l54 69q8 12 22 12h50q11 0 14 -6.5t-4 -15.5l-79 -102q-8 -11 -23 -11h-47h-21q-14 0 -22 11zM475 88q21 0 21 -21v-46q0 -21 -21 -21h-415q-21 0 -21 21v45q0 13 7 26l331 520h-308q-21 0 -21 21v46
q0 21 21 21h397q22 0 22 -21v-45q0 -13 -8 -26l-331 -520h326z" />
    <glyph glyph-name="zcaron" unicode="&#x17e;" horiz-adv-x="451" 
d="M174 576l-80 102q-7 9 -3.5 15.5t14.5 6.5h49q15 0 23 -12l53 -69l54 69q8 12 22 12h50q11 0 14 -6.5t-4 -15.5l-79 -102q-8 -11 -23 -11h-47h-21q-14 0 -22 11zM401 83q21 0 21 -21v-41q0 -21 -21 -21h-342q-21 0 -21 21v22q0 14 8 27l247 347h-224q-21 0 -21 21v41
q0 21 21 21h322q21 0 21 -21v-22q0 -14 -8 -27l-247 -347h244z" />
    <glyph glyph-name="florin" unicode="&#x192;" horiz-adv-x="440" 
d="M422 708q18 -4 18 -24v-42q0 -21 -24 -17q-39 9 -66 -10t-34 -61l-28 -161h86q21 0 21 -21v-42q0 -21 -21 -21h-100l-63 -369q-15 -88 -67 -124.5t-126 -21.5q-18 4 -18 24v42q0 21 24 17q39 -8 66 11t34 60l61 361h-79q-22 0 -22 21v42q0 21 22 21h94l28 169
q15 89 67 125.5t127 20.5z" />
    <glyph glyph-name="Scommaaccent" unicode="&#x218;" horiz-adv-x="549" 
d="M284 -12q-101 0 -170.5 51.5t-77.5 145.5q-2 22 20 22h51q19 0 22 -21q7 -52 48 -80t107 -28q61 0 99 28.5t38 75.5q0 19 -8 36t-20 28.5t-33 23.5t-39 19.5t-45 17.5q-5 1 -14 5q-29 10 -44 16t-41 18t-40.5 22t-33 26.5t-28 34t-16.5 42t-7 52.5q0 87 64 138t153 51
t152.5 -49t71.5 -137q1 -22 -21 -22h-50q-20 0 -22 20q-4 32 -22 54.5t-46 33t-63 10.5q-54 0 -89 -26.5t-35 -72.5q0 -26 10 -45.5t32 -34.5t43 -25t55 -23q6 -2 18 -7q29 -11 44 -17t41 -18t40.5 -22t33 -26t28.5 -33t17 -40.5t7 -49.5q0 -89 -67.5 -141.5t-162.5 -52.5z
M288 -248q17 0 20 17l24 144q3 19 -17 19h-47q-17 0 -18 -17l-8 -143q-2 -20 18 -20h28z" />
    <glyph glyph-name="scommaaccent" unicode="&#x219;" horiz-adv-x="467" 
d="M138 364q0 -26 21.5 -43t53 -24.5t68.5 -18.5t69 -24t53 -43.5t21 -74.5q0 -67 -53.5 -107.5t-137.5 -40.5q-78 0 -130 37t-59 103q-2 22 21 22h44q16 0 22 -20q12 -62 102 -62q46 0 75 17t29 51q0 26 -21 43t-53 24.5t-69 18.5t-68.5 24t-53 43.5t-21.5 74.5
q0 66 52 107t130 41q28 0 53.5 -5.5t47 -17.5t38.5 -28.5t27.5 -39t13.5 -49.5q2 -22 -21 -22h-44q-16 0 -23 20q-6 32 -31.5 47t-60.5 15q-40 0 -67.5 -17.5t-27.5 -50.5zM272 -68q21 0 18 -19l-24 -144q-3 -17 -21 -17h-27q-20 0 -19 20l8 143q2 17 19 17h46z" />
    <glyph glyph-name="uni021A" unicode="&#x21a;" horiz-adv-x="500" 
d="M461 700q21 0 21 -21v-46q0 -21 -21 -21h-165v-591q0 -21 -21 -21h-50q-21 0 -21 21v591h-165q-21 0 -21 21v46q0 21 21 21h257h165zM274 -68q21 0 18 -19l-24 -144q-3 -17 -20 -17h-28q-20 0 -18 20l8 143q1 17 18 17h46z" />
    <glyph glyph-name="uni021B" unicode="&#x21b;" horiz-adv-x="321" 
d="M281 500q21 0 21 -21v-42q0 -21 -21 -21h-77v-395q0 -21 -21 -21h-44q-21 0 -21 21v395h-78q-21 0 -21 21v42q0 21 21 21h78v139q0 21 21 21h44q21 0 21 -21v-139h77zM185 -68q20 0 17 -19l-24 -144q-3 -17 -20 -17h-28q-20 0 -18 20l8 143q1 17 18 17h47z" />
    <glyph glyph-name="circumflex" unicode="&#x2c6;" horiz-adv-x="348" 
d="M310 588q7 -10 3.5 -16.5t-14.5 -6.5h-49q-15 0 -23 11l-53 70l-54 -70q-8 -11 -22 -11h-50q-11 0 -14 6.5t4 16.5l79 101q8 11 23 11h47h21q14 0 22 -11z" />
    <glyph glyph-name="caron" unicode="&#x2c7;" horiz-adv-x="348" 
d="M299 700q11 0 14.5 -6.5t-3.5 -15.5l-80 -102q-8 -11 -22 -11h-47h-21q-15 0 -23 11l-79 102q-7 9 -4 15.5t14 6.5h50q14 0 22 -12l54 -69l53 69q8 12 23 12h49z" />
    <glyph glyph-name="breve" unicode="&#x2d8;" horiz-adv-x="338" 
d="M169 557q-64 0 -103 30t-45 85q-2 20 18 20h45q16 0 18 -18q9 -48 67 -48t66 48q3 18 19 18h45q19 0 17 -18q-5 -56 -43.5 -86.5t-103.5 -30.5z" />
    <glyph glyph-name="dotaccent" unicode="&#x2d9;" horiz-adv-x="145" 
d="M38 572q-18 0 -18 19v68q0 19 18 19h68q19 0 19 -19v-68q0 -19 -19 -19h-68z" />
    <glyph glyph-name="ring" unicode="&#x2da;" horiz-adv-x="266" 
d="M133 546q-50 0 -81.5 30.5t-31.5 76t31.5 76t81.5 30.5q33 0 59 -14t40 -38t14 -55q0 -46 -31.5 -76t-81.5 -30zM133 607q23 0 35.5 12.5t12.5 32.5q0 14 -5.5 24t-16.5 16t-26 6q-22 0 -34.5 -13t-12.5 -32.5t12.5 -32.5t34.5 -13z" />
    <glyph glyph-name="ogonek" unicode="&#x2db;" horiz-adv-x="193" 
d="M106 -212q-40 0 -63 21t-23 58q0 63 70 133h83q-31 -30 -50 -61t-19 -53q0 -34 48 -28q21 3 21 -16v-26q0 -17 -13 -20q-23 -8 -54 -8z" />
    <glyph glyph-name="tilde" unicode="&#x2dc;" horiz-adv-x="340" 
d="M38 573q-19 0 -17 20q3 56 27 83t57 24.5t70 -28.5q18 -14 28.5 -20t20.5 -8t15 6t6 26q2 19 19 19h37q19 0 18 -19q-4 -57 -27.5 -84t-56.5 -24t-69 28q-12 9 -20 14.5t-16.5 9.5t-14 4.5t-10 -2.5t-7.5 -10.5t-4 -19.5q-1 -19 -19 -19h-37z" />
    <glyph glyph-name="hungarumlaut" unicode="&#x2dd;" horiz-adv-x="370" 
d="M33 588q-5 -10 -1.5 -16.5t14.5 -6.5h46q15 0 24 13l56 96q6 10 2.5 17t-15.5 7h-51q-15 0 -23 -14zM188 589q-7 -10 -3 -17t16 -7h45q16 0 24 13l64 96q6 10 2.5 17t-15.5 7h-50q-16 0 -23 -14z" />
    <glyph glyph-name="gravecomb" unicode="&#x300;" horiz-adv-x="0" 
d="M-46 568q11 0 14.5 6.5t-1.5 15.5l-60 98q-7 12 -21 12h-63q-11 0 -14.5 -6.5t3.5 -16.5l76 -99q7 -10 22 -10h44z" />
    <glyph glyph-name="acutecomb" unicode="&#x301;" horiz-adv-x="0" 
d="M-191 592q-6 -11 -2 -17.5t15 -6.5h42q15 0 24 11l74 97q7 10 3.5 17t-15.5 7h-60q-15 0 -23 -13z" />
    <glyph glyph-name="uni0302" unicode="&#x302;" horiz-adv-x="0" 
d="M-38 588q7 -10 4 -16.5t-14 -6.5h-50q-14 0 -22 11l-54 70l-53 -70q-8 -11 -23 -11h-49q-11 0 -14.5 6.5t3.5 16.5l80 101q8 11 22 11h47h21q15 0 23 -11z" />
    <glyph glyph-name="tildecomb" unicode="&#x303;" horiz-adv-x="0" 
d="M-299 573q-19 0 -17 20q3 56 27 83t57 24.5t70 -28.5q11 -9 19.5 -14.5t16.5 -9.5t13.5 -4t10 2.5t7 10t3.5 19.5q2 19 19 19h37q19 0 18 -19q-4 -57 -27.5 -84t-56.5 -24t-70 28q-17 14 -28 20.5t-21 8t-15 -6.5t-7 -26q-2 -19 -19 -19h-37z" />
    <glyph glyph-name="uni0304" unicode="&#x304;" horiz-adv-x="0" 
d="M-272 575q-18 0 -18 18v37q0 18 18 18h234q18 0 18 -18v-37q0 -18 -18 -18h-234z" />
    <glyph glyph-name="uni0306" unicode="&#x306;" horiz-adv-x="0" 
d="M-169 557q-64 0 -102.5 30t-44.5 85q-2 20 17 20h45q16 0 19 -18q8 -48 66 -48t67 48q2 18 18 18h45q19 0 18 -18q-5 -56 -44 -86.5t-104 -30.5z" />
    <glyph glyph-name="uni0307" unicode="&#x307;" horiz-adv-x="0" 
d="M-110 572q-19 0 -19 19v68q0 19 19 19h68q18 0 18 -19v-68q0 -19 -18 -19h-68z" />
    <glyph glyph-name="uni0308" unicode="&#x308;" horiz-adv-x="0" 
d="M-289 574q-19 0 -19 18v56q0 18 19 18h55q19 0 19 -18v-56q0 -18 -19 -18h-55zM-94 574q-18 0 -18 18v56q0 18 18 18h56q18 0 18 -18v-56q0 -18 -18 -18h-56z" />
    <glyph glyph-name="uni030A" unicode="&#x30a;" horiz-adv-x="0" 
d="M-134 546q-50 0 -81.5 30.5t-31.5 76t31.5 76t81.5 30.5q33 0 59 -14t40 -38t14 -55q0 -46 -31.5 -76t-81.5 -30zM-134 607q23 0 35.5 12.5t12.5 33t-12.5 33t-35.5 12.5q-22 0 -34.5 -13t-12.5 -32.5t12.5 -32.5t34.5 -13z" />
    <glyph glyph-name="uni030B" unicode="&#x30b;" horiz-adv-x="0" 
d="M-336 588q-6 -10 -2.5 -16.5t15.5 -6.5h46q15 0 23 13l56 96q6 10 2.5 17t-14.5 7h-52q-14 0 -23 -14zM-182 589q-6 -10 -2 -17t15 -7h45q16 0 24 13l64 96q7 10 3 17t-16 7h-50q-15 0 -23 -14z" />
    <glyph glyph-name="uni030C" unicode="&#x30c;" horiz-adv-x="0" 
d="M-48 700q11 0 14 -6.5t-4 -15.5l-79 -102q-8 -11 -23 -11h-47h-21q-14 0 -22 11l-80 102q-7 9 -3.5 15.5t14.5 6.5h49q15 0 23 -12l53 -69l54 69q8 12 22 12h50z" />
    <glyph glyph-name="uni0312" unicode="&#x312;" horiz-adv-x="0" 
d="M-67 965q-17 0 -21 -17l-24 -144q-2 -19 18 -19h46q18 0 19 18l8 143q2 19 -18 19h-28z" />
    <glyph glyph-name="uni0326" unicode="&#x326;" horiz-adv-x="0" 
d="M-68 -248q18 0 21 17l24 144q3 19 -17 19h-47q-17 0 -19 -17l-8 -143q-1 -20 19 -20h27z" />
    <glyph glyph-name="uni0327" unicode="&#x327;" horiz-adv-x="0" 
d="M-106 -45q39 -7 62.5 -28t23.5 -52q0 -99 -190 -92q-20 1 -20 19v29q0 19 20 19q114 -7 114 31q0 28 -65 35q-18 1 -18 19v65h73v-45z" />
    <glyph glyph-name="uni0328" unicode="&#x328;" horiz-adv-x="0" 
d="M-89 -212q-40 0 -63 21t-23 58q0 63 70 133h83q-32 -30 -50.5 -61t-18.5 -53q0 -34 48 -28q21 3 21 -16v-26q0 -17 -13 -20q-23 -8 -54 -8z" />
    <glyph glyph-name="uni0394" unicode="&#x394;" horiz-adv-x="638" 
d="M621 24q4 -11 -0.5 -17.5t-16.5 -6.5h-73h-446h-51q-12 0 -16.5 6.5t-1.5 17.5l244 659q6 17 24 17h69q18 0 25 -17zM138 87h362l-181 504z" />
    <glyph glyph-name="uni03A9" unicode="&#x3a9;" horiz-adv-x="795" 
d="M760 355q0 -83 -36.5 -153t-100.5 -114h103q22 0 22 -21v-46q0 -21 -22 -21h-232q-21 0 -21 21v48q0 18 18 25q79 27 128 96.5t49 159.5q0 115 -78 193.5t-192.5 78.5t-192 -78.5t-77.5 -193.5q0 -90 48.5 -159.5t127.5 -96.5q18 -7 18 -25v-48q0 -21 -22 -21h-231
q-21 0 -21 21v46q0 21 21 21h103q-65 44 -101 113.5t-36 153.5q0 98 48 180t131.5 129.5t183 47.5t183 -47.5t131.5 -129.5t48 -180z" />
    <glyph glyph-name="pi" unicode="&#x3c0;" horiz-adv-x="625" 
d="M576 500q22 0 22 -21v-41q0 -21 -22 -21h-60v-396q0 -21 -22 -21h-44q-21 0 -21 21v396h-229v-396q0 -21 -21 -21h-45q-21 0 -21 21v396h-64q-21 0 -21 21v41q0 21 21 21h151h316h60z" />
    <glyph glyph-name="uni0401" unicode="&#x401;" horiz-adv-x="518" 
d="M150 774q-18 0 -18 18v56q0 18 18 18h56q18 0 18 -18v-56q0 -18 -18 -18h-56zM345 774q-18 0 -18 18v56q0 18 18 18h56q18 0 18 -18v-56q0 -18 -18 -18h-56zM459 88q21 0 21 -21v-46q0 -21 -21 -21h-349h-14q-21 0 -21 21v658q0 21 21 21h72h286q21 0 21 -21v-46
q0 -21 -21 -21h-286v-215h261q21 0 21 -21v-45q0 -21 -21 -21h-261v-222h291z" />
    <glyph glyph-name="uni0402" unicode="&#x402;" horiz-adv-x="660" 
d="M421 468q85 0 137 -49.5t52 -142.5v-102q0 -91 -44 -138t-128 -45q-21 0 -21 21v43q0 20 21 21q42 1 60.5 23.5t18.5 74.5v97q0 30 -7.5 51.5t-21.5 35t-33 20t-43 6.5q-56 0 -123 -29v-334q0 -21 -21 -21h-50q-22 0 -22 21v591h-157q-21 0 -21 21v46q0 21 21 21h250h195
q21 0 21 -21v-46q0 -21 -21 -21h-195v-175q68 31 132 31z" />
    <glyph glyph-name="uni0403" unicode="&#x403;" horiz-adv-x="485" 
d="M241 766q-12 0 -15.5 7t2.5 17l58 96q7 13 23 13h59q13 0 16.5 -7.5t-4.5 -16.5l-74 -97q-8 -12 -24 -12h-41zM446 700q22 0 22 -21v-46q0 -21 -22 -21h-278v-591q0 -21 -22 -21h-50q-21 0 -21 21v658q0 21 21 21h72h278z" />
    <glyph glyph-name="uni0404" unicode="&#x404;" horiz-adv-x="753" 
d="M702 230q11 0 16 -6.5t2 -17.5q-35 -99 -122.5 -158.5t-206.5 -59.5q-103 0 -184 48.5t-125 131t-44 182.5t44 182.5t125 131t184 48.5q119 0 206.5 -59.5t122.5 -158.5q3 -11 -2 -17.5t-16 -6.5h-56q-18 0 -24 16q-19 42 -51 72t-78.5 47t-101.5 17q-106 0 -175.5 -63.5
t-82.5 -164.5h339q21 0 21 -22v-44q0 -22 -21 -22h-339q13 -101 82.5 -164.5t175.5 -63.5q83 0 143 36.5t88 99.5q6 16 24 16h56z" />
    <glyph glyph-name="uni0405" unicode="&#x405;" horiz-adv-x="549" 
d="M284 -12q-101 0 -170.5 51.5t-77.5 145.5q-2 22 20 22h51q19 0 22 -21q7 -52 48 -80t107 -28q61 0 99 28.5t38 75.5q0 19 -8 36t-20 28.5t-33 23.5t-39 19.5t-45 17.5q-5 1 -14 5q-29 10 -44 16t-41 18t-40.5 22t-33 26.5t-28 34t-16.5 42t-7 52.5q0 87 64 138t153 51
t152.5 -49t71.5 -137q1 -22 -21 -22h-50q-20 0 -22 20q-4 32 -22 54.5t-46 33t-63 10.5q-54 0 -89 -26.5t-35 -72.5q0 -26 10 -45.5t32 -34.5t43 -25t55 -23q6 -2 18 -7q29 -11 44 -17t41 -18t40.5 -22t33 -26t28.5 -33t17 -40.5t7 -49.5q0 -89 -67.5 -141.5t-162.5 -52.5z
" />
    <glyph glyph-name="uni0406" unicode="&#x406;" horiz-adv-x="243" 
d="M75 679q0 21 21 21h50q22 0 22 -21v-658q0 -21 -22 -21h-50q-21 0 -21 21v658z" />
    <glyph glyph-name="uni0407" unicode="&#x407;" horiz-adv-x="243" 
d="M-4 774q-18 0 -18 18v56q0 18 18 18h56q18 0 18 -18v-56q0 -18 -18 -18h-56zM191 774q-19 0 -19 18v56q0 18 19 18h55q19 0 19 -18v-56q0 -18 -19 -18h-55zM75 679q0 21 21 21h50q22 0 22 -21v-658q0 -21 -22 -21h-50q-21 0 -21 21v658z" />
    <glyph glyph-name="uni0408" unicode="&#x408;" horiz-adv-x="533" 
d="M242 -12q-89 0 -153 51.5t-71 151.5q-1 23 21 23h50q20 0 22 -22q4 -40 22.5 -66.5t46 -37t62.5 -10.5q60 0 96.5 30.5t36.5 92.5v478q0 21 21 21h50q22 0 22 -21v-478q0 -70 -33 -119.5t-82.5 -71.5t-110.5 -22z" />
    <glyph glyph-name="uni0409" unicode="&#x409;" horiz-adv-x="944" 
d="M690 412q60 0 110 -26t79.5 -73.5t29.5 -106.5q0 -89 -63.5 -147.5t-155.5 -58.5h-199h-13q-22 0 -22 21v591h-211v-309q0 -89 -15.5 -151t-45 -95t-66 -47t-84.5 -12q-20 0 -20 21v41q0 22 21 21q59 -1 88 49.5t29 172.5v376q0 21 22 21h354q21 0 21 -21v-267h141z
M690 87q54 0 90 33t36 86t-36 86.5t-90 33.5h-141v-239h141z" />
    <glyph glyph-name="uni040A" unicode="&#x40a;" horiz-adv-x="933" 
d="M679 412q60 0 110 -26t79.5 -73.5t29.5 -106.5q0 -89 -63.5 -147.5t-155.5 -58.5h-199h-14q-21 0 -21 21v305h-277v-305q0 -21 -22 -21h-50q-21 0 -21 21v658q0 21 21 21h50q22 0 22 -21v-267h277v267q0 21 21 21h50q22 0 22 -21v-267h141zM679 87q54 0 90 33t36 86
t-36.5 86.5t-89.5 33.5h-141v-239h141z" />
    <glyph glyph-name="uni040B" unicode="&#x40b;" horiz-adv-x="665" 
d="M421 468q85 0 137 -49.5t52 -142.5v-255q0 -21 -22 -21h-50q-21 0 -21 21v250q0 30 -7.5 51.5t-21.5 35t-33 20t-43 6.5q-56 0 -123 -29v-334q0 -21 -21 -21h-50q-22 0 -22 21v591h-157q-21 0 -21 21v46q0 21 21 21h250h195q21 0 21 -21v-46q0 -21 -21 -21h-195v-175
q68 31 132 31z" />
    <glyph glyph-name="uni040C" unicode="&#x40c;" horiz-adv-x="592" 
d="M261 766q-12 0 -15.5 7t2.5 17l58 96q7 13 23 13h59q13 0 16.5 -7.5t-4.5 -16.5l-74 -97q-8 -12 -24 -12h-41zM561 26q9 -10 5.5 -18t-17.5 -8h-63q-18 0 -27 12l-291 324v-315q0 -21 -22 -21h-50q-21 0 -21 21v658q0 21 21 21h50q22 0 22 -21v-296l281 305q11 12 26 12
h63q14 0 18 -8t-5 -18l-286 -315z" />
    <glyph glyph-name="uni040E" unicode="&#x40e;" horiz-adv-x="580" 
d="M175 774q-21 0 -21 21v33q0 22 21 22h227q22 0 22 -22v-33q0 -21 -22 -21h-227zM544 700q11 0 15.5 -6.5t0.5 -17.5l-215 -510q-36 -85 -89.5 -126t-130.5 -41q-21 0 -21 22v43q0 20 22 20q48 0 79 23.5t53 74.5l6 16l-225 477q-5 11 -0.5 18t16.5 7h49q17 0 25 -16
l178 -384l162 384q6 16 25 16h50z" />
    <glyph glyph-name="uni040F" unicode="&#x40f;" horiz-adv-x="633" 
d="M536 700q22 0 22 -21v-658q0 -21 -22 -21h-71h-103v-123q0 -21 -21 -21h-50q-21 0 -21 21v123h-160h-14q-21 0 -21 21v658q0 21 21 21h50q22 0 22 -21v-591h297v591q0 21 21 21h50z" />
    <glyph glyph-name="uni0410" unicode="&#x410;" horiz-adv-x="638" 
d="M621 24q4 -11 -0.5 -17.5t-16.5 -6.5h-55q-18 0 -24 17l-50 139h-312l-50 -139q-6 -17 -25 -17h-54q-12 0 -16.5 6.5t-1.5 17.5l244 659q6 17 24 17h69q18 0 25 -17zM194 244h250l-125 347z" />
    <glyph glyph-name="uni0411" unicode="&#x411;" horiz-adv-x="585" 
d="M338 425q91 0 154 -61.5t63 -151.5t-62.5 -151t-154.5 -61h-228h-14q-21 0 -21 21v658q0 21 21 21h72h306q21 0 21 -21v-46q0 -21 -21 -21h-306v-187h170zM338 87q25 0 48 9.5t40 26t26.5 40t9.5 49.5q0 36 -16.5 65t-45 45t-62.5 16h-170v-251h170z" />
    <glyph glyph-name="uni0412" unicode="&#x412;" horiz-adv-x="685" 
d="M523 437q59 -27 94 -83t35 -127q0 -95 -63 -161t-157 -66h-317h-19q-21 0 -21 21v658q0 21 21 21h72h190q84 0 137 -51t53 -126q0 -46 -25 -86zM358 613h-191v-155h264q24 26 24 62q0 41 -26 67t-71 26zM419 87q43 0 75.5 19.5t49 51.5t16.5 72q0 61 -38 102t-102 41
h-253v-286h252z" />
    <glyph glyph-name="uni0413" unicode="&#x413;" horiz-adv-x="485" 
d="M446 700q22 0 22 -21v-46q0 -21 -22 -21h-278v-591q0 -21 -22 -21h-50q-21 0 -21 21v658q0 21 21 21h72h278z" />
    <glyph glyph-name="uni0414" unicode="&#x414;" horiz-adv-x="668" 
d="M614 87q21 0 21 -21v-66v-123q0 -21 -21 -21h-50q-22 0 -22 21v123h-434v-123q0 -21 -22 -21h-50q-21 0 -21 21v159v30q0 21 21 21h39q66 80 66 247v345q0 21 21 21h377q21 0 21 -21v-592h54zM180 87h288v526h-234v-282q0 -160 -54 -244z" />
    <glyph glyph-name="uni0415" unicode="&#x415;" horiz-adv-x="518" 
d="M459 88q21 0 21 -21v-46q0 -21 -21 -21h-349h-14q-21 0 -21 21v658q0 21 21 21h72h286q21 0 21 -21v-46q0 -21 -21 -21h-286v-215h261q21 0 21 -21v-45q0 -21 -21 -21h-261v-222h291z" />
    <glyph glyph-name="uni0416" unicode="&#x416;" horiz-adv-x="868" 
d="M830 26q8 -11 4.5 -18.5t-16.5 -7.5h-57q-16 0 -26 12l-255 323v-314q0 -21 -21 -21h-50q-21 0 -21 21v314l-255 -323q-10 -12 -26 -12h-57q-13 0 -16.5 7.5t4.5 18.5l261 332l-251 316q-8 10 -4.5 18t16.5 8h57q16 0 26 -12l245 -308v299q0 21 21 21h50q21 0 21 -21
v-299l245 308q10 12 26 12h57q13 0 16.5 -8t-4.5 -18l-251 -316z" />
    <glyph glyph-name="uni0417" unicode="&#x417;" horiz-adv-x="535" 
d="M410 414q51 -30 79.5 -81t28.5 -114q0 -65 -30 -117.5t-87.5 -83t-132.5 -30.5q-108 0 -175 59.5t-75 152.5q-1 22 21 22h51q19 0 22 -20q6 -56 46.5 -91.5t109.5 -35.5q75 0 116 40.5t41 103.5q0 41 -17 73.5t-51 52t-78 19.5h-30q-21 0 -21 21v41q0 22 21 22h30
q20 0 40 -3q48 36 48 88q0 41 -27.5 67t-79.5 26q-44 0 -71 -20.5t-33 -52.5q-6 -20 -23 -20h-50q-23 0 -21 21q8 70 61.5 114t136.5 44q61 0 106.5 -23.5t69.5 -63.5t24 -89q0 -69 -50 -122z" />
    <glyph glyph-name="uni0418" unicode="&#x418;" horiz-adv-x="635" 
d="M468 21v497l-309 -504q-8 -14 -26 -14h-37q-21 0 -21 21v658q0 21 21 21h50q22 0 22 -21v-497l308 504q8 14 26 14h37q21 0 21 -21v-658q0 -21 -21 -21h-50q-21 0 -21 21z" />
    <glyph glyph-name="uni0419" unicode="&#x419;" horiz-adv-x="635" 
d="M214 775q-22 0 -22 21v34q0 21 22 21h227q21 0 21 -21v-34q0 -21 -21 -21h-227zM468 21v497l-309 -504q-8 -14 -26 -14h-37q-21 0 -21 21v658q0 21 21 21h50q22 0 22 -21v-497l308 504q8 14 26 14h37q21 0 21 -21v-658q0 -21 -21 -21h-50q-21 0 -21 21z" />
    <glyph glyph-name="uni041A" unicode="&#x41a;" horiz-adv-x="592" 
d="M561 26q9 -10 5.5 -18t-17.5 -8h-63q-18 0 -27 12l-291 324v-315q0 -21 -22 -21h-50q-21 0 -21 21v658q0 21 21 21h50q22 0 22 -21v-296l281 305q11 12 26 12h63q14 0 18 -8t-5 -18l-286 -315z" />
    <glyph glyph-name="uni041B" unicode="&#x41b;" horiz-adv-x="644" 
d="M34 -2q-20 0 -20 21v41q0 22 21 21q59 -1 88 49.5t29 172.5v376q0 21 22 21h374q21 0 21 -21v-658q0 -21 -21 -21h-50q-22 0 -22 21v591h-231v-309q0 -89 -15.5 -151t-45 -95t-66 -47t-84.5 -12z" />
    <glyph glyph-name="uni041C" unicode="&#x41c;" horiz-adv-x="805" 
d="M709 700q21 0 21 -21v-658q0 -21 -21 -21h-50q-21 0 -21 21v525l-188 -412q-7 -16 -25 -16h-45q-18 0 -25 16l-187 412v-525q0 -21 -22 -21h-50q-21 0 -21 21v658q0 21 21 21h50h23q17 0 24 -16l209 -460l210 460q7 16 24 16h44h29z" />
    <glyph glyph-name="uni041D" unicode="&#x41d;" horiz-adv-x="633" 
d="M536 700q22 0 22 -21v-658q0 -21 -22 -21h-50q-21 0 -21 21v295h-297v-295q0 -21 -22 -21h-50q-21 0 -21 21v658q0 21 21 21h50q22 0 22 -21v-275h297v275q0 21 21 21h50z" />
    <glyph glyph-name="uni041E" unicode="&#x41e;" horiz-adv-x="800" 
d="M400 -12q-100 0 -183.5 48t-131 131.5t-47.5 182.5t47.5 182.5t131 131.5t183.5 48t183.5 -48t131 -131.5t47.5 -182.5t-47.5 -182.5t-131 -131.5t-183.5 -48zM400 78q115 0 192.5 78.5t77.5 193.5t-77.5 193.5t-192.5 78.5t-192.5 -78.5t-77.5 -193.5t77.5 -193.5
t192.5 -78.5z" />
    <glyph glyph-name="uni041F" unicode="&#x41f;" horiz-adv-x="633" 
d="M536 700q22 0 22 -21v-658q0 -21 -22 -21h-50q-21 0 -21 21v591h-297v-591q0 -21 -22 -21h-50q-21 0 -21 21v658q0 21 21 21h72h354h14z" />
    <glyph glyph-name="uni0420" unicode="&#x420;" horiz-adv-x="583" 
d="M329 700q91 0 155 -63.5t64 -154.5q0 -58 -29.5 -108t-80 -79.5t-109.5 -29.5h-161v-244q0 -21 -22 -21h-50q-21 0 -21 21v658q0 21 21 21h72h161zM329 352q52 0 89 38t37 92q0 55 -37 93t-89 38h-161v-261h161z" />
    <glyph glyph-name="uni0421" unicode="&#x421;" horiz-adv-x="761" 
d="M404 -12q-105 0 -189.5 48t-130.5 131t-46 183t46 183t130.5 131t189.5 48q55 0 106.5 -15.5t93.5 -44.5t74.5 -69.5t49.5 -88.5q2 -7 0.5 -12.5t-6 -8.5t-12.5 -3h-55q-17 0 -25 16q-29 62 -90 99t-136 37q-80 0 -143 -36t-97 -98t-34 -138q0 -117 76.5 -194.5
t197.5 -77.5q75 0 136 37t90 99q8 16 25 16h55q12 0 17 -6.5t2 -15.5q-35 -99 -124.5 -159.5t-200.5 -60.5z" />
    <glyph glyph-name="uni0422" unicode="&#x422;" horiz-adv-x="500" 
d="M461 700q21 0 21 -21v-46q0 -21 -21 -21h-165v-591q0 -21 -21 -21h-50q-21 0 -21 21v591h-165q-21 0 -21 21v46q0 21 21 21h257h165z" />
    <glyph glyph-name="uni0423" unicode="&#x423;" horiz-adv-x="580" 
d="M544 700q11 0 15.5 -6.5t0.5 -17.5l-215 -510q-36 -85 -89.5 -126t-130.5 -41q-21 0 -21 22v43q0 20 22 20q48 0 79 23.5t53 74.5l6 16l-225 477q-5 11 -0.5 18t16.5 7h49q17 0 25 -16l178 -384l162 384q6 16 25 16h50z" />
    <glyph glyph-name="uni0424" unicode="&#x424;" horiz-adv-x="809" 
d="M782 350q0 -122 -90.5 -194t-241.5 -82v-58q0 -21 -21 -21h-49q-21 0 -21 21v58q-99 7 -173 40t-116 93.5t-42 142.5t42 142.5t116 93.5t173 40v58q0 21 21 21h49q21 0 21 -21v-58q151 -10 241.5 -82t90.5 -194zM120 350q0 -87 63 -135t176 -56v382q-113 -8 -176 -56
t-63 -135zM450 159q113 8 176 56t63 135t-63 135t-176 56v-382z" />
    <glyph glyph-name="uni0425" unicode="&#x425;" horiz-adv-x="580" 
d="M547 26q6 -11 2 -18.5t-16 -7.5h-57q-17 0 -25 14l-161 263l-161 -263q-8 -14 -25 -14h-57q-12 0 -16 7.5t2 18.5l205 335l-191 313q-7 11 -3 18.5t17 7.5h57q17 0 25 -14l147 -240l147 240q8 14 25 14h57q13 0 17 -7.5t-3 -18.5l-191 -313z" />
    <glyph glyph-name="uni0426" unicode="&#x426;" horiz-adv-x="665" 
d="M558 88h53q21 0 21 -21v-190q0 -21 -21 -21h-50q-21 0 -21 21v123h-444q-21 0 -21 21v658q0 21 21 21h50q22 0 22 -21v-591h297v591q0 21 21 21h50q22 0 22 -21v-591z" />
    <glyph glyph-name="uni0427" unicode="&#x427;" horiz-adv-x="609" 
d="M512 700q22 0 22 -21v-658q0 -21 -21 -21h-50q-22 0 -22 21v253q-72 -31 -153 -31q-103 0 -165.5 57.5t-62.5 149.5v229q0 21 21 21h50q22 0 22 -21v-223q0 -57 36 -91t100 -34q81 0 152 31v317q0 21 21 21h50z" />
    <glyph glyph-name="uni0428" unicode="&#x428;" horiz-adv-x="908" 
d="M740 679q0 21 21 21h50q21 0 21 -21v-658q0 -21 -21 -21h-715q-21 0 -21 21v658q0 21 21 21h50q22 0 22 -21v-591h240v591q0 21 21 21h50q21 0 21 -21v-591h240v591z" />
    <glyph glyph-name="uni0429" unicode="&#x429;" horiz-adv-x="940" 
d="M832 88h54q22 0 22 -21v-190q0 -21 -22 -21h-50q-21 0 -21 21v123h-719q-21 0 -21 21v658q0 21 21 21h50q22 0 22 -21v-591h240v591q0 21 21 21h50q21 0 21 -21v-591h240v591q0 21 21 21h50q21 0 21 -21v-591z" />
    <glyph glyph-name="uni042A" unicode="&#x42a;" horiz-adv-x="690" 
d="M204 0q-22 0 -22 21v591h-161q-21 0 -21 21v46q0 21 21 21h233q21 0 21 -21v-244h161q91 0 155 -64t64 -153q0 -91 -64 -154.5t-155 -63.5h-232zM275 87h161q35 0 64 17.5t45.5 47.5t16.5 66q0 54 -36.5 92t-89.5 38h-161v-261z" />
    <glyph glyph-name="uni042B" unicode="&#x42b;" horiz-adv-x="786" 
d="M96 0q-21 0 -21 21v658q0 21 21 21h50q22 0 22 -21v-244h161q91 0 155 -64t64 -153q0 -91 -64 -154.5t-155 -63.5h-233zM640 0q-21 0 -21 21v658q0 21 21 21h50q21 0 21 -21v-658q0 -21 -21 -21h-50zM168 87h161q52 0 89 38t37 93q0 54 -37 92t-89 38h-161v-261z" />
    <glyph glyph-name="uni042C" unicode="&#x42c;" horiz-adv-x="583" 
d="M329 435q91 0 155 -64t64 -153q0 -91 -64 -154.5t-155 -63.5h-219h-14q-21 0 -21 21v658q0 21 21 21h50q22 0 22 -21v-244h161zM329 87q52 0 89 38t37 93q0 54 -37 92t-89 38h-161v-261h161z" />
    <glyph glyph-name="uni042D" unicode="&#x42d;" horiz-adv-x="753" 
d="M362 712q103 0 184 -48.5t125.5 -131t44.5 -182.5t-44.5 -182.5t-125.5 -131t-184 -48.5q-119 0 -206.5 59.5t-121.5 158.5q-4 11 1 17.5t16 6.5h56q18 0 24 -16q19 -42 51 -72t78.5 -47t101.5 -17q106 0 175.5 63.5t82.5 164.5h-339q-21 0 -21 22v44q0 22 21 22h339
q-13 101 -82.5 164.5t-175.5 63.5q-83 0 -142.5 -36.5t-88.5 -99.5q-7 -16 -24 -16h-56q-11 0 -16 6.5t-1 17.5q34 99 121.5 158.5t206.5 59.5z" />
    <glyph glyph-name="uni042E" unicode="&#x42e;" horiz-adv-x="1045" 
d="M645 712q100 0 183.5 -48t131.5 -131.5t48 -182.5t-48 -182.5t-131.5 -131.5t-183.5 -48q-143 0 -244 94t-113 234h-120v-295q0 -21 -22 -21h-50q-21 0 -21 21v658q0 21 21 21h50q22 0 22 -21v-275h122q19 133 118.5 220.5t236.5 87.5zM645 78q115 0 192.5 78.5
t77.5 193.5t-77.5 193.5t-192.5 78.5t-192.5 -78t-77.5 -194q0 -115 77.5 -193.5t192.5 -78.5z" />
    <glyph glyph-name="uni042F" unicode="&#x42f;" horiz-adv-x="625" 
d="M529 700q21 0 21 -21v-658q0 -21 -21 -21h-50q-21 0 -21 21v247h-99l-220 -256q-10 -12 -26 -12h-63q-14 0 -17.5 8t5.5 18l213 246q-75 16 -124 75t-49 135q0 91 63.5 154.5t154.5 63.5h219h14zM298 352h160v261h-160q-53 0 -90.5 -38t-37.5 -93q0 -53 37.5 -91.5
t90.5 -38.5z" />
    <glyph glyph-name="uni0430" unicode="&#x430;" horiz-adv-x="502" 
d="M253 512q86 0 140.5 -50.5t54.5 -139.5v-301q0 -21 -22 -21h-43q-21 0 -21 21v31q-48 -64 -149 -64q-73 0 -124 41.5t-51 117.5t51 118t124 42q97 0 149 -58v71q0 38 -15.5 63.5t-39 36t-54.5 10.5q-40 0 -69.5 -18t-36.5 -52q-6 -20 -22 -20h-44q-23 0 -21 22
q8 68 61.5 109t131.5 41zM238 60q54 0 89 25t35 62q0 40 -34.5 63.5t-89.5 23.5q-56 0 -85 -23.5t-29 -63t29 -63.5t85 -24z" />
    <glyph glyph-name="uni0431" unicode="&#x431;" horiz-adv-x="566" 
d="M292 -12q-110 0 -182 72t-72 187q0 59 16.5 109t44.5 85t62 64.5t69 52.5t65.5 42t53 40t29.5 42q6 18 22 18h50q10 0 16 -6t4 -16q-5 -40 -32.5 -71t-66 -54t-79 -45t-80 -54.5t-60.5 -71.5q63 69 155 69q95 0 164 -65t69 -164q0 -67 -32 -120.5t-88.5 -83.5t-127.5 -30
zM292 71q70 0 115 42.5t45 108.5q0 65 -46.5 108.5t-118.5 43.5q-30 0 -58 -10t-51 -28t-37.5 -46.5t-14.5 -62.5q0 -45 22.5 -81t60 -55.5t83.5 -19.5z" />
    <glyph glyph-name="uni0432" unicode="&#x432;" horiz-adv-x="525" 
d="M418 300q42 -20 64 -56t22 -82q0 -70 -46.5 -116t-133.5 -46h-215h-21q-22 0 -22 21v458q0 21 22 21h63h125q73 0 116.5 -39.5t43.5 -98.5q0 -33 -18 -62zM270 424h-119v-104h173q8 0 17 -1q11 17 11 37q0 33 -23 51t-59 17zM320 77q31 0 53 10.5t33.5 29.5t11.5 46
q0 40 -25.5 62t-72.5 22h-169v-170h169z" />
    <glyph glyph-name="uni0433" unicode="&#x433;" horiz-adv-x="378" 
d="M352 500q22 0 22 -21v-42q0 -21 -22 -21h-199v-395q0 -21 -21 -21h-44q-22 0 -22 21v458q0 21 22 21h65h199z" />
    <glyph glyph-name="uni0434" unicode="&#x434;" horiz-adv-x="573" 
d="M524 82q21 0 21 -22v-60v-123q0 -21 -21 -21h-44q-21 0 -21 21v123h-356v-123q0 -21 -21 -21h-43q-22 0 -22 21v159v24q0 22 22 22h39q25 33 37 75.5t12 110.5v211q0 21 21 21h65h216h26q21 0 21 -21v-397h48zM178 82h212v337h-177v-151q0 -112 -35 -186z" />
    <glyph glyph-name="uni0435" unicode="&#x435;" horiz-adv-x="571" 
d="M296 512q110 0 178 -77t68 -187q0 -6 -1 -18q-2 -20 -22 -20h-66h-326q11 -68 57.5 -106t114.5 -38q41 0 74 16t51 43q12 14 26 14h48q12 0 17.5 -6t1.5 -16q-27 -59 -85.5 -94t-133.5 -35q-77 0 -136.5 34t-91.5 93.5t-32 134.5q0 112 71.5 187t186.5 75zM127 287h326
q-9 70 -53 107t-104 37q-68 0 -113.5 -39t-55.5 -105z" />
    <glyph glyph-name="uni0436" unicode="&#x436;" horiz-adv-x="698" 
d="M660 26q8 -10 4.5 -18t-16.5 -8h-53q-16 0 -26 12l-177 224v-215q0 -21 -21 -21h-44q-21 0 -21 21v215l-177 -224q-10 -12 -26 -12h-53q-13 0 -16.5 8t4.5 18l189 232l-178 216q-8 10 -4.5 18t16.5 8h52q16 0 26 -12l167 -209v200q0 21 21 21h44q21 0 21 -21v-200
l167 209q10 12 26 12h52q13 0 16.5 -8t-4.5 -18l-178 -216z" />
    <glyph glyph-name="uni0437" unicode="&#x437;" horiz-adv-x="425" 
d="M336 282q70 -44 70 -129q0 -70 -51.5 -117.5t-142.5 -47.5q-82 0 -133 40.5t-59 104.5q-2 21 21 21h44q17 0 23 -19q6 -31 34 -48.5t70 -17.5q50 0 79 23t29 63q0 39 -29.5 62t-78.5 23h-17q-21 0 -21 21v30q0 22 21 22h19q21 0 40 -3q32 24 32 56t-22.5 49.5t-57.5 17.5
q-66 0 -76 -52q-7 -19 -23 -19h-43q-24 0 -22 22q8 59 51.5 94t114.5 35q74 0 118.5 -41.5t44.5 -101.5q0 -51 -35 -88z" />
    <glyph glyph-name="uni0438" unicode="&#x438;" horiz-adv-x="535" 
d="M390 486q10 14 25 14h33q21 0 21 -21v-458q0 -21 -21 -21h-44q-21 0 -21 21v329l-238 -336q-10 -14 -25 -14h-32q-22 0 -22 21v458q0 21 22 21h43q21 0 21 -21v-329z" />
    <glyph glyph-name="uni0439" unicode="&#x439;" horiz-adv-x="535" 
d="M154 575q-22 0 -22 21v34q0 21 22 21h227q21 0 21 -21v-34q0 -21 -21 -21h-227zM390 486q10 14 25 14h33q21 0 21 -21v-458q0 -21 -21 -21h-44q-21 0 -21 21v329l-238 -336q-10 -14 -25 -14h-32q-22 0 -22 21v458q0 21 22 21h43q21 0 21 -21v-329z" />
    <glyph glyph-name="uni043A" unicode="&#x43a;" horiz-adv-x="502" 
d="M462 26q9 -10 5.5 -18t-17.5 -8h-56q-16 0 -26 12l-215 224v-215q0 -21 -21 -21h-44q-22 0 -22 21v458q0 21 22 21h44q21 0 21 -21v-201l205 210q10 12 26 12h57q14 0 17 -8t-6 -18l-212 -216z" />
    <glyph glyph-name="uni043B" unicode="&#x43b;" horiz-adv-x="526" 
d="M439 500q21 0 21 -21v-458q0 -21 -21 -21h-45q-21 0 -21 21v395h-174v-204q0 -59 -12 -101t-35 -66.5t-52.5 -36t-69.5 -11.5q-9 0 -14.5 6t-5.5 16v39q0 20 21 21q41 2 61 33t20 102v265q0 21 21 21h66h214h26z" />
    <glyph glyph-name="uni043C" unicode="&#x43c;" horiz-adv-x="638" 
d="M550 500q21 0 21 -21v-458q0 -21 -21 -21h-43q-21 0 -21 21v342l-130 -249q-8 -16 -25 -16h-27q-15 0 -22 16l-130 249v-342q0 -21 -22 -21h-42q-22 0 -22 21v458q0 21 22 21h42h15q18 0 25 -15l149 -286l148 286q7 15 25 15h24h34z" />
    <glyph glyph-name="uni043D" unicode="&#x43d;" horiz-adv-x="535" 
d="M448 500q21 0 21 -21v-458q0 -21 -21 -21h-45q-21 0 -21 21v187h-229v-187q0 -21 -21 -21h-44q-22 0 -22 21v458q0 21 22 21h44q21 0 21 -21v-187h229v187q0 21 21 21h45z" />
    <glyph glyph-name="uni043E" unicode="&#x43e;" horiz-adv-x="602" 
d="M301 -12q-110 0 -186.5 75.5t-76.5 186.5t76.5 186.5t186.5 75.5t186.5 -75.5t76.5 -186.5t-76.5 -186.5t-186.5 -75.5zM301 72q75 0 126 51t51 127t-51 127t-126 51t-126 -51t-51 -127t51 -127t126 -51z" />
    <glyph glyph-name="uni043F" unicode="&#x43f;" horiz-adv-x="535" 
d="M448 500q21 0 21 -21v-458q0 -21 -21 -21h-45q-21 0 -21 21v396h-229v-396q0 -21 -21 -21h-44q-22 0 -22 21v458q0 21 22 21h65h269h26z" />
    <glyph glyph-name="uni0440" unicode="&#x440;" horiz-adv-x="633" 
d="M342 512q105 0 179 -76t74 -186t-74 -186t-179 -76q-124 0 -189 97v-264q0 -21 -21 -21h-44q-22 0 -22 21v658q0 21 22 21h44q21 0 21 -21v-64q65 97 189 97zM331 71q75 0 126 51.5t51 127.5t-51 127.5t-126.5 51.5t-126.5 -51.5t-51 -127.5q0 -50 23.5 -91t64 -64.5
t90.5 -23.5z" />
    <glyph glyph-name="uni0441" unicode="&#x441;" horiz-adv-x="571" 
d="M519 168q12 0 17 -7t0 -18q-25 -70 -89.5 -112.5t-145.5 -42.5q-113 0 -188 75t-75 187t75 187t188 75q81 0 145 -42.5t90 -112.5q3 -8 2 -13t-6 -8.5t-13 -3.5h-49q-17 0 -26 16q-20 37 -58 58.5t-85 21.5q-49 0 -89.5 -23.5t-64 -64.5t-23.5 -90q0 -75 51 -126.5
t126 -51.5q47 0 85.5 21.5t57.5 58.5q9 16 26 16h49z" />
    <glyph glyph-name="uni0442" unicode="&#x442;" horiz-adv-x="408" 
d="M376 500q22 0 22 -21v-41q0 -21 -22 -21h-128v-396q0 -21 -22 -21h-44q-22 0 -22 21v396h-129q-21 0 -21 21v41q0 21 21 21h345z" />
    <glyph glyph-name="uni0443" unicode="&#x443;" horiz-adv-x="485" 
d="M452 500q11 0 16 -6.5t1 -17.5l-177 -507q-28 -79 -81 -123.5t-121 -45.5q-10 -1 -15.5 5t-5.5 16v39q0 21 21 21q80 6 113 101l9 21l-190 473q-4 10 0.5 17t16.5 7h48q18 0 24 -16l145 -364l123 363q6 17 24 17h49z" />
    <glyph glyph-name="uni0444" unicode="&#x444;" horiz-adv-x="675" 
d="M638 250q0 -103 -70 -175.5t-188 -84.5v-169q0 -21 -21 -21h-43q-22 0 -22 21v169q-117 12 -186.5 84.5t-69.5 175.5t69.5 175.5t186.5 84.5v169q0 21 22 21h43q21 0 21 -21v-169q78 -8 137 -44t90 -92t31 -124zM124 250q0 -69 45.5 -117t124.5 -59v352q-53 -7 -91.5 -32
t-58.5 -62t-20 -82zM380 74q80 11 125.5 59t45.5 117t-45.5 117t-125.5 59v-352z" />
    <glyph glyph-name="uni0445" unicode="&#x445;" horiz-adv-x="460" 
d="M426 26q7 -11 3 -18.5t-17 -7.5h-46q-17 0 -26 14l-111 172l-111 -172q-10 -14 -26 -14h-46q-13 0 -17 7.5t3 18.5l150 233l-139 215q-7 11 -3 18.5t17 7.5h46q17 0 26 -14l100 -155l100 155q9 14 25 14h46q13 0 17.5 -7.5t-3.5 -18.5l-139 -215z" />
    <glyph glyph-name="uni0446" unicode="&#x446;" horiz-adv-x="565" 
d="M456 83h60q22 0 22 -21v-185q0 -21 -22 -21h-43q-21 0 -21 21v123h-364q-22 0 -22 21v458q0 21 22 21h44q21 0 21 -21v-396h216v396q0 21 21 21h45q21 0 21 -21v-396z" />
    <glyph glyph-name="uni0447" unicode="&#x447;" horiz-adv-x="504" 
d="M416 500q22 0 22 -21v-458q0 -21 -22 -21h-44q-21 0 -21 21v158q-57 -26 -125 -26q-84 0 -132.5 44.5t-48.5 126.5v155q0 21 21 21h45q21 0 21 -21v-150q0 -94 101 -94q60 0 117 26v218q0 21 22 21h44z" />
    <glyph glyph-name="uni0448" unicode="&#x448;" horiz-adv-x="758" 
d="M670 500q21 0 21 -21v-458q0 -21 -21 -21h-66h-269h-226h-21q-22 0 -22 21v458q0 21 22 21h44q21 0 21 -21v-396h182v396q0 21 21 21h45q21 0 21 -21v-396h182v396q0 21 22 21h44z" />
    <glyph glyph-name="uni0449" unicode="&#x449;" horiz-adv-x="783" 
d="M734 83q21 0 21 -21v-62v-123q0 -21 -21 -21h-44q-21 0 -21 21v123h-560h-21q-22 0 -22 21v458q0 21 22 21h44q21 0 21 -21v-396h180v396q0 21 21 21h44q22 0 22 -21v-396h179v396q0 21 21 21h45q21 0 21 -21v-396h48z" />
    <glyph glyph-name="uni044A" unicode="&#x44a;" horiz-adv-x="551" 
d="M350 320q74 0 124 -44.5t50 -115.5t-50 -115.5t-124 -44.5h-178h-12q-21 0 -21 21v396h-118q-21 0 -21 21v41q0 21 21 21h159h24q22 0 22 -21v-159h124zM350 80q37 0 62.5 22t25.5 58t-25.5 58t-62.5 22h-124v-160h124z" />
    <glyph glyph-name="uni044B" unicode="&#x44b;" horiz-adv-x="670" 
d="M277 320q49 0 88.5 -20t62.5 -56.5t23 -83.5q0 -71 -49.5 -115.5t-124.5 -44.5h-178h-11q-22 0 -22 21v458q0 21 22 21h44q21 0 21 -21v-159h124zM582 500q21 0 21 -21v-458q0 -21 -21 -21h-44q-22 0 -22 21v458q0 21 22 21h44zM277 80q37 0 62.5 22t25.5 58t-25.5 58
t-62.5 22h-124v-160h124z" />
    <glyph glyph-name="uni044C" unicode="&#x44c;" horiz-adv-x="479" 
d="M277 320q49 0 88.5 -20t62.5 -56.5t23 -83.5q0 -71 -49.5 -115.5t-124.5 -44.5h-178h-11q-22 0 -22 21v458q0 21 22 21h44q21 0 21 -21v-159h124zM277 80q37 0 62.5 22t25.5 58t-25.5 58t-62.5 22h-124v-160h124z" />
    <glyph glyph-name="uni044D" unicode="&#x44d;" horiz-adv-x="567" 
d="M271 512q112 0 185.5 -75t73.5 -187t-73.5 -187t-185.5 -75q-54 0 -102.5 19.5t-83.5 54.5t-52 81q-5 11 0.5 18t16.5 7h48q17 0 25 -16q20 -38 60.5 -60t89.5 -22q63 0 108.5 39t58.5 100h-202q-21 0 -21 21v40q0 21 21 21h202q-13 61 -58.5 100t-108.5 39
q-50 0 -89.5 -22t-60.5 -60q-8 -16 -25 -16h-48q-11 0 -16.5 7t-0.5 18q26 70 91 112.5t147 42.5z" />
    <glyph glyph-name="uni044E" unicode="&#x44e;" horiz-adv-x="804" 
d="M503 512q110 0 186.5 -75.5t76.5 -186.5q0 -73 -35 -133.5t-95.5 -94.5t-132.5 -34q-99 0 -170.5 62t-86.5 158h-93v-187q0 -21 -21 -21h-44q-22 0 -22 21v458q0 21 22 21h44q21 0 21 -21v-187h93q15 96 86.5 158t170.5 62zM502.5 72q74.5 0 125.5 51t51 127t-51 127
t-125.5 51t-125.5 -51t-51 -127t51 -127t125.5 -51z" />
    <glyph glyph-name="uni044F" unicode="&#x44f;" horiz-adv-x="506" 
d="M419 500q21 0 21 -21v-458q0 -21 -21 -21h-44q-21 0 -21 21v159h-78l-145 -168q-10 -12 -27 -12h-54q-14 0 -17.5 8t5.5 18l140 160q-55 14 -89 56t-34 97q0 69 49 115t123 46h180h12zM230 258h124v161h-124q-38 0 -63.5 -22t-25.5 -59t25.5 -58.5t63.5 -21.5z" />
    <glyph glyph-name="uni0451" unicode="&#x451;" horiz-adv-x="571" 
d="M171 575q-19 0 -19 19v55q0 19 19 19h55q19 0 19 -19v-55q0 -19 -19 -19h-55zM366 575q-18 0 -18 19v55q0 19 18 19h56q18 0 18 -19v-55q0 -19 -18 -19h-56zM296 512q110 0 178 -77t68 -187q0 -6 -1 -18q-2 -20 -22 -20h-66h-326q11 -68 57.5 -106t114.5 -38q41 0 74 16
t51 43q12 14 26 14h48q12 0 17.5 -6t1.5 -16q-27 -59 -85.5 -94t-133.5 -35q-77 0 -136.5 34t-91.5 93.5t-32 134.5q0 112 71.5 187t186.5 75zM127 287h326q-9 70 -53 107t-104 37q-68 0 -113.5 -39t-55.5 -105z" />
    <glyph glyph-name="uni0452" unicode="&#x452;" horiz-adv-x="528" 
d="M310 512q72 0 120 -51t48 -137v-354q0 -91 -44 -138t-128 -46q-21 0 -21 22v41q0 21 21 22q43 0 64 23.5t21 75.5v351q0 52 -29 80.5t-75 28.5q-53 0 -89 -35.5t-36 -110.5v-263q0 -21 -21 -21h-45q-21 0 -21 21v547h-46q-21 0 -21 22v21q0 21 21 21h46v47q0 21 21 21h45
q21 0 21 -21v-47h122q21 0 21 -21v-21q0 -22 -21 -22h-122v-130q49 74 148 74z" />
    <glyph glyph-name="uni0453" unicode="&#x453;" horiz-adv-x="378" 
d="M166 568q-12 0 -15.5 6.5t1.5 17.5l59 95q7 13 23 13h59q13 0 16.5 -7t-4.5 -17l-73 -97q-9 -11 -25 -11h-41zM352 500q22 0 22 -21v-42q0 -21 -22 -21h-199v-395q0 -21 -21 -21h-44q-22 0 -22 21v458q0 21 22 21h65h199z" />
    <glyph glyph-name="uni0454" unicode="&#x454;" horiz-adv-x="567" 
d="M517 168q11 0 16.5 -7t0.5 -18q-25 -70 -90.5 -112.5t-147.5 -42.5q-74 0 -133 34.5t-92 94.5t-33 133q0 112 73 187t185 75q82 0 147 -42.5t91 -112.5q3 -8 1.5 -13t-6.5 -8.5t-12 -3.5h-48q-17 0 -25 16q-21 38 -60.5 60t-89.5 22q-63 0 -108.5 -39t-58.5 -100h202
q21 0 21 -21v-40q0 -21 -21 -21h-202q8 -40 31.5 -71.5t58.5 -49.5t77 -18q49 0 89.5 22t60.5 60q8 16 25 16h48z" />
    <glyph glyph-name="uni0455" unicode="&#x455;" horiz-adv-x="467" 
d="M138 364q0 -26 21.5 -43t53 -24.5t68.5 -18.5t69 -24t53 -43.5t21 -74.5q0 -67 -53.5 -107.5t-137.5 -40.5q-78 0 -130 37t-59 103q-2 22 21 22h44q16 0 22 -20q12 -62 102 -62q46 0 75 17t29 51q0 26 -21 43t-53 24.5t-69 18.5t-68.5 24t-53 43.5t-21.5 74.5
q0 66 52 107t130 41q28 0 53.5 -5.5t47 -17.5t38.5 -28.5t27.5 -39t13.5 -49.5q2 -22 -21 -22h-44q-16 0 -23 20q-6 32 -31.5 47t-60.5 15q-40 0 -67.5 -17.5t-27.5 -50.5z" />
    <glyph glyph-name="uni0456" unicode="&#x456;" horiz-adv-x="220" 
d="M88 590q-22 0 -22 21v68q0 21 22 21h44q21 0 21 -21v-68q0 -21 -21 -21h-44zM88 0q-22 0 -22 21v458q0 21 22 21h44q21 0 21 -21v-458q0 -21 -21 -21h-44z" />
    <glyph glyph-name="uni0457" unicode="&#x457;" horiz-adv-x="220" 
d="M-16 574q-18 0 -18 18v56q0 18 18 18h56q18 0 18 -18v-56q0 -18 -18 -18h-56zM180 574q-19 0 -19 18v56q0 18 19 18h55q19 0 19 -18v-56q0 -18 -19 -18h-55zM88 0q-22 0 -22 21v458q0 21 22 21h44q21 0 21 -21v-458q0 -21 -21 -21h-44z" />
    <glyph glyph-name="uni0458" unicode="&#x458;" horiz-adv-x="241" 
d="M154 700q21 0 21 -21v-68q0 -21 -21 -21h-45q-21 0 -21 21v68q0 21 21 21h45zM154 500q21 0 21 -21v-509q0 -91 -43.5 -138t-127.5 -46q-22 0 -22 22v42q0 20 21 21q44 0 64.5 23.5t20.5 75.5v509q0 21 21 21h45z" />
    <glyph glyph-name="uni0459" unicode="&#x459;" horiz-adv-x="753" 
d="M561 302q71 0 118 -40.5t47 -110t-47 -110.5t-118 -41h-165h-12q-21 0 -21 21v395h-164v-204q0 -59 -12 -101t-35 -66.5t-52.5 -36t-69.5 -11.5q-9 0 -14.5 6t-5.5 16v39q0 20 21 21q41 2 61 33t20 102v265q0 21 21 21h66h204h26q21 0 21 -21v-177h111zM562 80
q33 0 55.5 18t22.5 53t-22.5 53t-55.5 18h-112v-142h112z" />
    <glyph glyph-name="uni045A" unicode="&#x45a;" horiz-adv-x="759" 
d="M568 302q71 0 117.5 -40.5t46.5 -110.5q0 -46 -22 -81t-59 -52.5t-83 -17.5h-166h-12q-21 0 -21 21v199h-218v-199q0 -21 -21 -21h-45q-21 0 -21 21v458q0 21 21 21h45q21 0 21 -21v-177h218v177q0 21 21 21h45q21 0 21 -21v-177h112zM568 80q33 0 55.5 18t22.5 53
t-22.5 53t-55.5 18h-112v-142h112z" />
    <glyph glyph-name="uni045B" unicode="&#x45b;" horiz-adv-x="532" 
d="M310 512q72 0 120 -51t48 -137v-303q0 -21 -22 -21h-44q-21 0 -21 21v300q0 52 -29 80.5t-75 28.5q-53 0 -89 -35.5t-36 -110.5v-263q0 -21 -21 -21h-45q-21 0 -21 21v547h-46q-21 0 -21 22v21q0 21 21 21h46v47q0 21 21 21h45q21 0 21 -21v-47h122q21 0 21 -21v-21
q0 -22 -21 -22h-122v-130q49 74 148 74z" />
    <glyph glyph-name="uni045C" unicode="&#x45c;" horiz-adv-x="502" 
d="M218 568q-11 0 -15 6.5t2 17.5l58 95q8 13 23 13h60q12 0 15.5 -7t-3.5 -17l-74 -97q-9 -11 -24 -11h-42zM462 26q9 -10 5.5 -18t-17.5 -8h-56q-16 0 -26 12l-215 224v-215q0 -21 -21 -21h-44q-22 0 -22 21v458q0 21 22 21h44q21 0 21 -21v-201l205 210q10 12 26 12h57
q14 0 17 -8t-6 -18l-212 -216z" />
    <glyph glyph-name="uni045E" unicode="&#x45e;" horiz-adv-x="485" 
d="M130 575q-21 0 -21 21v34q0 21 21 21h228q21 0 21 -21v-34q0 -21 -21 -21h-228zM452 500q11 0 16 -6.5t1 -17.5l-177 -507q-28 -79 -81 -123.5t-121 -45.5q-10 -1 -15.5 5t-5.5 16v39q0 21 21 21q80 6 113 101l9 21l-190 473q-4 10 0.5 17t16.5 7h48q18 0 24 -16
l145 -364l123 363q6 17 24 17h49z" />
    <glyph glyph-name="uni045F" unicode="&#x45f;" horiz-adv-x="535" 
d="M448 500q21 0 21 -21v-458q0 -21 -21 -21h-66h-72v-123q0 -21 -21 -21h-43q-22 0 -22 21v123h-115h-21q-22 0 -22 21v458q0 21 22 21h44q21 0 21 -21v-396h229v396q0 21 21 21h45z" />
    <glyph glyph-name="uni0490" unicode="&#x490;" horiz-adv-x="485" 
d="M446 820q22 0 22 -21v-141v-25q0 -21 -22 -21h-278v-591q0 -21 -22 -21h-50q-21 0 -21 21v658q0 21 21 21h72h207v99q0 21 21 21h50z" />
    <glyph glyph-name="uni0491" unicode="&#x491;" horiz-adv-x="378" 
d="M352 603q22 0 22 -21v-141v-4q0 -21 -22 -21h-199v-395q0 -21 -21 -21h-44q-22 0 -22 21v458q0 21 22 21h65h135v82q0 21 21 21h43z" />
    <glyph glyph-name="Wgrave" unicode="&#x1e80;" horiz-adv-x="870" 
d="M395 778l-75 99q-8 10 -4.5 16.5t15.5 6.5h62q15 0 22 -12l59 -98q6 -9 2.5 -15.5t-14.5 -6.5h-44q-15 0 -23 10zM837 700q12 0 16.5 -6.5t1.5 -17.5l-199 -658q-5 -18 -24 -18h-75q-19 0 -23 18l-99 325l-99 -325q-4 -18 -23 -18h-75q-19 0 -24 18l-199 658
q-3 11 1.5 17.5t16.5 6.5h49q19 0 24 -18l172 -576l114 378l-58 192q-3 11 2 17.5t16 6.5h45q18 0 23 -18l172 -576l172 576q5 18 24 18h49z" />
    <glyph glyph-name="wgrave" unicode="&#x1e81;" horiz-adv-x="695" 
d="M308 578l-76 99q-7 10 -3.5 16.5t14.5 6.5h63q14 0 21 -12l60 -98q5 -9 1.5 -15.5t-14.5 -6.5h-44q-15 0 -22 10zM660 500q7 0 12 -3t6 -8.5t-1 -12.5l-156 -459q-6 -17 -25 -17h-37h-15q-19 0 -25 17l-71 210l-72 -210q-6 -17 -25 -17h-31h-21q-19 0 -25 17l-156 459
q-3 11 1.5 17.5t15.5 6.5h49q18 0 24 -17l120 -382l81 240l-46 135q-3 11 1.5 17.5t15.5 6.5h42q17 0 23 -17l123 -377l119 377q6 17 24 17h49z" />
    <glyph glyph-name="Wacute" unicode="&#x1e82;" horiz-adv-x="870" 
d="M402 768q-11 0 -15 6.5t2 17.5l58 95q8 13 23 13h60q12 0 15.5 -7t-3.5 -17l-74 -97q-9 -11 -24 -11h-42zM837 700q12 0 16.5 -6.5t1.5 -17.5l-199 -658q-5 -18 -24 -18h-75q-19 0 -23 18l-99 325l-99 -325q-4 -18 -23 -18h-75q-19 0 -24 18l-199 658q-3 11 1.5 17.5
t16.5 6.5h49q19 0 24 -18l172 -576l114 378l-58 192q-3 11 2 17.5t16 6.5h45q18 0 23 -18l172 -576l172 576q5 18 24 18h49z" />
    <glyph glyph-name="wacute" unicode="&#x1e83;" horiz-adv-x="695" 
d="M315 568q-12 0 -15.5 6.5t2.5 17.5l58 95q7 13 23 13h59q13 0 16.5 -7t-4.5 -17l-74 -97q-8 -11 -24 -11h-41zM660 500q7 0 12 -3t6 -8.5t-1 -12.5l-156 -459q-6 -17 -25 -17h-37h-15q-19 0 -25 17l-71 210l-72 -210q-6 -17 -25 -17h-31h-21q-19 0 -25 17l-156 459
q-3 11 1.5 17.5t15.5 6.5h49q18 0 24 -17l120 -382l81 240l-46 135q-3 11 1.5 17.5t15.5 6.5h42q17 0 23 -17l123 -377l119 377q6 17 24 17h49z" />
    <glyph glyph-name="Wdieresis" unicode="&#x1e84;" horiz-adv-x="870" 
d="M310 774q-19 0 -19 18v56q0 18 19 18h55q19 0 19 -18v-56q0 -18 -19 -18h-55zM505 774q-19 0 -19 18v56q0 18 19 18h55q19 0 19 -18v-56q0 -18 -19 -18h-55zM837 700q12 0 16.5 -6.5t1.5 -17.5l-199 -658q-5 -18 -24 -18h-75q-19 0 -23 18l-99 325l-99 -325
q-4 -18 -23 -18h-75q-19 0 -24 18l-199 658q-3 11 1.5 17.5t16.5 6.5h49q19 0 24 -18l172 -576l114 378l-58 192q-3 11 2 17.5t16 6.5h45q18 0 23 -18l172 -576l172 576q5 18 24 18h49z" />
    <glyph glyph-name="wdieresis" unicode="&#x1e85;" horiz-adv-x="695" 
d="M222 574q-18 0 -18 18v56q0 18 18 18h56q18 0 18 -18v-56q0 -18 -18 -18h-56zM417 574q-18 0 -18 18v56q0 18 18 18h56q18 0 18 -18v-56q0 -18 -18 -18h-56zM660 500q7 0 12 -3t6 -8.5t-1 -12.5l-156 -459q-6 -17 -25 -17h-37h-15q-19 0 -25 17l-71 210l-72 -210
q-6 -17 -25 -17h-31h-21q-19 0 -25 17l-156 459q-3 11 1.5 17.5t15.5 6.5h49q18 0 24 -17l120 -382l81 240l-46 135q-3 11 1.5 17.5t15.5 6.5h42q17 0 23 -17l123 -377l119 377q6 17 24 17h49z" />
    <glyph glyph-name="Ygrave" unicode="&#x1ef2;" horiz-adv-x="584" 
d="M249 778l-75 99q-7 10 -4 16.5t15 6.5h62q15 0 22 -12l59 -98q6 -9 2.5 -15.5t-14.5 -6.5h-44q-15 0 -23 10zM546 700q13 0 17 -7.5t-3 -18.5l-222 -354v-299q0 -21 -22 -21h-50q-21 0 -21 21v301l-221 352q-7 11 -3 18.5t17 7.5h57q17 0 25 -14l172 -277l171 277
q9 14 25 14h58z" />
    <glyph glyph-name="ygrave" unicode="&#x1ef3;" horiz-adv-x="480" 
d="M267 568q11 0 14.5 6.5t-2.5 15.5l-59 98q-7 12 -22 12h-62q-12 0 -15.5 -6.5t3.5 -16.5l76 -99q8 -10 23 -10h44zM374 483q6 17 24 17h49q11 0 16 -6.5t1 -17.5l-230 -659q-6 -17 -24 -17h-49q-12 0 -16.5 6.5t-0.5 17.5l62 181l-188 471q-5 11 -0.5 17.5t16.5 6.5h48
q18 0 24 -16l144 -358z" />
    <glyph glyph-name="endash" unicode="&#x2013;" horiz-adv-x="655" 
d="M96 264q-21 0 -21 22v41q0 21 21 21h463q21 0 21 -21v-41q0 -22 -21 -22h-463z" />
    <glyph glyph-name="emdash" unicode="&#x2014;" horiz-adv-x="755" 
d="M96 264q-21 0 -21 22v41q0 21 21 21h563q21 0 21 -21v-41q0 -22 -21 -22h-563z" />
    <glyph glyph-name="quoteleft" unicode="&#x2018;" horiz-adv-x="243" 
d="M162 655q-13 -5 -21 -13.5t-13 -26t-5 -43.5h31q21 0 21 -21v-65q0 -21 -21 -21h-65q-21 0 -21 21v86q0 53 23 87t67 44q8 1 12.5 -3t4.5 -12v-15q0 -12 -13 -18z" />
    <glyph glyph-name="quoteright" unicode="&#x2019;" horiz-adv-x="243" 
d="M154 700q21 0 21 -21v-87q0 -110 -91 -130q-5 -1 -9 0.5t-5.5 5t-1.5 8.5v16q0 12 12 18q20 7 30 25.5t10 56.5h-31q-21 0 -21 22v65q0 21 21 21h65z" />
    <glyph glyph-name="quotesinglbase" unicode="&#x201a;" horiz-adv-x="243" 
d="M154 108q21 0 21 -22v-86q0 -53 -23.5 -87t-67.5 -43q-8 -2 -12 2t-4 12v15q0 12 12 18q20 7 30 26t10 57h-31q-21 0 -21 21v65q0 22 21 22h65z" />
    <glyph glyph-name="quotedblleft" unicode="&#x201c;" horiz-adv-x="398" 
d="M158 703q8 1 12.5 -3t4.5 -12v-15q0 -12 -13 -18q-13 -5 -21 -13.5t-13 -26t-5 -43.5h31q21 0 21 -21v-65q0 -21 -21 -21h-65q-21 0 -21 21v86q0 53 23 87t67 44zM318 655q-14 -5 -22 -13.5t-13 -26t-5 -43.5h31q21 0 21 -21v-65q0 -21 -21 -21h-65q-22 0 -22 21v86
q0 53 23.5 87t68.5 44q7 1 11.5 -3t4.5 -12v-15q0 -12 -12 -18z" />
    <glyph glyph-name="quotedblright" unicode="&#x201d;" horiz-adv-x="398" 
d="M154 700q21 0 21 -21v-87q0 -110 -91 -130q-5 -1 -9 0.5t-5.5 5t-1.5 8.5v16q0 12 12 18q20 7 30 25.5t10 56.5h-31q-21 0 -21 22v65q0 21 21 21h65zM309 700q21 0 21 -21v-87q0 -110 -91 -130q-4 -1 -7 0t-5 3t-3.5 5t-1.5 6v16q0 12 13 18q20 7 30 25.5t10 56.5h-31
q-22 0 -22 22v65q0 21 22 21h65z" />
    <glyph glyph-name="quotedblbase" unicode="&#x201e;" horiz-adv-x="398" 
d="M154 108q21 0 21 -22v-86q0 -53 -23.5 -87t-67.5 -43q-8 -2 -12 2t-4 12v15q0 12 12 18q20 7 30 26t10 57h-31q-21 0 -21 21v65q0 22 21 22h65zM309 108q21 0 21 -22v-86q0 -53 -23.5 -87t-67.5 -43q-4 -1 -7 -0.5t-5 2.5t-3.5 5t-1.5 7v15q0 12 13 18q20 7 30 26t10 57
h-31q-22 0 -22 21v65q0 22 22 22h65z" />
    <glyph glyph-name="dagger" unicode="&#x2020;" horiz-adv-x="480" 
d="M404 545q21 0 21 -21v-42q0 -21 -21 -21h-120v-440q0 -21 -22 -21h-44q-22 0 -22 21v440h-120q-21 0 -21 21v42q0 21 21 21h120v134q0 21 22 21h44q22 0 22 -21v-134h120z" />
    <glyph glyph-name="daggerdbl" unicode="&#x2021;" horiz-adv-x="480" 
d="M404 461h-120v-222h120q21 0 21 -21v-42q0 -21 -21 -21h-120v-134q0 -21 -22 -21h-44q-22 0 -22 21v134h-120q-21 0 -21 21v42q0 21 21 21h120v222h-120q-21 0 -21 21v42q0 21 21 21h120v134q0 21 22 21h44q22 0 22 -21v-134h120q21 0 21 -21v-42q0 -21 -21 -21z" />
    <glyph glyph-name="bullet" unicode="&#x2022;" horiz-adv-x="320" 
d="M161 238q-47 0 -80 33t-33 80t33 79t80 32t79 -32t32 -79t-32 -80t-79 -33z" />
    <glyph glyph-name="ellipsis" unicode="&#x2026;" horiz-adv-x="648" 
d="M89 0q-21 0 -21 21v65q0 22 21 22h65q21 0 21 -22v-65q0 -21 -21 -21h-65zM291 0q-21 0 -21 21v65q0 22 21 22h65q22 0 22 -22v-65q0 -21 -22 -21h-65zM494 0q-22 0 -22 21v65q0 22 22 22h65q21 0 21 -22v-65q0 -21 -21 -21h-65z" />
    <glyph glyph-name="perthousand" unicode="&#x2030;" horiz-adv-x="1113" 
d="M213 402q-67 0 -112.5 45.5t-45.5 110.5q0 42 20.5 77.5t57 56t80.5 20.5q68 0 113 -45t45 -109q0 -66 -44.5 -111t-113.5 -45zM122 0q-13 0 -17 7.5t3 18.5l464 660q10 14 26 14h45q13 0 17 -7.5t-4 -18.5l-464 -660q-10 -14 -26 -14h-44zM213 476q35 0 57.5 23.5
t22.5 58.5q0 34 -22.5 57.5t-57.5 23.5t-57.5 -23.5t-22.5 -58t22.5 -58t57.5 -23.5zM552.5 -12q-67.5 0 -113 45t-45.5 110t45.5 110t113 45t112.5 -45t45 -110t-45 -110t-112.5 -45zM917.5 -12q-67.5 0 -113 45t-45.5 110t45.5 110t113 45t112.5 -45t45 -110t-45 -110
t-112.5 -45zM552 62q35 0 57.5 23.5t22.5 57.5q0 23 -10 41.5t-28.5 29t-41.5 10.5q-35 0 -57.5 -23.5t-22.5 -57.5t22.5 -57.5t57.5 -23.5zM917 62q35 0 57.5 23.5t22.5 57.5q0 23 -10 41.5t-28.5 29t-41.5 10.5t-41.5 -10.5t-28.5 -29t-10 -41.5q0 -34 22.5 -57.5
t57.5 -23.5z" />
    <glyph glyph-name="guilsinglleft" unicode="&#x2039;" horiz-adv-x="340" 
d="M242 492q13 0 17 -7.5t-3 -18.5l-94 -157l94 -157q7 -11 3 -18.5t-17 -7.5h-48q-17 0 -25 14l-93 154q-9 15 0 30l93 154q8 14 25 14h48z" />
    <glyph glyph-name="guilsinglright" unicode="&#x203a;" horiz-adv-x="340" 
d="M97 492h48q17 0 25 -14l94 -154q9 -15 0 -30l-94 -154q-8 -14 -25 -14h-48q-12 0 -16 7.5t2 18.5l95 157l-95 157q-6 11 -2 18.5t16 7.5z" />
    <glyph glyph-name="fraction" unicode="&#x2044;" horiz-adv-x="210" 
d="M-100 0q-13 0 -17.5 7.5t2.5 18.5l377 659q7 15 25 15h23q13 0 17.5 -7.5t-2.5 -18.5l-377 -659q-7 -15 -25 -15h-23z" />
    <glyph glyph-name="Euro" unicode="&#x20ac;" horiz-adv-x="628" 
d="M578 239q10 0 15.5 -6t3.5 -17q-18 -107 -83 -167.5t-164 -60.5q-73 0 -129 34t-90 95.5t-45 145.5h-54q-20 0 -20 20v25q0 20 20 20h48v22q0 16 1 30h-49q-20 0 -20 20v25q0 20 20 20h55q19 125 87 196t176 71q98 0 162 -58.5t83 -161.5q2 -11 -3.5 -17t-16.5 -6h-51
q-18 0 -22 19q-9 43 -30 73.5t-52 45.5t-70 15q-45 0 -79.5 -20.5t-57.5 -60t-33 -96.5h217q20 0 20 -20v-25q0 -20 -20 -20h-224q-1 -14 -1 -30q0 -12 1 -22h224q20 0 20 -20v-25q0 -20 -20 -20h-218q9 -60 31.5 -101.5t58 -62.5t81.5 -21q61 0 101 36.5t53 104.5
q3 20 23 20h51z" />
    <glyph glyph-name="uni20BD" unicode="&#x20bd;" horiz-adv-x="594" 
d="M356 268h-161v-81h227q20 0 20 -21v-27q0 -20 -20 -20h-227v-98q0 -21 -21 -21h-50q-22 0 -22 21v98h-64q-20 0 -20 20v27q0 21 20 21h64v81h-63q-21 0 -21 21v42q0 21 21 21h63v327q0 21 22 21h71h161q60 0 110.5 -29t79.5 -79t29 -110q0 -89 -64 -151.5t-155 -62.5z
M195 613v-261h161q53 0 89.5 38t36.5 92q0 55 -36.5 93t-89.5 38h-161z" />
    <glyph glyph-name="uni2116" unicode="&#x2116;" horiz-adv-x="979" 
d="M783 402q-68 0 -113 45.5t-45 110t45 109.5t113 45t113 -45t45 -109q0 -66 -44.5 -111t-113.5 -45zM468 679q0 21 21 21h50q21 0 21 -21v-658q0 -21 -21 -21h-37q-18 0 -26 14l-308 504v-497q0 -21 -22 -21h-50q-21 0 -21 21v658q0 21 21 21h37q18 0 26 -14l309 -504v497
zM783 478q35 0 57 22.5t22 57.5q0 22 -10 40t-28 29t-41 11q-35 0 -57 -23t-22 -57q0 -23 10 -41t28 -28.5t41 -10.5zM659 254q-21 0 -21 22v40q0 22 21 22h249q22 0 22 -22v-40q0 -22 -22 -22h-249z" />
    <glyph glyph-name="trademark" unicode="&#x2122;" horiz-adv-x="465" 
d="M185 700q11 0 11 -10v-23q0 -10 -11 -10h-45v-147q0 -10 -10 -10h-26q-10 0 -10 10v147h-46q-10 0 -10 10v23q0 10 10 10h92h45zM416 700q11 0 11 -10v-180q0 -10 -11 -10h-25q-11 0 -11 10v110l-34 -70q-4 -7 -12 -7h-22q-8 0 -12 7l-36 72v-112q0 -10 -10 -10h-25
q-11 0 -11 10v180q0 10 11 10h25h8q10 0 13 -8l48 -98l48 98q3 8 13 8h23h9z" />
    <glyph glyph-name="estimated" unicode="&#x212e;" horiz-adv-x="810" 
d="M405 710q163 0 266.5 -104t103.5 -256q0 -15 -15 -15h-560q-15 0 -15 -15v-192q0 -11 7 -19q84 -89 233 -89q145 0 231 97q8 9 18 9h37q10 0 13 -6t-4 -13q-109 -117 -295 -117q-176 0 -283 103.5t-107 256.5q0 152 103.5 256t266.5 104zM625 572q0 11 -7 19
q-84 89 -213 89t-213 -89q-7 -8 -7 -19v-192q0 -15 15 -15h410q15 0 15 15v192z" />
    <glyph glyph-name="oneeighth" unicode="&#x215b;" horiz-adv-x="804" 
d="M178 300h-38q-20 0 -20 19v299l-80 -43q-10 -5 -16 -1t-6 15v39q0 16 13 24l79 42q9 6 23 6h45q20 0 20 -19v-362q0 -19 -20 -19zM564 700q13 0 17 -7.5t-2 -18.5l-377 -659q-7 -15 -25 -15h-24q-12 0 -16.5 7.5t1.5 18.5l377 659q8 15 26 15h23zM717 210q63 -33 63 -103
q0 -54 -40 -86.5t-106 -32.5q-67 0 -107 32.5t-40 86.5q0 70 63 103q-50 31 -50 86q0 54 38.5 85t95.5 31t95 -31t38 -85t-50 -86zM634 344q-30 0 -46 -13.5t-16 -36.5q0 -25 16 -39t46 -14q29 0 45 14.5t16 38.5q0 23 -16 36.5t-45 13.5zM634 58q34 0 53 16t19 43t-20 43
t-52 16q-17 0 -30.5 -4t-23 -11.5t-14 -18.5t-4.5 -25q0 -17 8 -30.5t24.5 -21t39.5 -7.5z" />
    <glyph glyph-name="threeeighths" unicode="&#x215c;" horiz-adv-x="900" 
d="M319 418q0 -60 -40.5 -95t-108.5 -35q-41 0 -73 13t-51 38t-23 59q-3 20 18 20h40q13 0 21 -17q9 -42 68 -42q23 0 39.5 7.5t24.5 20.5t8 31q0 27 -19 43.5t-53 16.5h-24q-19 0 -19 18v20q0 13 9 24l73 88h-152q-19 0 -19 18v35q0 19 19 19h226q19 0 19 -19v-34
q0 -12 -9 -23l-74 -90q47 -10 73.5 -40.5t26.5 -75.5zM661 700q13 0 17 -7.5t-2 -18.5l-377 -659q-8 -15 -25 -15h-24q-13 0 -17 7.5t2 18.5l377 659q8 15 26 15h23zM814 210q63 -33 63 -103q0 -54 -40 -86.5t-106 -32.5q-67 0 -107 32.5t-40 86.5q0 70 63 103
q-50 31 -50 86q0 54 38 85t96 31q57 0 95 -31t38 -85t-50 -86zM731 344q-30 0 -46 -13.5t-16 -36.5q0 -25 16 -39t46 -14q28 0 44.5 14.5t16.5 38.5q0 23 -16.5 36.5t-44.5 13.5zM731 58q22 0 38.5 7.5t24.5 21t8 30.5q0 27 -19.5 43t-51.5 16q-18 0 -31.5 -4t-22.5 -11.5
t-13.5 -18.5t-4.5 -25q0 -17 8 -30.5t24.5 -21t39.5 -7.5z" />
    <glyph glyph-name="fiveeighths" unicode="&#x215d;" horiz-adv-x="889" 
d="M308 417q0 -60 -39 -94.5t-106 -34.5q-61 0 -99 29t-44 81q-2 20 18 20h38q13 0 20 -17q5 -20 22.5 -31.5t44.5 -11.5q33 0 51.5 16.5t18.5 43.5q0 19 -8 33t-24 21.5t-38 7.5h-107q-21 0 -19 20l13 182q1 18 19 18h202q19 0 19 -19v-33q0 -19 -19 -19h-152l-5 -79h52
q64 0 103 -35.5t39 -97.5zM649 700q13 0 17 -7.5t-2 -18.5l-377 -659q-7 -15 -25 -15h-24q-12 0 -16.5 7.5t2.5 18.5l376 659q8 15 26 15h23zM802 210q64 -33 64 -103q0 -54 -40.5 -86.5t-106.5 -32.5q-44 0 -77.5 14.5t-51.5 41.5t-18 63q0 70 63 103q-50 31 -50 86
q0 54 38.5 85t95.5 31t95 -31t38 -85t-50 -86zM719 344q-30 0 -46 -13.5t-16 -36.5q0 -25 16 -39t46 -14q29 0 45 14.5t16 38.5q0 23 -16 36.5t-45 13.5zM719 58q34 0 52.5 16t18.5 43t-19.5 43t-51.5 16q-17 0 -30.5 -4t-23 -11.5t-14 -18.5t-4.5 -25q0 -17 8 -30.5
t24.5 -21t39.5 -7.5z" />
    <glyph glyph-name="seveneighths" unicode="&#x215e;" horiz-adv-x="846" 
d="M277 652q0 -12 -5 -24l-129 -313q-6 -15 -23 -15h-40q-11 0 -15 6.5t0 15.5l128 306h-167q-18 0 -18 18v35q0 19 18 19h232q19 0 19 -19v-29zM606 700q13 0 17 -7.5t-2 -18.5l-377 -659q-7 -15 -25 -15h-24q-12 0 -16.5 7.5t1.5 18.5l377 659q8 15 26 15h23zM759 210
q63 -33 63 -103q0 -54 -40 -86.5t-106 -32.5q-67 0 -107 32.5t-40 86.5q0 70 63 103q-50 31 -50 86q0 54 38.5 85t95.5 31t95 -31t38 -85t-50 -86zM676 344q-30 0 -46 -13.5t-16 -36.5q0 -25 16 -39t46 -14q29 0 45 14.5t16 38.5q0 23 -16 36.5t-45 13.5zM676 58q34 0 53 16
t19 43t-20 43t-52 16q-17 0 -30.5 -4t-23 -11.5t-14 -18.5t-4.5 -25q0 -17 8 -30.5t24.5 -21t39.5 -7.5z" />
    <glyph glyph-name="arrowleft" unicode="&#x2190;" horiz-adv-x="813" 
d="M736 392q22 0 22 -21v-42q0 -21 -22 -21h-522l232 -232q9 -9 6 -17.5t-17 -8.5h-65q-15 0 -26 11l-274 274q-15 15 0 30l274 274q11 11 26 11h65q14 0 17 -8.5t-6 -17.5l-232 -232h522z" />
    <glyph glyph-name="arrowup" unicode="&#x2191;" horiz-adv-x="710" 
d="M644 411q11 -11 11 -26v-65q0 -14 -8.5 -17t-18.5 7l-230 230v-519q0 -21 -21 -21h-44q-21 0 -21 21v519l-230 -230q-10 -10 -18.5 -7t-8.5 17v65q0 15 11 26l274 274q15 15 30 0z" />
    <glyph glyph-name="arrowright" unicode="&#x2192;" horiz-adv-x="813" 
d="M742 365q16 -15 0 -30l-274 -274q-10 -11 -26 -11h-64q-14 0 -17.5 8.5t6.5 17.5l231 232h-522q-21 0 -21 21v42q0 21 21 21h522l-231 232q-10 9 -6.5 17.5t17.5 8.5h64q16 0 26 -11z" />
    <glyph glyph-name="arrowdown" unicode="&#x2193;" horiz-adv-x="710" 
d="M628 390q10 10 18.5 7t8.5 -17v-65q0 -15 -11 -26l-274 -274q-15 -15 -30 0l-274 274q-11 11 -11 26v65q0 14 8.5 17t18.5 -7l230 -230v519q0 21 21 21h44q21 0 21 -21v-519z" />
    <glyph glyph-name="arrowboth" unicode="&#x2194;" horiz-adv-x="1055" 
d="M985 365q15 -15 0 -30l-231 -232q-11 -11 -26 -11h-64q-14 0 -17 8.5t7 18.5l188 189h-629l188 -189q10 -10 7 -18.5t-17 -8.5h-64q-15 0 -26 11l-231 232q-15 15 0 30l231 232q11 11 26 11h64q14 0 17 -8.5t-7 -18.5l-188 -189h629l-188 189q-10 10 -7 18.5t17 8.5h64
q15 0 26 -11z" />
    <glyph glyph-name="arrowupdn" unicode="&#x2195;" horiz-adv-x="625" 
d="M544 476l-188 187v-626l188 187q9 10 17.5 6.5t8.5 -17.5v-64q0 -15 -11 -26l-231 -231q-16 -15 -30 0l-232 231q-11 11 -11 26v64q0 14 8.5 17.5t18.5 -6.5l187 -187v626l-187 -187q-10 -10 -18.5 -6.5t-8.5 17.5v64q0 15 11 25l232 232q14 14 30 0l231 -232
q11 -10 11 -25v-64q0 -14 -8.5 -17.5t-17.5 6.5z" />
    <glyph glyph-name="uni2196" unicode="&#x2196;" horiz-adv-x="640" 
d="M570 142q15 -16 0 -30l-31 -31q-15 -15 -30 0l-372 372v-326q0 -14 -8.5 -17.5t-17.5 6.5l-45 45q-11 11 -11 26v387q0 22 21 22h388q15 0 26 -11l45 -45q10 -10 6.5 -18t-17.5 -8h-326z" />
    <glyph glyph-name="uni2197" unicode="&#x2197;" horiz-adv-x="640" 
d="M564 596q21 0 21 -22v-387q0 -15 -11 -26l-45 -45q-10 -10 -18.5 -6.5t-8.5 17.5v326l-372 -372q-14 -15 -30 0l-30 31q-15 14 0 30l372 372h-326q-14 0 -17.5 8t6.5 18l45 45q11 11 26 11h388z" />
    <glyph glyph-name="uni2198" unicode="&#x2198;" horiz-adv-x="640" 
d="M574 518q11 -10 11 -26v-387q0 -21 -21 -21h-388q-15 0 -26 10l-45 45q-10 10 -6.5 18.5t17.5 8.5h326l-372 372q-15 15 0 30l30 30q16 15 30 0l372 -372v326q0 15 8.5 18t18.5 -7z" />
    <glyph glyph-name="uni2199" unicode="&#x2199;" horiz-adv-x="640" 
d="M570 568q15 -15 0 -30l-372 -372h326q14 0 17.5 -8.5t-6.5 -18.5l-45 -45q-11 -10 -26 -10h-388q-21 0 -21 21v387q0 16 11 26l45 45q9 10 17.5 7t8.5 -18v-326l372 372q15 15 30 0z" />
    <glyph glyph-name="partialdiff" unicode="&#x2202;" horiz-adv-x="579" 
d="M234 712q122 0 205.5 -100t83.5 -262q0 -172 -74.5 -267t-190.5 -95q-98 0 -154.5 60t-56.5 152q0 103 61 167t168 64q86 0 159 -48q-4 69 -28.5 124t-70.5 88.5t-107 33.5q-56 0 -105 -24q-10 -4 -15 -0.5t-5 12.5v46q0 14 10 21q52 28 120 28zM259 70q75 0 121 61.5
t55 169.5q-65 50 -154 50q-43 0 -76 -17t-52 -51t-19 -82q0 -58 32.5 -94.5t92.5 -36.5z" />
    <glyph glyph-name="emptyset" unicode="&#x2205;" horiz-adv-x="804" 
d="M656 608q51 -50 79.5 -116.5t28.5 -141.5q0 -150 -106 -256t-256 -106q-112 0 -204 63l-50 -61q-8 -10 -21 -10h-42q-11 0 -14 6.5t4 15.5l73 90q-51 50 -79.5 116.5t-28.5 141.5q0 98 48.5 181.5t132 132t181.5 48.5q112 0 204 -63l50 61q8 10 21 10h42q11 0 14 -7
t-4 -15zM110 350q0 -120 82 -205l370 451q-72 48 -160 48q-122 0 -207 -85.5t-85 -208.5zM402 56q122 0 207 85.5t85 208.5q0 120 -82 205l-370 -451q72 -48 160 -48z" />
    <glyph glyph-name="product" unicode="&#x220f;" horiz-adv-x="640" 
d="M96 -200q-21 0 -21 21v858q0 21 21 21h448q21 0 21 -21v-858q0 -21 -21 -21h-45q-21 0 -21 21v795h-316v-795q0 -21 -21 -21h-45z" />
    <glyph glyph-name="summation" unicode="&#x2211;" horiz-adv-x="548" 
d="M66 -200q-21 0 -21 21v45q0 13 7 26l224 368l-208 347q-8 14 -8 26v46q0 21 21 21h398q21 0 21 -21v-42q0 -21 -21 -21h-318l206 -341q9 -15 0 -30l-220 -361h347q21 0 21 -21v-42q0 -21 -21 -21h-428z" />
    <glyph glyph-name="minus" unicode="&#x2212;" horiz-adv-x="545" 
d="M79 308q-21 0 -21 22v40q0 22 21 22h387q22 0 22 -22v-40q0 -22 -22 -22h-387z" />
    <glyph glyph-name="radical" unicode="&#x221a;" horiz-adv-x="655" 
d="M296 0q-16 0 -25 15l-123 209h-72q-21 0 -21 21v41q0 22 21 22h104q18 0 26 -15l110 -190l228 680q6 17 23 17h47q11 0 16 -6.5t1 -17.5l-257 -759q-7 -17 -24 -17h-54z" />
    <glyph glyph-name="infinity" unicode="&#x221e;" horiz-adv-x="803" 
d="M581 515q72 0 120 -46.5t48 -118.5q0 -47 -22 -85t-60.5 -59t-85.5 -21q-93 0 -179 101q-87 -101 -180 -101q-29 0 -54.5 8t-46.5 22.5t-36 35t-23 46t-8 53.5q0 72 47.5 118.5t120.5 46.5q93 0 180 -101q86 101 179 101zM224 264q63 0 126 86q-63 86 -126 86
q-37 0 -60.5 -24.5t-23.5 -61.5t23.5 -61.5t60.5 -24.5zM579 264q24 0 43.5 11t30 30.5t10.5 44.5q0 37 -23.5 61.5t-60.5 24.5q-63 0 -126 -86q63 -86 126 -86z" />
    <glyph glyph-name="integral" unicode="&#x222b;" horiz-adv-x="440" 
d="M18 -208q-18 5 -18 25v42q0 21 24 17q38 -9 63 10t33 61l104 614q15 89 66.5 125t130.5 20q19 -3 19 -23v-42q0 -22 -24 -18q-44 9 -71 -9t-34 -62l-104 -613q-15 -89 -65 -125.5t-124 -21.5z" />
    <glyph glyph-name="approxequal" unicode="&#x2248;" horiz-adv-x="586" 
d="M104 378l-30 12q-19 8 -13 27q29 77 90 94t150 -33q66 -36 98.5 -32.5t48.5 43.5q9 21 28 12l37 -18q19 -8 12 -24q-26 -79 -87.5 -97t-153.5 32q-43 25 -73.5 31t-48.5 -4t-30 -34q-11 -17 -28 -9zM110 199l-37 18q-18 8 -12 27q27 77 89 94t151 -32q45 -26 75.5 -31.5
t48 4.5t29.5 34q10 17 28 9l30 -12q19 -8 12 -27q-29 -78 -89 -94.5t-151 33.5q-64 36 -97 32t-49 -43q-9 -21 -28 -12z" />
    <glyph glyph-name="notequal" unicode="&#x2260;" horiz-adv-x="535" 
d="M459 410h-135l-53 -120h188q21 0 21 -21v-41q0 -21 -21 -21h-225l-59 -130q-4 -12 -18 -12h-27q-6 0 -9.5 2t-4 6t1.5 10l56 124h-98q-21 0 -21 21v41q0 21 21 21h135l53 120h-188q-21 0 -21 21v41q0 21 21 21h225l59 130q4 12 18 12h27q9 0 12 -5t0 -13l-56 -124h98
q21 0 21 -21v-41q0 -21 -21 -21z" />
    <glyph glyph-name="lessequal" unicode="&#x2264;" 
d="M443 226l-371 144q-17 6 -17 24v46q0 18 17 24l371 144q11 5 18 0t7 -17v-49q0 -19 -18 -24l-290 -101l290 -101q18 -5 18 -24v-49q0 -12 -7 -17t-18 0zM446 85h-370q-21 0 -21 21v41q0 21 21 21h370q22 0 22 -21v-41q0 -21 -22 -21z" />
    <glyph glyph-name="greaterequal" unicode="&#x2265;" 
d="M80 226q-11 -5 -18 0t-7 17v49q0 19 17 24l291 101l-291 101q-17 5 -17 24v49q0 12 7 17t18 0l370 -144q18 -6 18 -24v-46q0 -18 -18 -24zM76 85q-21 0 -21 21v41q0 21 21 21h370q22 0 22 -21v-41q0 -21 -22 -21h-370z" />
    <glyph glyph-name="lozenge" unicode="&#x25ca;" horiz-adv-x="545" 
d="M250 0q-17 0 -25 15l-170 320q-8 15 0 30l170 320q8 15 25 15h44q18 0 26 -15l170 -320q8 -15 0 -30l-170 -320q-8 -15 -26 -15h-44zM272 104l132 246l-132 246l-131 -246z" />
    <glyph glyph-name="i.loclTRK" horiz-adv-x="220" 
d="M76 572q-19 0 -19 19v68q0 19 19 19h68q18 0 18 -19v-68q0 -19 -18 -19h-68zM88 0q-22 0 -22 21v458q0 21 22 21h44q21 0 21 -21v-458q0 -21 -21 -21h-44z" />
    <glyph glyph-name="a.ss01" horiz-adv-x="633" 
d="M545 500q21 0 21 -21v-458q0 -21 -21 -21h-44q-21 0 -21 21v64q-65 -97 -189 -97q-105 0 -179 76t-74 186t74 186t179 76q124 0 189 -97v64q0 21 21 21h44zM302 71q75 0 126.5 51.5t51.5 127.5t-51.5 127.5t-126.5 51.5t-126.5 -51.5t-51.5 -127.5q0 -50 23.5 -91
t64 -64.5t90.5 -23.5z" />
    <glyph glyph-name="aacute.ss01" horiz-adv-x="633" 
d="M270 568q-12 0 -15.5 6.5t1.5 17.5l59 95q7 13 23 13h59q13 0 16.5 -7t-4.5 -17l-73 -97q-9 -11 -25 -11h-41zM545 500q21 0 21 -21v-458q0 -21 -21 -21h-44q-21 0 -21 21v64q-65 -97 -189 -97q-105 0 -179 76t-74 186t74 186t179 76q124 0 189 -97v64q0 21 21 21h44z
M302 71q75 0 126.5 51.5t51.5 127.5t-51.5 127.5t-126.5 51.5t-126.5 -51.5t-51.5 -127.5q0 -50 23.5 -91t64 -64.5t90.5 -23.5z" />
    <glyph glyph-name="abreve.ss01" horiz-adv-x="633" 
d="M302 557q-63 0 -102 30t-45 85q-2 20 17 20h45q17 0 19 -18q8 -48 66.5 -48t66.5 48q2 18 19 18h44q20 0 18 -18q-5 -56 -43.5 -86.5t-104.5 -30.5zM545 500q21 0 21 -21v-458q0 -21 -21 -21h-44q-21 0 -21 21v64q-65 -97 -189 -97q-105 0 -179 76t-74 186t74 186t179 76
q124 0 189 -97v64q0 21 21 21h44zM302 71q75 0 126.5 51.5t51.5 127.5t-51.5 127.5t-126.5 51.5t-126.5 -51.5t-51.5 -127.5q0 -50 23.5 -91t64 -64.5t90.5 -23.5z" />
    <glyph glyph-name="acircumflex.ss01" horiz-adv-x="633" 
d="M176 565q-11 0 -14.5 6.5t3.5 16.5l79 101q9 11 23 11h47h22q14 0 22 -11l79 -101q7 -10 4 -16.5t-15 -6.5h-49q-14 0 -23 11l-53 70l-53 -70q-8 -11 -22 -11h-50zM545 500q21 0 21 -21v-458q0 -21 -21 -21h-44q-21 0 -21 21v64q-65 -97 -189 -97q-105 0 -179 76t-74 186
t74 186t179 76q124 0 189 -97v64q0 21 21 21h44zM302 71q75 0 126.5 51.5t51.5 127.5t-51.5 127.5t-126.5 51.5t-126.5 -51.5t-51.5 -127.5q0 -50 23.5 -91t64 -64.5t90.5 -23.5z" />
    <glyph glyph-name="adieresis.ss01" horiz-adv-x="633" 
d="M177 574q-18 0 -18 18v56q0 18 18 18h56q18 0 18 -18v-56q0 -18 -18 -18h-56zM372 574q-18 0 -18 18v56q0 18 18 18h56q18 0 18 -18v-56q0 -18 -18 -18h-56zM545 500q21 0 21 -21v-458q0 -21 -21 -21h-44q-21 0 -21 21v64q-65 -97 -189 -97q-105 0 -179 76t-74 186
t74 186t179 76q124 0 189 -97v64q0 21 21 21h44zM302 71q75 0 126.5 51.5t51.5 127.5t-51.5 127.5t-126.5 51.5t-126.5 -51.5t-51.5 -127.5q0 -50 23.5 -91t64 -64.5t90.5 -23.5z" />
    <glyph glyph-name="agrave.ss01" horiz-adv-x="633" 
d="M262 578l-75 99q-7 10 -3.5 16.5t14.5 6.5h62q15 0 22 -12l60 -98q5 -9 1.5 -15.5t-14.5 -6.5h-44q-15 0 -23 10zM545 500q21 0 21 -21v-458q0 -21 -21 -21h-44q-21 0 -21 21v64q-65 -97 -189 -97q-105 0 -179 76t-74 186t74 186t179 76q124 0 189 -97v64q0 21 21 21h44z
M302 71q75 0 126.5 51.5t51.5 127.5t-51.5 127.5t-126.5 51.5t-126.5 -51.5t-51.5 -127.5q0 -50 23.5 -91t64 -64.5t90.5 -23.5z" />
    <glyph glyph-name="amacron.ss01" horiz-adv-x="633" 
d="M186 575q-18 0 -18 18v37q0 18 18 18h233q19 0 19 -18v-37q0 -18 -19 -18h-233zM545 500q21 0 21 -21v-458q0 -21 -21 -21h-44q-21 0 -21 21v64q-65 -97 -189 -97q-105 0 -179 76t-74 186t74 186t179 76q124 0 189 -97v64q0 21 21 21h44zM302 71q75 0 126.5 51.5
t51.5 127.5t-51.5 127.5t-126.5 51.5t-126.5 -51.5t-51.5 -127.5q0 -50 23.5 -91t64 -64.5t90.5 -23.5z" />
    <glyph glyph-name="aogonek.ss01" horiz-adv-x="633" 
d="M566 479l1 -458q0 -1 -1 -2q0 -16 -20 -38q-50 -55 -50 -95q0 -34 48 -29q20 4 20 -15v-27q0 -16 -12 -19q-23 -9 -54 -9q-40 0 -63 21.5t-23 58.5q0 54 71 142q-3 5 -3 12v64q-65 -97 -189 -97q-105 0 -179 76t-74 186t74 186t179 76q124 0 189 -97v64q0 21 21 21h44
q21 0 21 -21zM302 71q76 0 127 51.5t51 127.5t-51 127.5t-126.5 51.5t-126.5 -51.5t-51 -127.5q0 -50 23 -91t63.5 -64.5t90.5 -23.5z" />
    <glyph glyph-name="aring.ss01" horiz-adv-x="633" 
d="M302 546q-49 0 -80.5 30.5t-31.5 76t31.5 76t80.5 30.5q34 0 60 -14t39.5 -38t13.5 -55q0 -46 -31 -76t-82 -30zM302 698q-22 0 -34 -13t-12 -32.5t12 -32.5t34 -13q23 0 35.5 12.5t12.5 33t-12.5 33t-35.5 12.5zM545 500q21 0 21 -21v-458q0 -21 -21 -21h-44
q-21 0 -21 21v64q-65 -97 -189 -97q-105 0 -179 76t-74 186t74 186t179 76q124 0 189 -97v64q0 21 21 21h44zM302 71q75 0 126.5 51.5t51.5 127.5t-51.5 127.5t-126.5 51.5t-126.5 -51.5t-51.5 -127.5q0 -50 23.5 -91t64 -64.5t90.5 -23.5z" />
    <glyph glyph-name="atilde.ss01" horiz-adv-x="633" 
d="M171 573q-19 0 -17 20q3 56 27 83t57 24.5t69 -28.5q15 -11 24 -17t18 -9.5t14.5 -1.5t9.5 10t5 22q2 19 19 19h37q19 0 17 -19q-3 -57 -27 -84t-56.5 -24t-69.5 28q-18 14 -29 20.5t-20.5 8t-15 -6.5t-6.5 -26q-2 -19 -19 -19h-37zM545 500q21 0 21 -21v-458
q0 -21 -21 -21h-44q-21 0 -21 21v64q-65 -97 -189 -97q-105 0 -179 76t-74 186t74 186t179 76q124 0 189 -97v64q0 21 21 21h44zM302 71q75 0 126.5 51.5t51.5 127.5t-51.5 127.5t-126.5 51.5t-126.5 -51.5t-51.5 -127.5q0 -50 23.5 -91t64 -64.5t90.5 -23.5z" />
    <glyph glyph-name="ae.ss01" horiz-adv-x="1014" 
d="M748 512q73 0 127.5 -37t81.5 -96t27 -131q0 -11 -1 -19q-3 -19 -20 -19h-67h-326q11 -68 57.5 -106t113.5 -38q42 0 75.5 16.5t51.5 43.5q9 13 24 13h51q11 0 16 -5.5t1 -15.5q-26 -61 -79.5 -95.5t-128.5 -34.5q-126 0 -188 95v-63q0 -20 -20 -20h-45q-19 0 -19 20v65
q-65 -97 -189 -97q-105 0 -179 76t-74 186t74 186.5t179 76.5q124 0 189 -98v65q0 20 19 20h45q20 0 20 -20v-65q63 97 184 97zM570 287h326q-10 70 -54 107t-103 37q-69 0 -114 -39t-55 -105zM302 71q75 0 126.5 51.5t51.5 127.5t-51.5 127.5t-126.5 51.5t-126.5 -51.5
t-51.5 -127.5q0 -50 23.5 -91t64 -64.5t90.5 -23.5z" />
    <glyph glyph-name="y.ss01" 
d="M435 500q21 0 21 -21v-501q0 -90 -54.5 -140t-140.5 -50q-78 0 -131.5 39.5t-61.5 105.5q-3 22 21 22h44q16 0 22 -19q7 -33 36.5 -51t68.5 -18q49 0 79 27t30 84v84q-48 -74 -147 -74q-72 0 -120 51t-48 137v303q0 21 21 21h45q21 0 21 -21v-300q0 -52 28.5 -80.5
t75.5 -28.5q24 0 45.5 8t39.5 24t29 45.5t11 68.5v263q0 21 21 21h44z" />
    <glyph glyph-name="yacute.ss01" 
d="M222 568q-11 0 -15 6.5t2 17.5l59 95q7 13 23 13h59q12 0 16 -7t-4 -17l-74 -97q-8 -11 -24 -11h-42zM435 500q21 0 21 -21v-501q0 -90 -54.5 -140t-140.5 -50q-78 0 -131.5 39.5t-61.5 105.5q-3 22 21 22h44q16 0 22 -19q7 -33 36.5 -51t68.5 -18q49 0 79 27t30 84v84
q-48 -74 -147 -74q-72 0 -120 51t-48 137v303q0 21 21 21h45q21 0 21 -21v-300q0 -52 28.5 -80.5t75.5 -28.5q24 0 45.5 8t39.5 24t29 45.5t11 68.5v263q0 21 21 21h44z" />
    <glyph glyph-name="ycircumflex.ss01" 
d="M129 565q-12 0 -15 6.5t4 16.5l79 101q8 11 23 11h47h21q15 0 23 -11l79 -101q7 -10 4 -16.5t-15 -6.5h-49q-15 0 -23 11l-53 70l-53 -70q-8 -11 -23 -11h-49zM435 500q21 0 21 -21v-501q0 -90 -54.5 -140t-140.5 -50q-78 0 -131.5 39.5t-61.5 105.5q-3 22 21 22h44
q16 0 22 -19q7 -33 36.5 -51t68.5 -18q49 0 79 27t30 84v84q-48 -74 -147 -74q-72 0 -120 51t-48 137v303q0 21 21 21h45q21 0 21 -21v-300q0 -52 28.5 -80.5t75.5 -28.5q24 0 45.5 8t39.5 24t29 45.5t11 68.5v263q0 21 21 21h44z" />
    <glyph glyph-name="ydieresis.ss01" 
d="M130 574q-18 0 -18 18v56q0 18 18 18h56q18 0 18 -18v-56q0 -18 -18 -18h-56zM325 574q-19 0 -19 18v56q0 18 19 18h55q19 0 19 -18v-56q0 -18 -19 -18h-55zM435 500q21 0 21 -21v-501q0 -90 -54.5 -140t-140.5 -50q-78 0 -131.5 39.5t-61.5 105.5q-3 22 21 22h44
q16 0 22 -19q7 -33 36.5 -51t68.5 -18q49 0 79 27t30 84v84q-48 -74 -147 -74q-72 0 -120 51t-48 137v303q0 21 21 21h45q21 0 21 -21v-300q0 -52 28.5 -80.5t75.5 -28.5q24 0 45.5 8t39.5 24t29 45.5t11 68.5v263q0 21 21 21h44z" />
    <glyph glyph-name="ygrave.ss01" 
d="M215 578l-75 99q-7 10 -4 16.5t15 6.5h62q15 0 22 -12l59 -98q6 -9 2.5 -15.5t-14.5 -6.5h-44q-15 0 -23 10zM435 500q21 0 21 -21v-501q0 -90 -54.5 -140t-140.5 -50q-78 0 -131.5 39.5t-61.5 105.5q-3 22 21 22h44q16 0 22 -19q7 -33 36.5 -51t68.5 -18q49 0 79 27
t30 84v84q-48 -74 -147 -74q-72 0 -120 51t-48 137v303q0 21 21 21h45q21 0 21 -21v-300q0 -52 28.5 -80.5t75.5 -28.5q24 0 45.5 8t39.5 24t29 45.5t11 68.5v263q0 21 21 21h44z" />
    <glyph glyph-name="f_f_j" horiz-adv-x="793" 
d="M706 500q21 0 21 -21v-509q0 -91 -43.5 -138t-127.5 -46q-22 0 -22 22v42q0 20 21 21q44 0 64.5 23.5t20.5 75.5v446h-185v-395q0 -21 -21 -21h-45q-21 0 -21 21v395h-80h-106v-395q0 -21 -21 -21h-44q-21 0 -21 21v395h-60q-21 0 -21 21v42q0 21 21 21h60v15
q0 96 50.5 148t145.5 51q22 0 22 -23v-41q0 -20 -22 -20q-110 0 -110 -115v-15h132h54v25q0 197 218 197q39 0 84 -8q20 -4 20 -23v-37q0 -11 -6.5 -16.5t-17.5 -3.5q-37 4 -80 4q-67 0 -99 -25t-32 -88v-25h224h27z" />
    <glyph glyph-name="f_j" horiz-adv-x="521" 
d="M433 500q21 0 21 -21v-509q0 -91 -43.5 -138t-127.5 -46q-21 0 -21 22v42q0 20 21 21q43 0 64 23.5t21 75.5v446h-186v-395q0 -21 -21 -21h-44q-21 0 -21 21v395h-60q-21 0 -21 21v42q0 21 21 21h60v15q0 197 218 197q38 0 84 -8q19 -4 19 -23v-37q0 -11 -6 -16.5
t-17 -3.5q-38 4 -80 4q-68 0 -100 -25t-32 -88v-15h224h27z" />
    <glyph glyph-name="uni0414.loclBGR" horiz-adv-x="710" 
d="M666 87q22 0 22 -21v-66v-123q0 -21 -22 -21h-50q-21 0 -21 21v123h-435h-45v-123q0 -21 -21 -21h-50q-22 0 -22 21v159v30q0 21 22 21h48l204 596q6 17 25 17h68q19 0 25 -17l204 -596h48zM189 87h332l-166 503z" />
    <glyph glyph-name="uni041B.loclBGR" horiz-adv-x="616" 
d="M274 700h68q18 0 24 -17l234 -659q2 -5 1.5 -9.5t-3 -8t-6.5 -5t-10 -1.5h-54q-19 0 -25 17l-195 571l-195 -571q-6 -17 -25 -17h-54q-12 0 -17 6.5t-1 17.5l234 659q6 17 24 17z" />
    <glyph glyph-name="uni0424.loclBGR" horiz-adv-x="849" 
d="M812 350q0 -101 -43 -180t-120.5 -125t-178.5 -55v-69q0 -21 -22 -21h-47q-21 0 -21 21v69q-155 13 -248.5 110t-93.5 250t93.5 250t248.5 110v69q0 21 21 21h47q22 0 22 -21v-69q154 -13 248 -110t94 -250zM130 350q0 -117 66.5 -190t183.5 -85v550q-117 -12 -183.5 -85
t-66.5 -190zM470 75q116 12 182.5 85t66.5 190t-66.5 190t-182.5 85v-550z" />
    <glyph glyph-name="uni0414.ss01" horiz-adv-x="668" 
d="M614 87q21 0 21 -21v-45q0 -21 -21 -21h-146h-432q-21 0 -21 21v45q0 21 21 21h39q66 80 66 247v345q0 21 21 21h377q21 0 21 -21v-592h54zM180 87h288v526h-234v-282q0 -160 -54 -244z" />
    <glyph glyph-name="uni0426.ss01" horiz-adv-x="665" 
d="M558 88h53q21 0 21 -21v-46q0 -21 -21 -21h-515q-21 0 -21 21v658q0 21 21 21h50q22 0 22 -21v-591h297v591q0 21 21 21h50q22 0 22 -21v-591z" />
    <glyph glyph-name="uni0429.ss01" horiz-adv-x="940" 
d="M832 88h54q22 0 22 -21v-46q0 -21 -22 -21h-790q-21 0 -21 21v658q0 21 21 21h50q22 0 22 -21v-591h240v591q0 21 21 21h50q21 0 21 -21v-591h240v591q0 21 21 21h50q21 0 21 -21v-591z" />
    <glyph glyph-name="uni0414.loclBGR.ss01" horiz-adv-x="710" 
d="M666 87q22 0 22 -21v-45q0 -21 -22 -21h-116h-488h-18q-22 0 -22 21v45q0 21 22 21h48l204 596q6 17 25 17h68q19 0 25 -17l204 -596h48zM189 87h332l-166 503z" />
    <glyph glyph-name="uni0432.loclBGR" horiz-adv-x="569" 
d="M406 403q60 -21 92.5 -72.5t32.5 -126.5q0 -102 -61 -159t-171 -57q-109 0 -171 64.5t-62 177.5v236q0 113 59.5 179.5t161.5 66.5q85 0 136 -46.5t51 -123.5q0 -75 -68 -139zM287 630q-62 0 -98 -45t-36 -119v-74l85 18q39 7 75 8q75 55 75 120q0 40 -27 66t-74 26z
M299 72q68 0 106.5 35t38.5 98q0 75 -56.5 108.5t-149.5 14.5l-85 -17v-81q0 -50 17.5 -85.5t50.5 -54t78 -18.5z" />
    <glyph glyph-name="uni0433.loclBGR" horiz-adv-x="452" 
d="M328 130q6 20 22 20h44q23 0 21 -22q-7 -66 -59.5 -103t-129.5 -37q-88 0 -139.5 37.5t-51.5 106.5q0 44 21 74.5t52.5 44.5t68.5 26t68.5 20t52.5 25.5t21 43.5q0 33 -26 49.5t-64 16.5q-37 0 -64 -15.5t-33 -48.5q-7 -19 -23 -19h-44q-23 0 -21 22q8 66 59.5 103.5
t124.5 37.5q76 0 127 -40t51 -106q0 -44 -21 -75t-52.5 -44.5t-68.5 -25.5t-68.5 -20t-52.5 -25.5t-21 -43.5q0 -36 26.5 -50t77.5 -14q25 0 45.5 6t36 20t20.5 36z" />
    <glyph glyph-name="uni0434.loclBGR" horiz-adv-x="633" 
d="M545 500q21 0 21 -21v-458q0 -75 -36 -129t-92 -79t-124 -25q-90 0 -160.5 47t-81.5 121q-1 23 22 23h44q18 0 23 -19q10 -37 51 -64.5t102 -27.5q80 0 123 41t43 112v70q-64 -99 -189 -99q-105 0 -179 76t-74 184.5t74 184t179 75.5q125 0 189 -98v65q0 21 22 21h43z
M302.5 75q75.5 0 126.5 51t51 126.5t-51 126.5t-127 51q-49 0 -90 -23.5t-64.5 -64t-23.5 -90.5q0 -75 51.5 -126t127 -51z" />
    <glyph glyph-name="uni0436.loclBGR" horiz-adv-x="698" 
d="M660 26q8 -10 4.5 -18t-16.5 -8h-53q-16 0 -26 12l-177 223v-214q0 -21 -21 -21h-44q-21 0 -21 21v214l-177 -223q-10 -12 -26 -12h-53q-13 0 -16.5 8t4.5 18l189 232l-178 216q-8 10 -4.5 18t16.5 8h52q16 0 26 -12l167 -208v399q0 21 21 21h44q21 0 21 -21v-399
l167 208q10 12 26 12h52q13 0 16.5 -8t-4.5 -18l-178 -216z" />
    <glyph glyph-name="uni0438.loclBGR" 
d="M435 500q21 0 21 -21v-458q0 -21 -21 -21h-44q-22 0 -22 21v41q-48 -74 -147 -74q-72 0 -120 51t-48 137v303q0 21 21 21h45q21 0 21 -21v-300q0 -52 28.5 -80.5t75.5 -28.5q24 0 45.5 8t39.5 24t29 45.5t11 68.5v263q0 21 21 21h44z" />
    <glyph glyph-name="uni0439.loclBGR" 
d="M146 575q-21 0 -21 21v34q0 21 21 21h228q21 0 21 -21v-34q0 -21 -21 -21h-228zM435 500q21 0 21 -21v-458q0 -21 -21 -21h-44q-22 0 -22 21v41q-48 -74 -147 -74q-72 0 -120 51t-48 137v303q0 21 21 21h45q21 0 21 -21v-300q0 -52 28.5 -80.5t75.5 -28.5q24 0 45.5 8
t39.5 24t29 45.5t11 68.5v263q0 21 21 21h44z" />
    <glyph glyph-name="uni043A.loclBGR" horiz-adv-x="502" 
d="M462 26q9 -10 5.5 -18t-17.5 -8h-56q-16 0 -26 12l-215 224v-215q0 -21 -21 -21h-44q-22 0 -22 21v658q0 21 22 21h44q21 0 21 -21v-401l205 210q10 12 26 12h57q14 0 17 -8t-6 -18l-212 -216z" />
    <glyph glyph-name="uni043B.loclBGR" horiz-adv-x="480" 
d="M463 24q4 -11 -0.5 -17.5t-16.5 -6.5h-48q-18 0 -24 17l-134 384l-134 -384q-6 -17 -24 -17h-48q-11 0 -16 6.5t-1 17.5l168 459q7 17 24 17h40h22q18 0 24 -17z" />
    <glyph glyph-name="uni043F.loclBGR" 
d="M301 512q72 0 120 -51t48 -137v-303q0 -21 -21 -21h-45q-21 0 -21 21v300q0 52 -29 80.5t-75 28.5q-25 0 -46 -8t-39.5 -24t-29 -45.5t-10.5 -68.5v-263q0 -21 -21 -21h-44q-22 0 -22 21v458q0 21 22 21h44q21 0 21 -21v-41q49 74 148 74z" />
    <glyph glyph-name="uni0442.loclBGR" horiz-adv-x="768" 
d="M556 512q45 0 80 -19t56.5 -59.5t21.5 -96.5v-316q0 -21 -22 -21h-44q-21 0 -21 21v313q0 49 -24.5 72.5t-62.5 23.5q-42 0 -74 -29.5t-32 -96.5v-283q0 -21 -22 -21h-44q-22 0 -22 21v313q0 33 -12 55t-31 31.5t-44 9.5q-41 0 -73.5 -29.5t-32.5 -96.5v-283
q0 -21 -21 -21h-44q-22 0 -22 21v458q0 21 22 21h44q21 0 21 -21v-34q46 67 129 67q28 0 52 -8.5t44.5 -26t33.5 -43.5q50 78 144 78z" />
    <glyph glyph-name="uni0446.loclBGR" horiz-adv-x="560" 
d="M511 83q21 0 21 -21v-62v-123q0 -21 -21 -21h-43q-22 0 -22 21v127q-48 12 -67 57q-50 -73 -154 -73q-73 0 -122 51t-49 137v303q0 21 21 21h45q21 0 21 -21v-300q0 -52 28.5 -80.5t75.5 -28.5q24 0 45.5 8t39.5 24t29 45.5t11 68.5v263q0 21 21 21h44q21 0 21 -21v-361
q0 -8 3 -14.5t7.5 -11t11 -7t14.5 -2.5h19z" />
    <glyph glyph-name="uni0448.loclBGR" horiz-adv-x="768" 
d="M680 500q22 0 22 -21v-458q0 -21 -22 -21h-44q-22 0 -22 21v34q-46 -67 -129 -67q-41 0 -75.5 20t-53.5 58q-50 -78 -145 -78q-44 0 -79 19t-56.5 59.5t-21.5 96.5v316q0 21 21 21h45q21 0 21 -21v-313q0 -49 24.5 -72.5t62.5 -23.5q42 0 74 29.5t32 96.5v283q0 21 22 21
h44q21 0 21 -21v-313q0 -33 12.5 -55t31.5 -31.5t43 -9.5q42 0 74 29.5t32 96.5v283q0 21 22 21h44z" />
    <glyph glyph-name="uni0449.loclBGR" horiz-adv-x="805" 
d="M756 83q21 0 21 -21v-62v-123q0 -21 -21 -21h-44q-21 0 -21 21v127q-46 12 -66 54q-48 -70 -140 -70q-41 0 -75.5 20t-53.5 58q-50 -78 -145 -78q-44 0 -79 19t-56.5 59.5t-21.5 96.5v316q0 21 21 21h45q21 0 21 -21v-313q0 -49 24.5 -72.5t62.5 -23.5q42 0 74 29.5
t32 96.5v283q0 21 22 21h44q21 0 21 -21v-313q0 -33 12.5 -55t31.5 -31.5t43 -9.5q42 0 74 29.5t32 96.5v283q0 21 22 21h44q22 0 22 -21v-361q0 -11 4 -19t12 -12t19 -4h19z" />
    <glyph glyph-name="uni044C.loclBGR" horiz-adv-x="482" 
d="M256 346q95 0 146.5 -46t51.5 -128q0 -77 -56 -130.5t-144 -53.5q-62 0 -107.5 24t-69 66t-23.5 96v305q0 21 21 21h44q21 0 21 -21v-133h116zM254 70q49 0 81.5 31t32.5 71q0 44 -29.5 68.5t-82.5 24.5h-116v-91q0 -43 31 -73.5t83 -30.5z" />
    <glyph glyph-name="uni044A.loclBGR" horiz-adv-x="568" 
d="M341 346q94 0 146 -46t52 -128q0 -77 -56 -130.5t-144 -53.5q-93 0 -146.5 52t-53.5 134v243h-118q-21 0 -21 21v41q0 21 21 21h159h24q21 0 21 -21v-133h116zM339 70q49 0 81.5 31t32.5 71q0 29 -13 50t-38.5 32t-60.5 11h-116v-91q0 -28 13 -51t39.5 -38t61.5 -15z" />
    <glyph glyph-name="uni044E.loclBGR" horiz-adv-x="804" 
d="M503 512q110 0 186.5 -75.5t76.5 -186.5q0 -73 -35 -133.5t-95.5 -94.5t-132.5 -34q-99 0 -170.5 62t-86.5 158h-93v-187q0 -21 -21 -21h-44q-22 0 -22 21v658q0 21 22 21h44q21 0 21 -21v-387h93q15 96 86.5 158t170.5 62zM502.5 72q74.5 0 125.5 51t51 127t-51 127
t-125.5 51t-125.5 -51t-51 -127t51 -127t125.5 -51z" />
    <glyph glyph-name="uni0430.ss01" horiz-adv-x="633" 
d="M545 500q21 0 21 -21v-458q0 -21 -21 -21h-44q-21 0 -21 21v64q-65 -97 -189 -97q-105 0 -179 76t-74 186t74 186t179 76q124 0 189 -97v64q0 21 21 21h44zM302 71q75 0 126.5 51.5t51.5 127.5t-51.5 127.5t-126.5 51.5t-126.5 -51.5t-51.5 -127.5q0 -50 23.5 -91
t64 -64.5t90.5 -23.5z" />
    <glyph glyph-name="uni0443.ss01" 
d="M435 500q21 0 21 -21v-501q0 -90 -54.5 -140t-140.5 -50q-78 0 -131.5 39.5t-61.5 105.5q-3 22 21 22h44q16 0 22 -19q7 -33 36.5 -51t68.5 -18q49 0 79 27t30 84v84q-48 -74 -147 -74q-72 0 -120 51t-48 137v303q0 21 21 21h45q21 0 21 -21v-300q0 -52 28.5 -80.5
t75.5 -28.5q24 0 45.5 8t39.5 24t29 45.5t11 68.5v263q0 21 21 21h44z" />
    <glyph glyph-name="zero.sinf" horiz-adv-x="410" 
d="M205 -172q-83 0 -130 57.5t-47 154.5q0 48 12 87t34.5 67t56 43t74.5 15q82 0 129.5 -57.5t47.5 -154.5q0 -64 -21 -112t-61.5 -74t-94.5 -26zM205 -97q47 0 73 35.5t26 101.5t-26 101.5t-73 35.5t-73 -35.5t-26 -101.5t26 -101.5t73 -35.5z" />
    <glyph glyph-name="one.sinf" horiz-adv-x="254" 
d="M110 234q9 6 23 6h45q20 0 20 -19v-362q0 -19 -20 -19h-38q-20 0 -20 19v299l-80 -43q-10 -5 -16 -1t-6 15v39q0 16 13 24z" />
    <glyph glyph-name="two.sinf" horiz-adv-x="345" 
d="M49 -160q-19 0 -19 19v25q0 13 10 23l152 143q40 36 40 77q0 24 -16.5 38.5t-44.5 14.5q-53 0 -63 -42q-6 -17 -20 -17h-40q-20 0 -18 20q6 52 45 81.5t96 29.5q61 0 99.5 -34.5t38.5 -89.5q0 -66 -64 -125l-100 -91h153q18 0 18 -18v-35q0 -19 -18 -19h-249z" />
    <glyph glyph-name="three.sinf" horiz-adv-x="351" 
d="M219 74q47 -10 73.5 -40.5t26.5 -75.5q0 -39 -18 -69t-52 -45.5t-79 -15.5q-62 0 -101.5 29.5t-46.5 80.5q-2 20 19 20h40q13 0 21 -17q9 -42 68 -42q35 0 53.5 16t18.5 43t-19 43.5t-53 16.5h-24q-19 0 -19 18v20q0 13 9 24l73 88h-152q-19 0 -19 18v35q0 19 19 19h226
q19 0 19 -19v-34q0 -12 -9 -23z" />
    <glyph glyph-name="four.sinf" horiz-adv-x="355" 
d="M317 -18q19 0 19 -18v-34q0 -18 -19 -18h-28v-53q0 -19 -19 -19h-38q-19 0 -19 19v53h-180q-19 0 -19 18v40q0 13 6 24l128 232q7 14 24 14h41q11 0 15 -6.5t-1 -15.5l-129 -236h115v69q0 19 19 19h38q19 0 19 -19v-69h28z" />
    <glyph glyph-name="five.sinf" horiz-adv-x="339" 
d="M170 90q64 0 102.5 -35.5t38.5 -97.5q0 -60 -39 -94.5t-105 -34.5q-61 0 -99 29t-44 81q-3 20 18 20h38q12 0 20 -17q5 -20 22.5 -31.5t44.5 -11.5q33 0 51.5 16.5t18.5 43.5q0 28 -18.5 45t-51.5 17h-108q-20 0 -19 20l14 182q1 18 19 18h202q19 0 19 -19v-33
q0 -19 -19 -19h-152l-5 -79h52z" />
    <glyph glyph-name="six.sinf" horiz-adv-x="337" 
d="M168 108q65 0 107.5 -40t42.5 -100t-42.5 -100t-107.5 -40t-107 40t-42 100q0 39 19 71v1q2 3 3 5l117 183q8 12 22 12h44q12 0 15.5 -7t-2.5 -16l-74 -109h5zM168 -102q23 0 40 8.5t26 24.5t9 37q0 32 -20.5 51t-54.5 19t-54.5 -19t-20.5 -51q0 -15 5.5 -28t15 -22.5
t23.5 -14.5t31 -5z" />
    <glyph glyph-name="seven.sinf" horiz-adv-x="296" 
d="M8 221q0 19 18 19h232q19 0 19 -19v-29q0 -12 -5 -24l-129 -313q-6 -15 -23 -15h-40q-11 0 -15 6.5t0 15.5l128 306h-167q-18 0 -18 18v35z" />
    <glyph glyph-name="eight.sinf" horiz-adv-x="340" 
d="M254 50q63 -33 63 -103q0 -54 -40 -86.5t-107 -32.5t-107 32.5t-40 86.5q0 70 63 103q-50 31 -50 86q0 54 38.5 85t95.5 31t95 -31t38 -85t-49 -86zM170 184q-29 0 -45.5 -13.5t-16.5 -36.5q0 -25 16.5 -39t45.5 -14t45.5 14.5t16.5 38.5q0 23 -16.5 36.5t-45.5 13.5z
M170 -102q34 0 53 16t19 43t-19.5 43t-52.5 16q-34 0 -53 -15.5t-19 -43.5q0 -17 8.5 -30.5t24.5 -21t39 -7.5z" />
    <glyph glyph-name="nine.sinf" horiz-adv-x="337" 
d="M299 41l-1 -1q-1 -3 -3 -5l-116 -183q-8 -12 -22 -12h-44q-12 0 -16 7t3 16l74 109h-5q-65 0 -107.5 40t-42.5 100t42.5 100t107.5 40t107 -40t42 -100q0 -39 -19 -71zM93 111.5q0 -15.5 5.5 -28.5t15 -22t24 -14t31.5 -5q34 0 54.5 19t20.5 51q0 15 -5.5 28t-15 22.5
t-23.5 14.5t-31 5t-31.5 -5t-24 -14.5t-15 -22.5t-5.5 -28.5z" />
    <glyph glyph-name="zero.tf" horiz-adv-x="573" 
d="M286 -12q-128 0 -199 98.5t-71 263.5q0 108 31 189.5t92.5 127t146.5 45.5q128 0 199 -98.5t71 -263.5t-71 -263.5t-199 -98.5zM286 78q85 0 131.5 71t46.5 201t-46.5 201t-131.5 71t-131 -71t-46 -201t46 -201t131 -71z" />
    <glyph glyph-name="one.tf" horiz-adv-x="573" 
d="M58 0q-22 0 -22 21v46q0 21 22 21h208v514l-168 -93q-10 -6 -17.5 -1.5t-7.5 16.5v50q0 17 15 26l166 94q10 6 26 6h58q21 0 21 -21v-591h166q21 0 21 -21v-46q0 -21 -21 -21h-467z" />
    <glyph glyph-name="two.tf" horiz-adv-x="573" 
d="M64 0q-22 0 -22 21v39q0 16 12 27l242 211q64 56 98 100t34 90q0 62 -39 98t-104 36q-21 0 -41.5 -4.5t-38.5 -13.5t-32.5 -22.5t-24 -32.5t-12.5 -41q-2 -21 -21 -21h-51q-22 0 -20 22q5 64 42 111.5t89 69.5t109 22q99 0 167.5 -60.5t68.5 -163.5q0 -65 -42 -125.5
t-118 -124.5l-178 -148h330q22 0 22 -22v-47q0 -21 -22 -21h-448z" />
    <glyph glyph-name="three.tf" horiz-adv-x="573" 
d="M348 415q89 -14 142.5 -67.5t53.5 -139.5q0 -103 -73.5 -161.5t-185.5 -58.5q-106 0 -178 52.5t-80 145.5q-1 22 21 22h51q19 0 21 -20q7 -53 50.5 -81.5t114.5 -28.5q78 0 122 34t44 96q0 42 -20 72t-57.5 45t-88.5 15h-37q-21 0 -21 21v25q0 13 9 26l164 201h-323
q-21 0 -21 21v45q0 21 21 21h415q21 0 21 -21v-46q0 -14 -9 -27z" />
    <glyph glyph-name="four.tf" horiz-adv-x="573" 
d="M532 220q22 0 22 -22v-44q0 -21 -22 -21h-63v-112q0 -21 -21 -21h-51q-21 0 -21 21v112h-338q-22 0 -22 21v52q0 13 6 26l237 453q7 15 25 15h54q13 0 17 -7t-1 -19l-238 -454h260v161q0 21 21 21h51q21 0 21 -21v-161h63z" />
    <glyph glyph-name="five.tf" horiz-adv-x="573" 
d="M289 427q106 0 176.5 -58t70.5 -161.5t-71.5 -161.5t-178.5 -58q-65 0 -119 22t-89.5 67.5t-40.5 107.5q-1 22 21 22h51q19 0 21 -21q7 -52 49 -80t107 -28q73 0 115.5 34t42.5 95.5t-42.5 95.5t-115.5 34h-194q-22 0 -20 22l23 321q2 20 21 20h372q21 0 21 -21v-45
q0 -21 -21 -21h-306l-13 -186h120z" />
    <glyph glyph-name="six.tf" horiz-adv-x="573" 
d="M279 460q118 0 189 -65t71 -171t-71 -171t-189.5 -65t-189 65t-70.5 171q0 83 45 142l229 321q9 13 25 13h61q12 0 16.5 -7.5t-3.5 -18.5l-155 -216q21 2 42 2zM279 76q79 0 123 40t44 108t-44 108t-123 40t-123.5 -40t-44.5 -108.5t44.5 -108t123.5 -39.5z" />
    <glyph glyph-name="seven.tf" horiz-adv-x="573" 
d="M35 679q0 21 21 21h458q21 0 21 -21v-48q0 -16 -5 -27l-266 -588q-6 -16 -25 -16h-51q-12 0 -17 6.5t0 17.5l264 588h-379q-21 0 -21 21v46z" />
    <glyph glyph-name="eight.tf" horiz-adv-x="573" 
d="M431 362q21 -10 38.5 -23.5t31 -29.5t23 -34.5t14.5 -39.5t5 -43q0 -96 -69.5 -150t-187 -54t-187.5 54t-70 150q0 55 29.5 99.5t83.5 70.5q-89 54 -89 153q0 94 66 145.5t167 51.5t167 -51.5t66 -145.5q0 -99 -88 -153zM286.5 624q-65.5 0 -103 -28.5t-37.5 -83.5
q0 -52 38 -81.5t102.5 -29.5t102 29.5t37.5 81.5q0 55 -37 83.5t-102.5 28.5zM286 76q79 0 121.5 31.5t42.5 90.5q0 38 -18.5 65t-55.5 41.5t-90 14.5q-79 0 -121.5 -31.5t-42.5 -90t42.5 -90t121.5 -31.5z" />
    <glyph glyph-name="nine.tf" horiz-adv-x="573" 
d="M554 476q0 -83 -45 -142l-229 -321q-10 -13 -26 -13h-60q-13 0 -17 7.5t3 18.5l155 216q-20 -2 -41 -2q-119 0 -189.5 65t-70.5 171t70.5 171t189.5 65q78 0 137.5 -29.5t91 -83t31.5 -123.5zM126 476q0 -68 44.5 -108t123.5 -40t123 40t44 108.5t-44 108t-123 39.5
q-53 0 -91 -18t-57.5 -51.5t-19.5 -78.5z" />
    <glyph glyph-name="zero.dnom" horiz-adv-x="410" 
d="M204.5 -12q-82.5 0 -129.5 57.5t-47 154.5t47 154.5t129.5 57.5t130 -57.5t47.5 -154.5t-47.5 -154.5t-130 -57.5zM205 63q47 0 73 35.5t26 101.5t-26 101.5t-73 35.5t-73 -35.5t-26 -101.5q0 -44 11.5 -75t34 -46.5t53.5 -15.5z" />
    <glyph glyph-name="one.dnom" horiz-adv-x="254" 
d="M110 394q9 6 23 6h45q20 0 20 -19v-362q0 -19 -20 -19h-38q-20 0 -20 19v299l-80 -43q-10 -5 -16 -1t-6 15v39q0 16 13 24z" />
    <glyph glyph-name="two.dnom" horiz-adv-x="345" 
d="M49 0q-19 0 -19 19v25q0 13 10 23l152 143q40 36 40 77q0 24 -16.5 38.5t-44.5 14.5q-53 0 -63 -42q-6 -17 -20 -17h-40q-20 0 -18 20q6 52 45 81.5t96 29.5q61 0 99.5 -34.5t38.5 -89.5q0 -66 -64 -125l-100 -91h153q18 0 18 -18v-35q0 -19 -18 -19h-249z" />
    <glyph glyph-name="three.dnom" horiz-adv-x="351" 
d="M219 234q47 -10 73.5 -40.5t26.5 -75.5q0 -60 -40.5 -95t-108.5 -35q-62 0 -101.5 29.5t-46.5 80.5q-2 20 19 20h40q13 0 21 -17q9 -42 68 -42q35 0 53.5 16t18.5 43t-19 43.5t-53 16.5h-24q-19 0 -19 18v20q0 13 9 24l73 88h-152q-19 0 -19 18v35q0 19 19 19h226
q19 0 19 -19v-34q0 -12 -9 -23z" />
    <glyph glyph-name="four.dnom" horiz-adv-x="355" 
d="M317 142q19 0 19 -18v-34q0 -18 -19 -18h-28v-53q0 -19 -19 -19h-38q-19 0 -19 19v53h-180q-19 0 -19 18v40q0 13 6 24l128 232q7 14 24 14h41q11 0 15 -6.5t-1 -15.5l-129 -236h115v69q0 19 19 19h38q19 0 19 -19v-69h28z" />
    <glyph glyph-name="five.dnom" horiz-adv-x="339" 
d="M166 250q64 0 103 -35.5t39 -97.5q0 -40 -18 -69t-50.5 -44.5t-76.5 -15.5q-61 0 -99 29t-44 81q-2 20 18 20h38q13 0 20 -17q5 -20 22.5 -31.5t44.5 -11.5q33 0 51.5 16.5t18.5 43.5q0 28 -18.5 45t-51.5 17h-107q-21 0 -19 20l13 182q1 18 19 18h202q19 0 19 -19v-33
q0 -19 -19 -19h-152l-5 -79h52z" />
    <glyph glyph-name="six.dnom" horiz-adv-x="337" 
d="M168 268q65 0 107.5 -40t42.5 -100t-42.5 -100t-107.5 -40t-107 40t-42 100q0 39 19 71v1q2 3 3 5l117 183q8 12 22 12h44q12 0 15.5 -7t-2.5 -16l-74 -109h5zM168 58q23 0 40 8.5t26 24.5t9 37q0 32 -20.5 51t-54.5 19t-54.5 -19t-20.5 -51q0 -15 5.5 -28t15 -22.5
t23.5 -14.5t31 -5z" />
    <glyph glyph-name="seven.dnom" horiz-adv-x="296" 
d="M8 381q0 19 18 19h232q19 0 19 -19v-29q0 -12 -5 -24l-129 -313q-6 -15 -23 -15h-40q-11 0 -15 6.5t0 15.5l128 306h-167q-18 0 -18 18v35z" />
    <glyph glyph-name="eight.dnom" horiz-adv-x="340" 
d="M254 210q63 -33 63 -103q0 -54 -40 -86.5t-107 -32.5t-107 32.5t-40 86.5q0 70 63 103q-50 31 -50 86q0 54 38.5 85t95.5 31t95 -31t38 -85t-49 -86zM170 344q-29 0 -45.5 -13.5t-16.5 -36.5q0 -25 16.5 -39t45.5 -14t45.5 14.5t16.5 38.5q0 23 -16.5 36.5t-45.5 13.5z
M170 58q34 0 53 16t19 43t-19.5 43t-52.5 16q-23 0 -39 -7t-24.5 -20.5t-8.5 -31.5q0 -17 8.5 -30.5t24.5 -21t39 -7.5z" />
    <glyph glyph-name="nine.dnom" horiz-adv-x="337" 
d="M299 201l-1 -1q-1 -3 -3 -5l-116 -183q-8 -12 -22 -12h-44q-12 0 -16 7t3 16l74 109h-5q-65 0 -107.5 40t-42.5 100t42.5 100t107.5 40t107 -40t42 -100q0 -39 -19 -71zM93 271.5q0 -31.5 20.5 -50.5t55.5 -19q34 0 54.5 19t20.5 51q0 20 -9.5 36.5t-26.5 25t-39 8.5
q-35 0 -55.5 -19.5t-20.5 -51z" />
    <glyph glyph-name="zero.numr" horiz-adv-x="410" 
d="M204.5 288q-82.5 0 -129.5 57.5t-47 154.5t47 154.5t129.5 57.5t130 -57.5t47.5 -154.5t-47.5 -154.5t-130 -57.5zM205 363q31 0 53 15.5t34 46.5t12 75q0 66 -26 101.5t-73 35.5t-73 -35.5t-26 -101.5t26 -101.5t73 -35.5z" />
    <glyph glyph-name="one.numr" horiz-adv-x="254" 
d="M110 694q9 6 23 6h45q20 0 20 -19v-362q0 -19 -20 -19h-38q-20 0 -20 19v299l-80 -43q-10 -5 -16 -1t-6 15v39q0 16 13 24z" />
    <glyph glyph-name="two.numr" horiz-adv-x="345" 
d="M49 300q-19 0 -19 19v25q0 13 10 23l152 143q40 36 40 77q0 24 -16.5 38.5t-44.5 14.5q-53 0 -63 -42q-6 -17 -20 -17h-40q-20 0 -18 20q6 52 45 81.5t96 29.5q61 0 99.5 -34.5t38.5 -89.5q0 -66 -64 -125l-100 -91h153q18 0 18 -18v-35q0 -19 -18 -19h-249z" />
    <glyph glyph-name="three.numr" horiz-adv-x="351" 
d="M219 534q47 -10 73.5 -40.5t26.5 -75.5q0 -60 -40.5 -95t-108.5 -35q-62 0 -101.5 29.5t-46.5 80.5q-2 20 19 20h40q13 0 21 -17q9 -42 68 -42q23 0 39.5 7.5t24.5 20.5t8 31q0 27 -19 43.5t-53 16.5h-24q-19 0 -19 18v20q0 13 9 24l73 88h-152q-19 0 -19 18v35
q0 19 19 19h226q19 0 19 -19v-34q0 -12 -9 -23z" />
    <glyph glyph-name="four.numr" horiz-adv-x="355" 
d="M317 442q19 0 19 -18v-34q0 -18 -19 -18h-28v-53q0 -19 -19 -19h-38q-19 0 -19 19v53h-180q-19 0 -19 18v40q0 13 6 24l128 232q7 14 24 14h41q11 0 15 -6.5t-1 -15.5l-129 -236h115v69q0 19 19 19h38q19 0 19 -19v-69h28z" />
    <glyph glyph-name="five.numr" horiz-adv-x="339" 
d="M166 550q64 0 103 -35.5t39 -97.5q0 -60 -39 -94.5t-106 -34.5q-61 0 -99 29t-44 81q-2 20 18 20h38q13 0 20 -17q5 -20 22.5 -31.5t44.5 -11.5q33 0 51.5 16.5t18.5 43.5q0 19 -8 33t-24 21.5t-38 7.5h-107q-21 0 -19 20l13 182q1 18 19 18h202q19 0 19 -19v-33
q0 -19 -19 -19h-152l-5 -79h52z" />
    <glyph glyph-name="six.numr" horiz-adv-x="337" 
d="M168 568q65 0 107.5 -40t42.5 -100t-42.5 -100t-107.5 -40t-107 40t-42 100q0 39 19 71v1q2 3 3 5l117 183q8 12 22 12h44q12 0 15.5 -7t-2.5 -16l-74 -109h5zM168 358q23 0 40 8.5t26 24.5t9 37q0 32 -20.5 51t-54.5 19t-54.5 -19t-20.5 -51q0 -20 9 -36.5t26.5 -25
t39.5 -8.5z" />
    <glyph glyph-name="seven.numr" horiz-adv-x="296" 
d="M8 681q0 19 18 19h232q19 0 19 -19v-29q0 -12 -5 -24l-129 -313q-6 -15 -23 -15h-40q-11 0 -15 6.5t0 15.5l128 306h-167q-18 0 -18 18v35z" />
    <glyph glyph-name="eight.numr" horiz-adv-x="340" 
d="M254 510q63 -33 63 -103q0 -54 -40 -86.5t-107 -32.5t-107 32.5t-40 86.5q0 70 63 103q-50 31 -50 86q0 54 38.5 85t95.5 31q37 0 67 -13t48 -40t18 -63q0 -54 -49 -86zM170 644q-29 0 -45.5 -13.5t-16.5 -36.5q0 -25 16.5 -39t45.5 -14t45.5 14.5t16.5 38.5
q0 23 -16.5 36.5t-45.5 13.5zM170 358q34 0 53 16t19 43t-19.5 43t-52.5 16q-34 0 -53 -15.5t-19 -43.5q0 -27 19 -43t53 -16z" />
    <glyph glyph-name="nine.numr" horiz-adv-x="337" 
d="M299 501l-1 -1q-1 -3 -3 -5l-116 -183q-8 -12 -22 -12h-44q-12 0 -16 7t3 16l74 109h-5q-65 0 -107.5 40t-42.5 100q0 39 19 71.5t53.5 50.5t77.5 18q65 0 107 -40t42 -100q0 -39 -19 -71zM93 571.5q0 -31.5 20.5 -50.5t55.5 -19q34 0 54.5 19t20.5 51q0 20 -9.5 36.5
t-26.5 25t-39 8.5q-35 0 -55.5 -19.5t-20.5 -51z" />
    <glyph glyph-name="zero.sups" horiz-adv-x="410" 
d="M204.5 448q-82.5 0 -129.5 57.5t-47 154.5t47 154.5t130 57.5q54 0 94.5 -26t61.5 -74t21 -112q0 -97 -47.5 -154.5t-130 -57.5zM205 523q47 0 73 35.5t26 101.5t-26 101.5t-73 35.5t-73 -35.5t-26 -101.5t26 -101.5t73 -35.5z" />
    <glyph glyph-name="one.sups" horiz-adv-x="254" 
d="M110 854q9 6 23 6h45q20 0 20 -19v-362q0 -19 -20 -19h-38q-20 0 -20 19v299l-80 -43q-10 -5 -16 -1t-6 15v39q0 16 13 24z" />
    <glyph glyph-name="two.sups" horiz-adv-x="345" 
d="M49 460q-19 0 -19 19v25q0 13 10 23l152 143q40 36 40 77q0 24 -16.5 38.5t-44.5 14.5q-53 0 -63 -42q-6 -17 -20 -17h-40q-20 0 -18 20q6 52 45 81.5t96 29.5q61 0 99.5 -34.5t38.5 -89.5q0 -66 -64 -125l-100 -91h153q18 0 18 -18v-35q0 -19 -18 -19h-249z" />
    <glyph glyph-name="three.sups" horiz-adv-x="351" 
d="M219 694q47 -10 73.5 -40.5t26.5 -75.5q0 -60 -40.5 -95t-108.5 -35q-62 0 -101.5 29.5t-46.5 80.5q-2 20 19 20h40q13 0 21 -17q9 -42 68 -42q18 0 31.5 4t22.5 12t13.5 19t4.5 24q0 27 -19 43.5t-53 16.5h-24q-19 0 -19 18v20q0 13 9 24l73 88h-152q-19 0 -19 18v35
q0 19 19 19h226q19 0 19 -19v-34q0 -12 -9 -23z" />
    <glyph glyph-name="four.sups" horiz-adv-x="355" 
d="M317 602q19 0 19 -18v-34q0 -18 -19 -18h-28v-53q0 -19 -19 -19h-38q-19 0 -19 19v53h-180q-19 0 -19 18v40q0 13 6 24l128 232q7 14 24 14h41q11 0 15 -6.5t-1 -15.5l-129 -236h115v69q0 19 19 19h38q19 0 19 -19v-69h28z" />
    <glyph glyph-name="five.sups" horiz-adv-x="339" 
d="M166 710q64 0 103 -35.5t39 -97.5q0 -60 -39 -94.5t-106 -34.5q-61 0 -99 29t-44 81q-2 20 18 20h38q13 0 20 -17q5 -20 22.5 -31.5t44.5 -11.5q33 0 51.5 16.5t18.5 43.5q0 28 -18.5 45t-51.5 17h-107q-21 0 -19 20l13 182q1 18 19 18h202q19 0 19 -19v-33
q0 -19 -19 -19h-152l-5 -79h52z" />
    <glyph glyph-name="six.sups" horiz-adv-x="337" 
d="M168 728q65 0 107.5 -40t42.5 -100t-42.5 -100t-107.5 -40t-107 40t-42 100q0 39 19 71v1q2 3 3 5l117 183q8 12 22 12h44q12 0 15.5 -7t-2.5 -16l-74 -109h5zM168 518q23 0 40 8.5t26 24.5t9 37q0 32 -20.5 51t-54.5 19t-54.5 -19t-20.5 -51q0 -20 9 -36.5t26.5 -25
t39.5 -8.5z" />
    <glyph glyph-name="seven.sups" horiz-adv-x="296" 
d="M8 841q0 19 18 19h232q19 0 19 -19v-29q0 -12 -5 -24l-129 -313q-6 -15 -23 -15h-40q-7 0 -11.5 3t-5.5 8t2 11l128 306h-167q-18 0 -18 18v35z" />
    <glyph glyph-name="eight.sups" horiz-adv-x="340" 
d="M254 670q63 -33 63 -103q0 -36 -18.5 -63t-51.5 -41.5t-77 -14.5q-67 0 -107 32.5t-40 86.5q0 70 63 103q-50 31 -50 86q0 54 38.5 85t95.5 31q37 0 67 -13t48 -40t18 -63q0 -54 -49 -86zM170 804q-15 0 -26.5 -3.5t-19.5 -10t-12 -16t-4 -20.5q0 -25 16.5 -39t45.5 -14
t45.5 14.5t16.5 38.5q0 23 -16.5 36.5t-45.5 13.5zM170 518q34 0 53 16t19 43t-19.5 43t-52.5 16q-34 0 -53 -15.5t-19 -43.5q0 -27 19 -43t53 -16z" />
    <glyph glyph-name="nine.sups" horiz-adv-x="337" 
d="M299 661l-1 -1q-1 -3 -3 -5l-116 -183q-8 -12 -22 -12h-44q-12 0 -16 7t3 16l74 109h-5q-65 0 -107.5 40t-42.5 100q0 39 19 71.5t53.5 50.5t77.5 18q65 0 107 -40t42 -100q0 -39 -19 -71zM93 732q0 -32 20.5 -51t55.5 -19q34 0 54.5 19t20.5 51q0 20 -9.5 36.5t-26.5 25
t-39 8.5q-23 0 -40 -8.5t-26.5 -24.5t-9.5 -37z" />
    <glyph glyph-name="cent.tf" horiz-adv-x="573" 
d="M522 268q12 0 17 -7t0 -18q-25 -70 -89.5 -113t-145.5 -43q-35 0 -68 9l-27 -83q-4 -13 -18 -13h-20q-17 0 -13 18l31 94q-68 31 -108.5 94.5t-40.5 143.5q0 112 75.5 187t188.5 75q23 0 45 -3l25 78q5 13 18 13h20q18 0 13 -18l-28 -86q50 -18 87 -54.5t56 -84.5
q4 -11 -1 -18t-17 -7h-49q-17 0 -25 16q-26 46 -77 67l-109 -338q20 -5 42 -5q31 0 59.5 10t49.5 28t35 42q8 16 25 16h49zM127 350q0 -50 24 -91t65 -64l107 332h-19q-49 0 -89.5 -23t-64 -64t-23.5 -90z" />
    <glyph glyph-name="dollar.tf" horiz-adv-x="573" 
d="M535 179q0 -83 -61.5 -134t-155.5 -57v-68q0 -20 -20 -20h-22q-20 0 -20 20v69q-92 10 -151.5 60.5t-66.5 135.5q-1 22 21 22h51q19 0 21 -20q6 -45 38.5 -72.5t86.5 -34.5v237q-37 13 -62 23.5t-54.5 29t-47 38.5t-29.5 50.5t-12 66.5q0 82 58 131t147 55v69q0 20 20 20
h22q20 0 20 -20v-69q83 -9 138.5 -57t62.5 -128q2 -22 -21 -22h-49q-19 0 -22 20q-6 40 -34.5 64.5t-74.5 31.5v-231q40 -14 64.5 -24.5t57.5 -29t51 -38.5t31 -50.5t13 -67.5zM143 525q0 -39 28.5 -65t84.5 -48v209q-52 -5 -82.5 -30t-30.5 -66zM318 78q58 5 91 31.5
t33 69.5q0 28 -17 50t-42 36t-65 30v-217z" />
    <glyph glyph-name="Euro.tf" horiz-adv-x="573" 
d="M530 239q11 0 16.5 -6t3.5 -17q-13 -105 -76.5 -166.5t-157.5 -61.5q-104 0 -167.5 73.5t-79.5 201.5h-44q-20 0 -20 20v25q0 20 20 20h39q-1 11 -1 22q0 16 1 30h-39q-20 0 -20 20v25q0 20 20 20h45q17 125 80.5 196t165.5 71q61 0 110 -26.5t80.5 -76.5t41.5 -117
q2 -11 -3.5 -17t-16.5 -6h-51q-19 0 -23 20q-9 63 -47 98t-91 35q-62 0 -101 -45.5t-53 -131.5h202q20 0 20 -20v-25q0 -20 -20 -20h-208v-30v-22h208q20 0 20 -20v-25q0 -20 -20 -20h-203q13 -90 52.5 -137.5t102.5 -47.5q55 0 93.5 37t46.5 103q4 21 23 21h51z" />
    <glyph glyph-name="florin.tf" horiz-adv-x="573" 
d="M527 708q18 -4 18 -24v-42q0 -23 -24 -17q-91 19 -113 -71l-41 -161h119q22 0 22 -21v-42q0 -21 -22 -21h-141l-94 -369q-46 -177 -205 -145q-18 3 -18 23v42q0 24 24 18q90 -19 112 70l92 361h-118q-21 0 -21 21v42q0 21 21 21h140l43 169q45 178 206 146z" />
    <glyph glyph-name="uni20BD.tf" horiz-adv-x="573" 
d="M326 268h-138v-81h204q20 0 20 -21v-27q0 -20 -20 -20h-204v-98q0 -21 -22 -21h-50q-21 0 -21 21v98h-65q-20 0 -20 20v27q0 21 20 21h65v81h-64q-21 0 -21 21v42q0 21 21 21h64v327q0 21 21 21h72h138q60 0 110.5 -29t79.5 -79t29 -110q0 -89 -64 -151.5t-155 -62.5z
M188 613v-261h138q53 0 89.5 38t36.5 92q0 55 -36.5 93t-89.5 38h-138z" />
    </font>
</defs>
</svg>
