<?xml version="1.0" encoding="utf-8"?>
<!-- Generator: Adobe Illustrator 20.1.0, SVG Export Plug-In . SVG Version: 6.00 Build 0)  -->
<svg version="1.1" id="back_line_2" xmlns="http://www.w3.org/2000/svg" xmlns:xlink="http://www.w3.org/1999/xlink" x="0px"
	 y="0px" width="512px" height="512px" viewBox="0 0 512 512" style="enable-background:new 0 0 512 512;" xml:space="preserve">
<style type="text/css">
	.st0{fill:none;stroke:#FFFFFF;stroke-miterlimit:10;}
	.st1{fill:none;stroke:#FED200;stroke-miterlimit:10;}
</style>
<path class="st0" d="M336.3,234.5c5.5-1.8,14.5-3.9,27.4-4.3c23.9-0.7,23,3.8,53.2-10.6c30.3-14.4,64.5-30.2,64.5-30.2
	s9.2-0.1,9.4-13.7s-0.4-72.7-0.4-72.7l-14-10.6l-80,36l-49.3,6.1c0,0-5.5,1.2-12.1,2.7"/>
<path class="st0" d="M336.2,224.1c4.1-1.1,8.6-1.9,13.4-2.1c22.6-1.1,29.4,2.2,56-9.1c26.6-11.4,63-28.9,63-28.9s9.4-2,10.4-9
	s-1.6-74.9-1.6-74.9"/>
<path class="st0" d="M452.6,165.4L427.7,176c0,0-6.6,3.9-14.1-2.4c-7.5-6.2-4-18.9,3.4-25s27.4-16.5,32.2-17.1
	c4.8-0.6,11.7-0.8,15.1,3.4s4.8,15,0.3,20.9C460,161.8,452.6,165.4,452.6,165.4z"/>
<path class="st0" d="M461.6,138l-34,18.2c0,0-6.6,5.5-6.8,10.7c-0.1,5.2,4.5,7.5,4.5,7.5"/>
<path class="st0" d="M83.6,376.7l70.6-33.4"/>
<path class="st0" d="M113.5,266.9l-29.2,16"/>
<path class="st0" d="M114,294.6c0,0-14.4,5.8-20.8,8.7c-6.4,2.9-8.8,12.9-8.8,12.9S83.3,327.9,88,333s7.4,2.1,7.4,2.1
	s18.3-8.7,25-12.2"/>
<path class="st0" d="M90.4,330.5c-0.3-14.2,13.8-19.9,25.2-25.2"/>
<path class="st0" d="M298,304.9c0.6,2.5,1.4,5.2,2.4,8c4,11,14.1,32,14.1,32s5.3,11.6,5.1,24.4s2.9,79.9,2.9,79.9s1,4.7-9.5,11.5
	c-10.5,6.7-63.7,31.1-63.7,31.1s-13.9,0.5-16.1-4.4c-2.3-4.9-3.4-88.5-3.4-88.5s-3.9-12.7-8.2-21.3c-3.1-6.2-9.6-25.1-13.1-36.5"/>
<path class="st0" d="M292.1,310.7c3.6,9.1,13.6,37,13.6,37s6.2,19.7,5.9,27.9c-0.3,8.3-0.8,72.1-0.8,72.1s-2.7,4.7-8.1,8.3
	s-64.8,28-64.8,28"/>
<path class="st0" d="M273.6,456.3c0,0-8,5.4-13.5,0.8s-8.5-40.5-8.5-40.5s-1.2-10.4,10.1-16.9c11.3-6.5,16.1-3,18.8,0.1
	c2.7,3.1,5.9,37.8,5.9,37.8S284.6,449.5,273.6,456.3z"/>
<path class="st0" d="M267.3,452.3c0,0-6.6-27.4-4.3-34c2.3-6.6,13.9-16.1,13.9-16.1"/>
<path class="st0" d="M137.3,336.5l-56.5,26.8"/>
<g>
	<path class="st1" d="M56.5,2.5C56,13,52,24,57,34c4,5,11,5,16,8c13,8,15,24,16,37c2,20-4,38-13,56c-2,5-3,11-4,16
		c-8,120-12,239-15.9,358.9"/>
	<path class="st1" d="M71,510.3C77,391,83,271,87.8,152.3"/>
	<path class="st1" d="M1.6,189.4C5,192,9,193,13,195c2,1,4,3,4,5C16,304,9,407,6.7,511.2"/>
	<path class="st1" d="M9,1.5C7,24.3,3.1,47.2,2.6,70.1c-0.1,5.7,0.1,11.6-2.2,17"/>
	<path class="st1" d="M89,172c1-3,3-5,5-7c11-19,19-37,21-58c2-19,3-43-16-54c-1-1-3,0-4-1c-8-6-17-9-26-12c-2-12,2-25,1.4-38.3"/>
	<path class="st1" d="M32.7,0.5L26.2,102c0,0-6.7,247.6-10.8,409.3c0.5-0.2,1-0.2,1.6-0.2h13.8L44.5,68.9c0,0,1.7-27.7,4.2-68.2
		C43.4,0.9,38,0.8,32.7,0.5z"/>
	<path class="st1" d="M24.8,509C31,340,33,172,44,2.6"/>
	<path class="st1" d="M103.2,55.5l111.7,47.7c0,0,22.8,9.3,26.6,20.8c3.9,11.6,7.2,57.8-12.3,89.2s-51,47-51,47s-11.1,6.7-18.5,2.8
		c-7.5-3.8-75.3-38.9-75.3-38.9"/>
	<path class="st1" d="M87.7,192.8c0,0,31.9-33.1,35.7-65.2c3.7-32.3,7.7-39.3-5.6-65.8"/>
	<path class="st1" d="M115.6,242.5l1.1,55.8c0,0,1.6,20.4,15.3,28.5c13.5,8,20.4,5.3,20.4,5.3l97.2-37.9
		c32.1-16.5,51.5-46.3,54.7-89.4C302,190.5,304,78.9,304,78.9s-2.7-13.8-14.8-26.4c0,0-9.7-6.4-22.1-5.6c-12.4,0.9-89,40.6-89,40.6"
		/>
	<path class="st1" d="M134.3,329.8l35.4,15.6c0,0,8.4,3.6,17.6,0.3c9.2-3.3,87.5-34.7,87.5-34.7s14-2.4,31.8-22.1
		c17.7-19.7,27.1-51.9,27.1-51.9l-0.3-141c0,0,0-15.7-13.3-29.1l-30.5-14.4"/>
	<path class="st1" d="M126.9,216c0,0-21,8.7-38.1,8.5"/>
	<path class="st1" d="M132.8,218.2c0,0-19.8,9.4-38.6,8.9"/>
	<path class="st1" d="M139,220.5c0,0-29.4,10.4-37.9,9"/>
	<path class="st1" d="M144.3,223.2c0,0-25.3,9.7-37.5,9.3"/>
	<path class="st1" d="M150.3,226.1c0,0-28.6,8.6-37.3,8.4"/>
	<path class="st1" d="M155.3,227.9c0,0-30.7,9.8-37.2,8.5"/>
	<path class="st1" d="M160.8,230.3c0,0-27.5,10.1-37,8.8"/>
	<path class="st1" d="M166.8,233c0,0-30.1,11.3-36.6,8.7"/>
	<path class="st1" d="M172,235.7c0,0-30.4,10.2-34.7,9.1"/>
	<path class="st1" d="M177.9,237.9c0,0-29.1,9.6-35.9,10.3"/>
</g>
</svg>
