<?xml version="1.0" encoding="utf-8"?>
<!-- Generator: Adobe Illustrator 20.1.0, SVG Export Plug-In . SVG Version: 6.00 Build 0)  -->
<svg version="1.1" id="back_line" xmlns="http://www.w3.org/2000/svg" xmlns:xlink="http://www.w3.org/1999/xlink" x="0px" y="0px"
	 width="512px" height="512px" viewBox="0 0 512 512" style="enable-background:new 0 0 512 512;" xml:space="preserve">
<style type="text/css">
	.st0{fill:none;stroke:#FED200;stroke-miterlimit:10;}
</style>
<g>
	<polygon class="st0" points="258.3,63.1 257.5,238.4 105,310.8 108.7,133.3 	"/>
	<polyline class="st0" points="262.3,62.3 270.1,67.2 272.9,247.3 116.8,322.7 106.5,317.5 	"/>
	<polyline class="st0" points="139.8,317.9 147.7,323 266.9,265.8 277.7,249.4 282.9,245.2 282.3,227.4 	"/>
	<path class="st0" d="M276.7,231l19.4-11.4c0,0,10.3-6.5,34.2-7.2c23.9-0.7,23,3.8,53.2-10.6c30.3-14.4,64.5-30.2,64.5-30.2
		s9.2-0.1,9.4-13.7S457,85.2,457,85.2l-14-10.6l-80,36l-49.3,6.1c0,0-24.2,5.1-31.5,8.5c-7.3,3.4-7.3,3.4-7.3,3.4"/>
	<polyline class="st0" points="274.2,86.7 283.5,92.8 281.3,120.4 	"/>
	<path class="st0" d="M276.7,218.7c0,0,16.9-13.4,39.5-14.5s29.4,2.2,56-9.1c26.6-11.4,63-28.9,63-28.9s9.4-2,10.4-9
		S444,82.3,444,82.3"/>
	<path class="st0" d="M419.2,147.6l-24.9,10.6c0,0-6.6,3.9-14.1-2.4c-7.5-6.2-4-18.9,3.4-25c7.4-6.1,27.4-16.5,32.2-17.1
		c4.8-0.6,11.7-0.8,15.1,3.4c3.4,4.2,4.8,15,0.3,20.9C426.6,144,419.2,147.6,419.2,147.6z"/>
	<path class="st0" d="M428.2,120.2l-34,18.2c0,0-6.6,5.5-6.8,10.7c-0.1,5.2,4.5,7.5,4.5,7.5"/>
	<path class="st0" d="M102.2,237l-55.3,30.2c0,0-9.6,3.3-10.4,14.9c-0.8,11.7-2,64.7-2,64.7s1.2,7.3,6.6,12c3.1,2.6,9.1,0.1,9.1,0.1
		l70.6-33.4"/>
	<path class="st0" d="M96.7,288.7c0,0-3,13-9.7,16.4c-6.7,3.5-25,12.2-25,12.2s-2.7,3-7.4-2.1S51,298.4,51,298.4s2.4-10,8.8-12.9
		s20.8-8.7,20.8-8.7s10.6-4.5,13.6,0.2C97.3,281.6,96.7,288.7,96.7,288.7z"/>
	<path class="st0" d="M92.1,282.7L66,295.2c0,0-11,8.5-9,17.5"/>
	<path class="st0" d="M262.5,273.9c0,0,0.5,10.2,4.5,21.2s14.1,32,14.1,32s5.3,11.6,5.1,24.4s2.9,79.9,2.9,79.9s1,4.7-9.5,11.5
		c-10.5,6.7-63.7,31.1-63.7,31.1s-13.9,0.5-16.1-4.4c-2.3-4.9-3.4-88.5-3.4-88.5s-3.9-12.7-8.2-21.3s-15.2-41.7-15.3-45.3"/>
	<path class="st0" d="M255.4,277.2c0,0-0.3,6.6,3.3,15.7c3.6,9.1,13.6,37,13.6,37s6.2,19.7,5.9,27.9c-0.3,8.3-0.8,72.1-0.8,72.1
		s-2.7,4.7-8.1,8.3s-64.8,28-64.8,28"/>
	<path class="st0" d="M240.2,438.5c0,0-8,5.4-13.5,0.8s-8.5-40.5-8.5-40.5s-1.2-10.4,10.1-16.9s16.1-3,18.8,0.1s5.9,37.8,5.9,37.8
		S251.2,431.7,240.2,438.5z"/>
	<path class="st0" d="M233.9,434.5c0,0-6.6-27.4-4.3-34s13.9-16.1,13.9-16.1"/>
	<path class="st0" d="M103.9,318.7l-61.4,29.1c0,0-5.6-1.4-6.7-5.2"/>
</g>
</svg>
