<!--?xml version="1.0" encoding="utf-8"?-->
<!-- Generator: Adobe Illustrator 20.1.0, SVG Export Plug-In . SVG Version: 6.00 Build 0)  -->
<svg version="1.1" id="call" xmlns="http://www.w3.org/2000/svg" x="0px" y="0px" viewBox="0 0 512 512" style="" xml:space="preserve" class="">
<style type="text/css">
	.st0{fill:none;stroke:#ffffff;stroke-width:16;stroke-linecap:round;stroke-linejoin:round;stroke-miterlimit:10;}
</style>
<path class="st0 zeUrkubL_0" d="M145.2,201.1c0,0-9.7-22.6,0-32.3c9.7-9.7,25.8-28,25.8-28s17.2-19.4,8.6-42S144.1,30,118.2,19.2
	S87,6.3,76.3,12.8S23.5,51.5,19.2,61.2s-11.8,33.4-8.6,57s28,100.8,57,139.8s110.9,135.8,162.5,170.2s123.8,74.3,161.4,75.3
	s46.3,2.2,61.4-11.8c15.1-14,39.2-34.4,43.8-46.3c4.6-11.8,8.8-29.1,4.6-47.4c-4.2-18.2-58.1-56-67.8-57c0,0-29.1-19.4-51.7-2.2
	c-22.6,17.2-31.2,29.1-31.2,29.1s-12.9,12.9-32.3,3.2C299.1,361.5,185,281.8,145.2,201.1z"></path>
<style>.zeUrkubL_0{stroke-dasharray:1610 1612;stroke-dashoffset:1611;}.start .zeUrkubL_0{animation:zeUrkubL_draw 1000ms ease-in-out 0ms forwards;}@keyframes zeUrkubL_draw{100%{stroke-dashoffset:0;}}@keyframes zeUrkubL_fade{0%{stroke-opacity:1;}92.3076923076923%{stroke-opacity:1;}100%{stroke-opacity:0;}}</style></svg>
