<!--?xml version="1.0" encoding="utf-8"?-->
<!-- Generator: Adobe Illustrator 20.1.0, SVG Export Plug-In . SVG Version: 6.00 Build 0)  -->
<svg version="1.1" id="deliver" xmlns="http://www.w3.org/2000/svg" x="0px" y="0px" viewBox="0 0 512 512" style="" xml:space="preserve" class="">
<style type="text/css">
	.st0{fill:none;stroke:#22313F;stroke-width:16;stroke-linecap:round;stroke-miterlimit:10;}
</style>
<path class="st0 HkQnzMQA_0" d="M102,367A42.6,42.6 0,1,1 187.2,367A42.6,42.6 0,1,1 102,367"></path>
<path class="st0 HkQnzMQA_1" d="M384.4,367A42.6,42.6 0,1,1 469.6,367A42.6,42.6 0,1,1 384.4,367"></path>
<path class="st0 HkQnzMQA_2" d="M152,213.5L194.5,256L274,177.5"></path>
<path class="st0 HkQnzMQA_3" d="M6.5,324.4L84,324.4"></path>
<path class="st0 HkQnzMQA_4" d="M41,326.5V347c0,0-1.5,11.3,11.3,11.3s41.3,0,41.3,0"></path>
<path class="st0 HkQnzMQA_5" d="M195.5,358.3L375.2,358.3"></path>
<path class="st0 HkQnzMQA_6" d="M477.8,358.3H494c0,0,10.4,0.5,10.4-10.4s0-75.4,0-75.4s-10.5-34.4-34.4-34.4s-94.8,0-94.8,0"></path>
<path class="st0 HkQnzMQA_7" d="M469.5,234.5L453.2,171.1"></path>
<path class="st0 HkQnzMQA_8" d="M375.2,168.5h84.3c0,0,2-32.5-22.5-32.5s-61.8,0-61.8,0"></path>
<path class="st0 HkQnzMQA_9" d="M366.5,290.2L366.5,358.3"></path>
<path class="st0 HkQnzMQA_10" d="M366.5,256V119c0,0,2.5-16.5-16.5-16.5s-293,0-293,0s-14.3,1-14.3,14.3s0,139.3,0,139.3"></path>
<path class="st0 HkQnzMQA_11" d="M25.5,290.2L128.2,290.2"></path>
<path class="st0 HkQnzMQA_12" d="M213.3,324.4L331.5,324.4"></path>
<path class="st0 HkQnzMQA_13" d="M496,307c0,0-26.5,0.4-26.5-16.8s0-8,0-8s-1-8.7,8.7-8.7s17.7,0,17.7,0"></path>
<style>.HkQnzMQA_0{stroke-dasharray:268 270;stroke-dashoffset:269;}.start .HkQnzMQA_0{animation:HkQnzMQA_draw 1000ms ease-in-out 0ms forwards;}.HkQnzMQA_1{stroke-dasharray:268 270;stroke-dashoffset:269;}.start .HkQnzMQA_1{animation:HkQnzMQA_draw 1000ms ease-in-out 0ms forwards;}.HkQnzMQA_2{stroke-dasharray:172 174;stroke-dashoffset:173;}.start .HkQnzMQA_2{animation:HkQnzMQA_draw 1000ms ease-in-out 0ms forwards;}.HkQnzMQA_3{stroke-dasharray:78 80;stroke-dashoffset:79;}.start .HkQnzMQA_3{animation:HkQnzMQA_draw 1000ms ease-in-out 0ms forwards;}.HkQnzMQA_4{stroke-dasharray:81 83;stroke-dashoffset:82;}.start .HkQnzMQA_4{animation:HkQnzMQA_draw 1000ms ease-in-out 0ms forwards;}.HkQnzMQA_5{stroke-dasharray:180 182;stroke-dashoffset:181;}.start .HkQnzMQA_5{animation:HkQnzMQA_draw 1000ms ease-in-out 0ms forwards;}.HkQnzMQA_6{stroke-dasharray:255 257;stroke-dashoffset:256;}.start .HkQnzMQA_6{animation:HkQnzMQA_draw 1000ms ease-in-out 0ms forwards;}.HkQnzMQA_7{stroke-dasharray:66 68;stroke-dashoffset:67;}.start .HkQnzMQA_7{animation:HkQnzMQA_draw 1000ms ease-in-out 0ms forwards;}.HkQnzMQA_8{stroke-dasharray:191 193;stroke-dashoffset:192;}.start .HkQnzMQA_8{animation:HkQnzMQA_draw 1000ms ease-in-out 0ms forwards;}.HkQnzMQA_9{stroke-dasharray:69 71;stroke-dashoffset:70;}.start .HkQnzMQA_9{animation:HkQnzMQA_draw 1000ms ease-in-out 0ms forwards;}.HkQnzMQA_10{stroke-dasharray:619 621;stroke-dashoffset:620;}.start .HkQnzMQA_10{animation:HkQnzMQA_draw 1000ms ease-in-out 0ms forwards;}.HkQnzMQA_11{stroke-dasharray:103 105;stroke-dashoffset:104;}.start .HkQnzMQA_11{animation:HkQnzMQA_draw 1000ms ease-in-out 0ms forwards;}.HkQnzMQA_12{stroke-dasharray:119 121;stroke-dashoffset:120;}.start .HkQnzMQA_12{animation:HkQnzMQA_draw 1000ms ease-in-out 0ms forwards;}.HkQnzMQA_13{stroke-dasharray:80 82;stroke-dashoffset:81;}.start .HkQnzMQA_13{animation:HkQnzMQA_draw 1000ms ease-in-out 0ms forwards;}@keyframes HkQnzMQA_draw{100%{stroke-dashoffset:0;}}@keyframes HkQnzMQA_fade{0%{stroke-opacity:1;}92.3076923076923%{stroke-opacity:1;}100%{stroke-opacity:0;}}</style></svg>
