<?xml version="1.0" encoding="utf-8"?>
<!-- Generator: Adobe Illustrator 20.1.0, SVG Export Plug-In . SVG Version: 6.00 Build 0)  -->
<svg version="1.1" id="deliver" xmlns="http://www.w3.org/2000/svg" xmlns:xlink="http://www.w3.org/1999/xlink" x="0px" y="0px"
	 width="512px" height="512px" viewBox="0 0 512 512" style="enable-background:new 0 0 512 512;" xml:space="preserve">
<style type="text/css">
	.st0{fill:none;stroke:#22313F;stroke-width:16;stroke-linecap:round;stroke-miterlimit:10;}
</style>
<circle class="st0" cx="144.6" cy="367" r="42.6"/>
<circle class="st0" cx="427" cy="367" r="42.6"/>
<polyline class="st0" points="152,213.5 194.5,256 274,177.5 "/>
<line class="st0" x1="6.5" y1="324.4" x2="84" y2="324.4"/>
<path class="st0" d="M41,326.5V347c0,0-1.5,11.3,11.3,11.3s41.3,0,41.3,0"/>
<line class="st0" x1="195.5" y1="358.3" x2="375.2" y2="358.3"/>
<path class="st0" d="M477.8,358.3H494c0,0,10.4,0.5,10.4-10.4s0-75.4,0-75.4s-10.5-34.4-34.4-34.4s-94.8,0-94.8,0"/>
<line class="st0" x1="469.5" y1="234.5" x2="453.2" y2="171.1"/>
<path class="st0" d="M375.2,168.5h84.3c0,0,2-32.5-22.5-32.5s-61.8,0-61.8,0"/>
<line class="st0" x1="366.5" y1="290.2" x2="366.5" y2="358.3"/>
<path class="st0" d="M366.5,256V119c0,0,2.5-16.5-16.5-16.5s-293,0-293,0s-14.3,1-14.3,14.3s0,139.3,0,139.3"/>
<line class="st0" x1="25.5" y1="290.2" x2="128.2" y2="290.2"/>
<line class="st0" x1="213.3" y1="324.4" x2="331.5" y2="324.4"/>
<path class="st0" d="M496,307c0,0-26.5,0.4-26.5-16.8s0-8,0-8s-1-8.7,8.7-8.7s17.7,0,17.7,0"/>
</svg>
