<svg xmlns="http://www.w3.org/2000/svg" viewBox="0 0 291.5 300" enable-background="new 0 0 291.5 300"><style type="text/css">.st0{fill:#FC5400;}</style><path class="st0" d="M150.9 25.3l69.6 36.2 10.4-18.1-80-43.4-80 47.3 11.4 16.9zM226.4 66.5c1.5-3.7-3.7 1.7-8.5 5s-15.2 18-16.9 23.9c-.4 1.6-.7 4.5-.8 8l-10.7-24.6s.4-1.7-5-.9c-5.4.7-55.9 2.8-55.9 2.8s-7 .7-10.2-10.6c0 0-6.7-2.6-13.9-2.2 0 0-4.1-1.7-3.7 5.7.4 7.4 4.6 50.9 4.6 50.9s-.2 6.1-2.8 1.9c-2.6-4.3-4.8-35-4.8-35s-1.1-1.1-2.2-.4c-.5.3-3.1 1.5-6 2.9l9.5-12-11.5-13.9-15.6 13.3 12.7 14.7c-2.2 1-3.8 1.7-3.8 1.7s-2 1.7-1.7 4c.4 2.2 2.6 5.6 2.6 10l1.5 18.5s.2 8.7 4.1 7.8l32.2-16.9s2.4-.4 2.6-6.5l-3.2-36.6s6.3 15.9 8.7 17c.7.3 5.6.3 12.5.2l-10.3 9.5 7.5 6.5c-.7 3.9-4.1 6.5-4.1 6.5s-29.1 14.3-33.7 20.3v14.2s13.7 27.4 16.1 29.6c2.4 2.2.6-2.4.6-2.4s-8.9-18.3-9.4-21.1c-.6-2.8-.4-5 3-8.5s27.2-13.7 29.6-15.6c2.4-1.9 2.2-2 2.8-8.5.3-3.2-.7-8-1.7-11.9 17.7 16.5 44.4 82.8 49.7 92.4 5.4 9.9 1 24 1 24h18.7c3.7-10.1 1.5-21.2 1.5-21.2-26.5-71.6-52.3-103.5-62.2-113.9 18.1-.4 41.1-1.4 41.1-1.4l9.9 15.1c0 9.2.5 19.8.7 22.9.2 5-2 5.7-6 10v1.9s14.1-11.6 16.1-14.1 3-3.7 2.5-17.8-.2-29.9 1.5-33.6c1.4-3.7 11.3-11.6 11.3-11.6zM150.1 199.6s6.1 7.2 8.1 10.7l3.9 3.3s10.2-6.9 12.2-8.9l1.1-7.2-11.7-15.1c2 3.4-.9 7.2-.9 7.2l-12.7 10zM121.8 194.1l10.7 15.5 14.8-11.5-10.5-14.6zM235.3 296.1l-36.2-28.4c12.4-8 22.8-14.2 22.8-14.2l-12-17-26.4 18.9-138.9-109.3c-7.3-3.8-1.1 1.6-1.1 1.6s81.5 64.8 137.9 109.3l-23.9 17.1-64.1-34.6-10.7 15.7c.5-2.8 73.9 40.6 74.8 45.1 2.4-6.2 22.3-20.1 39.3-31.2 20.7 16.3 35.5 27.8 37 28.7 5.5 3.3 1.5-1.7 1.5-1.7z"/></svg>