<?xml version="1.0" encoding="utf-8"?>
<svg version="1.1" id="text" xmlns="http://www.w3.org/2000/svg" x="0px" y="0px"
	 viewBox="0 0 840.3 38.5" style="enable-background:new 0 0 840.3 38.5;" xml:space="preserve">
<path d="M414,9.5c0,4.9-4,8.9-8.9,8.9h-8.4v12.4c0,0.3-0.2,0.4-0.4,0.4h-0.7c-0.3,0-0.4-0.2-0.4-0.4V1.1c0-0.3,0.2-0.4,0.4-0.4h9.6
	C410,0.7,414,4.7,414,9.5z M405.2,16.9c4,0,7.3-3.3,7.3-7.4s-3.3-7.4-7.3-7.4h-8.4v14.8H405.2z M436.7,30.2v0.6
	c0,0.3-0.2,0.4-0.4,0.4h-15.7c-0.3,0-0.4-0.2-0.4-0.4V1.1c0-0.3,0.2-0.4,0.4-0.4h15.5c0.3,0,0.4,0.2,0.4,0.4v0.6
	c0,0.3-0.2,0.4-0.4,0.4h-14.3V15H435c0.3,0,0.4,0.2,0.4,0.4V16c0,0.3-0.2,0.4-0.4,0.4h-13.2v13.2h14.5
	C436.6,29.7,436.7,29.9,436.7,30.2z M462.4,30.7c0.3,0.3,0.2,0.5-0.2,0.5h-1c-0.2,0-0.4,0-0.5-0.2l-16.1-15.1v14.8
	c0,0.3-0.2,0.4-0.4,0.4h-0.7c-0.3,0-0.4-0.2-0.4-0.4V1.1c0-0.3,0.2-0.4,0.4-0.4h0.7c0.3,0,0.4,0.2,0.4,0.4v14l15.7-14.2
	c0.2-0.2,0.3-0.2,0.5-0.2h1c0.4,0,0.5,0.3,0.2,0.5l-15.7,14.3L462.4,30.7z M464.7,31.3c-0.3,0-0.4-0.2-0.4-0.4v-0.6
	c0-0.3,0.2-0.4,0.4-0.4c3.8,0.2,6.3-2.6,6.3-11.1V1.1c0-0.3,0.2-0.4,0.4-0.4H487c0.3,0,0.4,0.2,0.4,0.4v29.7c0,0.3-0.2,0.4-0.4,0.4
	h-0.7c-0.3,0-0.4-0.2-0.4-0.4V2.2h-13.2v16.7C472.7,27.6,470,31.5,464.7,31.3L464.7,31.3z M517.5,31.2h-0.8c-0.2,0-0.4-0.1-0.5-0.3
	l-3-7.7h-16l-3,7.7c-0.1,0.2-0.3,0.3-0.5,0.3h-0.8c-0.3,0-0.5-0.2-0.3-0.5L504.2,1c0.1-0.2,0.3-0.3,0.5-0.3h1c0.2,0,0.4,0.1,0.5,0.3
	l11.6,29.7C518,31,517.8,31.2,517.5,31.2L517.5,31.2z M512.6,21.7l-7.4-19.1l-7.4,19.1H512.6z M550.4,1.1v29.7
	c0,0.3-0.2,0.4-0.4,0.4h-0.7c-0.3,0-0.4-0.2-0.4-0.4V3.2l-11.1,22.1c-0.1,0.2-0.3,0.3-0.5,0.3h-0.8c-0.2,0-0.4-0.1-0.5-0.3
	L524.6,3.2v27.6c0,0.3-0.2,0.4-0.4,0.4h-0.7c-0.3,0-0.4-0.2-0.4-0.4V1.1c0-0.3,0.2-0.4,0.4-0.4h1.2c0.2,0,0.4,0.1,0.5,0.3l11.5,22.8
	L548.2,1c0.1-0.2,0.3-0.3,0.5-0.3h1.3C550.2,0.7,550.4,0.8,550.4,1.1L550.4,1.1z M578.1,1.1v29.7c0,0.3-0.2,0.4-0.4,0.4H577
	c-0.3,0-0.4-0.2-0.4-0.4V16.3h-16.4v14.5c0,0.3-0.2,0.4-0.4,0.4h-0.7c-0.3,0-0.4-0.2-0.4-0.4V1.1c0-0.3,0.2-0.4,0.4-0.4h0.7
	c0.3,0,0.4,0.2,0.4,0.4v13.7h16.4V1.1c0-0.3,0.2-0.4,0.4-0.4h0.7C578,0.7,578.1,0.8,578.1,1.1z M586.3,30.8V1.1
	c0-0.3,0.2-0.4,0.4-0.4h0.7c0.3,0,0.4,0.2,0.4,0.4v12.4h8.4c4.9,0,8.9,4,8.9,8.9s-4,8.9-8.9,8.9h-9.6
	C586.5,31.2,586.3,31.1,586.3,30.8L586.3,30.8z M596.3,29.7c4,0,7.3-3.3,7.3-7.4s-3.3-7.4-7.3-7.4h-8.4v14.8H596.3z M608.9,30.8V1.1
	c0-0.3,0.2-0.4,0.4-0.4h0.7c0.3,0,0.4,0.2,0.4,0.4v29.7c0,0.3-0.2,0.4-0.4,0.4h-0.7C609.1,31.2,608.9,31.1,608.9,30.8z M635.3,30.2
	v0.6c0,0.3-0.2,0.4-0.4,0.4h-15.7c-0.3,0-0.4-0.2-0.4-0.4V1.1c0-0.3,0.2-0.4,0.4-0.4h15.5c0.3,0,0.4,0.2,0.4,0.4v0.6
	c0,0.3-0.2,0.4-0.4,0.4h-14.3V15h13.2c0.3,0,0.4,0.2,0.4,0.4V16c0,0.3-0.2,0.4-0.4,0.4h-13.2v13.2h14.5
	C635.1,29.7,635.3,29.9,635.3,30.2z M672.6,9.5c0,4.9-4,8.9-8.9,8.9h-8.4v12.4c0,0.3-0.2,0.4-0.4,0.4h-0.7c-0.3,0-0.4-0.2-0.4-0.4
	V1.1c0-0.3,0.2-0.4,0.4-0.4h9.6C668.6,0.7,672.6,4.7,672.6,9.5L672.6,9.5z M663.8,16.9c4,0,7.3-3.3,7.3-7.4s-3.3-7.4-7.3-7.4h-8.4
	v14.8H663.8z M695.3,30.2v0.6c0,0.3-0.2,0.4-0.4,0.4h-15.7c-0.3,0-0.4-0.2-0.4-0.4V1.1c0-0.3,0.2-0.4,0.4-0.4h15.5
	c0.3,0,0.4,0.2,0.4,0.4v0.6c0,0.3-0.2,0.4-0.4,0.4h-14.3V15h13.2c0.3,0,0.4,0.2,0.4,0.4V16c0,0.3-0.2,0.4-0.4,0.4h-13.2v13.2h14.5
	C695.2,29.7,695.3,29.9,695.3,30.2z M732.4,0.7h0.7c0.3,0,0.4,0.2,0.4,0.4v29.7c0,0.3-0.2,0.4-0.4,0.4h-31.3c-0.3,0-0.4-0.2-0.4-0.4
	V1.1c0-0.3,0.2-0.4,0.4-0.4h0.7c0.3,0,0.4,0.2,0.4,0.4v28.6h13.7V1.1c0-0.3,0.2-0.4,0.4-0.4h0.7c0.3,0,0.4,0.2,0.4,0.4v28.6H732V1.1
	C732,0.8,732.1,0.7,732.4,0.7L732.4,0.7z M758.3,30.2v0.6c0,0.3-0.2,0.4-0.4,0.4h-15.7c-0.3,0-0.4-0.2-0.4-0.4V1.1
	c0-0.3,0.2-0.4,0.4-0.4h15.5c0.3,0,0.4,0.2,0.4,0.4v0.6c0,0.3-0.2,0.4-0.4,0.4h-14.3V15h13.2c0.3,0,0.4,0.2,0.4,0.4V16
	c0,0.3-0.2,0.4-0.4,0.4h-13.2v13.2h14.5C758.1,29.7,758.3,29.9,758.3,30.2z M784,1.1v29.7c0,0.3-0.2,0.4-0.4,0.4h-0.7
	c-0.3,0-0.4-0.2-0.4-0.4V16.3H766v14.5c0,0.3-0.2,0.4-0.4,0.4h-0.7c-0.3,0-0.4-0.2-0.4-0.4V1.1c0-0.3,0.2-0.4,0.4-0.4h0.7
	c0.3,0,0.4,0.2,0.4,0.4v13.7h16.4V1.1c0-0.3,0.2-0.4,0.4-0.4h0.7C783.9,0.7,784,0.8,784,1.1z M810,3.8l-16.1,27.1
	c-0.1,0.2-0.3,0.3-0.5,0.3h-0.7c-0.3,0-0.4-0.2-0.4-0.4V1.1c0-0.3,0.2-0.4,0.4-0.4h0.7c0.3,0,0.4,0.2,0.4,0.4v27L809.9,1
	c0.1-0.2,0.3-0.3,0.5-0.3h0.7c0.3,0,0.4,0.2,0.4,0.4v29.7c0,0.3-0.2,0.4-0.4,0.4h-0.7c-0.3,0-0.4-0.2-0.4-0.4
	C810,30.8,810,3.8,810,3.8z M838.3,1.1v29.7c0,0.3-0.2,0.4-0.4,0.4h-0.7c-0.3,0-0.4-0.2-0.4-0.4V18.4h-6.4L819.3,31
	c-0.2,0.2-0.3,0.2-0.5,0.2h-0.9c-0.4,0-0.5-0.3-0.2-0.5l10.8-12.3h-0.1c-4.9,0-8.9-4-8.9-8.9s4-8.9,8.9-8.9h9.6
	C838.2,0.7,838.3,0.8,838.3,1.1L838.3,1.1z M836.7,16.9V2.2h-8.4c-4,0-7.3,3.3-7.3,7.4s3.3,7.4,7.3,7.4h8.4V16.9z M19.8,3.5
	L3.6,30.6c-0.1,0.2-0.3,0.3-0.5,0.3H2.4c-0.3,0-0.4-0.2-0.4-0.4V0.8c0-0.3,0.2-0.4,0.4-0.4h0.7c0.3,0,0.4,0.2,0.4,0.4v27L19.7,0.6
	c0.1-0.2,0.3-0.3,0.5-0.3h0.7c0.3,0,0.4,0.2,0.4,0.4v29.7c0,0.3-0.2,0.4-0.4,0.4h-0.7c-0.3,0-0.4-0.2-0.4-0.4V3.5z M49.1,0.8v29.7
	c0,0.3-0.2,0.4-0.4,0.4H48c-0.3,0-0.4-0.2-0.4-0.4V15.9H31.1v14.5c0,0.3-0.2,0.4-0.4,0.4H30c-0.3,0-0.4-0.2-0.4-0.4V0.8
	c0-0.3,0.2-0.4,0.4-0.4h0.7c0.3,0,0.4,0.2,0.4,0.4v13.7h16.4V0.8c0-0.3,0.2-0.4,0.4-0.4h0.7C49,0.4,49.1,0.5,49.1,0.8z M76.9,0.8
	v29.7c0,0.3-0.2,0.4-0.4,0.4h-0.7c-0.3,0-0.4-0.2-0.4-0.4V15.9H58.9v14.5c0,0.3-0.2,0.4-0.4,0.4h-0.7c-0.3,0-0.4-0.2-0.4-0.4V0.8
	c0-0.3,0.2-0.4,0.4-0.4h0.7c0.3,0,0.4,0.2,0.4,0.4v13.7h16.4V0.8c0-0.3,0.2-0.4,0.4-0.4h0.7C76.8,0.4,76.9,0.5,76.9,0.8z
	 M145.3,20.9c0,5.5-4.1,10-9.6,10h-13.9c-0.3,0-0.4-0.2-0.4-0.4V0.8c0-0.3,0.2-0.4,0.4-0.4H133c4.3,0,7.3,3.1,7.3,6.9
	c0,1.5-0.5,3-1.4,4.1C142.7,12.7,145.3,16.4,145.3,20.9z M122.9,1.8v9h12.8c0.5,0,1,0,1.4,0.1c0.9-1,1.5-2.3,1.5-3.7
	c0-3-2.3-5.4-5.7-5.4C132.9,1.8,122.9,1.8,122.9,1.8z M143.7,20.9c0-4.7-3.3-8.6-8.1-8.6h-12.7v17.1h12.6
	C140.3,29.4,143.7,25.6,143.7,20.9z M172.4,30.4c0.1,0.3,0,0.5-0.3,0.5h-0.8c-0.2,0-0.4-0.1-0.5-0.3l-3-7.7h-16l-3,7.7
	c-0.1,0.2-0.3,0.3-0.5,0.3h-0.8c-0.3,0-0.5-0.2-0.3-0.5l11.6-29.7c0.1-0.2,0.3-0.3,0.5-0.3h1c0.2,0,0.4,0.1,0.5,0.3L172.4,30.4z
	 M167.2,21.4l-7.4-19.1l-7.4,19.1H167.2L167.2,21.4z M199.9,29.4c0.3,0,0.4,0.2,0.4,0.4v6.9c0,0.3-0.2,0.4-0.4,0.4h-0.7
	c-0.3,0-0.4-0.2-0.4-0.4v-5.8H178c-0.3,0-0.4-0.2-0.4-0.4V0.8c0-0.3,0.2-0.4,0.4-0.4h0.7c0.3,0,0.4,0.2,0.4,0.4v28.6h16.4V0.8
	c0-0.3,0.2-0.4,0.4-0.4h0.7c0.3,0,0.4,0.2,0.4,0.4v28.6H199.9L199.9,29.4z M223.8,3.5l-16.1,27.1c-0.1,0.2-0.3,0.3-0.5,0.3h-0.7
	c-0.3,0-0.4-0.2-0.4-0.4V0.8c0-0.3,0.2-0.4,0.4-0.4h0.7c0.3,0,0.4,0.2,0.4,0.4v27l16.1-27.1c0.1-0.2,0.3-0.3,0.5-0.3h0.7
	c0.3,0,0.4,0.2,0.4,0.4v29.7c0,0.3-0.2,0.4-0.4,0.4h-0.7c-0.3,0-0.4-0.2-0.4-0.4V3.5z M289.4,0.8v29.7c0,0.3-0.2,0.4-0.4,0.4h-0.7
	c-0.3,0-0.4-0.2-0.4-0.4V15.9h-16.4v14.5c0,0.3-0.2,0.4-0.4,0.4h-0.7c-0.3,0-0.4-0.2-0.4-0.4V0.8c0-0.3,0.2-0.4,0.4-0.4h0.7
	c0.3,0,0.4,0.2,0.4,0.4v13.7h16.4V0.8c0-0.3,0.2-0.4,0.4-0.4h0.7C289.2,0.4,289.4,0.5,289.4,0.8z M317.2,0.8v29.7
	c0,0.3-0.2,0.4-0.4,0.4H316c-0.3,0-0.4-0.2-0.4-0.4V15.9h-16.4v14.5c0,0.3-0.2,0.4-0.4,0.4H298c-0.3,0-0.4-0.2-0.4-0.4V0.8
	c0-0.3,0.2-0.4,0.4-0.4h0.7c0.3,0,0.4,0.2,0.4,0.4v13.7h16.4V0.8c0-0.3,0.2-0.4,0.4-0.4h0.7C317,0.4,317.2,0.5,317.2,0.8L317.2,0.8z
	 M325.3,30.5V0.8c0-0.3,0.2-0.4,0.4-0.4h0.7c0.3,0,0.4,0.2,0.4,0.4v12.4h8.4c4.9,0,8.9,4,8.9,8.9s-4,8.9-8.9,8.9h-9.6
	C325.5,30.9,325.3,30.7,325.3,30.5z M335.4,29.4c4,0,7.3-3.3,7.3-7.4s-3.3-7.4-7.3-7.4H327v14.8H335.4z M348,30.5V0.8
	c0-0.3,0.2-0.4,0.4-0.4h0.7c0.3,0,0.4,0.2,0.4,0.4v29.7c0,0.3-0.2,0.4-0.4,0.4h-0.7C348.1,30.9,348,30.7,348,30.5z M374.3,29.9v0.6
	c0,0.3-0.2,0.4-0.4,0.4h-15.7c-0.3,0-0.4-0.2-0.4-0.4V0.8c0-0.3,0.2-0.4,0.4-0.4h15.5c0.3,0,0.4,0.2,0.4,0.4v0.6
	c0,0.3-0.2,0.4-0.4,0.4h-14.3v12.9h13.2c0.3,0,0.4,0.2,0.4,0.4v0.6c0,0.3-0.2,0.4-0.4,0.4h-13.2v13.2h14.5
	C374.1,29.4,374.3,29.6,374.3,29.9z M96.8,4c0.2,0.1,0.5,0.1,0.8,0l3.9-2.5c0.4-0.2,0.5-0.7,0.2-1.1c-0.2-0.4-0.7-0.5-1.1-0.2
	l-2.8,1.7V0.8C97.8,0.4,97.5,0,97,0c-0.1,0-0.2,0-0.3,0.1C89,1.2,83.2,7.7,83.2,15.7c0,7.2,4.8,13.3,11.5,15.2
	c0.4,0.1,0.9-0.2,0.9-0.6s-0.3-0.8-0.7-0.9c-5.7-1.9-9.9-7.3-9.9-13.8C85,8.7,89.8,3,96.4,1.7v1.6C96.4,3.6,96.5,3.8,96.8,4z
	 M102.5,1.1c0,0.4,0.3,0.8,0.7,0.9c5.9,1.7,10.1,7.2,10.1,13.6c0,6.9-4.9,12.7-11.4,13.9V28c0-0.3-0.2-0.5-0.4-0.7
	c-0.2-0.1-0.5-0.1-0.8,0l-3.9,2.5c-0.4,0.2-0.5,0.7-0.2,1.1c0.2,0.4,0.7,0.5,1.1,0.2l2.8-1.7v1.1c0,0.4,0.3,0.8,0.8,0.8h0.2
	c7.7-1.1,13.6-7.6,13.6-15.6c0-7.2-4.8-13.3-11.5-15.2C102.9,0.4,102.5,0.7,102.5,1.1z M103.7,35.1h-9.2c-0.4,0-0.8-0.3-0.8-0.8
	c0-0.4,0.3-0.8,0.8-0.8h9.2c0.4,0,0.8,0.3,0.8,0.8C104.5,34.7,104.2,35.1,103.7,35.1z M101,38.3h-3.8c-0.4,0-0.8-0.3-0.8-0.8
	s0.3-0.8,0.8-0.8h3.8c0.4,0,0.8,0.3,0.8,0.8S101.5,38.3,101,38.3z M245.2,4.1c0.2,0.1,0.5,0.1,0.8,0l3.9-2.5
	c0.4-0.2,0.5-0.7,0.2-1.1c-0.2-0.4-0.7-0.5-1.1-0.2L246.4,2V0.9c0-0.4-0.3-0.8-0.8-0.8c-0.1,0-0.2,0-0.3,0.1
	c-7.7,1.1-13.5,7.6-13.5,15.6c0,7.2,4.8,13.3,11.5,15.2c0.4,0.1,0.9-0.2,0.9-0.6s-0.3-0.8-0.7-0.9c-5.9-1.7-10.1-7.2-10.1-13.6
	c0-6.9,4.9-12.6,11.4-13.9v1.6C244.8,3.7,245,3.9,245.2,4.1L245.2,4.1z M251,1.3c0,0.4,0.3,0.8,0.7,0.9c5.9,1.7,10.1,7.2,10.1,13.6
	c0,6.9-4.9,12.7-11.4,13.9v-1.6c0-0.3-0.2-0.5-0.4-0.7c-0.2-0.1-0.5-0.1-0.8,0l-3.9,2.5c-0.4,0.2-0.5,0.7-0.2,1.1
	c0.2,0.4,0.7,0.5,1.1,0.2l2.8-1.7v1.1c0,0.4,0.3,0.8,0.8,0.8h0.2c7.7-1.1,13.6-7.6,13.6-15.6c0-7.2-4.8-13.3-11.5-15.2
	C251.4,0.5,251,0.8,251,1.3L251,1.3z M252.2,35.2H243c-0.4,0-0.8-0.3-0.8-0.8c0-0.4,0.3-0.8,0.8-0.8h9.2c0.4,0,0.8,0.3,0.8,0.8
	C253,34.8,252.6,35.2,252.2,35.2z M249.5,38.5h-3.8c-0.4,0-0.8-0.3-0.8-0.8c0-0.4,0.3-0.8,0.8-0.8h3.8c0.4,0,0.8,0.3,0.8,0.8
	C250.3,38.1,249.9,38.5,249.5,38.5z"/>
</svg>
