<svg id="logo" xmlns="http://www.w3.org/2000/svg" viewBox="0 0 203.8 256" enable-background="new 0 0 203.8 256"><path d="M75.3 201.4c-.2 0-.3 0-.5-.1-20.9-5.8-39.7-18.4-52.9-35.6-13.7-17.7-20.9-38.9-20.9-61.4 0-24.4 8.8-48 24.7-66.2s37.7-30.1 61.5-33.6l.4-.1.3-.1c.3-.1.7-.2 1-.2 1.4 0 2.4 1.1 2.4 2.4v12l22.1-13.8c.4-.3.9-.4 1.3-.4.9 0 1.7.4 2.1 1.2.4.6.5 1.3.3 1.9-.2.7-.6 1.2-1.1 1.6l-25.9 16.1c-.4.3-.9.4-1.3.4s-.9-.1-1.2-.3c-.8-.4-1.3-1.3-1.3-2.2v-13.5l-3.1.6c-44.7 8.7-77 48.3-77 94.1 0 42.9 27.3 79.9 68.1 92.1 1.6.5 2.6 1.9 2.6 3.4.2 1-.8 1.7-1.6 1.7zm39.4 2.8c-1.4 0-2.4-1.1-2.4-2.4v-12l-22.1 13.8c-.4.3-.9.4-1.3.4-.9 0-1.7-.4-2.1-1.2-.4-.6-.5-1.3-.3-1.9.2-.7.6-1.2 1.1-1.6l26-16.2c.4-.3.9-.4 1.3-.4s.9.1 1.2.3c.8.4 1.3 1.3 1.3 2.2v13.6l3.1-.6c44.6-8.7 77-48.3 77-94.1 0-42.9-27.4-79.9-68.2-92.1-1.5-.5-2.4-1.8-2.4-3.1 0-1.2 1-1.9 2-1.9.2 0 .4 0 .6.1 20.8 5.8 39.5 18.4 52.7 35.7 13.6 17.7 20.8 38.9 20.8 61.4 0 24.6-8.8 48.2-24.9 66.5-15.3 17.4-36.1 29-59 32.8v-.5l-3.3.9-.3.1c-.5.2-.7.2-.8.2zm-43.3 25.1c-1.4 0-2.4-1.1-2.4-2.4 0-1.4 1.1-2.4 2.4-2.4h60.7c1.4 0 2.4 1.1 2.4 2.4 0 1.4-1.1 2.4-2.4 2.4h-60.7zm17.8 21.5c-1.4 0-2.4-1.1-2.4-2.4 0-1.4 1.1-2.4 2.4-2.4h25.3c1.4 0 2.4 1.1 2.4 2.4 0 1.4-1.1 2.4-2.4 2.4h-25.3zm-34.3-138.9c-.7-1.1-.4-2.4.5-3l22.3-12.9c.9-.5 2.3-.1 2.8 1.1.6 1.2.4 2.4-.5 3l-22.3 12.9c-.9.6-2.1.1-2.8-1.1zm52.4-16.1h-18c-1.5 0-2.6 1.2-2.6 2.6 0 1.5 1.2 2.6 2.6 2.6h18c1.9 0 3.3 1.5 3.3 3.3 0 1.9-1.5 3.3-3.3 3.3h-18c-1.5 0-2.6 1.2-2.6 2.6 0 1.5 1.2 2.6 2.6 2.6h18c4.7 0 8.6-3.8 8.6-8.6 0-4.6-3.8-8.4-8.6-8.4zm33.2-.7h-18c-1.5 0-2.6 1.2-2.6 2.6 0 1.5 1.2 2.6 2.6 2.6h18c1.9 0 3.3 1.5 3.3 3.3 0 1.9-1.5 3.3-3.3 3.3h-18c-1.5 0-2.6 1.2-2.6 2.6 0 1.5 1.2 2.6 2.6 2.6h18c4.7 0 8.6-3.8 8.6-8.6 0-4.5-3.9-8.4-8.6-8.4z"/></svg>