<!--?xml version="1.0" encoding="utf-8"?-->
<!-- Generator: Adobe Illustrator 20.1.0, SVG Export Plug-In . SVG Version: 6.00 Build 0)  -->
<svg version="1.1" id="Capa_1" xmlns="http://www.w3.org/2000/svg" x="0px" y="0px" viewBox="0 0 512 512" style="" xml:space="preserve" class="">
<style type="text/css">
	.st0{fill:none;stroke:#ffffff;stroke-width:25;stroke-linecap:round;stroke-linejoin:round;stroke-miterlimit:10;}
</style>
<g>
	<path class="st0 exieUooX_0" d="M298.7,244.7c0,0-58,29.8-104-11.5S168,127.3,178,116c0,0,22.7-42,78-42s81.2,52,81.2,52s21.5,58.7-5.9,64
		c-27.3,5.3-42,1.3-47.3-13.3c-5.3-14.7-1.3-40-28-40c-18.7,0-29.6,13.9-29.6,29.6S237.3,197,252,197c14.7,0,23.3-6.3,25.3-12.3"></path>
	<path class="st0 exieUooX_1" d="M406.7,226.7L406.7,17.3L108,17.3L108,226.7"></path>
	<path class="st0 exieUooX_2" d="M94.7,150L46.8,197.8L196.3,347.3L318,347.3L444.4,473.7"></path>
	<path class="st0 exieUooX_3" d="M326,338.7L465,199.7L421.5,156.2"></path>
	<path class="st0 exieUooX_4" d="M465,214v259.7c0,0-2.9,26-26,26c-23,0-368.4,0-368.4,0s-24.9-6.8-24.9-24.9c0-18.1,0-260.8,0-260.8"></path>
	<path class="st0 exieUooX_5" d="M67.2,477.3L187.5,357"></path>
</g>
<style>.exieUooX_0{stroke-dasharray:734 736;stroke-dashoffset:735;}.start .exieUooX_0{animation:exieUooX_draw 1000ms ease-in-out 0ms forwards;}.exieUooX_1{stroke-dasharray:718 720;stroke-dashoffset:719;}.start .exieUooX_1{animation:exieUooX_draw 1000ms ease-in-out 0ms forwards;}.exieUooX_2{stroke-dasharray:580 582;stroke-dashoffset:581;}.start .exieUooX_2{animation:exieUooX_draw 1000ms ease-in-out 0ms forwards;}.exieUooX_3{stroke-dasharray:259 261;stroke-dashoffset:260;}.start .exieUooX_3{animation:exieUooX_draw 1000ms ease-in-out 0ms forwards;}.exieUooX_4{stroke-dasharray:967 969;stroke-dashoffset:968;}.start .exieUooX_4{animation:exieUooX_draw 1000ms ease-in-out 0ms forwards;}.exieUooX_5{stroke-dasharray:171 173;stroke-dashoffset:172;}.start .exieUooX_5{animation:exieUooX_draw 1000ms ease-in-out 0ms forwards;}@keyframes exieUooX_draw{100%{stroke-dashoffset:0;}}@keyframes exieUooX_fade{0%{stroke-opacity:1;}92.3076923076923%{stroke-opacity:1;}100%{stroke-opacity:0;}}</style></svg>
