<?xml version="1.0" encoding="utf-8"?>
<!-- Generator: Adobe Illustrator 20.1.0, SVG Export Plug-In . SVG Version: 6.00 Build 0)  -->
<svg version="1.1" id="Capa_1" xmlns="http://www.w3.org/2000/svg" xmlns:xlink="http://www.w3.org/1999/xlink" x="0px" y="0px"
	 viewBox="0 0 512 512" style="enable-background:new 0 0 512 512;" xml:space="preserve">
<style type="text/css">
	.st0{fill:none;stroke:#9E0202;stroke-width:25;stroke-linecap:round;stroke-linejoin:round;stroke-miterlimit:10;}
</style>
<g>
	<path class="st0" d="M298.7,244.7c0,0-58,29.8-104-11.5S168,127.3,178,116c0,0,22.7-42,78-42s81.2,52,81.2,52s21.5,58.7-5.9,64
		c-27.3,5.3-42,1.3-47.3-13.3c-5.3-14.7-1.3-40-28-40c-18.7,0-29.6,13.9-29.6,29.6S237.3,197,252,197c14.7,0,23.3-6.3,25.3-12.3"/>
	<polyline class="st0" points="406.7,226.7 406.7,17.3 108,17.3 108,226.7 	"/>
	<polyline class="st0" points="94.7,150 46.8,197.8 196.3,347.3 318,347.3 444.4,473.7 	"/>
	<polyline class="st0" points="326,338.7 465,199.7 421.5,156.2 	"/>
	<path class="st0" d="M465,214v259.7c0,0-2.9,26-26,26c-23,0-368.4,0-368.4,0s-24.9-6.8-24.9-24.9c0-18.1,0-260.8,0-260.8"/>
	<line class="st0" x1="67.2" y1="477.3" x2="187.5" y2="357"/>
</g>
</svg>
