<?xml version="1.0" encoding="utf-8"?>
<!-- Generator: Adobe Illustrator 20.1.0, SVG Export Plug-In . SVG Version: 6.00 Build 0)  -->
<svg version="1.1" id="Layer_1" xmlns="http://www.w3.org/2000/svg" xmlns:xlink="http://www.w3.org/1999/xlink" x="0px" y="0px"
	 width="512px" height="512px" viewBox="0 0 512 512" style="enable-background:new 0 0 512 512;" xml:space="preserve">
<style type="text/css">
	.st0{fill:none;stroke:#22313F;stroke-width:17;stroke-linecap:round;stroke-linejoin:round;stroke-miterlimit:10;}
</style>
<g>
	<path class="st0" d="M154.5,385.5c-36,0-110,39.5-125.5,47s-22.3,29-22.3,29s0,12,0,26.8S22.5,504,22.5,504h468
		c0,0,12.5-0.6,12.5-9.1s0-30.9,0-30.9s-0.5-17-14-26.5s-104.3-52-130-52"/>
	<polyline class="st0" points="296.5,494.9 287.9,459.5 256,385.5 223.9,459.5 215,494.9 	"/>
	<polyline class="st0" points="352.5,342 359,368 296.5,452.3 	"/>
	<line class="st0" x1="276.5" y1="460" x2="235.2" y2="460"/>
	<polyline class="st0" points="215,452.3 154.5,366.5 159.5,342 	"/>
	<path class="st0" d="M265,325c0,0,87.3-0.1,116.5-18.5s27.7-40,27.7-40"/>
	<path class="st0" d="M383.5,239.5c0,0,0.7,16.5,17.1,16.5s19.4,0,19.4,0s14-2,14-16.5s0-66,0-66s-3.5-18-12.5-18s-20.6,0-20.6,0
		s-17.4,0.5-17.4,12.5s0,74,0,74"/>
	<path class="st0" d="M409.2,144.5c0,0,2.8-69.5-58.2-113S204,3,157.5,34.5c-26.7,18.1-53.6,47-55.5,110"/>
	<path class="st0" d="M77,171c0,0,2.5-15.5,13.5-15.5s20.6,0,20.6,0S126,156,126,171s0,75.6,0,75.6s-5.9,11.4-14.9,11.4
		s-21.6,0-21.6,0S77,253.5,77,242.5S77,171,77,171z"/>
	<path class="st0" d="M129.5,149.2c0,0,2-47.2,55.3-86.7s128.3-13.5,143,0s44.3,33.4,55.8,86.7"/>
	<path class="st0" d="M378.9,260.6c0,0,0.1,18.9-11.9,44.9"/>
	<path class="st0" d="M349,329.5c0,0-30.5,48.5-80,56"/>
	<path class="st0" d="M243,385.5c-56.8-16.4-94.7-58-113.5-124.9"/>
</g>
</svg>
