<!--?xml version="1.0" encoding="utf-8"?-->
<!-- Generator: Adobe Illustrator 20.1.0, SVG Export Plug-In . SVG Version: 6.00 Build 0)  -->
<svg version="1.1" id="operator" xmlns="http://www.w3.org/2000/svg" x="0px" y="0px" viewBox="0 0 512 512" style="" xml:space="preserve" class="">
<style type="text/css">
	.st0{fill:none;stroke:#ffffff;stroke-width:17;stroke-linecap:round;stroke-linejoin:round;stroke-miterlimit:10;}
</style>
<g>
	<path class="st0 EZsgdAaE_0" d="M154.5,385.5c-36,0-110,39.5-125.5,47s-22.3,29-22.3,29s0,12,0,26.8S22.5,504,22.5,504h468
		c0,0,12.5-0.6,12.5-9.1s0-30.9,0-30.9s-0.5-17-14-26.5s-104.3-52-130-52"></path>
	<path class="st0 EZsgdAaE_1" d="M296.5,494.9L287.9,459.5L256,385.5L223.9,459.5L215,494.9"></path>
	<path class="st0 EZsgdAaE_2" d="M352.5,342L359,368L296.5,452.3"></path>
	<path class="st0 EZsgdAaE_3" d="M276.5,460L235.2,460"></path>
	<path class="st0 EZsgdAaE_4" d="M215,452.3L154.5,366.5L159.5,342"></path>
	<path class="st0 EZsgdAaE_5" d="M265,325c0,0,87.3-0.1,116.5-18.5s27.7-40,27.7-40"></path>
	<path class="st0 EZsgdAaE_6" d="M383.5,239.5c0,0,0.7,16.5,17.1,16.5s19.4,0,19.4,0s14-2,14-16.5s0-66,0-66s-3.5-18-12.5-18s-20.6,0-20.6,0
		s-17.4,0.5-17.4,12.5s0,74,0,74"></path>
	<path class="st0 EZsgdAaE_7" d="M409.2,144.5c0,0,2.8-69.5-58.2-113S204,3,157.5,34.5c-26.7,18.1-53.6,47-55.5,110"></path>
	<path class="st0 EZsgdAaE_8" d="M77,171c0,0,2.5-15.5,13.5-15.5s20.6,0,20.6,0S126,156,126,171s0,75.6,0,75.6s-5.9,11.4-14.9,11.4
		s-21.6,0-21.6,0S77,253.5,77,242.5S77,171,77,171z"></path>
	<path class="st0 EZsgdAaE_9" d="M129.5,149.2c0,0,2-47.2,55.3-86.7s128.3-13.5,143,0s44.3,33.4,55.8,86.7"></path>
	<path class="st0 EZsgdAaE_10" d="M378.9,260.6c0,0,0.1,18.9-11.9,44.9"></path>
	<path class="st0 EZsgdAaE_11" d="M349,329.5c0,0-30.5,48.5-80,56"></path>
	<path class="st0 EZsgdAaE_12" d="M243,385.5c-56.8-16.4-94.7-58-113.5-124.9"></path>
</g>
<style>.EZsgdAaE_0{stroke-dasharray:912 914;stroke-dashoffset:913;}.start .EZsgdAaE_0{animation:EZsgdAaE_draw 1000ms ease-in-out 0ms forwards;}.EZsgdAaE_1{stroke-dasharray:235 237;stroke-dashoffset:236;}.start .EZsgdAaE_1{animation:EZsgdAaE_draw 1000ms ease-in-out 0ms forwards;}.EZsgdAaE_2{stroke-dasharray:132 134;stroke-dashoffset:133;}.start .EZsgdAaE_2{animation:EZsgdAaE_draw 1000ms ease-in-out 0ms forwards;}.EZsgdAaE_3{stroke-dasharray:42 44;stroke-dashoffset:43;}.start .EZsgdAaE_3{animation:EZsgdAaE_draw 1000ms ease-in-out 0ms forwards;}.EZsgdAaE_4{stroke-dasharray:130 132;stroke-dashoffset:131;}.start .EZsgdAaE_4{animation:EZsgdAaE_draw 1000ms ease-in-out 0ms forwards;}.EZsgdAaE_5{stroke-dasharray:170 172;stroke-dashoffset:171;}.start .EZsgdAaE_5{animation:EZsgdAaE_draw 1000ms ease-in-out 0ms forwards;}.EZsgdAaE_6{stroke-dasharray:278 280;stroke-dashoffset:279;}.start .EZsgdAaE_6{animation:EZsgdAaE_draw 1000ms ease-in-out 0ms forwards;}.EZsgdAaE_7{stroke-dasharray:466 468;stroke-dashoffset:467;}.start .EZsgdAaE_7{animation:EZsgdAaE_draw 1000ms ease-in-out 0ms forwards;}.EZsgdAaE_8{stroke-dasharray:277 279;stroke-dashoffset:278;}.start .EZsgdAaE_8{animation:EZsgdAaE_draw 1000ms ease-in-out 0ms forwards;}.EZsgdAaE_9{stroke-dasharray:363 365;stroke-dashoffset:364;}.start .EZsgdAaE_9{animation:EZsgdAaE_draw 1000ms ease-in-out 0ms forwards;}.EZsgdAaE_10{stroke-dasharray:47 49;stroke-dashoffset:48;}.start .EZsgdAaE_10{animation:EZsgdAaE_draw 1000ms ease-in-out 0ms forwards;}.EZsgdAaE_11{stroke-dasharray:101 103;stroke-dashoffset:102;}.start .EZsgdAaE_11{animation:EZsgdAaE_draw 1000ms ease-in-out 0ms forwards;}.EZsgdAaE_12{stroke-dasharray:178 180;stroke-dashoffset:179;}.start .EZsgdAaE_12{animation:EZsgdAaE_draw 1000ms ease-in-out 0ms forwards;}@keyframes EZsgdAaE_draw{100%{stroke-dashoffset:0;}}@keyframes EZsgdAaE_fade{0%{stroke-opacity:1;}92.3076923076923%{stroke-opacity:1;}100%{stroke-opacity:0;}}</style></svg>
