<!--?xml version="1.0" encoding="utf-8"?-->
<!-- Generator: Adobe Illustrator 20.1.0, SVG Export Plug-In . SVG Version: 6.00 Build 0)  -->
  <svg version="1.1" id="service" xmlns="http://www.w3.org/2000/svg" x="0px" y="0px" viewBox="0 0 512 512" style="" xml:space="preserve" class="">
<style type="text/css">
	.st0{fill:none;stroke:#22313F;stroke-width:16;stroke-linecap:round;stroke-linejoin:round;stroke-miterlimit:10;}
</style>
<path class="st0 jOhIbjgm_0" d="M338.3,381.3l109.3,111.4c0,0,16.7,14.6,23.3,7.9c6.7-6.7,27.7-27.7,27.7-27.7s7.2-13.2,0-20.3
	c-7.2-7.2-113.8-113.8-113.8-113.8"></path>
<path class="st0 jOhIbjgm_1" d="M296.5,377.8c0,0-6.8-5.5,0-12.3s67.3-67.3,67.3-67.3s6.7-7.3,14,0s8.7,8.7,8.7,8.7l-6,29.5l-41.8,41.8
	l-30.2,8.3L296.5,377.8z"></path>
<path class="st0 jOhIbjgm_2" d="M313,336.5L81,104.5L52,104.5L9,34L33.3,9.8L102,51.5L106,81L338.2,313.2"></path>
<path class="st0 jOhIbjgm_3" d="M293.5,254l96.8-96.8c0,0,30.4-22.3,44.3-22.3S502,81,457,28.5c0,0-3.5-3-6.5,7.5S438,73,438,73
	s-16.5,20.5-33,12s-23.9-22.5-20.9-31.5S396,21.9,396,21.9s4.5-13.9-1-12.1S343.5,27,343.5,66s-1.6,63-12.8,76S256,219,256,219"></path>
<path class="st0 jOhIbjgm_4" d="M254,295l-71.5,73.5c0,0-16.5,19.7-16.5,52.1s0,38.9-7,49.4s-22.5,28.6-38.5,32.4c0,0-10,5.5-3.5-9.7
	s9.5-35.7,9.5-35.7s-1-21-16.5-27s-34-1.5-38,9.5s-11.5,37-11.5,37s-4.5,12-10.5,1s-14.5-34-10.5-53.5S63,384.5,73,380.5
	s33-13.5,40.5-21s103-105.5,103-105.5"></path>
<style>.jOhIbjgm_0{stroke-dasharray:405 407;stroke-dashoffset:406;}.start .jOhIbjgm_0{animation:jOhIbjgm_draw 1000ms ease-in-out 0ms forwards;}.jOhIbjgm_1{stroke-dasharray:273 275;stroke-dashoffset:274;}.start .jOhIbjgm_1{animation:jOhIbjgm_draw 1000ms ease-in-out 0ms forwards;}.jOhIbjgm_2{stroke-dasharray:913 915;stroke-dashoffset:914;}.start .jOhIbjgm_2{animation:jOhIbjgm_draw 1000ms ease-in-out 0ms forwards;}.jOhIbjgm_3{stroke-dasharray:759 761;stroke-dashoffset:760;}.start .jOhIbjgm_3{animation:jOhIbjgm_draw 1000ms ease-in-out 0ms forwards;}.jOhIbjgm_4{stroke-dasharray:749 751;stroke-dashoffset:750;}.start .jOhIbjgm_4{animation:jOhIbjgm_draw 1000ms ease-in-out 0ms forwards;}@keyframes jOhIbjgm_draw{100%{stroke-dashoffset:0;}}@keyframes jOhIbjgm_fade{0%{stroke-opacity:1;}92.3076923076923%{stroke-opacity:1;}100%{stroke-opacity:0;}}</style></svg>
