<?xml version="1.0" encoding="utf-8"?>
<!-- Generator: Adobe Illustrator 20.1.0, SVG Export Plug-In . SVG Version: 6.00 Build 0)  -->
<svg version="1.1" id="Слой_1" xmlns="http://www.w3.org/2000/svg" xmlns:xlink="http://www.w3.org/1999/xlink" x="0px" y="0px"
	 width="512px" height="512px" viewBox="0 0 512 512" style="enable-background:new 0 0 512 512;" xml:space="preserve">
<style type="text/css">
	.st0{fill:none;stroke:#22313F;stroke-width:16;stroke-linecap:round;stroke-linejoin:round;stroke-miterlimit:10;}
</style>
<path class="st0" d="M338.3,381.3l109.3,111.4c0,0,16.7,14.6,23.3,7.9c6.7-6.7,27.7-27.7,27.7-27.7s7.2-13.2,0-20.3
	c-7.2-7.2-113.8-113.8-113.8-113.8"/>
<path class="st0" d="M296.5,377.8c0,0-6.8-5.5,0-12.3s67.3-67.3,67.3-67.3s6.7-7.3,14,0s8.7,8.7,8.7,8.7l-6,29.5l-41.8,41.8
	l-30.2,8.3L296.5,377.8z"/>
<polyline class="st0" points="313,336.5 81,104.5 52,104.5 9,34 33.3,9.8 102,51.5 106,81 338.2,313.2 "/>
<path class="st0" d="M293.5,254l96.8-96.8c0,0,30.4-22.3,44.3-22.3S502,81,457,28.5c0,0-3.5-3-6.5,7.5S438,73,438,73
	s-16.5,20.5-33,12s-23.9-22.5-20.9-31.5S396,21.9,396,21.9s4.5-13.9-1-12.1S343.5,27,343.5,66s-1.6,63-12.8,76S256,219,256,219"/>
<path class="st0" d="M254,295l-71.5,73.5c0,0-16.5,19.7-16.5,52.1s0,38.9-7,49.4s-22.5,28.6-38.5,32.4c0,0-10,5.5-3.5-9.7
	s9.5-35.7,9.5-35.7s-1-21-16.5-27s-34-1.5-38,9.5s-11.5,37-11.5,37s-4.5,12-10.5,1s-14.5-34-10.5-53.5S63,384.5,73,380.5
	s33-13.5,40.5-21s103-105.5,103-105.5"/>
</svg>
