<!--?xml version="1.0" encoding="utf-8"?-->
<!-- Generator: Adobe Illustrator 20.1.0, SVG Export Plug-In . SVG Version: 6.00 Build 0)  -->
<svg version="1.1" id="setup" xmlns="http://www.w3.org/2000/svg" x="0px" y="0px" viewBox="0 0 480.3 480.3" style="" xml:space="preserve" class="">
<style type="text/css">
	.st0{fill:none;stroke:#ffffff;stroke-width:18;stroke-linecap:round;stroke-linejoin:round;stroke-miterlimit:10;}
	.st1{fill:none;stroke:#ffffff;stroke-width:18;stroke-linecap:round;stroke-linejoin:round;stroke-miterlimit:10;}
</style>
<path class="st0 KgisGCEn_0" d="M75.3,470L75.3,259.8"></path>
<path class="st0 KgisGCEn_1" d="M75.4,121.3L75.4,10"></path>
<path class="st1 KgisGCEn_2" d="M17.000000000000007,189.4A58.4,58.4 0,1,1 133.8,189.4A58.4,58.4 0,1,1 17.000000000000007,189.4"></path>
<path class="st0 KgisGCEn_3" d="M405,470L405,259.8"></path>
<path class="st0 KgisGCEn_4" d="M405,121.3L405,10"></path>
<path class="st1 KgisGCEn_5" d="M346.6,189.4A58.4,58.4 0,1,1 463.4,189.4A58.4,58.4 0,1,1 346.6,189.4"></path>
<path class="st0 KgisGCEn_6" d="M240.6,10L240.6,220.2"></path>
<path class="st0 KgisGCEn_7" d="M240.6,358.7L240.6,470"></path>
<path class="st1 KgisGCEn_8" d="M182.2,290.6A58.4,58.4 0,1,1 299,290.6A58.4,58.4 0,1,1 182.2,290.6"></path>
<style>.KgisGCEn_0{stroke-dasharray:211 213;stroke-dashoffset:212;}.start .KgisGCEn_0{animation:KgisGCEn_draw 1000ms ease-in-out 0ms forwards;}.KgisGCEn_1{stroke-dasharray:112 114;stroke-dashoffset:113;}.start .KgisGCEn_1{animation:KgisGCEn_draw 1000ms ease-in-out 0ms forwards;}.KgisGCEn_2{stroke-dasharray:367 369;stroke-dashoffset:368;}.start .KgisGCEn_2{animation:KgisGCEn_draw 1000ms ease-in-out 0ms forwards;}.KgisGCEn_3{stroke-dasharray:211 213;stroke-dashoffset:212;}.start .KgisGCEn_3{animation:KgisGCEn_draw 1000ms ease-in-out 0ms forwards;}.KgisGCEn_4{stroke-dasharray:112 114;stroke-dashoffset:113;}.start .KgisGCEn_4{animation:KgisGCEn_draw 1000ms ease-in-out 0ms forwards;}.KgisGCEn_5{stroke-dasharray:368 370;stroke-dashoffset:369;}.start .KgisGCEn_5{animation:KgisGCEn_draw 1000ms ease-in-out 0ms forwards;}.KgisGCEn_6{stroke-dasharray:211 213;stroke-dashoffset:212;}.start .KgisGCEn_6{animation:KgisGCEn_draw 1000ms ease-in-out 0ms forwards;}.KgisGCEn_7{stroke-dasharray:112 114;stroke-dashoffset:113;}.start .KgisGCEn_7{animation:KgisGCEn_draw 1000ms ease-in-out 0ms forwards;}.KgisGCEn_8{stroke-dasharray:367 369;stroke-dashoffset:368;}.start .KgisGCEn_8{animation:KgisGCEn_draw 1000ms ease-in-out 0ms forwards;}@keyframes KgisGCEn_draw{100%{stroke-dashoffset:0;}}@keyframes KgisGCEn_fade{0%{stroke-opacity:1;}92.3076923076923%{stroke-opacity:1;}100%{stroke-opacity:0;}}</style></svg>
